<svg width="21" height="26" viewBox="0 0 21 26" fill="none" xmlns="http://www.w3.org/2000/svg">
<path d="M15.7703 12.5464C15.4192 12.9886 15.0247 13.3968 14.5716 13.7652C17.1579 15.2487 18.9039 18.0378 18.9039 21.2271C18.9039 22.9504 15.1281 24.3004 10.308 24.3004C5.48786 24.3004 1.71206 22.9504 1.71206 21.2271C1.71206 18.0378 3.45809 15.2487 6.04438 13.7652C5.59135 13.3968 5.19685 12.9886 4.84565 12.5464C1.96551 14.3652 0.0483398 17.5763 0.0483398 21.2271C0.0483398 22.3331 0.653907 23.8744 3.539 24.9366C5.33863 25.5992 7.74258 25.9641 10.308 25.9641C12.8735 25.9641 15.2775 25.5992 17.0771 24.9366C19.9621 23.8744 20.5677 22.3331 20.5677 21.2271C20.5676 17.5763 18.6505 14.3652 15.7703 12.5464Z" fill="white"/>
<path d="M10.308 13.6426C13.5413 13.6426 16.0312 10.5171 16.0312 6.82133C16.0312 3.12381 13.5401 0 10.308 0C7.07457 0 4.58472 3.12546 4.58472 6.82127C4.58472 10.5188 7.07588 13.6426 10.308 13.6426Z" fill="white"/>
</svg>
