<svg width="15" height="18" viewBox="0 0 15 18" fill="none" xmlns="http://www.w3.org/2000/svg">
<path fill-rule="evenodd" clip-rule="evenodd" d="M12.9274 0H2.06089C0.924028 0 0 0.924028 0 2.06089V15.9251C0 17.0619 0.924028 17.9859 2.06089 17.9859H12.9274C14.0643 17.9859 14.9883 17.0619 14.9883 15.9251V2.06089C14.9883 0.924028 14.0643 0 12.9274 0ZM5.83045 14.029C6.05002 14.2486 6.05002 14.6046 5.83045 14.8242C5.72103 14.9336 5.57714 14.9883 5.43326 14.9883C5.28937 14.9883 5.14548 14.9336 5.03607 14.8234L4.49649 14.2846L3.95691 14.8242C3.84749 14.9336 3.70361 14.9883 3.55972 14.9883C3.41583 14.9883 3.27194 14.9336 3.16253 14.8234C2.94295 14.6038 2.94295 14.2479 3.16253 14.0283L3.70136 13.4895L3.16178 12.9499C2.9422 12.7303 2.9422 12.3743 3.16178 12.1548C3.38136 11.9352 3.73733 11.9352 3.95691 12.1548L4.49649 12.6943L5.03607 12.1548C5.25564 11.9352 5.61162 11.9352 5.83119 12.1548C6.05077 12.3743 6.05077 12.7303 5.83119 12.9499L5.29162 13.4895L5.83045 14.029ZM5.05855 9.55504H5.43326C5.74351 9.55504 5.99532 9.30323 5.99532 8.99297C5.99532 8.68272 5.74351 8.43091 5.43326 8.43091H5.05855V8.05621C5.05855 7.74595 4.80674 7.49415 4.49649 7.49415C4.18623 7.49415 3.93443 7.74595 3.93443 8.05621V8.43091H3.55972C3.24946 8.43091 2.99766 8.68272 2.99766 8.99297C2.99766 9.30323 3.24946 9.55504 3.55972 9.55504H3.93443V9.92974C3.93443 10.24 4.18623 10.4918 4.49649 10.4918C4.80674 10.4918 5.05855 10.24 5.05855 9.92974V9.55504ZM11.4286 14.9883H9.55504C9.24478 14.9883 8.99297 14.7365 8.99297 14.4262C8.99297 14.116 9.24478 13.8642 9.55504 13.8642H11.4286C11.7388 13.8642 11.9906 14.116 11.9906 14.4262C11.9906 14.7365 11.7388 14.9883 11.4286 14.9883ZM9.55504 13.1148H11.4286C11.7388 13.1148 11.9906 12.863 11.9906 12.5527C11.9906 12.2424 11.7388 11.9906 11.4286 11.9906H9.55504C9.24478 11.9906 8.99297 12.2424 8.99297 12.5527C8.99297 12.863 9.24478 13.1148 9.55504 13.1148ZM11.4286 9.74239H9.55504C9.24478 9.74239 8.99297 9.49059 8.99297 9.18033C8.99297 8.87007 9.24478 8.61827 9.55504 8.61827H11.4286C11.7388 8.61827 11.9906 8.87007 11.9906 9.18033C11.9906 9.49059 11.7388 9.74239 11.4286 9.74239ZM11.4286 5.99532C12.1518 5.99532 12.74 5.40703 12.74 4.68384V3.55972C12.74 2.83653 12.1518 2.24824 11.4286 2.24824H3.55972C2.83653 2.24824 2.24824 2.83653 2.24824 3.55972V4.68384C2.24824 5.40703 2.83653 5.99532 3.55972 5.99532H11.4286Z" fill="white"/>
</svg>
