<svg width="88" height="88" viewBox="0 0 88 88" fill="none" xmlns="http://www.w3.org/2000/svg">
<g filter="url(#filter0_d)">
<path fill-rule="evenodd" clip-rule="evenodd" d="M84 40C84 62.0914 66.0914 80 44 80C21.9086 80 4 62.0914 4 40C4 17.9086 21.9086 0 44 0C66.0914 0 84 17.9086 84 40ZM80 40C80 59.8823 63.8823 76 44 76C24.1177 76 8 59.8823 8 40C8 20.1177 24.1177 4 44 4C63.8823 4 80 20.1177 80 40ZM29.7498 38.6932C29.3313 38.3208 28.9422 37.9744 28.7971 38.1838C28.4843 38.6347 28.7247 39.0155 28.941 39.3581C29.0852 39.5866 29.2187 39.7981 29.1703 40.002C28.9235 41.0453 29.7118 41.3906 30.3216 41.6578C30.43 41.7052 30.5327 41.7502 30.623 41.7962C30.7446 41.8583 30.8774 41.9155 31.0116 41.9734C31.4269 42.1523 31.8566 42.3375 32.0177 42.6931C32.2177 43.1347 31.8619 43.9102 31.6739 44.0195C30.7864 44.5354 30.9613 45.1513 31.4023 45.735C31.8567 46.336 32.2486 46.8159 32.6176 47.2677C33.2524 48.0451 33.8192 48.7392 34.5191 49.8234C35.5048 50.2871 36.1525 52.0254 36.7188 53.5453C36.7838 53.7199 36.8478 53.8917 36.9111 54.0583C36.9346 56.3384 37.4352 56.686 39.7393 56.8614C39.8257 56.8679 39.9115 56.8734 39.9978 56.875C40.1029 56.8773 40.2056 56.8788 40.3061 56.8803C41.574 56.8992 42.4897 56.9129 43.2802 58.2932C43.3895 58.4834 44.1371 58.7048 44.377 58.7578C45.9111 59.095 46.9014 59.5218 47.9682 60.6531C50.4898 61.5587 51.427 62.5795 52.0588 65.511C52.9133 65.8908 53.07 66.543 53.1866 67.028C53.2794 67.4141 53.3467 67.6943 53.7202 67.6468C55.3244 67.4433 57.2626 67.2271 59.2209 67.0087C61.433 66.762 63.6708 66.5125 65.4817 66.275C66.8583 66.0947 66.9201 65.7056 66.2271 64.4874C65.8877 63.8906 65.7708 63.3337 65.7812 62.6358C65.7856 62.3377 65.9073 61.9973 66.0308 61.6513C66.1787 61.2374 66.3293 60.8157 66.2856 60.4492C66.2067 59.7926 66.5974 59.1146 66.9963 58.4224C67.2359 58.0067 67.4784 57.5859 67.624 57.1614C67.3735 56.5061 67.006 56.0713 66.6075 55.5998C66.3374 55.2802 66.053 54.9437 65.7812 54.5103C65.6726 54.337 65.5635 54.1272 65.4478 53.9048C65.1922 53.413 64.9046 52.8598 64.5204 52.5057C62.0771 50.2552 59.5768 47.9273 57.0538 45.5783C52.0365 40.907 46.9291 36.1518 42.0003 31.7535C41.2805 31.1114 41.0236 30.4753 41.0515 29.5292C41.1909 24.7904 41.4887 14.4521 41.4887 13.8526C38.4106 13.7279 35.138 13.5722 31.8965 13.4179C28.7267 13.267 25.5866 13.1175 22.6871 13C22.5433 13 22.4712 13.0902 22.4581 13.2131C22.4395 13.3809 22.4472 13.8985 22.5084 14.0466C23.4922 16.4037 22.3839 18.693 21.3601 20.8077L21.3367 20.8561C20.7967 21.9715 20.8765 22.3803 21.7815 23.3619C22.8111 24.4784 23.7364 26.3458 23.6238 28.0651C23.5129 29.7615 23.9452 31.9825 25.6503 32.9373C26.3666 33.3378 26.6183 34.157 26.8521 34.9181C26.9067 35.0959 26.9604 35.2705 27.0187 35.4359C27.3734 36.4404 28.6998 37.5701 29.0179 37.1148C29.1553 36.9182 29.2957 36.4634 29.4285 36.0332C29.603 35.4676 29.7645 34.9444 29.889 35.1059C29.9934 35.2412 29.9684 35.6168 29.9392 36.0565C29.9071 36.5397 29.8698 37.1004 29.9934 37.505C30.1508 38.0206 30.4214 38.4799 30.6185 38.8145C30.8244 39.1641 30.9501 39.3774 30.7826 39.3763C30.5151 39.3745 30.1209 39.0236 29.7498 38.6932Z" fill="#0066F5"/>
</g>
<defs>
<filter id="filter0_d" x="0" y="0" width="88" height="88" filterUnits="userSpaceOnUse" color-interpolation-filters="sRGB">
<feFlood flood-opacity="0" result="BackgroundImageFix"/>
<feColorMatrix in="SourceAlpha" type="matrix" values="0 0 0 0 0 0 0 0 0 0 0 0 0 0 0 0 0 0 127 0"/>
<feOffset dy="4"/>
<feGaussianBlur stdDeviation="2"/>
<feColorMatrix type="matrix" values="0 0 0 0 0 0 0 0 0 0 0 0 0 0 0 0 0 0 0.25 0"/>
<feBlend mode="normal" in2="BackgroundImageFix" result="effect1_dropShadow"/>
<feBlend mode="normal" in="SourceGraphic" in2="effect1_dropShadow" result="shape"/>
</filter>
</defs>
</svg>
