<svg width="85" height="74" viewBox="0 0 85 74" fill="none" xmlns="http://www.w3.org/2000/svg">
<path d="M49.6495 32.1872C53.7688 36.3065 53.7688 42.9852 49.6495 47.1046C45.5301 51.2239 38.8514 51.2239 34.7321 47.1046C30.6127 42.9852 30.6127 36.3065 34.7321 32.1872C38.8514 28.0678 45.5301 28.0678 49.6495 32.1872Z" fill="#0066F5"/>
<path fill-rule="evenodd" clip-rule="evenodd" d="M66.547 10.6383H73.835C79.6523 10.6383 84.3831 15.3691 84.3832 21.1864V63.3794C84.3832 69.1969 79.6525 73.9277 73.835 73.9277H10.5483C4.73072 73.9277 0 69.1944 0 63.3768L0.0283318 21.1995C0.0333417 15.395 4.75647 10.6668 10.5584 10.6565L17.8361 10.6435L23.1077 0.0900879H61.2703L66.547 10.6383ZM21.0937 39.6458C21.0937 51.2783 30.5578 60.7423 42.1902 60.7423C53.8227 60.7423 63.2867 51.2783 63.2867 39.6458C63.2867 28.0134 53.8227 18.5493 42.1902 18.5493C30.5578 18.5493 21.0937 28.0134 21.0937 39.6458Z" fill="#0066F5"/>
</svg>
