<svg width="50" height="50" viewBox="0 0 50 50" fill="none" xmlns="http://www.w3.org/2000/svg">
<path fill-rule="evenodd" clip-rule="evenodd" d="M0 25C0 11.2144 11.2144 0 25 0C38.7856 0 50 11.2144 50 25C50 38.7856 38.7856 50 25 50C11.2144 50 0 38.7856 0 25ZM34.2064 34.2064C35.0208 33.3916 35.0208 32.0751 34.2064 31.2603L27.9457 25L34.2064 18.7397C35.0208 17.9249 35.0208 16.6084 34.2064 15.7936C33.3916 14.9792 32.0751 14.9792 31.2603 15.7936L25 22.0543L18.7397 15.7936C17.9249 14.9792 16.6084 14.9792 15.7936 15.7936C14.9792 16.6084 14.9792 17.9249 15.7936 18.7397L22.0543 25L15.7936 31.2603C14.9792 32.0751 14.9792 33.3916 15.7936 34.2064C16.1999 34.6127 16.7332 34.8167 17.2668 34.8167C17.8001 34.8167 18.3334 34.6127 18.7397 34.2064L25 27.9457L31.2603 34.2064C31.6666 34.6127 32.1999 34.8167 32.7332 34.8167C33.2668 34.8167 33.8001 34.6127 34.2064 34.2064Z" fill="#FF0000"/>
</svg>
