<svg width="18" height="13" viewBox="0 0 18 13" fill="none" xmlns="http://www.w3.org/2000/svg">
<path d="M4.87639 3.06529H2.43968C2.29015 3.06529 2.16895 2.94337 2.16895 2.79296C2.16895 2.64254 2.29018 2.52063 2.43968 2.52063H4.87639C5.02593 2.52063 5.14713 2.64254 5.14713 2.79296C5.14713 2.94337 5.02593 3.06529 4.87639 3.06529Z" fill="#428DFF"/>
<path d="M8.39593 3.06529H5.95921C5.80968 3.06529 5.68848 2.94337 5.68848 2.79296C5.68848 2.64254 5.80971 2.52063 5.95921 2.52063H8.39593C8.54546 2.52063 8.66666 2.64254 8.66666 2.79296C8.66669 2.94337 8.54546 3.06529 8.39593 3.06529Z" fill="#428DFF"/>
<path d="M2.71042 4.42698H2.43968C2.29015 4.42698 2.16895 4.30504 2.16895 4.15465C2.16895 4.00424 2.29018 3.88232 2.43968 3.88232H2.71042C2.85995 3.88232 2.98115 4.00427 2.98115 4.15465C2.98118 4.30504 2.85995 4.42698 2.71042 4.42698Z" fill="#428DFF"/>
<path d="M4.33467 4.42698H3.7932C3.64366 4.42698 3.52246 4.30504 3.52246 4.15465C3.52246 4.00424 3.64369 3.88232 3.7932 3.88232H4.3347C4.48423 3.88232 4.60543 4.00427 4.60543 4.15465C4.60543 4.30504 4.4842 4.42698 4.33467 4.42698Z" fill="#428DFF"/>
<path d="M5.68893 4.42698H5.4182C5.26866 4.42698 5.14746 4.30504 5.14746 4.15465C5.14746 4.00424 5.26869 3.88232 5.4182 3.88232H5.68893C5.83847 3.88232 5.95967 4.00427 5.95967 4.15465C5.95967 4.30504 5.83847 4.42698 5.68893 4.42698Z" fill="#428DFF"/>
<path d="M7.31321 4.42698H6.77171C6.62218 4.42698 6.50098 4.30504 6.50098 4.15465C6.50098 4.00424 6.62221 3.88232 6.77171 3.88232H7.31321C7.46275 3.88232 7.58395 4.00427 7.58395 4.15465C7.58395 4.30504 7.46275 4.42698 7.31321 4.42698Z" fill="#428DFF"/>
<path d="M8.39671 4.42702C8.37853 4.42651 8.36042 4.42469 8.34252 4.42156C8.32561 4.41853 8.30921 4.41301 8.29388 4.40519C8.27656 4.39922 8.26012 4.39092 8.24496 4.38058C8.23147 4.36979 8.21799 4.35891 8.2045 4.34799C8.15456 4.29613 8.12642 4.22685 8.12598 4.15462C8.12639 4.11901 8.13375 4.0838 8.14765 4.05103C8.16072 4.01771 8.18001 3.98726 8.2045 3.96125L8.24496 3.92854C8.26009 3.9182 8.27656 3.90993 8.29388 3.90393C8.30921 3.89608 8.32558 3.89062 8.34252 3.88772C8.43164 3.8708 8.5234 3.89819 8.58895 3.96125C8.63838 4.01346 8.6664 4.08253 8.66748 4.15462C8.66707 4.17288 8.66523 4.19107 8.66193 4.20901C8.6591 4.22611 8.65365 4.24264 8.64581 4.25806C8.64042 4.27478 8.63217 4.29042 8.62147 4.30434C8.61065 4.32071 8.5998 4.33427 8.58895 4.34796C8.53701 4.39769 8.46839 4.4259 8.39671 4.42702Z" fill="#428DFF"/>
<path fill-rule="evenodd" clip-rule="evenodd" d="M10.833 5.51638H15.7064V2.24829H10.833V5.51638ZM15.165 4.97168H11.3745V2.79295H15.165V4.97168Z" fill="#428DFF"/>
<path fill-rule="evenodd" clip-rule="evenodd" d="M2.16895 10.4185H5.14713H5.14716V8.23975H2.16895V10.4185ZM4.60563 9.87379H2.71042V8.78444H4.60563V9.87379Z" fill="#428DFF"/>
<path fill-rule="evenodd" clip-rule="evenodd" d="M5.68848 10.4185H8.66669V8.23975H5.68848V10.4185ZM8.12519 9.87379H6.22998V8.78444H8.12519V9.87379Z" fill="#428DFF"/>
<path fill-rule="evenodd" clip-rule="evenodd" d="M9.20898 10.4185H12.1872V8.23975H9.20898V10.4185ZM11.6457 9.87379H9.75049V8.78444H11.6457V9.87379Z" fill="#428DFF"/>
<path fill-rule="evenodd" clip-rule="evenodd" d="M12.7285 10.4185H15.7067V8.23975H12.7285V10.4185ZM15.1652 9.87379H13.27V8.78444H15.1652V9.87379Z" fill="#428DFF"/>
<path d="M12.1868 12.3249H1.9571C1.32685 12.3242 0.816128 11.8104 0.81543 11.1765V1.49031C0.816128 0.856355 1.32685 0.342621 1.9571 0.341919H2.98138C3.13091 0.341919 3.25211 0.463866 3.25211 0.614249C3.25211 0.764632 3.13091 0.886579 2.98138 0.886579H1.9571C1.62576 0.88693 1.35728 1.15703 1.3569 1.49031V11.1765C1.35725 11.5098 1.62576 11.7798 1.9571 11.7802H12.1868C12.3363 11.7802 12.4575 11.9021 12.4575 12.0525C12.4575 12.203 12.3363 12.3249 12.1868 12.3249Z" fill="#428DFF"/>
<path d="M15.9188 12.3249H14.3531C14.2035 12.3249 14.0823 12.2029 14.0823 12.0525C14.0823 11.9022 14.2035 11.7802 14.3531 11.7802H15.9188C16.2502 11.7799 16.5187 11.5098 16.519 11.1765V1.49031C16.5187 1.15703 16.2502 0.886961 15.9188 0.886579H5.14769C4.99815 0.886579 4.87695 0.764632 4.87695 0.614249C4.87695 0.463866 4.99819 0.341919 5.14769 0.341919H15.9188C16.5491 0.342621 17.0598 0.856355 17.0605 1.49031V11.1765C17.0598 11.8104 16.5491 12.3242 15.9188 12.3249Z" fill="#428DFF"/>
<ellipse cx="13.2698" cy="12.0525" rx="0.270735" ry="0.27233" fill="#428DFF"/>
<ellipse cx="4.06468" cy="0.614249" rx="0.270735" ry="0.27233" fill="#428DFF"/>
</svg>
