<svg width="27" height="24" viewBox="0 0 27 24" fill="none" xmlns="http://www.w3.org/2000/svg">
<path fill-rule="evenodd" clip-rule="evenodd" d="M15.1819 2.11465L25.657 20.2581C26.066 20.9663 26.1114 21.7003 25.7814 22.2719C25.4514 22.8433 24.7932 23.171 23.9751 23.171H3.02463C2.20676 23.171 1.54834 22.8433 1.21856 22.2719C0.888593 21.7005 0.933988 20.9663 1.34292 20.2581L11.8181 2.11465C12.227 1.40627 12.84 1 13.5 1C14.1597 1 14.7728 1.40627 15.1819 2.11465ZM23.9751 21.706C24.2799 21.706 24.4648 21.6223 24.5128 21.5393C24.5607 21.4563 24.5407 21.2545 24.3883 20.9905L13.9131 2.84708C13.7607 2.5831 13.5957 2.46503 13.4998 2.46503C13.404 2.46503 13.2392 2.5831 13.0869 2.84708L2.61169 20.9905C2.45929 21.2545 2.43927 21.4563 2.48733 21.5393C2.53521 21.6224 2.71984 21.706 3.02482 21.706H23.9751Z" fill="#022B69"/>
<path d="M25.657 20.2581L25.3972 20.4081L25.3972 20.4081L25.657 20.2581ZM15.1819 2.11465L15.4417 1.96465L15.4417 1.96462L15.1819 2.11465ZM25.7814 22.2719L26.0412 22.4219L26.0412 22.4219L25.7814 22.2719ZM1.21856 22.2719L1.4784 22.1219L1.47836 22.1219L1.21856 22.2719ZM1.34292 20.2581L1.60272 20.4081L1.60273 20.4081L1.34292 20.2581ZM11.8181 2.11465L12.0779 2.26465L12.0779 2.26464L11.8181 2.11465ZM24.5128 21.5393L24.7724 21.6897L24.7727 21.6892L24.5128 21.5393ZM24.3883 20.9905L24.6481 20.8405L24.6481 20.8405L24.3883 20.9905ZM13.9131 2.84708L13.6533 2.99707L13.6533 2.99708L13.9131 2.84708ZM13.0869 2.84708L13.3467 2.99708L13.3467 2.99707L13.0869 2.84708ZM2.61169 20.9905L2.35188 20.8405L2.35188 20.8405L2.61169 20.9905ZM2.48733 21.5393L2.74733 21.3896L2.74692 21.3889L2.48733 21.5393ZM25.9168 20.1081L15.4417 1.96465L14.9221 2.26465L25.3972 20.4081L25.9168 20.1081ZM26.0412 22.4219C26.4382 21.7341 26.3644 20.8832 25.9168 20.1081L25.3972 20.4081C25.7676 21.0495 25.7845 21.6664 25.5216 22.1219L26.0412 22.4219ZM23.9751 23.471C24.8704 23.471 25.6442 23.1095 26.0412 22.4219L25.5216 22.1219C25.2587 22.5772 24.716 22.871 23.9751 22.871V23.471ZM3.02463 23.471H23.9751V22.871H3.02463V23.471ZM0.958729 22.4218C1.35559 23.1095 2.12962 23.471 3.02463 23.471V22.871C2.2839 22.871 1.7411 22.5772 1.4784 22.1219L0.958729 22.4218ZM1.08312 20.1081C0.63559 20.8831 0.561712 21.7343 0.958766 22.4219L1.47836 22.1219C1.21547 21.6666 1.23239 21.0495 1.60272 20.4081L1.08312 20.1081ZM11.5583 1.96465L1.08312 20.1081L1.60273 20.4081L12.0779 2.26465L11.5583 1.96465ZM13.5 0.7C12.7059 0.7 12.0058 1.18941 11.5583 1.96467L12.0779 2.26464C12.4482 1.62312 12.9742 1.3 13.5 1.3V0.7ZM15.4417 1.96462C14.994 1.18943 14.2939 0.7 13.5 0.7V1.3C14.0256 1.3 14.5515 1.6231 14.9221 2.26469L15.4417 1.96462ZM24.2532 21.3889C24.2707 21.3587 24.2877 21.3488 24.2833 21.3519C24.2805 21.3537 24.2681 21.3613 24.242 21.3703C24.1898 21.3884 24.1017 21.406 23.9751 21.406V22.006C24.1534 22.006 24.3101 21.9817 24.4385 21.9372C24.5537 21.8973 24.6946 21.8239 24.7724 21.6897L24.2532 21.3889ZM24.1285 21.1405C24.1918 21.2502 24.2206 21.3353 24.2311 21.3895C24.2363 21.4166 24.236 21.4311 24.2357 21.4343C24.2354 21.4396 24.2354 21.4197 24.253 21.3893L24.7727 21.6892C24.8504 21.5546 24.8433 21.3957 24.8202 21.276C24.7945 21.1427 24.7372 20.9948 24.6481 20.8405L24.1285 21.1405ZM13.6533 2.99708L24.1285 21.1405L24.6481 20.8405L14.1729 2.69708L13.6533 2.99708ZM13.4998 2.76503C13.4649 2.76503 13.4478 2.75524 13.4525 2.75756C13.4555 2.75898 13.4682 2.76595 13.489 2.78398C13.5308 2.82009 13.59 2.88747 13.6533 2.99707L14.1729 2.69708C14.0838 2.54271 13.9843 2.41907 13.8815 2.33015C13.7892 2.25032 13.6551 2.16503 13.4998 2.16503V2.76503ZM13.3467 2.99707C13.41 2.88742 13.4692 2.82 13.5109 2.78389C13.5317 2.76585 13.5444 2.75889 13.5473 2.75748C13.5521 2.75518 13.5348 2.76503 13.4998 2.76503V2.16503C13.3444 2.16503 13.2104 2.25048 13.1182 2.33024C13.0155 2.41915 12.9161 2.54276 12.827 2.69708L13.3467 2.99707ZM2.8715 21.1405L13.3467 2.99708L12.827 2.69708L2.35188 20.8405L2.8715 21.1405ZM2.74692 21.3889C2.76454 21.4193 2.76465 21.4393 2.76428 21.4341C2.76405 21.431 2.76373 21.4165 2.76894 21.3895C2.77936 21.3353 2.80817 21.2502 2.8715 21.1405L2.35188 20.8405C2.26281 20.9948 2.20541 21.1427 2.17974 21.2761C2.15672 21.3958 2.14966 21.5549 2.22775 21.6897L2.74692 21.3889ZM3.02482 21.406C2.89804 21.406 2.81001 21.3884 2.75789 21.3704C2.73187 21.3613 2.71955 21.3539 2.71695 21.3521C2.71266 21.3492 2.72984 21.3592 2.74733 21.3896L2.22734 21.689C2.30501 21.8239 2.44619 21.8973 2.56143 21.9373C2.68984 21.9818 2.84662 22.006 3.02482 22.006V21.406ZM23.9751 21.406H3.02482V22.006H23.9751V21.406Z" fill="white"/>
<path fill-rule="evenodd" clip-rule="evenodd" d="M11.5906 18.908C11.5906 17.8551 12.4472 16.9985 13.5 16.9985C14.5529 16.9985 15.4095 17.8551 15.4095 18.908C15.4095 19.9606 14.5529 20.8172 13.5 20.8172C12.4472 20.8172 11.5906 19.9606 11.5906 18.908ZM13.0556 18.9078C13.0556 19.1529 13.2549 19.3522 13.5 19.3522C13.7451 19.3522 13.9444 19.1529 13.9444 18.9078C13.9444 18.6629 13.7451 18.4636 13.5 18.4636C13.2549 18.4636 13.0556 18.6629 13.0556 18.9078Z" fill="#022B69"/>
<path d="M13.5 16.6985C12.2815 16.6985 11.2906 17.6894 11.2906 18.908H11.8906C11.8906 18.0208 12.6129 17.2985 13.5 17.2985V16.6985ZM15.7095 18.908C15.7095 17.6894 14.7186 16.6985 13.5 16.6985V17.2985C14.3872 17.2985 15.1095 18.0208 15.1095 18.908H15.7095ZM13.5 21.1172C14.7185 21.1172 15.7095 20.1264 15.7095 18.908H15.1095C15.1095 19.7949 14.3872 20.5172 13.5 20.5172V21.1172ZM11.2906 18.908C11.2906 20.1264 12.2815 21.1172 13.5 21.1172V20.5172C12.6128 20.5172 11.8906 19.7949 11.8906 18.908H11.2906ZM13.5 19.0522C13.4206 19.0522 13.3556 18.9872 13.3556 18.9078H12.7556C12.7556 19.3186 13.0892 19.6522 13.5 19.6522V19.0522ZM13.6444 18.9078C13.6444 18.9872 13.5794 19.0522 13.5 19.0522V19.6522C13.9108 19.6522 14.2444 19.3186 14.2444 18.9078H13.6444ZM13.5 18.7636C13.5795 18.7636 13.6444 18.8287 13.6444 18.9078H14.2444C14.2444 18.4971 13.9107 18.1636 13.5 18.1636V18.7636ZM13.3556 18.9078C13.3556 18.8287 13.4205 18.7636 13.5 18.7636V18.1636C13.0893 18.1636 12.7556 18.4971 12.7556 18.9078H13.3556Z" fill="white"/>
<path fill-rule="evenodd" clip-rule="evenodd" d="M11.5906 7.76711C11.5906 6.71426 12.4472 5.85767 13.5 5.85767C14.5529 5.85767 15.4095 6.71426 15.4095 7.76711V14.2006C15.4095 15.2535 14.5529 16.1099 13.5 16.1099C12.4472 16.1099 11.5906 15.2535 11.5906 14.2006V7.76711ZM13.5 14.645C13.7451 14.645 13.9444 14.4457 13.9444 14.2006V7.76711C13.9444 7.52202 13.7451 7.3227 13.5 7.3227C13.2549 7.3227 13.0556 7.52202 13.0556 7.76711V14.2006C13.0556 14.4457 13.2549 14.645 13.5 14.645Z" fill="#022B69"/>
<path d="M13.5 5.55767C12.2815 5.55767 11.2906 6.54857 11.2906 7.76711H11.8906C11.8906 6.87994 12.6129 6.15767 13.5 6.15767V5.55767ZM15.7095 7.76711C15.7095 6.54857 14.7186 5.55767 13.5 5.55767V6.15767C14.3872 6.15767 15.1095 6.87994 15.1095 7.76711H15.7095ZM15.7095 14.2006V7.76711H15.1095V14.2006H15.7095ZM13.5 16.4099C14.7185 16.4099 15.7095 15.4192 15.7095 14.2006H15.1095C15.1095 15.0877 14.3872 15.8099 13.5 15.8099V16.4099ZM11.2906 14.2006C11.2906 15.4192 12.2815 16.4099 13.5 16.4099V15.8099C12.6128 15.8099 11.8906 15.0877 11.8906 14.2006H11.2906ZM11.2906 7.76711V14.2006H11.8906V7.76711H11.2906ZM13.6444 14.2006C13.6444 14.28 13.5794 14.345 13.5 14.345V14.945C13.9108 14.945 14.2444 14.6114 14.2444 14.2006H13.6444ZM13.6444 7.76711V14.2006H14.2444V7.76711H13.6444ZM13.5 7.6227C13.5794 7.6227 13.6444 7.6877 13.6444 7.76711H14.2444C14.2444 7.35633 13.9108 7.0227 13.5 7.0227V7.6227ZM13.3556 7.76711C13.3556 7.6877 13.4206 7.6227 13.5 7.6227V7.0227C13.0892 7.0227 12.7556 7.35633 12.7556 7.76711H13.3556ZM13.3556 14.2006V7.76711H12.7556V14.2006H13.3556ZM13.5 14.345C13.4206 14.345 13.3556 14.28 13.3556 14.2006H12.7556C12.7556 14.6114 13.0892 14.945 13.5 14.945V14.345Z" fill="white"/>
</svg>
