<svg width="50" height="50" viewBox="0 0 50 50" fill="none" xmlns="http://www.w3.org/2000/svg">
<path fill-rule="evenodd" clip-rule="evenodd" d="M0 25C0 11.2144 11.2144 0 25 0C38.7856 0 50 11.2144 50 25C50 38.7856 38.7856 50 25 50C11.2144 50 0 38.7856 0 25ZM24.1291 33.2436L37.6709 19.7021C38.4853 18.8873 38.4853 17.5709 37.6709 16.7564C36.8561 15.9416 35.5396 15.9416 34.7252 16.7564L22.6562 28.825L17.3584 23.5271C16.5436 22.7123 15.2271 22.7123 14.4127 23.5271C13.5979 24.3416 13.5979 25.6584 14.4127 26.4729L21.1834 33.2436C21.5897 33.6498 22.123 33.8543 22.6562 33.8543C23.1895 33.8543 23.7228 33.6498 24.1291 33.2436Z" fill="#0066F5"/>
</svg>
