<svg width="17" height="17" viewBox="0 0 17 17" fill="none" xmlns="http://www.w3.org/2000/svg">
<path d="M15.2112 4.47308C14.8591 4.64342 14.7118 5.06711 14.8821 5.41903C15.3475 6.38036 15.5833 7.41657 15.5833 8.5C15.5833 12.4057 12.4057 15.5833 8.5 15.5833C4.59431 15.5833 1.41667 12.4057 1.41667 8.5C1.41667 4.59431 4.59431 1.41667 8.5 1.41667C10.1185 1.41667 11.6389 1.94515 12.8973 2.94488C13.2026 3.18854 13.6489 3.13752 13.8926 2.83126C14.1362 2.52517 14.0852 2.07935 13.7788 1.83603C12.289 0.651957 10.4142 0 8.5 0C3.81334 0 0 3.81334 0 8.5C0 13.1867 3.81334 17 8.5 17C13.1867 17 17 13.1867 17 8.5C17 7.20127 16.7164 5.95668 16.1571 4.80218C15.9871 4.44939 15.5621 4.3024 15.2112 4.47308Z" fill="#0066F5"/>
<path d="M8.49984 2.83325C8.10884 2.83325 7.7915 3.15058 7.7915 3.54159V8.49992C7.7915 8.89092 8.10884 9.20825 8.49984 9.20825H12.0415C12.4325 9.20825 12.7498 8.89092 12.7498 8.49992C12.7498 8.10892 12.4325 7.79159 12.0415 7.79159H9.20817V3.54159C9.20817 3.15058 8.89084 2.83325 8.49984 2.83325Z" fill="#0066F5"/>
</svg>
