<svg width="78" height="74" viewBox="0 0 78 74" fill="none" xmlns="http://www.w3.org/2000/svg">
<path d="M21.3842 8.15508L4.13763 16.3041L4.1195 17.6331L4.10742 18.9681L38.6609 18.9681L73.2144 18.9681L73.2023 17.6331L73.1842 16.3041L55.9195 8.14904C46.4294 3.66675 38.6549 -2.28882e-05 38.6428 0.00601768C38.6367 0.00601768 30.8682 3.67279 21.3842 8.15508Z" fill="#0066F5"/>
<path d="M10.7831 20.2548C10.765 20.2911 10.7589 21.2818 10.765 22.4416L10.7831 24.5559L38.6615 24.5559L66.5398 24.5559V22.3812V20.2065L38.6735 20.1884C16.3467 20.1763 10.8012 20.1884 10.7831 20.2548Z" fill="#0066F5"/>
<path d="M13.326 25.9876C13.3079 26.0963 13.2656 27.5461 13.2293 29.2073C13.1931 30.8685 13.1387 33.2305 13.1085 34.4628C13.0783 35.6891 13.024 37.8094 12.9877 39.1747C12.9515 40.5338 12.8971 42.7267 12.8669 44.0375C12.8367 45.3484 12.7823 47.5351 12.7461 48.9004C12.7098 50.2596 12.6555 52.3799 12.6253 53.6122C12.5951 54.8385 12.5467 56.7111 12.5286 57.7622L12.4863 59.6832H16.5518H20.6112L20.575 58.6684C20.5387 57.871 19.6326 26.1688 19.6326 25.8728C19.6326 25.8124 19.0285 25.7942 16.4914 25.7942H13.3562L13.326 25.9876Z" fill="#0066F5"/>
<path d="M28.0657 26.4104C28.0476 26.7547 28.0053 28.271 27.969 29.7812C27.9328 31.2914 27.8784 33.5627 27.8482 34.8253C27.818 36.0878 27.7637 38.2262 27.7274 39.5794C27.6972 40.9386 27.6368 43.1374 27.6066 44.4725C27.3045 56.3668 27.2441 58.8617 27.2441 59.2422V59.6832H31.2915H35.3388V59.4839C35.3388 59.3208 35.1093 51.1898 34.8556 42.4669C34.8193 41.2889 34.765 39.3982 34.7348 38.2685C34.6985 37.1389 34.62 34.2816 34.5535 31.9257C34.4931 29.5637 34.4206 27.2199 34.3965 26.7125L34.3602 25.7942H31.2311H28.1019L28.0657 26.4104Z" fill="#0066F5"/>
<path d="M42.8049 26.7729C42.7687 27.6246 41.9834 59.0671 41.9834 59.5141V59.6832H46.0307H50.0781V59.4537C50.0841 58.9342 49.1659 26.8635 49.1357 26.35L49.0995 25.7942H45.9703H42.8412L42.8049 26.7729Z" fill="#0066F5"/>
<path d="M57.5687 25.9876C57.5687 26.0963 57.5264 27.7515 57.4781 29.6604C57.3815 33.3392 57.3754 33.7319 57.0855 45.2457C57.0553 46.5747 57.0009 48.7494 56.9647 50.0783C56.9344 51.4073 56.8801 53.588 56.8438 54.9231C56.8136 56.2641 56.7713 57.8831 56.7472 58.5173L56.7109 59.6832H60.7643H64.8177V59.3631C64.8238 58.7288 63.9056 26.1809 63.8753 25.9876L63.8451 25.7942H60.71H57.5687V25.9876Z" fill="#0066F5"/>
<path d="M7.3698 63.0963L7.3698 65.3073L5.51527 65.3012L3.65469 65.2952L3.63657 67.4699L3.62449 69.6506H1.81224H0L0 71.8253L0 74H38.6612L77.3224 74V71.8253V69.6506H75.5102H73.698L73.6859 67.4699L73.6678 65.2952L71.8132 65.3012L69.9527 65.3073V63.0963V60.8914H38.6612L7.3698 60.8914V63.0963Z" fill="#0066F5"/>
</svg>
