<svg width="78" height="74" viewBox="0 0 78 74" fill="none" xmlns="http://www.w3.org/2000/svg">
<path d="M21.3844 8.1552L4.13787 16.3043L4.11975 17.6332L4.10767 18.9683L38.6611 18.9683L73.2146 18.9683L73.2025 17.6332L73.1844 16.3043L55.9197 8.14916C46.4296 3.66687 38.6551 9.91821e-05 38.643 0.00613976C38.637 0.00613976 30.8685 3.67292 21.3844 8.1552Z" fill="#0066F5"/>
<path d="M10.7828 20.2548C10.7647 20.2911 10.7587 21.2818 10.7647 22.4416L10.7828 24.5559L38.6612 24.5559L66.5396 24.5559V22.3812V20.2065L38.6733 20.1884C16.3464 20.1763 10.801 20.1884 10.7828 20.2548Z" fill="#0066F5"/>
<path d="M13.326 25.9877C13.3079 26.0964 13.2656 27.5462 13.2293 29.2074C13.1931 30.8687 13.1387 33.2306 13.1085 34.4629C13.0783 35.6892 13.024 37.8096 12.9877 39.1748C12.9515 40.534 12.8971 42.7268 12.8669 44.0376C12.8367 45.3485 12.7823 47.5353 12.7461 48.9005C12.7098 50.2597 12.6555 52.38 12.6253 53.6123C12.5951 54.8386 12.5467 56.7113 12.5286 57.7624L12.4863 59.6833H16.5518H20.6112L20.575 58.6685C20.5387 57.8711 19.6326 26.1689 19.6326 25.8729C19.6326 25.8125 19.0285 25.7944 16.4914 25.7944H13.3562L13.326 25.9877Z" fill="#0066F5"/>
<path d="M28.0657 26.4105C28.0476 26.7549 28.0053 28.2711 27.969 29.7813C27.9328 31.2915 27.8784 33.5629 27.8482 34.8254C27.818 36.0879 27.7637 38.2264 27.7274 39.5795C27.6972 40.9387 27.6368 43.1376 27.6066 44.4726C27.3045 56.3669 27.2441 58.8618 27.2441 59.2424V59.6833H31.2915H35.3388V59.484C35.3388 59.3209 35.1093 51.19 34.8556 42.467C34.8193 41.2891 34.765 39.3983 34.7348 38.2687C34.6985 37.139 34.62 34.2817 34.5535 31.9258C34.4931 29.5638 34.4206 27.22 34.3965 26.7126L34.3602 25.7944H31.2311H28.1019L28.0657 26.4105Z" fill="#0066F5"/>
<path d="M42.8052 26.773C42.7689 27.6247 41.9836 59.0672 41.9836 59.5142V59.6833H46.031H50.0783V59.4538C50.0844 58.9343 49.1662 26.8636 49.136 26.3501L49.0997 25.7944H45.9706H42.8414L42.8052 26.773Z" fill="#0066F5"/>
<path d="M57.569 25.9877C57.569 26.0964 57.5267 27.7516 57.4784 29.6605C57.3817 33.3393 57.3757 33.732 57.0857 45.2458C57.0555 46.5748 57.0011 48.7495 56.9649 50.0785C56.9347 51.4074 56.8803 53.5882 56.8441 54.9232C56.8139 56.2642 56.7716 57.8832 56.7474 58.5175L56.7112 59.6833H60.7646H64.818V59.3632C64.824 58.7289 63.9058 26.181 63.8756 25.9877L63.8454 25.7944H60.7102H57.569V25.9877Z" fill="#0066F5"/>
<path d="M7.3698 63.0963L7.3698 65.3073L5.51527 65.3012L3.65469 65.2952L3.63657 67.4699L3.62449 69.6506H1.81224H0L0 71.8253L0 74H38.6612L77.3224 74V71.8253V69.6506H75.5102H73.698L73.6859 67.4699L73.6678 65.2952L71.8132 65.3012L69.9527 65.3073V63.0963V60.8914H38.6612L7.3698 60.8914V63.0963Z" fill="#0066F5"/>
</svg>
