<svg width="27" height="26" viewBox="0 0 27 26" fill="none" xmlns="http://www.w3.org/2000/svg">
<path fill-rule="evenodd" clip-rule="evenodd" d="M5.77759 2.1909C3.63975 3.61935 1.97351 5.64968 0.989572 8.02512C0.0056327 10.4006 -0.251811 13.0144 0.249797 15.5362C0.751405 18.0579 1.98953 20.3743 3.80762 22.1924C5.6257 24.0105 7.94208 25.2486 10.4638 25.7502C12.9856 26.2518 15.5995 25.9944 17.9749 25.0104C20.3503 24.0265 22.3807 22.3603 23.8091 20.2224C25.2376 18.0846 26 15.5712 26 13C25.996 9.5534 24.6251 6.24911 22.188 3.812C19.7509 1.37488 16.4466 0.00396997 13 0C10.4288 0 7.91543 0.762437 5.77759 2.1909ZM14 12V2.051C16.5587 2.2877 18.9541 3.41193 20.7711 5.22894C22.5881 7.04595 23.7123 9.44128 23.949 12H14ZM5.437 20.9338C3.40242 18.9798 2.19631 16.3188 2.06792 13.5008C1.93953 10.6828 2.89868 7.92313 4.74715 5.79221C6.59562 3.66128 9.19211 2.32194 12 2.051V14H23.949C23.6974 16.7311 22.4355 19.27 20.4104 21.1196C18.3852 22.9692 15.7427 23.9964 13 24C10.1791 23.9855 7.47158 22.8878 5.437 20.9338Z" fill="#435179"/>
<path d="M26 13H26.1V12.9999L26 13ZM13 0L13.0001 -0.1H13V0ZM14 12H13.9V12.1H14V12ZM14 2.051L14.0092 1.95142L13.9 1.94132V2.051H14ZM12 2.051H12.1V1.94088L11.9904 1.95146L12 2.051ZM12 14H11.9V14.1H12V14ZM23.949 14L24.0486 14.0092L24.0586 13.9H23.949V14ZM5.72204 2.10775C3.56775 3.54719 1.88869 5.59314 0.897184 7.98685L1.08196 8.06338C2.05833 5.70622 3.71176 3.69151 5.83315 2.27404L5.72204 2.10775ZM0.897184 7.98685C-0.094324 10.3806 -0.353748 13.0145 0.151719 15.5557L0.347876 15.5167C-0.149874 13.0143 0.105589 10.4206 1.08196 8.06338L0.897184 7.98685ZM0.151719 15.5557C0.657185 18.0968 1.90484 20.431 3.73691 22.2631L3.87833 22.1217C2.07423 20.3176 0.845625 18.019 0.347876 15.5167L0.151719 15.5557ZM3.73691 22.2631C5.56897 24.0952 7.90317 25.3428 10.4443 25.8483L10.4833 25.6521C7.98098 25.1544 5.68242 23.9258 3.87833 22.1217L3.73691 22.2631ZM10.4443 25.8483C12.9855 26.3538 15.6194 26.0943 18.0132 25.1028L17.9366 24.918C15.5795 25.8944 12.9857 26.1499 10.4833 25.6521L10.4443 25.8483ZM18.0132 25.1028C20.4069 24.1113 22.4528 22.4323 23.8923 20.278L23.726 20.1669C22.3085 22.2882 20.2938 23.9417 17.9366 24.918L18.0132 25.1028ZM23.8923 20.278C25.3317 18.1237 26.1 15.5909 26.1 13H25.9C25.9 15.5514 25.1434 18.0455 23.726 20.1669L23.8923 20.278ZM26.1 12.9999C26.096 9.52681 24.7146 6.19712 22.2587 3.74129L22.1173 3.88271C24.5357 6.30109 25.8961 9.58 25.9 13.0001L26.1 12.9999ZM22.2587 3.74129C19.8029 1.28545 16.4732 -0.0959995 13.0001 -0.0999999L12.9999 0.0999999C16.42 0.103939 19.6989 1.46432 22.1173 3.88271L22.2587 3.74129ZM13 -0.1C10.4091 -0.1 7.87632 0.668302 5.72204 2.10775L5.83315 2.27404C7.95454 0.856572 10.4486 0.1 13 0.1V-0.1ZM14.1 12V2.051H13.9V12H14.1ZM13.9908 2.15057C16.5263 2.38513 18.8998 3.49915 20.7004 5.29965L20.8418 5.15823C19.0083 3.32472 16.5912 2.19028 14.0092 1.95142L13.9908 2.15057ZM20.7004 5.29965C22.5009 7.10016 23.6149 9.47374 23.8494 12.0092L24.0486 11.9908C23.8097 9.40883 22.6753 6.99175 20.8418 5.15823L20.7004 5.29965ZM23.949 11.9H14V12.1H23.949V11.9ZM5.50627 20.8617C3.49019 18.9254 2.29503 16.2886 2.16781 13.4962L1.96802 13.5053C2.09758 16.349 3.31466 19.0342 5.36774 21.0059L5.50627 20.8617ZM2.16781 13.4962C2.04059 10.7038 2.99103 7.96929 4.82269 5.85773L4.67161 5.72668C2.80634 7.87698 1.83846 10.6617 1.96802 13.5053L2.16781 13.4962ZM4.82269 5.85773C6.65435 3.74618 9.22724 2.41901 12.0096 2.15054L11.9904 1.95146C9.15698 2.22487 6.53688 3.57638 4.67161 5.72668L4.82269 5.85773ZM11.9 2.051V14H12.1V2.051H11.9ZM12 14.1H23.949V13.9H12V14.1ZM23.8494 13.9908C23.6001 16.6971 22.3497 19.2129 20.3429 21.0458L20.4778 21.1934C22.5214 19.327 23.7947 16.7651 24.0486 14.0092L23.8494 13.9908ZM20.3429 21.0458C18.3362 22.8786 15.7176 23.8964 12.9999 23.9L13.0001 24.1C15.7677 24.0963 18.4343 23.0598 20.4778 21.1934L20.3429 21.0458ZM13.0005 23.9C10.2053 23.8856 7.52236 22.7979 5.50627 20.8617L5.36774 21.0059C7.42081 22.9777 10.1529 24.0854 12.9995 24.1L13.0005 23.9Z" fill="white"/>
</svg>
