<svg width="18" height="18" viewBox="0 0 18 18" fill="none" xmlns="http://www.w3.org/2000/svg">
<g id="date copy">
<path id="Shape" d="M17.6998 5.7002V15.9002C17.6998 16.8943 16.8939 17.7002 15.8998 17.7002H2.0998C1.10569 17.7002 0.299805 16.8943 0.299805 15.9002V5.7002H17.6998Z" fill="#E8EDFC"/>
<path id="Shape_2" d="M16.8 5.7002V15.9002C16.8 16.8943 15.9941 17.7002 15 17.7002H15.9C16.8941 17.7002 17.7 16.8943 17.7 15.9002V5.7002H16.8Z" fill="#CAD9FC"/>
<path id="Shape_3" d="M17.6998 3.9001V5.7001H0.299805V3.9001C0.299805 2.90599 1.10569 2.1001 2.0998 2.1001H15.8998C16.8939 2.1001 17.6998 2.90599 17.6998 3.9001Z" fill="#A4C2F7"/>
<path id="Shape_4" d="M15.9 2.1001H15C15.9941 2.1001 16.8 2.90599 16.8 3.9001V5.7001H17.7V3.9001C17.7 2.90599 16.8941 2.1001 15.9 2.1001Z" fill="#7FACFA"/>
<path id="Shape_5" d="M2.0998 17.7001H2.9998C2.00569 17.7001 1.1998 16.8942 1.1998 15.9001V3.9001C1.1998 2.90599 2.00569 2.1001 2.9998 2.1001H2.0998C1.10569 2.1001 0.299805 2.90599 0.299805 3.9001V15.9001C0.299805 16.8942 1.10569 17.7001 2.0998 17.7001Z" fill="white"/>
<path id="Rectangle-path" d="M0 13.5H0.6V15.9H0V13.5Z" fill="white"/>
<g id="Group">
<circle id="Oval" cx="0.3" cy="14.6999" r="0.3" fill="#428DFF"/>
<path id="Shape_6" d="M2.1 18H15.9C17.0592 17.9987 17.9987 17.0592 18 15.9V3.9C17.9987 2.74075 17.0592 1.80132 15.9 1.8H15V0.3C15 0.134315 14.8657 0 14.7 0C14.5343 0 14.4 0.134315 14.4 0.3V1.8H3.6V0.3C3.6 0.134315 3.46569 0 3.3 0C3.13431 0 3 0.134315 3 0.3V1.8H2.1C0.94075 1.80132 0.00132259 2.74075 0 3.9V13.5C0 13.6657 0.134315 13.8 0.3 13.8C0.465685 13.8 0.6 13.6657 0.6 13.5V6H1.2C1.36569 6 1.5 5.86569 1.5 5.7C1.5 5.53431 1.36569 5.4 1.2 5.4H0.6V3.9C0.600992 3.07198 1.27198 2.40099 2.1 2.4H3C3 2.56569 3.13431 2.7 3.3 2.7C3.46569 2.7 3.6 2.56569 3.6 2.4H14.4C14.4 2.56569 14.5343 2.7 14.7 2.7C14.8657 2.7 15 2.56569 15 2.4H15.9C16.728 2.40099 17.399 3.07198 17.4 3.9V5.4H2.7C2.53431 5.4 2.4 5.53431 2.4 5.7C2.4 5.86569 2.53431 6 2.7 6H17.4V15.9C17.399 16.728 16.728 17.399 15.9 17.4H2.1C1.27198 17.399 0.600992 16.728 0.6 15.9C0.6 15.7343 0.465685 15.6 0.3 15.6C0.134315 15.6 0 15.7343 0 15.9C0.00132259 17.0592 0.94075 17.9987 2.1 18Z" fill="#428DFF"/>
<path id="Shape_7" d="M3.6 3.8998V3.5998C3.6 3.43412 3.46569 3.2998 3.3 3.2998C3.13431 3.2998 3 3.43412 3 3.5998V3.8998C3 4.06549 3.13431 4.1998 3.3 4.1998C3.46569 4.1998 3.6 4.06549 3.6 3.8998Z" fill="#428DFF"/>
<path id="Shape_8" d="M14.9999 3.8998V3.5998C14.9999 3.43412 14.8656 3.2998 14.6999 3.2998C14.5342 3.2998 14.3999 3.43412 14.3999 3.5998V3.8998C14.3999 4.06549 14.5342 4.1998 14.6999 4.1998C14.8656 4.1998 14.9999 4.06549 14.9999 3.8998Z" fill="#428DFF"/>
<path id="Shape_9" d="M10.8 8.1H11.4C11.5657 8.1 11.7 7.96569 11.7 7.8C11.7 7.63431 11.5657 7.5 11.4 7.5H10.8C10.6343 7.5 10.5 7.63431 10.5 7.8C10.5 7.96569 10.6343 8.1 10.8 8.1Z" fill="#428DFF"/>
<path id="Shape_10" d="M12.9001 8.1H13.5001C13.6658 8.1 13.8001 7.96569 13.8001 7.8C13.8001 7.63431 13.6658 7.5 13.5001 7.5H12.9001C12.7344 7.5 12.6001 7.63431 12.6001 7.8C12.6001 7.96569 12.7344 8.1 12.9001 8.1Z" fill="#428DFF"/>
<path id="Shape_11" d="M15.0002 8.1H15.6002C15.7659 8.1 15.9002 7.96569 15.9002 7.8C15.9002 7.63431 15.7659 7.5 15.6002 7.5H15.0002C14.8345 7.5 14.7002 7.63431 14.7002 7.8C14.7002 7.96569 14.8345 8.1 15.0002 8.1Z" fill="#428DFF"/>
<path id="Shape_12" d="M2.4001 9.8998H3.0001C3.16578 9.8998 3.3001 9.76549 3.3001 9.5998C3.3001 9.43412 3.16578 9.2998 3.0001 9.2998H2.4001C2.23441 9.2998 2.1001 9.43412 2.1001 9.5998C2.1001 9.76549 2.23441 9.8998 2.4001 9.8998Z" fill="#428DFF"/>
<path id="Shape_13" d="M4.5002 9.8998H5.1002C5.26588 9.8998 5.4002 9.76549 5.4002 9.5998C5.4002 9.43412 5.26588 9.2998 5.1002 9.2998H4.5002C4.33451 9.2998 4.2002 9.43412 4.2002 9.5998C4.2002 9.76549 4.33451 9.8998 4.5002 9.8998Z" fill="#428DFF"/>
<path id="Shape_14" d="M6.5998 9.8998H7.1998C7.36549 9.8998 7.4998 9.76549 7.4998 9.5998C7.4998 9.43412 7.36549 9.2998 7.1998 9.2998H6.5998C6.43412 9.2998 6.2998 9.43412 6.2998 9.5998C6.2998 9.76549 6.43412 9.8998 6.5998 9.8998Z" fill="#428DFF"/>
<path id="Shape_15" d="M8.6999 9.8998H9.2999C9.46559 9.8998 9.5999 9.76549 9.5999 9.5998C9.5999 9.43412 9.46559 9.2998 9.2999 9.2998H8.6999C8.53422 9.2998 8.3999 9.43412 8.3999 9.5998C8.3999 9.76549 8.53422 9.8998 8.6999 9.8998Z" fill="#428DFF"/>
<path id="Shape_16" d="M6.5998 8.1H7.1998C7.36549 8.1 7.4998 7.96569 7.4998 7.8C7.4998 7.63431 7.36549 7.5 7.1998 7.5H6.5998C6.43412 7.5 6.2998 7.63431 6.2998 7.8C6.2998 7.96569 6.43412 8.1 6.5998 8.1Z" fill="#428DFF"/>
<path id="Shape_17" d="M8.6999 8.1H9.2999C9.46559 8.1 9.5999 7.96569 9.5999 7.8C9.5999 7.63431 9.46559 7.5 9.2999 7.5H8.6999C8.53422 7.5 8.3999 7.63431 8.3999 7.8C8.3999 7.96569 8.53422 8.1 8.6999 8.1Z" fill="#428DFF"/>
<path id="Shape_18" d="M10.8 9.8998H11.4C11.5657 9.8998 11.7 9.76549 11.7 9.5998C11.7 9.43412 11.5657 9.2998 11.4 9.2998H10.8C10.6343 9.2998 10.5 9.43412 10.5 9.5998C10.5 9.76549 10.6343 9.8998 10.8 9.8998Z" fill="#428DFF"/>
<path id="Shape_19" d="M12.9001 9.8998H13.5001C13.6658 9.8998 13.8001 9.76549 13.8001 9.5998C13.8001 9.43412 13.6658 9.2998 13.5001 9.2998H12.9001C12.7344 9.2998 12.6001 9.43412 12.6001 9.5998C12.6001 9.76549 12.7344 9.8998 12.9001 9.8998Z" fill="#428DFF"/>
<path id="Shape_20" d="M15.0002 9.8998H15.6002C15.7659 9.8998 15.9002 9.76549 15.9002 9.5998C15.9002 9.43412 15.7659 9.2998 15.6002 9.2998H15.0002C14.8345 9.2998 14.7002 9.43412 14.7002 9.5998C14.7002 9.76549 14.8345 9.8998 15.0002 9.8998Z" fill="#428DFF"/>
<path id="Shape_21" d="M2.4001 11.7001H3.0001C3.16578 11.7001 3.3001 11.5658 3.3001 11.4001C3.3001 11.2344 3.16578 11.1001 3.0001 11.1001H2.4001C2.23441 11.1001 2.1001 11.2344 2.1001 11.4001C2.1001 11.5658 2.23441 11.7001 2.4001 11.7001Z" fill="#428DFF"/>
<path id="Shape_22" d="M4.5002 11.7001H5.1002C5.26588 11.7001 5.4002 11.5658 5.4002 11.4001C5.4002 11.2344 5.26588 11.1001 5.1002 11.1001H4.5002C4.33451 11.1001 4.2002 11.2344 4.2002 11.4001C4.2002 11.5658 4.33451 11.7001 4.5002 11.7001Z" fill="#428DFF"/>
<path id="Shape_23" d="M6.5998 11.7001H7.1998C7.36549 11.7001 7.4998 11.5658 7.4998 11.4001C7.4998 11.2344 7.36549 11.1001 7.1998 11.1001H6.5998C6.43412 11.1001 6.2998 11.2344 6.2998 11.4001C6.2998 11.5658 6.43412 11.7001 6.5998 11.7001Z" fill="#428DFF"/>
<path id="Shape_24" d="M8.6999 11.7001H9.2999C9.46559 11.7001 9.5999 11.5658 9.5999 11.4001C9.5999 11.2344 9.46559 11.1001 9.2999 11.1001H8.6999C8.53422 11.1001 8.3999 11.2344 8.3999 11.4001C8.3999 11.5658 8.53422 11.7001 8.6999 11.7001Z" fill="#428DFF"/>
<path id="Shape_25" d="M10.8 11.7001H11.4C11.5657 11.7001 11.7 11.5658 11.7 11.4001C11.7 11.2344 11.5657 11.1001 11.4 11.1001H10.8C10.6343 11.1001 10.5 11.2344 10.5 11.4001C10.5 11.5658 10.6343 11.7001 10.8 11.7001Z" fill="#428DFF"/>
<path id="Shape_26" d="M12.9001 11.7001H13.5001C13.6658 11.7001 13.8001 11.5658 13.8001 11.4001C13.8001 11.2344 13.6658 11.1001 13.5001 11.1001H12.9001C12.7344 11.1001 12.6001 11.2344 12.6001 11.4001C12.6001 11.5658 12.7344 11.7001 12.9001 11.7001Z" fill="#428DFF"/>
<path id="Shape_27" d="M15.0002 11.7001H15.6002C15.7659 11.7001 15.9002 11.5658 15.9002 11.4001C15.9002 11.2344 15.7659 11.1001 15.6002 11.1001H15.0002C14.8345 11.1001 14.7002 11.2344 14.7002 11.4001C14.7002 11.5658 14.8345 11.7001 15.0002 11.7001Z" fill="#428DFF"/>
<path id="Shape_28" d="M2.4001 13.4999H3.0001C3.16578 13.4999 3.3001 13.3656 3.3001 13.1999C3.3001 13.0342 3.16578 12.8999 3.0001 12.8999H2.4001C2.23441 12.8999 2.1001 13.0342 2.1001 13.1999C2.1001 13.3656 2.23441 13.4999 2.4001 13.4999Z" fill="#428DFF"/>
<path id="Shape_29" d="M4.5002 13.4999H5.1002C5.26588 13.4999 5.4002 13.3656 5.4002 13.1999C5.4002 13.0342 5.26588 12.8999 5.1002 12.8999H4.5002C4.33451 12.8999 4.2002 13.0342 4.2002 13.1999C4.2002 13.3656 4.33451 13.4999 4.5002 13.4999Z" fill="#428DFF"/>
<path id="Shape_30" d="M6.5998 13.4999H7.1998C7.36549 13.4999 7.4998 13.3656 7.4998 13.1999C7.4998 13.0342 7.36549 12.8999 7.1998 12.8999H6.5998C6.43412 12.8999 6.2998 13.0342 6.2998 13.1999C6.2998 13.3656 6.43412 13.4999 6.5998 13.4999Z" fill="#428DFF"/>
<path id="Shape_31" d="M8.6999 13.4999H9.2999C9.46559 13.4999 9.5999 13.3656 9.5999 13.1999C9.5999 13.0342 9.46559 12.8999 9.2999 12.8999H8.6999C8.53422 12.8999 8.3999 13.0342 8.3999 13.1999C8.3999 13.3656 8.53422 13.4999 8.6999 13.4999Z" fill="#428DFF"/>
<path id="Shape_32" d="M2.4001 15.3002H3.0001C3.16578 15.3002 3.3001 15.1659 3.3001 15.0002C3.3001 14.8345 3.16578 14.7002 3.0001 14.7002H2.4001C2.23441 14.7002 2.1001 14.8345 2.1001 15.0002C2.1001 15.1659 2.23441 15.3002 2.4001 15.3002Z" fill="#428DFF"/>
<path id="Shape_33" d="M4.5002 15.3002H5.1002C5.26588 15.3002 5.4002 15.1659 5.4002 15.0002C5.4002 14.8345 5.26588 14.7002 5.1002 14.7002H4.5002C4.33451 14.7002 4.2002 14.8345 4.2002 15.0002C4.2002 15.1659 4.33451 15.3002 4.5002 15.3002Z" fill="#428DFF"/>
<path id="Shape_34" d="M6.5998 15.3002H7.1998C7.36549 15.3002 7.4998 15.1659 7.4998 15.0002C7.4998 14.8345 7.36549 14.7002 7.1998 14.7002H6.5998C6.43412 14.7002 6.2998 14.8345 6.2998 15.0002C6.2998 15.1659 6.43412 15.3002 6.5998 15.3002Z" fill="#428DFF"/>
<path id="Shape_35" d="M8.6999 15.3002H9.2999C9.46559 15.3002 9.5999 15.1659 9.5999 15.0002C9.5999 14.8345 9.46559 14.7002 9.2999 14.7002H8.6999C8.53422 14.7002 8.3999 14.8345 8.3999 15.0002C8.3999 15.1659 8.53422 15.3002 8.6999 15.3002Z" fill="#428DFF"/>
<path id="Shape_36" d="M10.8 13.4999H11.4C11.5657 13.4999 11.7 13.3656 11.7 13.1999C11.7 13.0342 11.5657 12.8999 11.4 12.8999H10.8C10.6343 12.8999 10.5 13.0342 10.5 13.1999C10.5 13.3656 10.6343 13.4999 10.8 13.4999Z" fill="#428DFF"/>
<path id="Shape_37" d="M12.9001 13.4999H13.5001C13.6658 13.4999 13.8001 13.3656 13.8001 13.1999C13.8001 13.0342 13.6658 12.8999 13.5001 12.8999H12.9001C12.7344 12.8999 12.6001 13.0342 12.6001 13.1999C12.6001 13.3656 12.7344 13.4999 12.9001 13.4999Z" fill="#428DFF"/>
<path id="Shape_38" d="M15.0002 13.4999H15.6002C15.7659 13.4999 15.9002 13.3656 15.9002 13.1999C15.9002 13.0342 15.7659 12.8999 15.6002 12.8999H15.0002C14.8345 12.8999 14.7002 13.0342 14.7002 13.1999C14.7002 13.3656 14.8345 13.4999 15.0002 13.4999Z" fill="#428DFF"/>
<path id="Shape_39" d="M11.3999 16.5002C11.3999 16.6659 11.5342 16.8002 11.6999 16.8002H13.7999C13.9656 16.8002 14.0999 16.6659 14.0999 16.5002C14.0999 16.3345 13.9656 16.2002 13.7999 16.2002H11.6999C11.5342 16.2002 11.3999 16.3345 11.3999 16.5002Z" fill="#428DFF"/>
<path id="Shape_40" d="M15.0002 16.8002H15.6002C15.7659 16.8002 15.9002 16.6659 15.9002 16.5002C15.9002 16.3345 15.7659 16.2002 15.6002 16.2002H15.0002C14.8345 16.2002 14.7002 16.3345 14.7002 16.5002C14.7002 16.6659 14.8345 16.8002 15.0002 16.8002Z" fill="#428DFF"/>
</g>
</g>
</svg>
