<svg width="18" height="18" viewBox="0 0 18 18" fill="none" xmlns="http://www.w3.org/2000/svg">
<g id="date copy">
<path id="Shape" d="M17.7 5.69995V15.9C17.7 16.8941 16.8942 17.7 15.9 17.7H2.10005C1.10594 17.7 0.300049 16.8941 0.300049 15.9V5.69995H17.7Z" fill="#E8EDFC"/>
<path id="Shape_2" d="M16.8 5.69995V15.9C16.8 16.8941 15.9941 17.7 15 17.7H15.9C16.8941 17.7 17.7 16.8941 17.7 15.9V5.69995H16.8Z" fill="#CAD9FC"/>
<path id="Shape_3" d="M17.7 3.89998V5.69998H0.300049V3.89998C0.300049 2.90586 1.10594 2.09998 2.10005 2.09998H15.9C16.8942 2.09998 17.7 2.90586 17.7 3.89998Z" fill="#A4C2F7"/>
<path id="Shape_4" d="M15.9 2.09998H15C15.9941 2.09998 16.8 2.90586 16.8 3.89998V5.69998H17.7V3.89998C17.7 2.90586 16.8941 2.09998 15.9 2.09998Z" fill="#7FACFA"/>
<path id="Shape_5" d="M2.10005 17.7H3.00005C2.00594 17.7 1.20005 16.8941 1.20005 15.9V3.89998C1.20005 2.90586 2.00594 2.09998 3.00005 2.09998H2.10005C1.10594 2.09998 0.300049 2.90586 0.300049 3.89998V15.9C0.300049 16.8941 1.10594 17.7 2.10005 17.7Z" fill="white"/>
<path id="Rectangle-path" d="M0 13.5H0.6V15.9H0V13.5Z" fill="white"/>
<g id="Group">
<circle id="Oval" cx="0.3" cy="14.7" r="0.3" fill="#428DFF"/>
<path id="Shape_6" d="M2.1 18H15.9C17.0592 17.9987 17.9987 17.0592 18 15.9V3.9C17.9987 2.74075 17.0592 1.80132 15.9 1.8H15V0.3C15 0.134315 14.8657 0 14.7 0C14.5343 0 14.4 0.134315 14.4 0.3V1.8H3.6V0.3C3.6 0.134315 3.46569 0 3.3 0C3.13431 0 3 0.134315 3 0.3V1.8H2.1C0.94075 1.80132 0.00132259 2.74075 0 3.9V13.5C0 13.6657 0.134315 13.8 0.3 13.8C0.465685 13.8 0.6 13.6657 0.6 13.5V6H1.2C1.36569 6 1.5 5.86569 1.5 5.7C1.5 5.53431 1.36569 5.4 1.2 5.4H0.6V3.9C0.600992 3.07198 1.27198 2.40099 2.1 2.4H3C3 2.56569 3.13431 2.7 3.3 2.7C3.46569 2.7 3.6 2.56569 3.6 2.4H14.4C14.4 2.56569 14.5343 2.7 14.7 2.7C14.8657 2.7 15 2.56569 15 2.4H15.9C16.728 2.40099 17.399 3.07198 17.4 3.9V5.4H2.7C2.53431 5.4 2.4 5.53431 2.4 5.7C2.4 5.86569 2.53431 6 2.7 6H17.4V15.9C17.399 16.728 16.728 17.399 15.9 17.4H2.1C1.27198 17.399 0.600992 16.728 0.6 15.9C0.6 15.7343 0.465685 15.6 0.3 15.6C0.134315 15.6 0 15.7343 0 15.9C0.00132259 17.0592 0.94075 17.9987 2.1 18Z" fill="#428DFF"/>
<path id="Shape_7" d="M3.6 3.90005V3.60005C3.6 3.43436 3.46569 3.30005 3.3 3.30005C3.13431 3.30005 3 3.43436 3 3.60005V3.90005C3 4.06573 3.13431 4.20005 3.3 4.20005C3.46569 4.20005 3.6 4.06573 3.6 3.90005Z" fill="#428DFF"/>
<path id="Shape_8" d="M15 3.90005V3.60005C15 3.43436 14.8657 3.30005 14.7 3.30005C14.5343 3.30005 14.4 3.43436 14.4 3.60005V3.90005C14.4 4.06573 14.5343 4.20005 14.7 4.20005C14.8657 4.20005 15 4.06573 15 3.90005Z" fill="#428DFF"/>
<path id="Shape_9" d="M10.8 8.1H11.4C11.5657 8.1 11.7 7.96569 11.7 7.8C11.7 7.63431 11.5657 7.5 11.4 7.5H10.8C10.6343 7.5 10.5 7.63431 10.5 7.8C10.5 7.96569 10.6343 8.1 10.8 8.1Z" fill="#428DFF"/>
<path id="Shape_10" d="M12.9 8.1H13.5C13.6657 8.1 13.8 7.96569 13.8 7.8C13.8 7.63431 13.6657 7.5 13.5 7.5H12.9C12.7343 7.5 12.6 7.63431 12.6 7.8C12.6 7.96569 12.7343 8.1 12.9 8.1Z" fill="#428DFF"/>
<path id="Shape_11" d="M15 8.1H15.6C15.7656 8.1 15.9 7.96569 15.9 7.8C15.9 7.63431 15.7656 7.5 15.6 7.5H15C14.8343 7.5 14.7 7.63431 14.7 7.8C14.7 7.96569 14.8343 8.1 15 8.1Z" fill="#428DFF"/>
<path id="Shape_12" d="M2.39998 9.90005H2.99998C3.16566 9.90005 3.29998 9.76573 3.29998 9.60005C3.29998 9.43436 3.16566 9.30005 2.99998 9.30005H2.39998C2.23429 9.30005 2.09998 9.43436 2.09998 9.60005C2.09998 9.76573 2.23429 9.90005 2.39998 9.90005Z" fill="#428DFF"/>
<path id="Shape_13" d="M4.49995 9.90005H5.09995C5.26564 9.90005 5.39995 9.76573 5.39995 9.60005C5.39995 9.43436 5.26564 9.30005 5.09995 9.30005H4.49995C4.33427 9.30005 4.19995 9.43436 4.19995 9.60005C4.19995 9.76573 4.33427 9.90005 4.49995 9.90005Z" fill="#428DFF"/>
<path id="Shape_14" d="M6.60005 9.90005H7.20005C7.36573 9.90005 7.50005 9.76573 7.50005 9.60005C7.50005 9.43436 7.36573 9.30005 7.20005 9.30005H6.60005C6.43436 9.30005 6.30005 9.43436 6.30005 9.60005C6.30005 9.76573 6.43436 9.90005 6.60005 9.90005Z" fill="#428DFF"/>
<path id="Shape_15" d="M8.70002 9.90005H9.30002C9.46571 9.90005 9.60002 9.76573 9.60002 9.60005C9.60002 9.43436 9.46571 9.30005 9.30002 9.30005H8.70002C8.53434 9.30005 8.40002 9.43436 8.40002 9.60005C8.40002 9.76573 8.53434 9.90005 8.70002 9.90005Z" fill="#428DFF"/>
<path id="Shape_16" d="M6.60005 8.1H7.20005C7.36573 8.1 7.50005 7.96569 7.50005 7.8C7.50005 7.63431 7.36573 7.5 7.20005 7.5H6.60005C6.43436 7.5 6.30005 7.63431 6.30005 7.8C6.30005 7.96569 6.43436 8.1 6.60005 8.1Z" fill="#428DFF"/>
<path id="Shape_17" d="M8.70002 8.1H9.30002C9.46571 8.1 9.60002 7.96569 9.60002 7.8C9.60002 7.63431 9.46571 7.5 9.30002 7.5H8.70002C8.53434 7.5 8.40002 7.63431 8.40002 7.8C8.40002 7.96569 8.53434 8.1 8.70002 8.1Z" fill="#428DFF"/>
<path id="Shape_18" d="M10.8 9.90005H11.4C11.5657 9.90005 11.7 9.76573 11.7 9.60005C11.7 9.43436 11.5657 9.30005 11.4 9.30005H10.8C10.6343 9.30005 10.5 9.43436 10.5 9.60005C10.5 9.76573 10.6343 9.90005 10.8 9.90005Z" fill="#428DFF"/>
<path id="Shape_19" d="M12.9 9.90005H13.5C13.6657 9.90005 13.8 9.76573 13.8 9.60005C13.8 9.43436 13.6657 9.30005 13.5 9.30005H12.9C12.7343 9.30005 12.6 9.43436 12.6 9.60005C12.6 9.76573 12.7343 9.90005 12.9 9.90005Z" fill="#428DFF"/>
<path id="Shape_20" d="M15 9.90005H15.6C15.7656 9.90005 15.9 9.76573 15.9 9.60005C15.9 9.43436 15.7656 9.30005 15.6 9.30005H15C14.8343 9.30005 14.7 9.43436 14.7 9.60005C14.7 9.76573 14.8343 9.90005 15 9.90005Z" fill="#428DFF"/>
<path id="Shape_21" d="M2.39998 11.7H2.99998C3.16566 11.7 3.29998 11.5657 3.29998 11.4C3.29998 11.2343 3.16566 11.1 2.99998 11.1H2.39998C2.23429 11.1 2.09998 11.2343 2.09998 11.4C2.09998 11.5657 2.23429 11.7 2.39998 11.7Z" fill="#428DFF"/>
<path id="Shape_22" d="M4.49995 11.7H5.09995C5.26564 11.7 5.39995 11.5657 5.39995 11.4C5.39995 11.2343 5.26564 11.1 5.09995 11.1H4.49995C4.33427 11.1 4.19995 11.2343 4.19995 11.4C4.19995 11.5657 4.33427 11.7 4.49995 11.7Z" fill="#428DFF"/>
<path id="Shape_23" d="M6.60005 11.7H7.20005C7.36573 11.7 7.50005 11.5657 7.50005 11.4C7.50005 11.2343 7.36573 11.1 7.20005 11.1H6.60005C6.43436 11.1 6.30005 11.2343 6.30005 11.4C6.30005 11.5657 6.43436 11.7 6.60005 11.7Z" fill="#428DFF"/>
<path id="Shape_24" d="M8.70002 11.7H9.30002C9.46571 11.7 9.60002 11.5657 9.60002 11.4C9.60002 11.2343 9.46571 11.1 9.30002 11.1H8.70002C8.53434 11.1 8.40002 11.2343 8.40002 11.4C8.40002 11.5657 8.53434 11.7 8.70002 11.7Z" fill="#428DFF"/>
<path id="Shape_25" d="M10.8 11.7H11.4C11.5657 11.7 11.7 11.5657 11.7 11.4C11.7 11.2343 11.5657 11.1 11.4 11.1H10.8C10.6343 11.1 10.5 11.2343 10.5 11.4C10.5 11.5657 10.6343 11.7 10.8 11.7Z" fill="#428DFF"/>
<path id="Shape_26" d="M12.9 11.7H13.5C13.6657 11.7 13.8 11.5657 13.8 11.4C13.8 11.2343 13.6657 11.1 13.5 11.1H12.9C12.7343 11.1 12.6 11.2343 12.6 11.4C12.6 11.5657 12.7343 11.7 12.9 11.7Z" fill="#428DFF"/>
<path id="Shape_27" d="M15 11.7H15.6C15.7656 11.7 15.9 11.5657 15.9 11.4C15.9 11.2343 15.7656 11.1 15.6 11.1H15C14.8343 11.1 14.7 11.2343 14.7 11.4C14.7 11.5657 14.8343 11.7 15 11.7Z" fill="#428DFF"/>
<path id="Shape_28" d="M2.39998 13.5H2.99998C3.16566 13.5 3.29998 13.3657 3.29998 13.2C3.29998 13.0343 3.16566 12.9 2.99998 12.9H2.39998C2.23429 12.9 2.09998 13.0343 2.09998 13.2C2.09998 13.3657 2.23429 13.5 2.39998 13.5Z" fill="#428DFF"/>
<path id="Shape_29" d="M4.49995 13.5H5.09995C5.26564 13.5 5.39995 13.3657 5.39995 13.2C5.39995 13.0343 5.26564 12.9 5.09995 12.9H4.49995C4.33427 12.9 4.19995 13.0343 4.19995 13.2C4.19995 13.3657 4.33427 13.5 4.49995 13.5Z" fill="#428DFF"/>
<path id="Shape_30" d="M6.60005 13.5H7.20005C7.36573 13.5 7.50005 13.3657 7.50005 13.2C7.50005 13.0343 7.36573 12.9 7.20005 12.9H6.60005C6.43436 12.9 6.30005 13.0343 6.30005 13.2C6.30005 13.3657 6.43436 13.5 6.60005 13.5Z" fill="#428DFF"/>
<path id="Shape_31" d="M8.70002 13.5H9.30002C9.46571 13.5 9.60002 13.3657 9.60002 13.2C9.60002 13.0343 9.46571 12.9 9.30002 12.9H8.70002C8.53434 12.9 8.40002 13.0343 8.40002 13.2C8.40002 13.3657 8.53434 13.5 8.70002 13.5Z" fill="#428DFF"/>
<path id="Shape_32" d="M2.39998 15.3H2.99998C3.16566 15.3 3.29998 15.1656 3.29998 15C3.29998 14.8343 3.16566 14.7 2.99998 14.7H2.39998C2.23429 14.7 2.09998 14.8343 2.09998 15C2.09998 15.1656 2.23429 15.3 2.39998 15.3Z" fill="#428DFF"/>
<path id="Shape_33" d="M4.49995 15.3H5.09995C5.26564 15.3 5.39995 15.1656 5.39995 15C5.39995 14.8343 5.26564 14.7 5.09995 14.7H4.49995C4.33427 14.7 4.19995 14.8343 4.19995 15C4.19995 15.1656 4.33427 15.3 4.49995 15.3Z" fill="#428DFF"/>
<path id="Shape_34" d="M6.60005 15.3H7.20005C7.36573 15.3 7.50005 15.1656 7.50005 15C7.50005 14.8343 7.36573 14.7 7.20005 14.7H6.60005C6.43436 14.7 6.30005 14.8343 6.30005 15C6.30005 15.1656 6.43436 15.3 6.60005 15.3Z" fill="#428DFF"/>
<path id="Shape_35" d="M8.70002 15.3H9.30002C9.46571 15.3 9.60002 15.1656 9.60002 15C9.60002 14.8343 9.46571 14.7 9.30002 14.7H8.70002C8.53434 14.7 8.40002 14.8343 8.40002 15C8.40002 15.1656 8.53434 15.3 8.70002 15.3Z" fill="#428DFF"/>
<path id="Shape_36" d="M10.8 13.5H11.4C11.5657 13.5 11.7 13.3657 11.7 13.2C11.7 13.0343 11.5657 12.9 11.4 12.9H10.8C10.6343 12.9 10.5 13.0343 10.5 13.2C10.5 13.3657 10.6343 13.5 10.8 13.5Z" fill="#428DFF"/>
<path id="Shape_37" d="M12.9 13.5H13.5C13.6657 13.5 13.8 13.3657 13.8 13.2C13.8 13.0343 13.6657 12.9 13.5 12.9H12.9C12.7343 12.9 12.6 13.0343 12.6 13.2C12.6 13.3657 12.7343 13.5 12.9 13.5Z" fill="#428DFF"/>
<path id="Shape_38" d="M15 13.5H15.6C15.7656 13.5 15.9 13.3657 15.9 13.2C15.9 13.0343 15.7656 12.9 15.6 12.9H15C14.8343 12.9 14.7 13.0343 14.7 13.2C14.7 13.3657 14.8343 13.5 15 13.5Z" fill="#428DFF"/>
<path id="Shape_39" d="M11.4 16.5C11.4 16.6656 11.5343 16.8 11.7 16.8H13.8C13.9657 16.8 14.1 16.6656 14.1 16.5C14.1 16.3343 13.9657 16.2 13.8 16.2H11.7C11.5343 16.2 11.4 16.3343 11.4 16.5Z" fill="#428DFF"/>
<path id="Shape_40" d="M15 16.8H15.6C15.7656 16.8 15.9 16.6656 15.9 16.5C15.9 16.3343 15.7656 16.2 15.6 16.2H15C14.8343 16.2 14.7 16.3343 14.7 16.5C14.7 16.6656 14.8343 16.8 15 16.8Z" fill="#428DFF"/>
</g>
</g>
</svg>
