<svg width="93" height="93" viewBox="0 0 93 93" fill="none" xmlns="http://www.w3.org/2000/svg">
<rect width="93" height="93" fill="#022B69"/>
<path d="M73.0959 33.6745L71.327 31.8875C70.7703 31.3295 70.0297 31.022 69.2381 31.022C68.447 31.022 67.7055 31.3295 67.1488 31.8875L46.9711 52.1323L26.7701 31.8651C26.2143 31.307 25.4727 31 24.6816 31C23.8905 31 23.1485 31.307 22.5923 31.8651L20.823 33.641C19.671 34.796 19.671 36.6772 20.823 37.8321L44.8747 62.0495C45.4305 62.6071 46.1711 63 46.9693 63H46.9785C47.7701 63 48.5107 62.6067 49.0665 62.0495L73.0959 37.8977C73.6525 37.3401 73.9581 36.5746 73.959 35.7808C73.959 34.9867 73.6525 34.2317 73.0959 33.6745Z" fill="#0066F5"/>
</svg>
