<svg width="88" height="60" viewBox="0 0 88 60" fill="none" xmlns="http://www.w3.org/2000/svg">
<path d="M57.8508 30.4472L87.2726 49.0472V11.0618L57.8508 30.4472Z" fill="#0066F5"/>
<path d="M0 11.0618V49.0472L29.4218 30.4472L0 11.0618Z" fill="#0066F5"/>
<path d="M81.8181 0H5.45448C2.73267 0 0.572665 2.02909 0.163574 4.64182L43.6363 33.2836L87.109 4.64182C86.6999 2.02909 84.5399 0 81.8181 0Z" fill="#0066F5"/>
<path d="M52.8546 33.7418L45.1364 38.8254C44.6782 39.1254 44.16 39.2727 43.6364 39.2727C43.1127 39.2727 42.5946 39.1254 42.1364 38.8254L34.4182 33.7363L0.174561 55.3963C0.594561 57.9872 2.74365 60 5.45456 60H81.8182C84.5291 60 86.6782 57.9872 87.0982 55.3963L52.8546 33.7418Z" fill="#0066F5"/>
</svg>
