<svg width="19" height="18" viewBox="0 0 19 18" fill="none" xmlns="http://www.w3.org/2000/svg">
<path d="M18.482 6.57998L11.1991 12.2717L10.8671 12.5315C10.0638 13.1557 8.90254 13.1557 8.09921 12.5315L7.76719 12.2717L0.484375 6.57998L3.2771 4.71776L6.61596 2.4936L7.64617 1.80475C7.64927 1.80475 7.65237 1.80183 7.65548 1.80183L8.09921 1.50411C8.90124 0.87656 10.0651 0.87656 10.8671 1.50411L12.3504 2.4936L15.6892 4.71776L18.482 6.57998Z" fill="#7FACFA"/>
<path d="M17.8616 7.16378L10.5788 12.8555L10.5633 12.8672C9.83379 13.1305 9.00995 13.0021 8.40976 12.5315L8.07773 12.2718L0.794922 6.58001L3.58765 4.71779L6.92651 2.49363L7.95672 1.80478C7.95982 1.80478 7.96292 1.80186 7.96602 1.80186C8.72147 1.47663 9.60828 1.58785 10.2468 2.08791L11.73 3.0774L15.0689 5.30156L17.8616 7.16378Z" fill="#A4C2F7"/>
<path d="M15.6895 2.78551V14.7528H3.27734V2.78551C3.28782 2.61591 3.44137 2.48579 3.62178 2.49362H15.345C15.5254 2.48579 15.679 2.61591 15.6895 2.78551Z" fill="#E8EDFC"/>
<path d="M14.7586 2.78551V14.7528H3.27734V2.78551C3.28782 2.61591 3.44137 2.48579 3.62178 2.49362H14.4141C14.5945 2.48579 14.7481 2.61591 14.7586 2.78551Z" fill="white"/>
<path d="M18.482 6.58002V17.3797C18.4823 17.5423 18.4089 17.6973 18.2803 17.8059C18.1678 17.9078 18.0175 17.9643 17.8613 17.9635H1.10498C0.948846 17.9643 0.798541 17.9078 0.686073 17.8059C0.55741 17.6973 0.484046 17.5423 0.484376 17.3797L0.484375 6.58002L7.76719 12.2718L8.09921 12.5315C8.90275 13.1552 10.0636 13.1552 10.8671 12.5315L11.1991 12.2718L17.551 7.30681L18.482 6.58002Z" fill="#CAD9FC"/>
<path d="M17.551 7.30682V17.3798C17.5514 17.5423 17.478 17.6974 17.3493 17.8059C17.2369 17.9078 17.0866 17.9643 16.9304 17.9635H1.10498C0.948846 17.9643 0.798541 17.9078 0.686073 17.8059C0.55741 17.6974 0.484046 17.5423 0.484376 17.3798L0.484375 6.28815L6.83628 11.5742L7.1683 11.834C7.69892 12.2484 8.38469 12.7946 9.01771 12.6603C9.65073 12.7946 10.3365 12.946 10.8671 12.5316L11.1991 12.2718L17.551 7.30682Z" fill="#E8EDFC"/>
<path d="M18.2807 17.8059C18.1682 17.9078 18.0179 17.9644 17.8618 17.9635H1.10543C0.949297 17.9644 0.798991 17.9078 0.686523 17.8059L7.30839 12.6308L7.76764 12.2718L8.09966 12.5316C8.85265 13.1161 9.92756 13.1567 10.7279 12.6308C10.7745 12.5987 10.821 12.5666 10.8676 12.5316L11.1996 12.2718L18.2807 17.8059Z" fill="#CAD9FC"/>
<path d="M17.3498 17.8059C17.2373 17.9078 17.087 17.9643 16.9309 17.9635H1.10543C0.949297 17.9643 0.798991 17.9078 0.686523 17.8059L7.30839 12.6308C7.80456 12.9601 8.42561 13.0767 9.01816 12.9519C9.61071 13.0767 10.2318 12.9601 10.7279 12.6308L17.3498 17.8059Z" fill="#E8EDFC"/>
<path d="M1.10498 17.9635H2.03589C1.87976 17.9643 1.72945 17.9078 1.61698 17.8059C1.48832 17.6973 1.41495 17.5423 1.41529 17.3797V6.28812L1.61 6.45018L4.20801 4.71778V2.78551C4.21849 2.61591 4.37204 2.48579 4.55245 2.49362H3.62154C3.44113 2.48579 3.28758 2.61591 3.2771 2.78551V4.71778L0.679091 6.45018L0.484376 6.28812V17.3797C0.484046 17.5423 0.55741 17.6973 0.686073 17.8059C0.798541 17.9078 0.948846 17.9643 1.10498 17.9635Z" fill="white"/>
<path d="M8.57733 1.80478C8.58043 1.80478 8.58353 1.80186 8.58664 1.80186L9.03037 1.50414C9.29666 1.29802 9.61164 1.15502 9.94887 1.08715C9.29701 0.949325 8.61405 1.10331 8.09946 1.50414L7.65573 1.80186C7.65262 1.80186 7.64952 1.80478 7.64642 1.80478L6.61621 2.49363H7.54712L8.57733 1.80478Z" fill="white"/>
<path d="M9.85595 10.2122C9.18348 10.2091 8.5154 10.1039 7.8746 9.90036C6.85075 9.5585 6.09028 8.69341 5.88386 7.63576C5.65799 6.54993 6.06962 5.40183 7.01297 4.48592C7.11419 4.38753 7.21937 4.29328 7.32851 4.20318C8.2944 3.39612 9.5966 3.11564 10.81 3.45332C11.9847 3.82754 12.7965 4.89901 12.8371 6.12905C12.881 6.83709 12.6498 7.53479 12.1915 8.07701C11.838 8.52142 11.2652 8.73134 10.7076 8.62087C10.4795 8.57364 10.2806 8.43579 10.1565 8.23906C10.0451 8.04796 10.0166 7.81985 10.0774 7.60729C10.3397 6.61754 10.6065 5.11343 10.6091 5.09819C10.6277 4.99282 10.7013 4.90538 10.802 4.8688C10.9028 4.83223 11.0154 4.85207 11.0975 4.92086C11.1796 4.98965 11.2187 5.09693 11.2001 5.2023C11.189 5.26487 10.9263 6.74644 10.6575 7.76035C10.6383 7.81654 10.6432 7.87812 10.6708 7.93066C10.7123 7.98795 10.7749 8.02644 10.8448 8.03767C11.1862 8.09453 11.5311 7.95785 11.7403 7.68271C12.0962 7.25774 12.2746 6.71232 12.2383 6.15962C12.209 5.18052 11.5657 4.32572 10.6317 4.02479C9.6122 3.74492 8.52001 3.98401 7.71146 4.66404C7.61507 4.74389 7.52132 4.82749 7.43138 4.91492C6.965 5.36769 6.22025 6.3072 6.4712 7.51384C6.63981 8.35684 7.24307 9.04771 8.05673 9.32965C9.46373 9.7776 11.4855 9.83152 12.5507 8.50961C12.6554 8.38381 12.8418 8.36507 12.9695 8.46752C13.0972 8.56996 13.1189 8.7557 13.0183 8.88474C12.2306 9.86242 11.0319 10.2122 9.85595 10.2122Z" fill="#428DFF"/>
<path d="M8.82879 8.65978C8.51168 8.66522 8.20238 8.56144 7.95297 8.36591C7.37715 7.90597 7.36131 7.10699 7.52274 6.56286C7.5771 6.38165 7.6501 6.20654 7.74057 6.04032C7.96566 5.58704 8.32559 5.21424 8.7711 4.97293C9.3259 4.68561 10.0038 4.79457 10.4401 5.24121C10.6566 5.47799 10.8197 5.75838 10.9183 6.06343C10.9706 6.21824 10.8888 6.38626 10.7347 6.44107C10.5805 6.49587 10.4107 6.41722 10.3532 6.26431C10.2821 6.03894 10.1638 5.83119 10.0063 5.65479C9.75191 5.39513 9.3555 5.33605 9.03618 5.5102C8.70207 5.69826 8.43356 5.98378 8.26668 6.32848C8.19655 6.45762 8.1399 6.59362 8.09763 6.73433C7.98105 7.12791 8.00667 7.64156 8.32836 7.89867C8.68005 8.18054 9.27336 8.06137 9.60717 7.77396C9.85594 7.55044 10.0697 7.29092 10.2413 7.00408C10.2968 6.91115 10.3983 6.85538 10.5067 6.85821C10.6151 6.86103 10.7135 6.92201 10.7642 7.0177C10.8148 7.11339 10.8098 7.22891 10.751 7.31984C10.5477 7.65783 10.2947 7.96339 10.0004 8.22626C9.67233 8.5025 9.25798 8.65583 8.82879 8.65978Z" fill="#428DFF"/>
<path d="M1.08438 6.02338V9.91577V17.1017H0.484375V9.91577V6.02338H1.08438Z" fill="white"/>
<path d="M0.784375 7.52045C0.949862 7.51998 1.0839 7.3862 1.08438 7.22104V6.02338H0.484375V7.22104C0.484853 7.3862 0.618888 7.51998 0.784375 7.52045Z" fill="#428DFF"/>
<path d="M0.484375 17.1018H1.08438V9.61637C1.08438 9.45101 0.95006 9.31696 0.784375 9.31696C0.61869 9.31696 0.484375 9.45101 0.484375 9.61637V17.1018Z" fill="#428DFF"/>
<path d="M1.08425 8.41874C1.08307 8.33948 1.052 8.26358 0.997255 8.20615L0.952255 8.17022C0.935528 8.1589 0.91737 8.14984 0.898255 8.14328C0.881257 8.13463 0.863054 8.12857 0.844255 8.12531C0.824416 8.12194 0.804369 8.11994 0.784255 8.11932C0.704825 8.12043 0.628745 8.15144 0.571255 8.20615C0.458019 8.32535 0.458019 8.51213 0.571255 8.63132C0.599953 8.65837 0.633552 8.67971 0.670255 8.6942C0.706322 8.70954 0.745052 8.71768 0.784255 8.71815C0.863662 8.71694 0.939703 8.68594 0.997255 8.63132C1.05198 8.57388 1.08304 8.49799 1.08425 8.41874Z" fill="#428DFF"/>
<path d="M17.5844 18H1.38437C0.887545 17.9995 0.484921 17.5976 0.484375 17.1018C0.484375 16.9364 0.61869 16.8024 0.784375 16.8024C0.95006 16.8024 1.08438 16.9364 1.08438 17.1018C1.08459 17.2671 1.21878 17.401 1.38437 17.4012H17.5844C17.75 17.4011 17.8842 17.2671 17.8844 17.1018V6.66157L11.015 12.3594C10.1268 13.092 8.8426 13.0922 7.9542 12.3599L0.592615 6.25367C0.466745 6.14756 0.450171 5.96 0.55549 5.83354C0.660808 5.70708 0.848602 5.68906 0.976135 5.79317L8.33727 11.899C9.00332 12.448 9.96608 12.4478 10.6319 11.8986L17.9924 5.79317C18.0818 5.7188 18.2063 5.70281 18.3117 5.75214C18.4172 5.80147 18.4844 5.90722 18.4844 6.02342V17.1018C18.4838 17.5976 18.0812 17.9995 17.5844 18Z" fill="#428DFF"/>
<path d="M0.784669 6.32282C0.653998 6.32294 0.53828 6.23863 0.498578 6.11438C0.458877 5.99012 0.504324 5.85452 0.610939 5.77911L3.31094 3.86884C3.44612 3.77534 3.63153 3.80789 3.72661 3.94183C3.8217 4.07577 3.791 4.26114 3.6578 4.35743L0.957799 6.2677C0.907241 6.3036 0.84672 6.32287 0.784669 6.32282Z" fill="#428DFF"/>
<path d="M18.1837 6.32282C18.1217 6.32287 18.0611 6.3036 18.0106 6.2677L15.3106 4.35743C15.1774 4.26114 15.1467 4.07577 15.2418 3.94183C15.3368 3.80789 15.5223 3.77534 15.6574 3.86884L18.3574 5.77911C18.4641 5.85452 18.5095 5.99012 18.4698 6.11438C18.4301 6.23863 18.3144 6.32294 18.1837 6.32282Z" fill="#428DFF"/>
<path d="M12.2559 2.13099C12.1937 2.13102 12.1332 2.11175 12.0825 2.07586L10.6485 1.06085C9.98288 0.499438 9.01016 0.49359 8.33776 1.04695L6.88576 2.07589C6.79832 2.13779 6.68443 2.14842 6.587 2.10378C6.48957 2.05914 6.4234 1.96602 6.41342 1.85949C6.40343 1.75295 6.45116 1.6492 6.5386 1.58731L7.9726 0.57229C8.85869 -0.150808 10.1341 -0.145056 11.0136 0.586004L12.4296 1.58719C12.5363 1.66258 12.5819 1.79825 12.5421 1.92256C12.5024 2.04687 12.3866 2.13119 12.2559 2.13099Z" fill="#428DFF"/>
<path d="M0.978988 17.8383C0.852558 17.8384 0.739629 17.7594 0.696619 17.6407C0.653609 17.5221 0.689751 17.3892 0.786988 17.3086L7.63299 11.6317C7.71525 11.5619 7.82876 11.5416 7.9302 11.5785C8.03163 11.6155 8.10534 11.704 8.1232 11.8103C8.14105 11.9166 8.10029 12.0242 8.01648 12.0922L1.17048 17.7691C1.11673 17.8138 1.04896 17.8383 0.978988 17.8383Z" fill="#428DFF"/>
<path d="M17.989 17.8383C17.9191 17.8384 17.8513 17.8139 17.7977 17.7692L10.9517 12.0922C10.8679 12.0243 10.8271 11.9166 10.845 11.8103C10.8628 11.7041 10.9365 11.6155 11.038 11.5786C11.1394 11.5416 11.2529 11.5619 11.3352 11.6317L18.181 17.3087C18.2782 17.3893 18.3144 17.5221 18.2714 17.6408C18.2283 17.7595 18.1154 17.8385 17.989 17.8384V17.8383Z" fill="#428DFF"/>
<path d="M15.4846 8.56245C15.3189 8.56245 15.1846 8.4284 15.1846 8.26303V2.13335C15.1837 2.13963 15.1717 2.13116 15.1516 2.13101H3.81757C3.80431 2.1302 3.7913 2.13485 3.78157 2.14389L3.78457 8.26303C3.78457 8.4284 3.65026 8.56245 3.48457 8.56245C3.31888 8.56245 3.18457 8.4284 3.18457 8.26303V2.13101C3.19425 1.79144 3.47731 1.52366 3.81757 1.53218H15.1516C15.4918 1.5237 15.7749 1.79146 15.7846 2.13101V8.26303C15.7846 8.4284 15.6503 8.56245 15.4846 8.56245Z" fill="#428DFF"/>
</svg>
