<svg width="18" height="14" viewBox="0 0 18 14" fill="none" xmlns="http://www.w3.org/2000/svg">
<path fill-rule="evenodd" clip-rule="evenodd" d="M15.4062 1.03125H1.59376C0.714907 1.03125 0 1.74616 0 2.62501V12.1875C0 13.0664 0.714907 13.7813 1.59376 13.7813H15.4062C16.2851 13.7813 17 13.0664 17 12.1875V2.62501C17 1.74616 16.2851 1.03125 15.4062 1.03125ZM15.4062 2.09375C15.4784 2.09375 15.5471 2.10872 15.6099 2.13487L8.5 8.29704L1.39011 2.13487C1.45288 2.10876 1.52155 2.09375 1.59373 2.09375H15.4062ZM1.0625 12.1875C1.0625 12.4806 1.30064 12.7187 1.59376 12.7187H15.4062C15.6994 12.7187 15.9375 12.4806 15.9375 12.1875V3.25741L8.84812 9.40155C8.74798 9.4882 8.62399 9.53125 8.5 9.53125C8.37601 9.53125 8.25202 9.48817 8.15188 9.40155L1.0625 3.25741V12.1875Z" fill="#0066F5"/>
<path d="M15.6099 2.13487L15.6754 2.21044L15.7974 2.10467L15.6483 2.04256L15.6099 2.13487ZM8.5 8.29704L8.43451 8.3726L8.5 8.42937L8.56549 8.3726L8.5 8.29704ZM1.39011 2.13487L1.35169 2.04255L1.20251 2.10462L1.32461 2.21044L1.39011 2.13487ZM15.9375 12.1875L16.0375 12.1875V12.1875H15.9375ZM15.9375 3.25741H16.0375V3.03842L15.872 3.18184L15.9375 3.25741ZM8.84812 9.40155L8.91356 9.47717L8.91361 9.47712L8.84812 9.40155ZM8.15188 9.40155L8.08639 9.47712L8.08646 9.47718L8.15188 9.40155ZM1.0625 3.25741L1.12799 3.18184L0.962496 3.03842V3.25741H1.0625ZM1.59376 1.13125H15.4062V0.93125H1.59376V1.13125ZM0.1 2.62501C0.1 1.80139 0.770136 1.13125 1.59376 1.13125V0.93125C0.659679 0.93125 -0.1 1.69093 -0.1 2.62501H0.1ZM0.1 12.1875V2.62501H-0.1V12.1875H0.1ZM1.59376 13.6813C0.770136 13.6813 0.1 13.0111 0.1 12.1875H-0.1C-0.1 13.1216 0.659679 13.8813 1.59376 13.8813V13.6813ZM15.4062 13.6813H1.59376V13.8813H15.4062V13.6813ZM16.9 12.1875C16.9 13.0111 16.2299 13.6813 15.4062 13.6813V13.8813C16.3403 13.8813 17.1 13.1216 17.1 12.1875H16.9ZM16.9 2.62501V12.1875H17.1V2.62501H16.9ZM15.4062 1.13125C16.2299 1.13125 16.9 1.80139 16.9 2.62501H17.1C17.1 1.69093 16.3403 0.93125 15.4062 0.93125V1.13125ZM15.6483 2.04256C15.5741 2.01164 15.4924 1.99375 15.4062 1.99375V2.19375C15.4644 2.19375 15.5201 2.2058 15.5714 2.22718L15.6483 2.04256ZM8.56549 8.3726L15.6754 2.21044L15.5444 2.05931L8.43451 8.22147L8.56549 8.3726ZM1.32461 2.21044L8.43451 8.3726L8.56549 8.22147L1.4556 2.05931L1.32461 2.21044ZM1.59373 1.99375C1.50753 1.99375 1.42585 2.01169 1.35169 2.04255L1.42852 2.2272C1.47991 2.20582 1.53556 2.19375 1.59373 2.19375V1.99375ZM15.4062 1.99375H1.59373V2.19375H15.4062V1.99375ZM1.59376 12.6187C1.35587 12.6187 1.1625 12.4254 1.1625 12.1875H0.962496C0.962496 12.5359 1.24542 12.8187 1.59376 12.8187V12.6187ZM15.4062 12.6187H1.59376V12.8187H15.4062V12.6187ZM15.8375 12.1875C15.8375 12.4254 15.6441 12.6187 15.4062 12.6187V12.8187C15.7546 12.8187 16.0375 12.5359 16.0375 12.1875L15.8375 12.1875ZM15.8375 3.25741V12.1875H16.0375V3.25741H15.8375ZM8.91361 9.47712L16.003 3.33298L15.872 3.18184L8.78263 9.32598L8.91361 9.47712ZM8.5 9.63125C8.64718 9.63125 8.79461 9.58009 8.91356 9.47717L8.78269 9.32593C8.70134 9.39632 8.6008 9.43125 8.5 9.43125V9.63125ZM8.08646 9.47718C8.20538 9.58005 8.35281 9.63125 8.5 9.63125V9.43125C8.39922 9.43125 8.29866 9.39629 8.2173 9.32592L8.08646 9.47718ZM0.997003 3.33298L8.08639 9.47712L8.21737 9.32598L1.12799 3.18184L0.997003 3.33298ZM1.1625 12.1875V3.25741H0.962496V12.1875H1.1625Z" fill="#0066F5"/>
</svg>
