<svg width="21" height="17" viewBox="0 0 21 17" fill="none" xmlns="http://www.w3.org/2000/svg">
<path d="M7.83475 3.85119C7.66673 3.85115 7.52345 3.72708 7.49625 3.55804C7.46906 3.38905 7.56598 3.22481 7.72523 3.1701C9.79704 2.46275 12.0384 2.4615 14.111 3.16652C14.2274 3.20604 14.3143 3.30598 14.3387 3.42857C14.3631 3.55115 14.3214 3.67773 14.2293 3.76043C14.1372 3.84314 14.0088 3.86936 13.8925 3.8292C11.9618 3.17309 9.8742 3.17433 7.94428 3.83278C7.90902 3.84491 7.87202 3.85115 7.83475 3.85119Z" fill="#428DFF"/>
<path d="M4.8413 12.7098C4.76371 12.7099 4.68837 12.683 4.62774 12.6337C4.33102 12.3925 4.04782 12.1346 3.77944 11.8611L0.9994 9.02769C0.935092 8.96215 0.898926 8.87324 0.898926 8.7805C0.898926 8.68777 0.935092 8.59886 0.9994 8.53332L3.85865 5.61903C4.28474 5.18464 4.74817 4.79006 5.24339 4.44003C5.39916 4.33009 5.61288 4.36969 5.7207 4.52845C5.82857 4.68721 5.78972 4.90503 5.63395 5.01492C5.17248 5.34098 4.74066 5.70858 4.34367 6.11336L1.72691 8.7805L4.26446 11.3668C4.51462 11.6216 4.77857 11.862 5.05513 12.0868C5.1692 12.1794 5.21335 12.3354 5.16517 12.4757C5.11699 12.616 4.98711 12.7099 4.8413 12.7098Z" fill="#428DFF"/>
<path d="M10.8479 14.8479C9.69563 14.8473 8.55215 14.6439 7.46777 14.2469C7.35239 14.2048 7.26785 14.1031 7.24599 13.9802C7.22413 13.8573 7.26824 13.7319 7.36172 13.6511C7.4552 13.5704 7.58385 13.5466 7.69923 13.5887C9.93034 14.4076 12.3843 14.3255 14.5579 13.3593C14.7316 13.2823 14.9337 13.3634 15.0093 13.5404C15.0849 13.7175 15.0053 13.9235 14.8316 14.0005C13.5749 14.5588 12.2188 14.8473 10.8479 14.8479Z" fill="#428DFF"/>
<path d="M16.7529 12.7853C16.6062 12.7854 16.4758 12.6904 16.4282 12.5491C16.3806 12.4077 16.4265 12.2511 16.5423 12.1595C16.8521 11.9142 17.1465 11.6494 17.4239 11.3666L20.0407 8.69983L17.5031 6.11346C17.0734 5.67557 16.6032 5.28118 16.0988 4.93582C15.9414 4.82826 15.8994 4.61105 16.005 4.45068C16.1105 4.29031 16.3236 4.24753 16.481 4.35508C17.0223 4.7257 17.5271 5.14901 17.9881 5.61909L20.7682 8.45265C20.8325 8.51819 20.8686 8.6071 20.8686 8.69983C20.8686 8.79257 20.8325 8.88148 20.7682 8.94702L17.9089 11.8611C17.6112 12.1644 17.2952 12.4485 16.963 12.7119C16.903 12.7595 16.829 12.7854 16.7529 12.7853Z" fill="#428DFF"/>
<path d="M11.232 13.4672C10.368 13.468 9.52115 13.2219 8.78759 12.7567C8.62672 12.6547 8.57748 12.4391 8.67755 12.2752C8.77763 12.1112 8.98917 12.0611 9.15 12.1631C10.7278 13.1617 12.7754 12.9034 14.0668 11.543C15.3581 10.1825 15.5436 8.08821 14.5121 6.51401C14.4429 6.41024 14.4335 6.27658 14.4877 6.16386C14.5418 6.05115 14.651 5.97662 14.7739 5.9686C14.8968 5.96063 15.0145 6.02037 15.0822 6.12519C16.0314 7.57321 16.1212 9.43624 15.3157 10.9721C14.5103 12.5079 12.9406 13.467 11.232 13.4672Z" fill="#428DFF"/>
<path d="M7.38098 11.0202C7.24999 11.0203 7.13039 10.9444 7.07264 10.8246C6.7607 10.1785 6.59944 9.46776 6.60133 8.74772C6.60173 7.0528 7.49371 5.48815 8.93825 4.64842C10.3828 3.8087 12.1582 3.82267 13.5898 4.68516C13.7528 4.78358 13.8067 4.99801 13.7101 5.16414C13.6135 5.33024 13.4031 5.38514 13.2401 5.28669C11.7394 4.38331 9.83481 4.59041 8.55485 5.79625C7.27489 7.00208 6.92276 8.9209 7.68857 10.5167C7.74074 10.625 7.73438 10.7531 7.67181 10.8555C7.60928 10.9579 7.49932 11.0202 7.38098 11.0202Z" fill="#428DFF"/>
<path d="M3.29999 16.9631C3.16129 16.963 3.03623 16.8779 2.98315 16.7473C2.93007 16.6167 2.9594 16.4663 3.05746 16.3663L19.0071 0.110553C19.0935 0.0210815 19.2203 -0.0142479 19.3394 0.017899C19.4584 0.0500862 19.5515 0.144835 19.583 0.266172C19.6146 0.387508 19.5799 0.51678 19.4921 0.604842L3.54248 16.8606C3.47825 16.9263 3.39098 16.9632 3.29999 16.9631Z" fill="#428DFF"/>
<ellipse cx="6.46263" cy="4.0283" rx="0.343004" ry="0.349588" fill="#428DFF"/>
<ellipse cx="15.7239" cy="13.1177" rx="0.343004" ry="0.349588" fill="#428DFF"/>
</svg>
