<svg width="47" height="47" viewBox="0 0 47 47" fill="none" xmlns="http://www.w3.org/2000/svg">
<g id="Group 30">
<path id="Combined Shape" fill-rule="evenodd" clip-rule="evenodd" d="M5 0C2.23858 0 0 2.23858 0 5V42C0 44.7614 2.23858 47 5 47H42C44.7614 47 47 44.7614 47 42V5C47 2.23858 44.7614 0 42 0H5ZM25.5688 24.2441V31.8387L22.3996 31.8372V24.2441H19.7097V21.2805H22.398V19.0586C22.3001 18.0173 22.6799 16.9869 23.4375 16.2388C24.1951 15.4906 25.2544 15.0998 26.3364 15.1692C26.9963 15.1692 27.6184 15.2051 28.0862 15.232C28.368 15.2483 28.5938 15.2613 28.7381 15.2613V17.9469H27.1057C25.8571 17.9469 25.5688 18.5949 25.5688 19.4287V21.2805H28.6425L28.2587 24.2441H25.5688Z" fill="#0066F5"/>
</g>
</svg>
