<svg width="42" height="42" viewBox="0 0 42 42" fill="none" xmlns="http://www.w3.org/2000/svg">
<path d="M39.9769 19.217L22.7281 1.73798C21.7531 0.754006 20.1683 0.754006 19.1933 1.73798C18.2158 2.72195 18.2158 4.32019 19.1933 5.30416L34.6823 21L19.1933 36.6958C18.2158 37.6798 18.2158 39.278 19.1933 40.262C20.1708 41.246 21.7531 41.246 22.7281 40.262L39.9744 22.783C40.9168 21.8368 40.9193 20.1661 39.9769 19.217Z" fill="#0066F5" stroke="white"/>
<path d="M22.5167 19.217L5.27039 1.73798C4.29292 0.754006 2.71056 0.754006 1.73559 1.73798C0.758127 2.72195 0.758127 4.32019 1.73559 5.30416L17.2221 21L1.7331 36.6958C0.755634 37.6798 0.755634 39.278 1.7331 40.262C2.71056 41.246 4.29292 41.246 5.26789 40.262L22.5142 22.783C23.4566 21.8368 23.4591 20.1661 22.5167 19.217Z" fill="#022B69" stroke="white"/>
</svg>
