<svg width="40" height="40" viewBox="0 0 40 40" fill="none" xmlns="http://www.w3.org/2000/svg">
<path d="M10.2658 39.9509L11.0126 39.7466C11.731 39.5501 12.1506 38.8207 11.9498 38.1176L3.41115 8.20777C3.29066 7.78567 3.0038 7.42771 2.61367 7.21264C2.22354 6.99758 1.7621 6.94302 1.33088 7.06098L1.23443 7.08734C0.3364 7.33294 -0.1882 8.24462 0.0626999 9.12364L8.60159 39.0335C8.80232 39.7366 9.5474 40.1474 10.2658 39.9509Z" fill="white"/>
<path d="M39.8005 18.8009C37.0934 17.4797 34.5891 15.7933 32.3607 13.791C32.1734 13.6232 32.1001 13.3656 32.1719 13.1272C33.276 9.03868 34.096 4.88169 34.6262 0.684734C34.7101 -0.013356 34.3255 -0.218677 33.92 0.260405C25.9627 9.57512 12.195 -1.44376 4 7.0223C4.09839 7.2026 4.17579 7.39315 4.23075 7.59035L9.76863 27C17.9776 18.6366 31.6964 29.587 39.6396 20.2929C40.0452 19.8138 40.1221 18.9377 39.8005 18.8009Z" fill="white"/>
</svg>
