<svg width="19" height="19" viewBox="0 0 19 19" fill="none" xmlns="http://www.w3.org/2000/svg">
<path fill-rule="evenodd" clip-rule="evenodd" d="M15.5104 3.4896C13.905 1.88413 11.7704 1 9.5 1C7.94307 1 6.42014 1.42483 5.0958 2.22862C4.93905 2.32378 4.88908 2.52797 4.98424 2.68473C5.07937 2.84148 5.28354 2.89142 5.44035 2.79629C6.23394 2.31461 7.10512 1.98079 8.01207 1.80607C7.6388 2.2417 7.30142 2.84699 7.01521 3.60737C6.7893 4.20755 6.60206 4.88204 6.4566 5.60939C4.23654 5.97871 2.79622 6.69898 1.99945 7.21629C2.28121 6.2875 2.73755 5.41628 3.35759 4.63458C3.47154 4.49091 3.44747 4.28206 3.3038 4.16811C3.16016 4.05416 2.95128 4.0782 2.83733 4.2219C1.63534 5.73726 1 7.5624 1 9.5C1 11.7704 1.88413 13.905 3.4896 15.5104C5.09504 17.1159 7.22957 18 9.5 18C11.7704 18 13.905 17.1159 15.5104 15.5104C17.1158 13.905 18 11.7704 18 9.5C18 7.22957 17.1158 5.09504 15.5104 3.4896ZM16.9991 7.21453C16.2023 6.69649 14.7637 5.97735 12.5433 5.60883C12.3978 4.88171 12.2106 4.20742 11.9848 3.60741C11.6982 2.84609 11.3604 2.24024 10.9866 1.80451C12.5133 2.09613 13.9176 2.8359 15.0408 3.95916C15.9651 4.88347 16.6301 5.99803 16.9991 7.21453ZM9.5 1.66406C8.83667 1.66406 8.15753 2.45765 7.63667 3.84136C7.44698 4.34531 7.28598 4.90585 7.15543 5.50869C7.86518 5.42143 8.64499 5.37016 9.4996 5.37016C10.3547 5.37016 11.1347 5.4213 11.8444 5.50829C11.714 4.90562 11.5529 4.34521 11.3633 3.84136C10.8425 2.45765 10.1633 1.66406 9.5 1.66406ZM12.2425 9.5C12.2425 10.2869 12.2003 11.0557 12.1189 11.7883C11.3585 11.6576 10.4907 11.5764 9.50657 11.5764C8.51689 11.5764 7.64478 11.6585 6.88134 11.7905C6.79979 11.0572 6.75745 10.2877 6.75745 9.5C6.75745 8.34028 6.8491 7.21978 7.02291 6.19672C7.75777 6.09605 8.5821 6.03419 9.49963 6.03419C10.4175 6.03419 11.242 6.09612 11.9771 6.19682C12.1509 7.21981 12.2425 8.34031 12.2425 9.5ZM7.63667 15.1586C8.15753 16.5423 8.83667 17.3359 9.5 17.3359C10.1633 17.3359 10.8425 16.5423 11.3633 15.1586C11.6583 14.3749 11.8842 13.4547 12.0331 12.4505C11.3081 12.3231 10.4679 12.2404 9.50654 12.2404C8.54441 12.2404 7.70072 12.3217 6.9669 12.4511C7.11588 13.455 7.3417 14.375 7.63667 15.1586ZM1.76776 8.2153C1.95349 8.05135 2.5119 7.60201 3.50279 7.15752C4.16359 6.86111 5.10118 6.53197 6.33239 6.30695C6.1756 7.30683 6.09339 8.38733 6.09339 9.49997C6.09339 10.3317 6.13931 11.1454 6.228 11.9209C4.34349 12.3495 3.23328 13.0725 2.73868 13.466C2.0381 12.2763 1.66406 10.917 1.66406 9.5C1.66406 9.06471 1.69912 8.63566 1.76776 8.2153ZM6.31589 12.5843C4.50864 13.0073 3.49209 13.7085 3.10219 14.0272C3.35649 14.385 3.64247 14.7241 3.9592 15.0408C5.08242 16.1641 6.48678 16.9039 8.01346 17.1955C7.63966 16.7597 7.30179 16.1539 7.01521 15.3926C6.70785 14.5761 6.47211 13.6221 6.31589 12.5843ZM15.0408 15.0408C13.9176 16.1641 12.5133 16.9039 10.9866 17.1955C11.3604 16.7598 11.6982 16.1539 11.9848 15.3926C12.2922 14.5758 12.5281 13.6213 12.6843 12.583C13.4832 12.7689 14.1115 13.004 14.577 13.2193C15.2406 13.5262 15.6738 13.8355 15.9024 14.0209C15.6469 14.3811 15.3594 14.7223 15.0408 15.0408ZM12.7723 11.9181C14.6534 12.3437 15.7654 13.063 16.2655 13.4589C16.9634 12.2709 17.3359 10.9142 17.3359 9.5C17.3359 9.06514 17.3002 8.63579 17.2312 8.21497C17.045 8.05068 16.4873 7.60214 15.498 7.15818C14.8371 6.86158 13.8992 6.53224 12.6676 6.30709C12.8244 7.30697 12.9066 8.3874 12.9066 9.5C12.9066 10.3306 12.8608 11.1434 12.7723 11.9181Z" fill="white"/>
<path d="M15.5104 3.4896L15.6519 3.34818L15.6519 3.34818L15.5104 3.4896ZM5.0958 2.22862L4.99204 2.05764L4.99202 2.05765L5.0958 2.22862ZM4.98424 2.68473L5.15522 2.58097L5.1552 2.58094L4.98424 2.68473ZM5.44035 2.79629L5.54408 2.96729L5.54413 2.96726L5.44035 2.79629ZM8.01207 1.80607L8.16394 1.93621L8.53654 1.50136L7.97424 1.60968L8.01207 1.80607ZM7.01521 3.60737L7.20239 3.67783L7.20239 3.67783L7.01521 3.60737ZM6.4566 5.60939L6.48942 5.80668L6.62564 5.78402L6.65272 5.64861L6.4566 5.60939ZM1.99945 7.21629L1.80806 7.15823L1.64911 7.6822L2.10836 7.38404L1.99945 7.21629ZM3.35759 4.63458L3.51428 4.75887L3.51428 4.75886L3.35759 4.63458ZM3.3038 4.16811L3.1795 4.32479L3.17951 4.3248L3.3038 4.16811ZM2.83733 4.2219L2.99402 4.34619L2.99404 4.34617L2.83733 4.2219ZM3.4896 15.5104L3.63103 15.369L3.63102 15.369L3.4896 15.5104ZM15.5104 15.5104L15.6519 15.6518L15.6519 15.6518L15.5104 15.5104ZM12.5433 5.60883L12.3471 5.64805L12.3742 5.78351L12.5105 5.80613L12.5433 5.60883ZM16.9991 7.21453L16.8901 7.38221L17.3496 7.68096L17.1905 7.15647L16.9991 7.21453ZM11.9848 3.60741L12.172 3.53695L12.172 3.53695L11.9848 3.60741ZM10.9866 1.80451L11.0241 1.60806L10.4625 1.50079L10.8348 1.93473L10.9866 1.80451ZM15.0408 3.95916L14.8994 4.10058L14.8994 4.10058L15.0408 3.95916ZM7.63667 3.84136L7.4495 3.7709L7.44949 3.7709L7.63667 3.84136ZM7.15543 5.50869L6.95996 5.46635L6.90036 5.74155L7.17983 5.70719L7.15543 5.50869ZM11.8444 5.50829L11.8201 5.7068L12.0995 5.74104L12.0399 5.46596L11.8444 5.50829ZM11.3633 3.84136L11.1761 3.91181L11.1761 3.91181L11.3633 3.84136ZM12.1189 11.7883L12.085 11.9854L12.2942 12.0214L12.3177 11.8104L12.1189 11.7883ZM6.88134 11.7905L6.68256 11.8126L6.70605 12.0238L6.91541 11.9876L6.88134 11.7905ZM7.02291 6.19672L6.99577 5.99857L6.85033 6.0185L6.82574 6.16322L7.02291 6.19672ZM11.9771 6.19682L12.1743 6.16332L12.1497 6.0186L12.0042 5.99867L11.9771 6.19682ZM7.63667 15.1586L7.82385 15.0882L7.82385 15.0882L7.63667 15.1586ZM11.3633 15.1586L11.1761 15.0882L11.1761 15.0882L11.3633 15.1586ZM12.0331 12.4505L12.231 12.4798L12.2595 12.2872L12.0677 12.2535L12.0331 12.4505ZM6.9669 12.4511L6.93218 12.2541L6.7405 12.2879L6.76907 12.4804L6.9669 12.4511ZM3.50279 7.15752L3.42093 6.97504L3.42093 6.97504L3.50279 7.15752ZM1.76776 8.2153L1.6354 8.06536L1.58187 8.11261L1.57037 8.18308L1.76776 8.2153ZM6.33239 6.30695L6.52997 6.33794L6.57363 6.05955L6.29643 6.11021L6.33239 6.30695ZM6.228 11.9209L6.27235 12.116L6.44706 12.0762L6.4267 11.8982L6.228 11.9209ZM2.73868 13.466L2.56635 13.5675L2.68312 13.7658L2.8632 13.6225L2.73868 13.466ZM3.10219 14.0272L2.97561 13.8723L2.83086 13.9907L2.93917 14.143L3.10219 14.0272ZM6.31589 12.5843L6.51366 12.5545L6.48139 12.3401L6.2703 12.3895L6.31589 12.5843ZM3.9592 15.0408L4.10062 14.8994L4.10061 14.8994L3.9592 15.0408ZM8.01346 17.1955L7.97594 17.3919L8.5375 17.4992L8.16526 17.0653L8.01346 17.1955ZM7.01521 15.3926L6.82803 15.463L7.01521 15.3926ZM10.9866 17.1955L10.8348 17.0653L10.4625 17.4992L11.0241 17.3919L10.9866 17.1955ZM15.0408 15.0408L15.1823 15.1823L15.0408 15.0408ZM11.9848 15.3926L12.172 15.463L12.172 15.463L11.9848 15.3926ZM12.6843 12.583L12.7296 12.3882L12.5187 12.3391L12.4865 12.5533L12.6843 12.583ZM14.577 13.2193L14.6609 13.0378L14.6609 13.0378L14.577 13.2193ZM15.9024 14.0209L16.0655 14.1366L16.1739 13.9837L16.0284 13.8656L15.9024 14.0209ZM16.2655 13.4589L16.1413 13.6157L16.3215 13.7584L16.4379 13.5602L16.2655 13.4589ZM12.7723 11.9181L12.5736 11.8954L12.5532 12.0735L12.7282 12.1131L12.7723 11.9181ZM17.2312 8.21497L17.4285 8.18258L17.417 8.11221L17.3635 8.06502L17.2312 8.21497ZM15.498 7.15818L15.5799 6.97572L15.5799 6.97571L15.498 7.15818ZM12.6676 6.30709L12.7036 6.11035L12.4264 6.05968L12.47 6.33806L12.6676 6.30709ZM9.5 1.2C11.7174 1.2 13.801 2.06306 15.369 3.63102L15.6519 3.34818C14.0089 1.7052 11.8235 0.8 9.5 0.8V1.2ZM5.19957 2.39959C6.49246 1.61489 7.97947 1.2 9.5 1.2V0.8C7.90667 0.8 6.34782 1.23477 4.99204 2.05764L5.19957 2.39959ZM5.1552 2.58094C5.11739 2.51865 5.13722 2.43744 5.19959 2.39958L4.99202 2.05765C4.74089 2.21011 4.66077 2.5373 4.81328 2.78851L5.1552 2.58094ZM5.33662 2.62529C5.27418 2.66317 5.19302 2.64325 5.15522 2.58097L4.81326 2.78849C4.96572 3.03971 5.29289 3.11966 5.54408 2.96729L5.33662 2.62529ZM7.97424 1.60968C7.04419 1.78885 6.15065 2.13121 5.33658 2.62532L5.54413 2.96726C6.31724 2.49801 7.16606 2.17273 8.0499 2.00246L7.97424 1.60968ZM7.20239 3.67783C7.48328 2.93158 7.81037 2.34885 8.16394 1.93621L7.8602 1.67594C7.46723 2.13455 7.11956 2.7624 6.82803 3.53692L7.20239 3.67783ZM6.65272 5.64861C6.79643 4.93001 6.98092 4.2662 7.20239 3.67783L6.82803 3.53692C6.59767 4.14891 6.4077 4.83408 6.26049 5.57017L6.65272 5.64861ZM2.10836 7.38404C2.88334 6.88088 4.29794 6.17124 6.48942 5.80668L6.42378 5.4121C4.17514 5.78618 2.7091 6.51709 1.89054 7.04854L2.10836 7.38404ZM3.20089 4.51029C2.56545 5.31142 2.09722 6.20505 1.80806 7.15823L2.19083 7.27435C2.4652 6.36995 2.90965 5.52114 3.51428 4.75887L3.20089 4.51029ZM3.17951 4.3248C3.23663 4.3701 3.24622 4.45315 3.20089 4.5103L3.51428 4.75886C3.69686 4.52867 3.65831 4.19402 3.42808 4.01141L3.17951 4.3248ZM2.99404 4.34617C3.03932 4.28906 3.12238 4.27947 3.1795 4.32479L3.4281 4.01143C3.19795 3.82884 2.86324 3.86733 2.68062 4.09763L2.99404 4.34617ZM1.2 9.5C1.2 7.60744 1.82013 5.82612 2.99402 4.34619L2.68064 4.09761C1.45055 5.64839 0.8 7.51736 0.8 9.5H1.2ZM3.63102 15.369C2.06306 13.801 1.2 11.7174 1.2 9.5H0.8C0.8 11.8235 1.7052 14.0089 3.34818 15.6518L3.63102 15.369ZM9.5 17.8C7.28261 17.8 5.19896 16.9369 3.63103 15.369L3.34818 15.6518C4.99113 17.2948 7.17653 18.2 9.5 18.2V17.8ZM15.369 15.369C13.801 16.9369 11.7174 17.8 9.5 17.8V18.2C11.8235 18.2 14.0089 17.2948 15.6519 15.6518L15.369 15.369ZM17.8 9.5C17.8 11.7174 16.9369 13.801 15.369 15.369L15.6519 15.6518C17.2948 14.0089 18.2 11.8235 18.2 9.5H17.8ZM15.369 3.63102C16.9369 5.19896 17.8 7.28261 17.8 9.5H18.2C18.2 7.17653 17.2948 4.99113 15.6519 3.34818L15.369 3.63102ZM12.5105 5.80613C14.7024 6.16991 16.1152 6.87841 16.8901 7.38221L17.1081 7.04685C16.2894 6.51457 14.825 5.78479 12.576 5.41153L12.5105 5.80613ZM11.7976 3.67786C12.019 4.26607 12.2035 4.92968 12.3471 5.64805L12.7394 5.5696C12.5922 4.83374 12.4023 4.14878 12.172 3.53695L11.7976 3.67786ZM10.8348 1.93473C11.1888 2.34744 11.5164 2.93069 11.7976 3.67787L12.172 3.53695C11.8801 2.76149 11.5319 2.13304 11.1384 1.67429L10.8348 1.93473ZM15.1823 3.81774C14.0308 2.66624 12.5903 1.90723 11.0241 1.60806L10.949 2.00096C12.4363 2.28504 13.8044 3.00556 14.8994 4.10058L15.1823 3.81774ZM17.1905 7.15647C16.8119 5.90833 16.1297 4.76518 15.1823 3.81774L14.8994 4.10058C15.8006 5.00176 16.4483 6.08774 16.8077 7.27259L17.1905 7.15647ZM7.82385 3.91182C8.07953 3.23258 8.36943 2.71141 8.66686 2.36386C8.96672 2.01347 9.25182 1.86406 9.5 1.86406V1.46406C9.08485 1.46406 8.69871 1.71145 8.36296 2.10378C8.02477 2.49895 7.71467 3.06643 7.4495 3.7709L7.82385 3.91182ZM7.3509 5.55102C7.47973 4.95612 7.63815 4.40518 7.82385 3.91181L7.44949 3.7709C7.25582 4.28545 7.09223 4.85558 6.95996 5.46635L7.3509 5.55102ZM9.4996 5.17016C8.63696 5.17016 7.849 5.22191 7.13102 5.31018L7.17983 5.70719C7.88136 5.62094 8.65301 5.57016 9.4996 5.57016V5.17016ZM11.8688 5.30977C11.1508 5.22178 10.3627 5.17016 9.4996 5.17016V5.57016C10.3467 5.57016 11.1185 5.62081 11.8201 5.7068L11.8688 5.30977ZM11.1761 3.91181C11.3618 4.40509 11.5202 4.9559 11.649 5.55061L12.0399 5.46596C11.9077 4.85534 11.7441 4.28534 11.5505 3.7709L11.1761 3.91181ZM9.5 1.86406C9.74818 1.86406 10.0333 2.01347 10.3331 2.36386C10.6306 2.71141 10.9205 3.23258 11.1761 3.91181L11.5505 3.7709C11.2853 3.06643 10.9752 2.49895 10.637 2.10378C10.3013 1.71145 9.91515 1.46406 9.5 1.46406V1.86406ZM12.3177 11.8104C12.3999 11.0701 12.4425 10.294 12.4425 9.5H12.0425C12.0425 10.2798 12.0007 11.0412 11.9201 11.7662L12.3177 11.8104ZM9.50657 11.7764C10.4796 11.7764 11.3361 11.8567 12.085 11.9854L12.1528 11.5912C11.3809 11.4585 10.5018 11.3764 9.50657 11.3764V11.7764ZM6.91541 11.9876C7.66731 11.8576 8.52802 11.7764 9.50657 11.7764V11.3764C8.50576 11.3764 7.62224 11.4594 6.84726 11.5934L6.91541 11.9876ZM6.55746 9.5C6.55746 10.2948 6.60017 11.0717 6.68256 11.8126L7.08011 11.7684C6.99941 11.0428 6.95745 10.2806 6.95745 9.5H6.55746ZM6.82574 6.16322C6.64988 7.19827 6.55746 8.33004 6.55746 9.5H6.95745C6.95745 8.35052 7.04831 7.24128 7.22009 6.23022L6.82574 6.16322ZM9.49963 5.83419C8.57307 5.83419 7.73967 5.89666 6.99577 5.99857L7.05006 6.39487C7.77586 6.29544 8.59112 6.23419 9.49963 6.23419V5.83419ZM12.0042 5.99867C11.2601 5.89673 10.4265 5.83419 9.49963 5.83419V6.23419C10.4084 6.23419 11.2239 6.2955 11.9499 6.39497L12.0042 5.99867ZM12.4425 9.5C12.4425 8.33007 12.3501 7.19831 12.1743 6.16332L11.7799 6.23032C11.9517 7.24131 12.0425 8.35056 12.0425 9.5H12.4425ZM9.5 17.1359C9.25182 17.1359 8.96672 16.9865 8.66686 16.6361C8.36943 16.2886 8.07953 15.7674 7.82385 15.0882L7.4495 15.2291C7.71467 15.9336 8.02477 16.5011 8.36296 16.8962C8.69871 17.2886 9.08485 17.5359 9.5 17.5359V17.1359ZM11.1761 15.0882C10.9204 15.7674 10.6306 16.2886 10.3331 16.6361C10.0333 16.9865 9.74818 17.1359 9.5 17.1359V17.5359C9.91515 17.5359 10.3013 17.2886 10.637 16.8962C10.9752 16.501 11.2853 15.9336 11.5504 15.2291L11.1761 15.0882ZM11.8353 12.4211C11.6879 13.4145 11.4651 14.3205 11.1761 15.0882L11.5504 15.2291C11.8515 14.4293 12.0804 13.4948 12.231 12.4798L11.8353 12.4211ZM9.50654 12.4404C10.4564 12.4404 11.285 12.5221 11.9985 12.6475L12.0677 12.2535C11.3313 12.1241 10.4795 12.0404 9.50654 12.0404V12.4404ZM7.00162 12.648C7.72368 12.5207 8.55574 12.4404 9.50654 12.4404V12.0404C8.53309 12.0404 7.67777 12.1227 6.93218 12.2541L7.00162 12.648ZM7.82385 15.0882C7.53491 14.3206 7.31212 13.4148 7.16473 12.4217L6.76907 12.4804C6.91965 13.4951 7.14848 14.4295 7.4495 15.2291L7.82385 15.0882ZM3.42093 6.97504C2.40953 7.42873 1.83437 7.88972 1.6354 8.06536L1.90011 8.36524C2.07261 8.21297 2.61427 7.77529 3.58464 7.34L3.42093 6.97504ZM6.29643 6.11021C5.04882 6.33823 4.09585 6.6723 3.42093 6.97504L3.58464 7.34C4.23134 7.04993 5.15355 6.72571 6.36835 6.5037L6.29643 6.11021ZM6.29339 9.49997C6.29339 8.39696 6.37491 7.32685 6.52997 6.33794L6.1348 6.27597C5.9763 7.28681 5.89339 8.3777 5.89339 9.49997H6.29339ZM6.4267 11.8982C6.33892 11.1305 6.29339 10.3244 6.29339 9.49997H5.89339C5.89339 10.3389 5.93971 11.1603 6.02929 11.9437L6.4267 11.8982ZM2.8632 13.6225C3.33655 13.2459 4.41979 12.5373 6.27235 12.116L6.18365 11.7259C4.26718 12.1618 3.13 12.8991 2.61416 13.3095L2.8632 13.6225ZM1.46406 9.5C1.46406 10.9526 1.84758 12.347 2.56635 13.5675L2.91102 13.3645C2.22862 12.2057 1.86406 10.8815 1.86406 9.5H1.46406ZM1.57037 8.18308C1.49999 8.61412 1.46406 9.05395 1.46406 9.5H1.86406C1.86406 9.07547 1.89826 8.65719 1.96514 8.24753L1.57037 8.18308ZM3.22877 14.182C3.59756 13.8806 4.5869 13.1944 6.36147 12.779L6.2703 12.3895C4.43039 12.8203 3.38663 13.5364 2.97561 13.8723L3.22877 14.182ZM4.10061 14.8994C3.79182 14.5906 3.51306 14.26 3.26521 13.9113L2.93917 14.143C3.19992 14.5099 3.49312 14.8576 3.81778 15.1823L4.10061 14.8994ZM8.05099 16.999C6.5638 16.715 5.1956 15.9944 4.10062 14.8994L3.81777 15.1823C4.96924 16.3338 6.40977 17.0928 7.97594 17.3919L8.05099 16.999ZM6.82803 15.463C7.11994 16.2385 7.46812 16.8669 7.86166 17.3257L8.16526 17.0653C7.8112 16.6525 7.48364 16.0693 7.20239 15.3221L6.82803 15.463ZM6.11811 12.614C6.27596 13.6626 6.51473 14.6307 6.82803 15.463L7.20239 15.3221C6.90097 14.5214 6.66825 13.5815 6.51366 12.5545L6.11811 12.614ZM11.0241 17.3919C12.5903 17.0928 14.0308 16.3338 15.1823 15.1823L14.8994 14.8994C13.8044 15.9944 12.4362 16.715 10.949 16.999L11.0241 17.3919ZM11.7976 15.3221C11.5164 16.0693 11.1888 16.6526 10.8348 17.0653L11.1384 17.3257C11.5319 16.867 11.8801 16.2385 12.172 15.463L11.7976 15.3221ZM12.4865 12.5533C12.3319 13.5808 12.0991 14.5211 11.7976 15.3221L12.172 15.463C12.4854 14.6304 12.7242 13.6619 12.8821 12.6128L12.4865 12.5533ZM14.6609 13.0378C14.1835 12.817 13.5423 12.5773 12.7296 12.3882L12.639 12.7778C13.4241 12.9605 14.0395 13.1911 14.493 13.4008L14.6609 13.0378ZM16.0284 13.8656C15.7882 13.6707 15.341 13.3523 14.6609 13.0378L14.493 13.4008C15.1402 13.7002 15.5594 14.0002 15.7763 14.1762L16.0284 13.8656ZM15.1823 15.1823C15.5088 14.8558 15.8036 14.5059 16.0655 14.1366L15.7392 13.9052C15.4903 14.2562 15.21 14.5888 14.8994 14.8994L15.1823 15.1823ZM16.3896 13.3021C15.8683 12.8894 14.7294 12.1559 12.8164 11.723L12.7282 12.1131C14.5774 12.5316 15.6625 13.2366 16.1413 13.6157L16.3896 13.3021ZM17.1359 9.5C17.1359 10.8787 16.7728 12.2005 16.093 13.3576L16.4379 13.5602C17.1539 12.3414 17.5359 10.9497 17.5359 9.5H17.1359ZM17.0338 8.24736C17.1011 8.65758 17.1359 9.0761 17.1359 9.5H17.5359C17.5359 9.05418 17.4993 8.614 17.4285 8.18258L17.0338 8.24736ZM15.4161 7.34065C16.3849 7.77542 16.9259 8.21232 17.0988 8.36492L17.3635 8.06502C17.1641 7.88905 16.5897 7.42886 15.5799 6.97572L15.4161 7.34065ZM12.6316 6.50383C13.8469 6.72598 14.7693 7.05038 15.4161 7.34065L15.5799 6.97571C14.9048 6.67278 13.9516 6.3385 12.7036 6.11035L12.6316 6.50383ZM13.1066 9.5C13.1066 8.37777 13.0237 7.28695 12.8652 6.27611L12.47 6.33806C12.6251 7.32699 12.7066 8.39702 12.7066 9.5H13.1066ZM12.971 11.9407C13.0604 11.1582 13.1066 10.3379 13.1066 9.5H12.7066C12.7066 10.3234 12.6611 11.1285 12.5736 11.8954L12.971 11.9407Z" fill="white"/>
</svg>
