<svg width="47" height="47" viewBox="0 0 47 47" fill="none" xmlns="http://www.w3.org/2000/svg">
<path fill-rule="evenodd" clip-rule="evenodd" d="M5 0C2.23858 0 0 2.23858 0 5V42C0 44.7614 2.23858 47 5 47H42C44.7614 47 47 44.7614 47 42V5C47 2.23858 44.7614 0 42 0H5ZM20.0827 15.2707C21.2177 15.1688 22.3581 15.1381 23.497 15.1788C24.6374 15.1379 25.7793 15.1687 26.9159 15.2707C27.6105 15.2685 28.2997 15.3931 28.9495 15.6385C29.51 15.82 30.0176 16.1357 30.4283 16.558C30.8568 16.9708 31.1768 17.483 31.3601 18.0491C31.606 18.6988 31.7311 19.3879 31.7294 20.0826C31.8313 21.2177 31.862 22.358 31.8214 23.4969C31.8214 24.8458 31.7873 25.4785 31.7607 25.9741V25.9741V25.9742L31.7607 25.9743C31.7435 26.2934 31.7294 26.5557 31.7294 26.9158C31.7311 27.6133 31.6049 28.3051 31.357 28.9571C30.9684 30.0851 30.0821 30.9714 28.9541 31.36C28.3044 31.6059 27.6152 31.731 26.9205 31.7293C25.7839 31.8313 24.642 31.8621 23.5016 31.8212C22.3611 31.8621 21.2193 31.8313 20.0827 31.7293C19.3831 31.7286 18.6896 31.5993 18.0368 31.3477C17.4764 31.1662 16.9687 30.8505 16.558 30.4282C16.1357 30.0175 15.82 29.5099 15.6385 28.9494C15.3931 28.2996 15.2685 27.6104 15.2707 26.9158C15.1687 25.7792 15.1379 24.6374 15.1788 23.4969C15.1381 22.358 15.1688 21.2177 15.2707 20.0826C15.2204 19.3807 15.3469 18.6773 15.6385 18.0368C15.82 17.4763 16.1357 16.9687 16.558 16.558C16.9709 16.1346 17.4813 15.8189 18.0445 15.6385C18.6957 15.3926 19.3865 15.2679 20.0827 15.2707ZM26.824 16.7495C25.7182 16.6465 24.6068 16.6158 23.497 16.6576C22.385 16.618 21.2716 16.6513 20.1639 16.7572C19.6276 16.7507 19.0948 16.8447 18.5931 17.0346C18.217 17.1287 17.8893 17.3591 17.6736 17.6813C17.4073 17.9488 17.1886 18.2597 17.0269 18.6007C16.8371 19.1024 16.743 19.6352 16.7495 20.1715C16.6465 21.2773 16.6158 22.3887 16.6576 23.4985C16.6576 24.8736 16.693 25.5026 16.7198 25.9805V25.9805V25.9805C16.7363 26.2733 16.7495 26.5093 16.7495 26.8254C16.7432 27.3612 16.8373 27.8935 17.0269 28.3947C17.3502 29.0872 17.9076 29.6435 18.6008 29.9654C19.1024 30.1553 19.6352 30.2493 20.1715 30.2428C21.2774 30.3459 22.3887 30.3766 23.4985 30.3348C24.8736 30.3348 25.5026 30.2994 25.9805 30.2725H25.9806L25.9806 30.2725H25.9806C26.2734 30.2561 26.5094 30.2428 26.8255 30.2428C27.3613 30.2491 27.8936 30.1551 28.3948 29.9654C29.0865 29.6433 29.6427 29.0877 29.9655 28.3962C30.1554 27.8945 30.2494 27.3618 30.2429 26.8254C30.346 25.7191 30.3767 24.6073 30.3349 23.4969C30.3349 22.1219 30.2995 21.4929 30.2726 21.015V21.0149V21.0149V21.0149C30.2562 20.7221 30.2429 20.4861 30.2429 20.17C30.2496 19.6331 30.1555 19.0998 29.9655 18.5977C29.643 17.9056 29.0868 17.3494 28.3948 17.0269C27.8931 16.8371 27.3603 16.743 26.824 16.7495ZM23.497 19.2459C22.364 19.2275 21.272 19.6694 20.4707 20.4707C19.6695 21.2719 19.2275 22.3639 19.2459 23.4969C19.2459 25.8447 21.1492 27.748 23.497 27.748C25.8448 27.748 27.7481 25.8447 27.7481 23.4969C27.7481 21.1492 25.8448 19.2459 23.497 19.2459ZM21.5214 25.473C22.0442 25.9962 22.7574 26.2841 23.497 26.2707V26.2691C24.2363 26.2826 24.9492 25.9948 25.4721 25.472C25.9949 24.9492 26.2827 24.2362 26.2692 23.4969C26.2827 22.7577 25.9949 22.0447 25.4721 21.5219C24.9492 20.999 24.2363 20.7113 23.497 20.7247C22.7577 20.7113 22.0448 20.999 21.5219 21.5219C20.9991 22.0447 20.7113 22.7577 20.7248 23.4969C20.7109 24.2365 20.9985 24.9498 21.5214 25.473ZM27.9335 18.0445C27.3724 18.0445 26.9175 18.4993 26.9175 19.0605C26.9175 19.6216 27.3724 20.0765 27.9335 20.0765C28.4946 20.0765 28.9495 19.6216 28.9495 19.0605C28.9445 18.5014 28.4925 18.0494 27.9335 18.0445Z" fill="#0066F5"/>
</svg>
