<svg width="25" height="22" viewBox="0 0 25 22" fill="none" xmlns="http://www.w3.org/2000/svg">
<path fill-rule="evenodd" clip-rule="evenodd" d="M14.0226 1.86523L23.6172 18.4037C23.9279 18.9392 23.9279 19.599 23.6173 20.1346C23.3067 20.6701 22.7326 21 22.1114 21H2.92233C2.30113 21 1.7271 20.6701 1.4165 20.1346C1.1059 19.599 1.10597 18.9391 1.41664 18.4037L11.0111 1.86523C11.3217 1.32972 11.8957 1 12.5169 1C13.1381 1 13.712 1.32979 14.0226 1.86523ZM12.5169 2.73081L2.9224 19.2693H22.1115L12.5169 2.73081Z" fill="#022B69"/>
<path d="M23.6172 18.4037L23.3577 18.5542L23.3577 18.5542L23.6172 18.4037ZM14.0226 1.86523L13.7631 2.01576L13.7631 2.01578L14.0226 1.86523ZM23.6173 20.1346L23.8768 20.2851L23.8768 20.2851L23.6173 20.1346ZM1.4165 20.1346L1.67601 19.984L1.4165 20.1346ZM1.41664 18.4037L1.67613 18.5542L1.67613 18.5542L1.41664 18.4037ZM11.0111 1.86523L11.2706 2.01578L11.2706 2.01575L11.0111 1.86523ZM2.9224 19.2693L2.66291 19.1187L2.40153 19.5693H2.9224V19.2693ZM12.5169 2.73081L12.7764 2.58027L12.5169 2.13297L12.2575 2.58027L12.5169 2.73081ZM22.1115 19.2693V19.5693H22.6324L22.371 19.1187L22.1115 19.2693ZM23.8767 18.2531L14.2821 1.71469L13.7631 2.01578L23.3577 18.5542L23.8767 18.2531ZM23.8768 20.2851C24.2414 19.6565 24.2414 18.8817 23.8767 18.2531L23.3577 18.5542C23.6144 18.9967 23.6144 19.5416 23.3578 19.984L23.8768 20.2851ZM22.1114 21.3C22.8391 21.3 23.5123 20.9136 23.8768 20.2851L23.3578 19.984C23.1011 20.4267 22.6261 20.7 22.1114 20.7V21.3ZM2.92233 21.3H22.1114V20.7H2.92233V21.3ZM1.15699 20.2851C1.52149 20.9135 2.19461 21.3 2.92233 21.3V20.7C2.40765 20.7 1.93272 20.4266 1.67601 19.984L1.15699 20.2851ZM1.15715 18.2531C0.792475 18.8817 0.792393 19.6565 1.15699 20.2851L1.67601 19.984C1.41941 19.5416 1.41946 18.9966 1.67613 18.5542L1.15715 18.2531ZM10.7516 1.71469L1.15715 18.2531L1.67613 18.5542L11.2706 2.01578L10.7516 1.71469ZM12.5169 0.7C11.7893 0.7 11.1161 1.08623 10.7516 1.71472L11.2706 2.01575C11.5273 1.5732 12.0022 1.3 12.5169 1.3V0.7ZM14.2821 1.7147C13.9176 1.08632 13.2446 0.7 12.5169 0.7V1.3C13.0316 1.3 13.5064 1.57325 13.7631 2.01576L14.2821 1.7147ZM3.18189 19.4198L12.7764 2.88135L12.2575 2.58027L2.66291 19.1187L3.18189 19.4198ZM22.1115 18.9693H2.9224V19.5693H22.1115V18.9693ZM12.2575 2.88135L21.852 19.4198L22.371 19.1187L12.7764 2.58027L12.2575 2.88135Z" fill="white"/>
<path d="M10.8759 11.6112L9.8501 13.6707V18.3333H11.1576V13.9839L12.1834 11.9244V9H10.8759V11.6112Z" fill="#022B69" stroke="white" stroke-width="0.6"/>
<rect x="13.5168" y="9" width="1.33333" height="9.33333" fill="#022B69" stroke="white" stroke-width="0.6"/>
<rect x="9.81812" y="9.61084" width="10" height="1" transform="rotate(45 9.81812 9.61084)" fill="#022B69"/>
</svg>
