<svg width="74" height="74" viewBox="0 0 74 74" fill="none" xmlns="http://www.w3.org/2000/svg">
<path fill-rule="evenodd" clip-rule="evenodd" d="M17.859 45.6735L16.1145 47.418C15.6383 47.8783 14.883 47.8783 14.4068 47.418L0.499827 33.511C0.0234952 33.0319 0.0234952 32.258 0.499827 31.7788L2.30577 30.0343C3.74472 28.5971 6.07581 28.5971 7.51476 30.0343C6.56209 29.0759 6.56209 27.5282 7.51476 26.5698L26.5693 7.45382C27.5277 6.50116 29.0754 6.50116 30.0338 7.45382C28.5966 6.01487 28.5966 3.68378 30.0338 2.24483L31.7783 0.500315C32.2575 0.0239834 33.0314 0.0239834 33.5105 0.500315L47.4176 14.3828C47.8939 14.8619 47.8939 15.6358 47.4176 16.115L45.673 17.8841C44.2341 19.3212 41.903 19.3212 40.4641 17.8841L31.7783 9.18605C31.7647 9.18605 31.7691 9.17103 31.7645 9.16746C31.7281 9.13895 31.1183 9.84332 16.1145 24.8253C15.7566 25.1799 15.6515 25.717 15.8493 26.1803C16.0471 26.6436 16.5077 26.9393 17.0113 26.9261C17.3379 26.928 17.6517 26.7998 17.8836 26.5698L33.5105 10.9306L40.4641 17.8841C41.4167 18.8424 41.4167 20.3902 40.4641 21.3485L37.8596 23.953L39.5672 25.6976C40.0286 26.1584 40.2878 26.7838 40.2878 27.4359C40.2878 28.0881 40.0286 28.7134 39.5672 29.1743L29.1492 39.5923C28.6884 40.0537 28.063 40.3129 27.4109 40.3129C26.7587 40.3129 26.1334 40.0537 25.6725 39.5923L23.928 37.86L21.3235 40.4645C20.3651 41.4172 18.8174 41.4172 17.859 40.4645C19.2962 41.9035 19.2962 44.2346 17.859 45.6735ZM9.18556 31.7788L10.9301 33.511L14.4068 30.0343C14.8832 29.5551 14.8832 28.7812 14.4068 28.302C14.1762 28.0695 13.8622 27.9387 13.5346 27.9387C13.207 27.9387 12.893 28.0695 12.6623 28.302L9.18556 31.7788Z" fill="#0066F5"/>
<path d="M34.7021 38.1797L38.1764 34.7054L41.6507 38.1797L38.1764 41.654L34.7021 38.1797Z" fill="#0066F5"/>
<path d="M43.7393 50.6956L50.6878 43.747L65.4536 58.5127L58.505 65.4613L43.7393 50.6956Z" fill="#0066F5"/>
<path d="M60.2354 67.1985L67.1839 60.2499L68.9211 61.987L61.9725 68.9356L60.2354 67.1985Z" fill="#0066F5"/>
<path d="M70.6736 63.7329L63.7324 70.6741L65.4647 72.4186C67.3848 74.3388 70.498 74.3388 72.4182 72.4186C74.3383 70.4985 74.3383 67.3853 72.4182 65.4651L70.6736 63.7329Z" fill="#0066F5"/>
<path d="M48.9658 42.0123L46.3613 39.457C45.9004 38.9956 45.2751 38.7363 44.6229 38.7363C43.9708 38.7363 43.3454 38.9956 42.8846 39.457L39.457 42.8846C38.9956 43.3454 38.7363 43.9708 38.7363 44.6229C38.7363 45.2751 38.9956 45.9004 39.457 46.3613L42.0614 48.9658L48.9658 42.0123Z" fill="#0066F5"/>
<path d="M30.8569 67.7134H3.82914C2.47214 67.7134 1.37207 68.8134 1.37207 70.1704V73.8561H33.314V70.1704C33.314 68.8134 32.2139 67.7134 30.8569 67.7134Z" fill="#0066F5"/>
<path d="M25.9437 59.1135H8.7442C6.70869 59.1135 5.05859 60.7636 5.05859 62.7991V65.2562H29.6293V62.7991C29.6293 60.7636 27.9792 59.1135 25.9437 59.1135Z" fill="#0066F5"/>
<path d="M30.8575 54.1996V49.2854C30.8575 48.6069 30.3074 48.0569 29.6289 48.0569C28.9504 48.0569 28.4004 48.6069 28.4004 49.2854V54.1996C28.4004 54.8781 28.9504 55.4281 29.6289 55.4281C30.3074 55.4281 30.8575 54.8781 30.8575 54.1996Z" fill="#0066F5"/>
<path d="M39.4571 57.885H34.543C33.8645 57.885 33.3145 58.435 33.3145 59.1135C33.3145 59.792 33.8645 60.3421 34.543 60.3421H39.4571C40.1356 60.3421 40.6857 59.792 40.6857 59.1135C40.6857 58.435 40.1356 57.885 39.4571 57.885Z" fill="#0066F5"/>
<path d="M36.128 50.8701L32.4424 54.5557C31.9606 55.0374 31.9606 55.8185 32.4424 56.3002C32.9241 56.7819 33.7051 56.7819 34.1869 56.3002L37.8725 52.6146C38.3542 52.1329 38.3542 51.3518 37.8725 50.8701C37.3907 50.3884 36.6097 50.3884 36.128 50.8701Z" fill="#0066F5"/>
</svg>
