<svg width="57" height="57" viewBox="0 0 57 57" fill="none" xmlns="http://www.w3.org/2000/svg">
<circle cx="28.5" cy="28.5" r="28.5" fill="white"/>
<path d="M29.12 19.06L23.58 24.6C23.21 24.97 23 25.48 23 26.01V36C23 37.1 23.9 38 25 38H34C34.8 38 35.52 37.52 35.84 36.79L39.1 29.18C39.94 27.2 38.49 25 36.34 25H30.69L31.64 20.42C31.74 19.92 31.59 19.41 31.23 19.05C30.64 18.47 29.7 18.47 29.12 19.06ZM19 38C20.1 38 21 37.1 21 36V28C21 26.9 20.1 26 19 26C17.9 26 17 26.9 17 28V36C17 37.1 17.9 38 19 38Z" fill="#428DFF"/>
</svg>
