<svg width="47" height="47" viewBox="0 0 47 47" fill="none" xmlns="http://www.w3.org/2000/svg">
<g id="Group 29">
<path id="Combined Shape" fill-rule="evenodd" clip-rule="evenodd" d="M5 0C2.23858 0 0 2.23858 0 5V42C0 44.7614 2.23858 47 5 47H42C44.7614 47 47 44.7614 47 42V5C47 2.23858 44.7614 0 42 0H5ZM16.6774 15.1613C15.7824 15.1613 15.1613 15.7959 15.1613 16.6774C15.1613 17.5589 15.7824 18.1935 16.6774 18.1935C17.5725 18.1935 18.1935 17.5589 18.1935 16.6774C18.1935 15.7959 17.5725 15.1613 16.6774 15.1613ZM15.1613 19.7097V31.8387H18.1935V19.7097H15.1613ZM21.2258 31.8387V19.8435H24.2694V21.9393C25.0204 20.4454 26.2852 19.732 27.9453 19.7097C30.3169 19.7097 31.8387 21.4934 31.8387 24.3027V31.8387H28.7952V25.306C28.7952 23.7898 28.0046 22.8534 26.7002 22.8534C25.1785 22.8757 24.2694 24.1689 24.2694 25.9303V31.8387H21.2258Z" fill="#0066F5"/>
</g>
</svg>
