<svg width="26" height="26" viewBox="0 0 26 26" fill="none" xmlns="http://www.w3.org/2000/svg">
<path fill-rule="evenodd" clip-rule="evenodd" d="M0.242188 2.4341C0.242188 1.11275 1.17318 0.161377 2.51491 0.161377C3.85665 0.161377 4.78764 1.11275 4.78764 2.4341C4.78764 3.75546 3.85665 4.70683 2.51491 4.70683C1.17318 4.70683 0.242188 3.75546 0.242188 2.4341ZM0.242188 25.1614V6.97956H4.78764V25.1614H0.242188ZM9.3331 7.18009V25.1614H13.8955V16.3044C13.8955 13.6641 15.2583 11.7255 17.5395 11.6921C19.4948 11.6921 20.6798 13.0959 20.6798 15.3686V25.1614H25.2422V13.8646C25.2422 9.65336 22.961 6.97956 19.4059 6.97956C16.9173 7.01298 15.0213 8.0825 13.8955 10.3218V7.18009H9.3331Z" fill="white"/>
</svg>
