<svg width="15" height="18" viewBox="0 0 15 18" fill="none" xmlns="http://www.w3.org/2000/svg">
<path d="M13.9143 16.8019V17.7005H0.295898V16.8019C0.295926 15.9004 0.845961 15.0924 1.67846 14.7711L4.56498 13.6568C5.02527 13.4807 5.32954 13.0345 5.32879 12.5366V11.9375C5.33304 11.5975 5.1903 11.2725 4.938 11.0479C4.20549 10.4281 3.80227 9.49684 3.84853 8.53182C3.84853 8.49288 3.84853 8.45094 3.85149 8.415H3.54952C3.059 8.415 2.66136 8.01268 2.66136 7.5164V6.61781C2.66046 6.25686 2.87417 5.93076 3.20314 5.7911C3.03538 5.25252 2.95343 4.69035 2.96037 4.1257C2.96037 1.85255 4.39001 0.327637 6.27616 0.327637C7.85442 0.327637 9.51024 1.01656 9.87024 2.54417C10.809 2.76792 11.5577 4.02746 11.1403 5.71921L11.0752 5.82405C11.367 5.97856 11.5496 6.28455 11.5489 6.61781V7.5164C11.5489 8.01268 11.1512 8.415 10.6607 8.415H10.3587C10.3617 8.45094 10.3617 8.49288 10.3617 8.53182C10.408 9.49684 10.0047 10.4281 9.27221 11.0479C9.01992 11.2725 8.87718 11.5975 8.88142 11.9375V12.5366C8.88068 13.0345 9.18495 13.4807 9.64524 13.6568L12.5318 14.7711C13.3643 15.0924 13.9143 15.9004 13.9143 16.8019Z" fill="#CAD9FC"/>
<path d="M13.0262 16.8019V17.7005H0.295898V16.8019C0.295926 15.9004 0.845961 15.0925 1.67846 14.7711L4.56498 13.6568C5.02527 13.4807 5.32954 13.0345 5.32879 12.5366V11.9375C5.33304 11.5975 5.1903 11.2726 4.938 11.0479C4.20549 10.4281 3.80227 9.49686 3.84853 8.53184C3.84853 8.4929 3.84853 8.45097 3.85149 8.41502H3.54952C3.059 8.41502 2.66136 8.01271 2.66136 7.51643V6.61783C2.66046 6.25688 2.87417 5.93079 3.20314 5.79112C3.03538 5.25254 2.95343 4.69038 2.96037 4.12573C2.96037 2.06195 4.15642 0.549315 5.88241 0.351624C7.46333 0.489408 8.59721 1.29215 8.92879 2.35549C9.02412 2.6089 8.90777 2.50855 9.11827 2.58913C10.2853 3.0534 10.555 4.49295 10.2521 5.71924L10.187 5.82407C10.4789 5.97858 10.6615 6.28457 10.6607 6.61783V7.51643C10.6607 8.01271 10.2631 8.41502 9.77254 8.41502H9.47057C9.47353 8.45097 9.47353 8.4929 9.47353 8.53184C9.51979 9.49686 9.11657 10.4281 8.38406 11.0479C8.13176 11.2726 7.98902 11.5975 7.99327 11.9375V12.5366C7.99252 13.0345 8.29679 13.4807 8.75708 13.6568L11.6436 14.7711C12.4761 15.0925 13.0261 15.9004 13.0262 16.8019Z" fill="#E8EDFC"/>
<path d="M1.18406 16.8019C1.18408 15.9004 1.73412 15.0924 2.56662 14.771L5.45314 13.6568C5.91343 13.4807 6.2177 13.0344 6.21695 12.5365V11.9375C6.2212 11.5975 6.07846 11.2725 5.82616 11.0479C5.09365 10.428 4.69042 9.49681 4.73669 8.53179C4.73669 8.49285 4.73669 8.45092 4.73965 8.41498H4.43767C3.94716 8.41498 3.54952 8.01266 3.54952 7.51638V6.61778C3.54862 6.25683 3.76232 5.93074 4.09129 5.79108C3.73022 4.65802 3.76925 3.43326 4.20172 2.32609C4.63985 1.24358 5.62483 0.487497 6.77323 0.352174C6.60774 0.336898 6.44166 0.327612 6.27616 0.327612C4.9774 0.317407 3.80366 1.10917 3.31356 2.32609C2.88109 3.43326 2.84206 4.65802 3.20314 5.79108C2.87417 5.93074 2.66046 6.25683 2.66136 6.61778V7.51638C2.66136 8.01266 3.059 8.41498 3.54952 8.41498H3.85149C3.84853 8.45092 3.84853 8.49285 3.84853 8.53179C3.80227 9.49681 4.20549 10.428 4.938 11.0479C5.1903 11.2725 5.33304 11.5975 5.32879 11.9375V12.5365C5.32954 13.0344 5.02527 13.4807 4.56498 13.6568L1.67846 14.771C0.845961 15.0924 0.295926 15.9004 0.295898 16.8019V17.7005H1.18406V16.8019Z" fill="white"/>
<path d="M3.31593 1.68298L3.81921 2.00169C3.43901 2.6425 3.24413 3.37837 3.25671 4.12567H2.66461C2.65141 3.2658 2.87708 2.41946 3.31593 1.68298Z" fill="white"/>
<path d="M3.11148 3.23664C2.94798 3.23664 2.81543 3.10253 2.81543 2.93711C2.81543 2.77168 2.94798 2.63757 3.11148 2.63757C3.27499 2.63757 3.40753 2.77168 3.40753 2.93711C3.40753 3.10253 3.27499 3.23664 3.11148 3.23664Z" fill="#428DFF"/>
<path d="M14.2105 17.7005V16.8019C14.207 15.7772 13.5825 14.8597 12.6376 14.491L9.74961 13.3773C9.40614 13.2435 9.17903 12.9101 9.17763 12.5378V11.9387C9.17235 11.6861 9.27742 11.444 9.4648 11.277C10.2176 10.6438 10.6535 9.70501 10.6546 8.71453C10.9698 8.7162 11.2726 8.59071 11.496 8.36584C11.7195 8.14096 11.8451 7.83526 11.8451 7.5164V6.61781C11.8458 6.27386 11.6998 5.94632 11.4445 5.71921C11.7554 4.34735 11.3977 2.82363 10.1152 2.30994C9.62171 0.720321 7.92651 0.0281026 6.27632 0.0281026C5.07052 0.0147195 3.94639 0.643098 3.31579 1.68302C3.26948 1.75124 3.25441 1.83632 3.27441 1.91657C3.29441 1.99683 3.34755 2.0645 3.4203 2.10236C3.55928 2.17547 3.73032 2.13231 3.81908 2.00172C4.34085 1.13674 5.27482 0.614286 6.27632 0.627167C7.70566 0.627167 9.26645 1.22623 9.58204 2.61306C9.62852 2.81105 9.80586 2.83202 9.89822 2.86767C10.8675 3.25376 11.0824 4.39528 10.8894 5.44843C10.8149 5.42835 10.738 5.41828 10.6609 5.41848C10.4973 5.41848 10.3648 5.55259 10.3648 5.71801C10.3648 5.88344 10.4973 6.01754 10.6609 6.01754C10.9879 6.01754 11.253 6.28575 11.253 6.61661V7.5152C11.253 7.84606 10.9879 8.11427 10.6609 8.11427H10.3589C10.276 8.11399 10.1968 8.14886 10.1406 8.2104C10.0843 8.27193 10.0561 8.35451 10.0628 8.43806C10.0652 8.46652 10.0649 8.49977 10.0649 8.53062C10.1128 9.40746 9.74823 10.2556 9.08171 10.8181C8.76096 11.0993 8.57935 11.5094 8.58553 11.9387V12.5378C8.58809 13.1583 8.96634 13.7139 9.53852 13.9375L12.4265 15.0508C13.1425 15.3302 13.6158 16.0255 13.6184 16.8019V17.401H0.592105V16.8019C0.59476 16.0255 1.068 15.3302 1.78401 15.0508L4.67201 13.9375C5.24419 13.7139 5.62243 13.1583 5.625 12.5378V11.9387C5.6306 11.5097 5.44869 11.1 5.12793 10.8193C4.46141 10.2568 4.09687 9.40866 4.14474 8.53182C4.1675 8.41914 4.13987 8.30204 4.06924 8.21192C3.96296 8.0954 3.87296 8.11547 3.54967 8.11547C3.22266 8.11547 2.95757 7.84726 2.95757 7.5164V6.61781C2.95685 6.4587 3.01901 6.30591 3.1302 6.19341C3.2414 6.08091 3.39242 6.01802 3.54967 6.01874C3.71318 6.01874 3.84572 5.88464 3.84572 5.71921C3.84572 5.55378 3.71318 5.41968 3.54967 5.41968C3.50294 5.42157 3.45638 5.42638 3.41023 5.43406C3.30599 5.006 3.25438 4.56655 3.25658 4.1257C3.25658 3.96027 3.12403 3.82617 2.96053 3.82617C2.79702 3.82617 2.66447 3.96027 2.66447 4.1257C2.66099 4.63992 2.72359 5.15242 2.85069 5.65032C2.5448 5.87529 2.36429 6.23519 2.36546 6.61781V7.5164C2.36546 7.83526 2.49107 8.14096 2.7145 8.36584C2.93793 8.59071 3.24074 8.7162 3.55589 8.71453C3.55701 9.70501 3.99293 10.6438 4.74572 11.277C4.93311 11.444 5.03818 11.6861 5.03289 11.9387V12.5378C5.03113 12.9098 4.80409 13.2427 4.46092 13.3764L1.57293 14.4901C0.627731 14.859 0.00316195 15.7769 0 16.8019V17.7005C0 17.8659 0.132547 18 0.296053 18H13.9145C14.078 18 14.2105 17.8659 14.2105 17.7005Z" fill="#428DFF"/>
</svg>
