<svg width="74" height="74" viewBox="0 0 74 74" fill="none" xmlns="http://www.w3.org/2000/svg">
<path fill-rule="evenodd" clip-rule="evenodd" d="M26.2179 26.0564H69.6692C72.0571 26.0564 73.9999 28.0116 73.9999 30.4148V71.8198C73.9999 73.7498 71.6791 74.7226 70.3161 73.3734L62.1423 65.2822H26.2179C23.83 65.2822 21.8872 63.327 21.8872 60.9237V30.4148C21.8872 28.0116 23.83 26.0564 26.2179 26.0564ZM32.7139 56.42H63.0288C64.2246 56.42 65.1941 55.4443 65.1941 54.2408C65.1941 53.0373 64.2246 52.0616 63.0288 52.0616H32.7139C31.5181 52.0616 30.5486 53.0373 30.5486 54.2408C30.5486 55.4443 31.5181 56.42 32.7139 56.42Z" fill="#0066F5"/>
<path fill-rule="evenodd" clip-rule="evenodd" d="M52.1127 22.0827V4.35844C52.1127 1.95548 50.1696 0 47.782 0H4.33069C1.94304 0 0 1.95548 0 4.35844V45.7636C0 47.7034 2.32847 48.6618 3.68398 47.3166L11.8574 39.2259H17.4671V30.7996C17.4671 25.9931 21.3526 22.0827 26.1285 22.0827H52.1127ZM41.2859 21.9375C40.0901 21.9375 39.1206 20.9618 39.1206 19.7582C39.1206 18.5547 40.0901 17.579 41.2859 17.579C42.4818 17.579 43.4513 18.5547 43.4513 19.7582C43.4513 20.9618 42.4818 21.9375 41.2859 21.9375ZM41.2859 8.86215H10.9711C9.7751 8.86215 8.80574 9.83786 8.80574 11.0414C8.80574 12.2449 9.77524 13.2206 10.9711 13.2206H41.2859C42.4818 13.2206 43.4513 12.2449 43.4513 11.0414C43.4513 9.83786 42.4818 8.86215 41.2859 8.86215ZM15.3018 30.6543H10.9711C9.77524 30.6543 8.80574 29.6786 8.80574 28.4751C8.80574 27.2716 9.77524 26.2959 10.9711 26.2959H15.3018C16.4976 26.2959 17.4671 27.2716 17.4671 28.4751C17.4671 29.6786 16.4976 30.6543 15.3018 30.6543ZM8.80574 19.7582C8.80574 20.9618 9.77524 21.9375 10.9711 21.9375H32.6246C33.8204 21.9375 34.7899 20.9618 34.7899 19.7582C34.7899 18.5547 33.8204 17.579 32.6246 17.579H10.9711C9.77524 17.579 8.80574 18.5547 8.80574 19.7582Z" fill="#0066F5"/>
</svg>
