<svg width="25" height="25" viewBox="0 0 25 25" fill="none" xmlns="http://www.w3.org/2000/svg">
<path fill-rule="evenodd" clip-rule="evenodd" d="M20.8728 1H4.12733C2.2143 1 0.657959 2.55634 0.657959 4.46937V21.2148C0.657959 23.1275 2.21701 24.6842 4.12733 24.6842H20.8728C22.7858 24.6842 24.3422 23.1279 24.3422 21.2148V4.46937C24.3422 2.55652 22.7829 1 20.8728 1ZM2.04571 4.46937C2.04571 3.32158 2.97954 2.38775 4.12733 2.38775H20.8728C21.1937 2.38775 21.498 2.46093 21.7698 2.59121L16.9947 7.36611L14.3041 5.34827C14.094 5.19053 13.8125 5.16523 13.5776 5.28268C13.3425 5.40031 13.1939 5.64046 13.1939 5.90337V7.98499H9.72457C7.81154 7.98499 6.2552 9.54133 6.2552 11.4544V18.1056L2.24917 22.1118C2.11889 21.8401 2.04571 21.5358 2.04571 21.2148V4.46937ZM17.125 9.19855L14.5817 11.7418V12.8421L18.2823 10.0666L17.125 9.19855ZM13.6003 10.7605H11.1123C9.96453 10.7605 9.0307 11.6943 9.0307 12.8421V15.3301L7.64295 16.7179V11.4544C7.64295 10.3066 8.57679 9.37274 9.72457 9.37274H13.8878C14.2711 9.37274 14.5817 9.06212 14.5817 8.67887V7.29112L16.0034 8.35741L13.6003 10.7605ZM10.4184 13.9424L12.2126 12.1482H11.1123C10.7298 12.1482 10.4184 12.4596 10.4184 12.8421V13.9424ZM7.64295 18.6806L9.0307 17.2928V19.087H7.64295V18.6806ZM20.8728 23.2965C22.0206 23.2965 22.9544 22.3626 22.9544 21.2148V4.46937C22.9544 4.14845 22.8812 3.84416 22.751 3.57239L18.1163 8.20725L19.8551 9.51151C20.0299 9.64252 20.1327 9.84815 20.1327 10.0666C20.1327 10.2851 20.0299 10.4907 19.8551 10.6217L14.3041 14.785C14.094 14.9427 13.8125 14.968 13.5776 14.8505C13.3425 14.7329 13.1939 14.4928 13.1939 14.2299V13.1296L10.4184 15.9051V19.7808C10.4184 20.1641 10.1078 20.4747 9.72457 20.4747H6.94908C6.65147 20.4747 6.39832 20.287 6.29984 20.0237L3.23035 23.093C3.50212 23.2233 3.80641 23.2965 4.12733 23.2965H20.8728Z" fill="#022B69"/>
<path d="M21.7698 2.59121L21.9112 2.73263L22.1109 2.53294L21.8562 2.41086L21.7698 2.59121ZM16.9947 7.36611L16.8747 7.52611L17.0135 7.63018L17.1361 7.50753L16.9947 7.36611ZM14.3041 5.34827L14.1841 5.50822L14.1841 5.50828L14.3041 5.34827ZM13.5776 5.28268L13.4881 5.1038L13.4881 5.10382L13.5776 5.28268ZM13.1939 7.98499V8.18499H13.3939V7.98499H13.1939ZM6.2552 18.1056L6.39663 18.247L6.4552 18.1884V18.1056H6.2552ZM2.24917 22.1118L2.06882 22.1983L2.1909 22.4529L2.39059 22.2532L2.24917 22.1118ZM14.5817 11.7418L14.4403 11.6004L14.3817 11.659V11.7418H14.5817ZM17.125 9.19855L17.245 9.03855L17.1062 8.93447L16.9836 9.05713L17.125 9.19855ZM14.5817 12.8421H14.3817V13.2421L14.7017 13.0021L14.5817 12.8421ZM18.2823 10.0666L18.4023 10.2266L18.6157 10.0666L18.4023 9.90662L18.2823 10.0666ZM13.6003 10.7605V10.9605H13.6832L13.7417 10.9019L13.6003 10.7605ZM9.0307 15.3301L9.17212 15.4715L9.2307 15.413V15.3301H9.0307ZM7.64295 16.7179H7.44295V17.2007L7.78437 16.8593L7.64295 16.7179ZM14.5817 7.29112L14.7017 7.13112L14.3817 6.89112V7.29112H14.5817ZM16.0034 8.35741L16.1448 8.49883L16.3079 8.33577L16.1234 8.19741L16.0034 8.35741ZM12.2126 12.1482L12.354 12.2897L12.6954 11.9482H12.2126V12.1482ZM10.4184 13.9424H10.2184V14.4252L10.5599 14.0838L10.4184 13.9424ZM9.0307 17.2928H9.2307V16.81L8.88928 17.1514L9.0307 17.2928ZM7.64295 18.6806L7.50153 18.5392L7.44295 18.5977V18.6806H7.64295ZM9.0307 19.087V19.287H9.2307V19.087H9.0307ZM7.64295 19.087H7.44295V19.287H7.64295V19.087ZM22.751 3.57239L22.9313 3.48593L22.8092 3.23127L22.6095 3.43097L22.751 3.57239ZM18.1163 8.20725L17.9749 8.06583L17.8118 8.22888L17.9963 8.36724L18.1163 8.20725ZM19.8551 9.51151L19.7351 9.67151L19.7351 9.67153L19.8551 9.51151ZM19.8551 10.6217L19.7351 10.4617L19.7351 10.4617L19.8551 10.6217ZM14.3041 14.785L14.1841 14.625L14.1841 14.625L14.3041 14.785ZM13.5776 14.8505L13.4881 15.0294L13.4881 15.0294L13.5776 14.8505ZM13.1939 13.1296H13.3939V12.6468L13.0525 12.9882L13.1939 13.1296ZM10.4184 15.9051L10.277 15.7637L10.2184 15.8222V15.9051H10.4184ZM6.29984 20.0237L6.48716 19.9536L6.37825 19.6625L6.15842 19.8823L6.29984 20.0237ZM3.23035 23.093L3.08893 22.9516L2.88923 23.1513L3.14389 23.2733L3.23035 23.093ZM4.12733 1.2H20.8728V0.8H4.12733V1.2ZM0.857959 4.46937C0.857959 2.66679 2.32475 1.2 4.12733 1.2V0.8C2.10384 0.8 0.457959 2.44588 0.457959 4.46937H0.857959ZM0.857959 21.2148V4.46937H0.457959V21.2148H0.857959ZM4.12733 24.4842C2.32737 24.4842 0.857959 23.017 0.857959 21.2148H0.457959C0.457959 23.2381 2.10664 24.8842 4.12733 24.8842V24.4842ZM20.8728 24.4842H4.12733V24.8842H20.8728V24.4842ZM24.1422 21.2148C24.1422 23.0174 22.6754 24.4842 20.8728 24.4842V24.8842C22.8963 24.8842 24.5422 23.2383 24.5422 21.2148H24.1422ZM24.1422 4.46937V21.2148H24.5422V4.46937H24.1422ZM20.8728 1.2C22.6726 1.2 24.1422 2.66708 24.1422 4.46937H24.5422C24.5422 2.44596 22.8933 0.8 20.8728 0.8V1.2ZM4.12733 2.18775C2.86909 2.18775 1.84571 3.21113 1.84571 4.46937H2.24571C2.24571 3.43204 3.09 2.58775 4.12733 2.58775V2.18775ZM20.8728 2.18775H4.12733V2.58775H20.8728V2.18775ZM21.8562 2.41086C21.5582 2.26798 21.2244 2.18775 20.8728 2.18775V2.58775C21.163 2.58775 21.4378 2.65388 21.6833 2.77156L21.8562 2.41086ZM17.1361 7.50753L21.9112 2.73263L21.6284 2.44979L16.8533 7.22468L17.1361 7.50753ZM14.1841 5.50828L16.8747 7.52611L17.1147 7.2061L14.4241 5.18827L14.1841 5.50828ZM13.667 5.46157C13.8342 5.37797 14.0346 5.39601 14.1841 5.50822L14.4242 5.18832C14.1534 4.98504 13.7907 4.95248 13.4881 5.1038L13.667 5.46157ZM13.3939 5.90337C13.3939 5.71627 13.4996 5.54532 13.6671 5.46154L13.4881 5.10382C13.1853 5.25531 12.9939 5.56465 12.9939 5.90337H13.3939ZM13.3939 7.98499V5.90337H12.9939V7.98499H13.3939ZM9.72457 8.18499H13.1939V7.78499H9.72457V8.18499ZM6.4552 11.4544C6.4552 9.65178 7.922 8.18499 9.72457 8.18499V7.78499C7.70108 7.78499 6.0552 9.43087 6.0552 11.4544H6.4552ZM6.4552 18.1056V11.4544H6.0552V18.1056H6.4552ZM2.39059 22.2532L6.39663 18.247L6.11378 17.9642L2.10775 21.9704L2.39059 22.2532ZM1.84571 21.2148C1.84571 21.5665 1.92594 21.9002 2.06882 22.1983L2.42952 22.0254C2.31183 21.7799 2.24571 21.5051 2.24571 21.2148H1.84571ZM1.84571 4.46937V21.2148H2.24571V4.46937H1.84571ZM14.7231 11.8833L17.2664 9.33997L16.9836 9.05713L14.4403 11.6004L14.7231 11.8833ZM14.7817 12.8421V11.7418H14.3817V12.8421H14.7817ZM18.1623 9.90661L14.4617 12.6821L14.7017 13.0021L18.4023 10.2266L18.1623 9.90661ZM17.005 9.35854L18.1623 10.2266L18.4023 9.90662L17.245 9.03855L17.005 9.35854ZM11.1123 10.9605H13.6003V10.5605H11.1123V10.9605ZM9.2307 12.8421C9.2307 11.8048 10.075 10.9605 11.1123 10.9605V10.5605C9.85408 10.5605 8.8307 11.5839 8.8307 12.8421H9.2307ZM9.2307 15.3301V12.8421H8.8307V15.3301H9.2307ZM7.78437 16.8593L9.17212 15.4715L8.88928 15.1887L7.50153 16.5764L7.78437 16.8593ZM7.44295 11.4544V16.7179H7.84295V11.4544H7.44295ZM9.72457 9.17274C8.46633 9.17274 7.44295 10.1961 7.44295 11.4544H7.84295C7.84295 10.417 8.68725 9.57274 9.72457 9.57274V9.17274ZM13.8878 9.17274H9.72457V9.57274H13.8878V9.17274ZM14.3817 8.67887C14.3817 8.95167 14.1606 9.17274 13.8878 9.17274V9.57274C14.3815 9.57274 14.7817 9.17258 14.7817 8.67887H14.3817ZM14.3817 7.29112V8.67887H14.7817V7.29112H14.3817ZM16.1234 8.19741L14.7017 7.13112L14.4617 7.45112L15.8834 8.51741L16.1234 8.19741ZM13.7417 10.9019L16.1448 8.49883L15.862 8.21599L13.4589 10.6191L13.7417 10.9019ZM12.0712 12.0068L10.277 13.8009L10.5599 14.0838L12.354 12.2897L12.0712 12.0068ZM11.1123 12.3482H12.2126V11.9482H11.1123V12.3482ZM10.6184 12.8421C10.6184 12.57 10.8402 12.3482 11.1123 12.3482V11.9482C10.6193 11.9482 10.2184 12.3491 10.2184 12.8421H10.6184ZM10.6184 13.9424V12.8421H10.2184V13.9424H10.6184ZM8.88928 17.1514L7.50153 18.5392L7.78437 18.822L9.17212 17.4343L8.88928 17.1514ZM9.2307 19.087V17.2928H8.8307V19.087H9.2307ZM7.64295 19.287H9.0307V18.887H7.64295V19.287ZM7.44295 18.6806V19.087H7.84295V18.6806H7.44295ZM22.7544 21.2148C22.7544 22.2522 21.9101 23.0965 20.8728 23.0965V23.4965C22.131 23.4965 23.1544 22.4731 23.1544 21.2148H22.7544ZM22.7544 4.46937V21.2148H23.1544V4.46937H22.7544ZM22.5706 3.65885C22.6883 3.90433 22.7544 4.17915 22.7544 4.46937H23.1544C23.1544 4.11775 23.0742 3.78398 22.9313 3.48593L22.5706 3.65885ZM18.2577 8.34867L22.8924 3.71381L22.6095 3.43097L17.9749 8.06583L18.2577 8.34867ZM19.9751 9.35152L18.2363 8.04725L17.9963 8.36724L19.7351 9.67151L19.9751 9.35152ZM20.3327 10.0666C20.3327 9.78521 20.2002 9.52028 19.9751 9.35149L19.7351 9.67153C19.8595 9.76475 19.9327 9.91109 19.9327 10.0666H20.3327ZM19.9751 10.7817C20.2002 10.6129 20.3327 10.348 20.3327 10.0666H19.9327C19.9327 10.2221 19.8595 10.3685 19.7351 10.4617L19.9751 10.7817ZM14.4241 14.945L19.9751 10.7817L19.7351 10.4617L14.1841 14.625L14.4241 14.945ZM13.4881 15.0294C13.7907 15.1807 14.1534 15.1482 14.4242 14.9449L14.1841 14.625C14.0346 14.7372 13.8342 14.7552 13.667 14.6717L13.4881 15.0294ZM12.9939 14.2299C12.9939 14.5686 13.1853 14.8779 13.4881 15.0294L13.6671 14.6717C13.4996 14.5879 13.3939 14.417 13.3939 14.2299H12.9939ZM12.9939 13.1296V14.2299H13.3939V13.1296H12.9939ZM10.5599 16.0465L13.3354 13.271L13.0525 12.9882L10.277 15.7637L10.5599 16.0465ZM10.6184 19.7808V15.9051H10.2184V19.7808H10.6184ZM9.72457 20.6747C10.2183 20.6747 10.6184 20.2746 10.6184 19.7808H10.2184C10.2184 20.0536 9.99737 20.2747 9.72457 20.2747V20.6747ZM6.94908 20.6747H9.72457V20.2747H6.94908V20.6747ZM6.11251 20.0938C6.23913 20.4323 6.56496 20.6747 6.94908 20.6747V20.2747C6.73798 20.2747 6.5575 20.1417 6.48716 19.9536L6.11251 20.0938ZM3.37177 23.2344L6.44125 20.1651L6.15842 19.8823L3.08893 22.9516L3.37177 23.2344ZM4.12733 23.0965C3.83711 23.0965 3.56229 23.0303 3.31681 22.9127L3.14389 23.2733C3.44194 23.4162 3.77571 23.4965 4.12733 23.4965V23.0965ZM20.8728 23.0965H4.12733V23.4965H20.8728V23.0965Z" fill="white"/>
</svg>
