<svg width="15" height="15" viewBox="0 0 15 15" fill="none" xmlns="http://www.w3.org/2000/svg">
<path d="M9.26331 2.51172L1.0101 10.7655C0.968576 10.8072 0.938595 10.8598 0.924318 10.9163L0.00952848 14.588C-0.0178355 14.6986 0.0146444 14.8161 0.0953086 14.8968C0.156342 14.9578 0.239505 14.9916 0.324571 14.9916C0.350626 14.9916 0.377277 14.9884 0.403213 14.9818L4.07498 14.0669C4.13221 14.0527 4.1842 14.0228 4.22572 13.9813L12.4796 5.72806L9.26331 2.51172Z" fill="#2D5AF6"/>
<path d="M14.5242 1.38633L13.6055 0.467619C12.9915 -0.146405 11.9213 -0.14581 11.308 0.467619L10.1826 1.59299L13.3988 4.80921L14.5242 3.68384C14.8309 3.37724 14.9999 2.96916 14.9999 2.53515C14.9999 2.10113 14.8309 1.69305 14.5242 1.38633Z" fill="#2D5AF6"/>
</svg>
