<svg width="22" height="25" viewBox="0 0 22 25" fill="none" xmlns="http://www.w3.org/2000/svg">
<path fill-rule="evenodd" clip-rule="evenodd" d="M6.25008 0H15.4167C16.5667 0.00135417 17.4987 0.933333 17.5001 2.08333V22.9167C17.4987 24.0667 16.5667 24.9986 15.4167 25H6.25008C5.10008 24.9986 4.1681 24.0667 4.16675 22.9167V2.08333C4.1681 0.933333 5.10008 0.00135417 6.25008 0ZM15.4167 24.1667C16.1071 24.1667 16.6667 23.607 16.6667 22.9167V21.6667H5.00008V22.9167C5.00008 23.607 5.55972 24.1667 6.25008 24.1667H15.4167ZM16.6667 20.8333H5.00008V4.58333H16.6667V20.8333ZM5.00008 3.75H16.6667V2.08333C16.6667 1.39297 16.1071 0.833333 15.4167 0.833333H6.25008C5.55972 0.833333 5.00008 1.39297 5.00008 2.08333V3.75Z" fill="#022B69"/>
<rect x="7.91675" y="2.08325" width="5.83333" height="0.833333" fill="#022B69"/>
<rect x="10" y="22.5" width="1.66667" height="0.833333" fill="#022B69"/>
<rect x="5.83325" y="5.41675" width="1.66667" height="0.833333" fill="#022B69"/>
<rect x="8.33325" y="5.41675" width="1.66667" height="0.833333" fill="#022B69"/>
<rect x="11.6667" y="7.08325" width="0.833333" height="0.833333" fill="#022B69"/>
<rect x="13.3333" y="6.25" width="0.833333" height="1.66667" fill="#022B69"/>
<rect x="15" y="5.41675" width="0.833333" height="2.5" fill="#022B69"/>
<path fill-rule="evenodd" clip-rule="evenodd" d="M13.3333 9.58325V12.9166H11.6666V15.4166H13.3333V18.7499H10.4166C9.26659 18.7486 8.33461 17.8166 8.33325 16.6666V11.6666C8.33461 10.5166 9.26659 9.58461 10.4166 9.58325H13.3333ZM12.4999 10.4166H11.6666V12.0833H12.4999V10.4166ZM10.8333 17.9166H10.4166C9.72622 17.9166 9.16659 17.3569 9.16659 16.6666V11.6666C9.16659 10.9762 9.72622 10.4166 10.4166 10.4166H10.8333V17.9166ZM12.4999 17.9166V16.2499H11.6666V17.9166H12.4999Z" fill="#022B69"/>
<path d="M18.9141 10.1221L18.325 10.7112C19.3108 11.7 19.3108 13.3 18.325 14.2887L18.9141 14.8779C20.2248 13.5636 20.2248 11.4364 18.9141 10.1221Z" fill="#022B69"/>
<path d="M20.1641 8.87207L19.575 9.46124C21.2504 11.1407 21.2504 13.8593 19.575 15.5387L20.1641 16.1279C22.1644 14.1229 22.1644 10.8771 20.1641 8.87207Z" fill="#022B69"/>
<path d="M3.34167 10.7112L2.7525 10.1221C1.39959 11.3982 1.26959 13.4577 2.54573 14.8106C2.59073 14.8583 2.63709 14.9047 2.7525 14.8779L3.34167 14.2887C2.35578 13.3 2.35578 11.7 3.34167 10.7112Z" fill="#022B69"/>
<path d="M2.0916 9.46124L1.50243 8.87207C-0.497881 10.8771 -0.497881 14.1229 1.50243 16.1279L2.0916 15.5387C0.416598 13.8592 0.416598 11.1408 2.0916 9.46124Z" fill="#022B69"/>
</svg>
