<svg width="18" height="18" viewBox="0 0 18 18" fill="none" xmlns="http://www.w3.org/2000/svg">
<rect x="7.29895" y="0.346191" width="9.6923" height="17.3077" fill="#A4C2F7"/>
<rect x="0.375854" y="0.346191" width="9.6923" height="17.3077" fill="white"/>
<rect x="1.41431" y="0.346191" width="14.5384" height="17.3077" fill="url(#paint0_linear)"/>
<rect x="4.87585" y="14.1923" width="12.1154" height="3.46155" fill="#7FACFA"/>
<circle cx="4.52969" cy="6.42777" r="1.58157" fill="#7FACFA"/>
<ellipse cx="3.93569" cy="6.42777" rx="0.987574" ry="1.58157" fill="#A4C2F7"/>
<rect x="0.375854" y="14.1923" width="12.1154" height="3.46155" fill="#ECECEC"/>
<rect x="1.41431" y="14.1923" width="14.5384" height="3.46155" fill="#A4C2F7"/>
<path fill-rule="evenodd" clip-rule="evenodd" d="M2.74882 7.1654C3.04716 7.88575 3.75007 8.35544 4.52977 8.35544C5.59387 8.35428 6.45622 7.492 6.45745 6.42789C6.45752 5.64823 5.98791 4.94524 5.26759 4.64684C4.54727 4.34843 3.71811 4.51328 3.16676 5.0646C2.6154 5.61592 2.45048 6.44505 2.74882 7.1654ZM3.29441 6.42768C3.29441 5.7454 3.84752 5.19236 4.52977 5.19236C5.21176 5.19324 5.76438 5.74593 5.76516 6.42789C5.76505 7.11017 5.2119 7.66317 4.52966 7.6631C3.84742 7.66303 3.29438 7.10992 3.29441 6.42768Z" fill="#428DFF"/>
<path d="M1.41446 14.5385C1.27036 14.5386 1.14123 14.4494 1.09032 14.3146C1.03941 14.1798 1.07738 14.0275 1.18559 13.9324L7.07613 8.74615C7.21331 8.62571 7.42041 8.63235 7.54954 8.76138L11.3454 12.5569C11.4328 12.6443 11.467 12.7718 11.435 12.8913C11.403 13.0107 11.3097 13.104 11.1902 13.136C11.0708 13.168 10.9434 13.1339 10.8559 13.0464L7.28977 9.48071L1.64298 14.4523C1.57984 14.5079 1.49859 14.5386 1.41446 14.5385Z" fill="#428DFF"/>
<path d="M9.2027 11.2499C9.06562 11.2499 8.94152 11.1689 8.88622 11.0435C8.83092 10.918 8.8549 10.7718 8.94732 10.6706L12.582 6.68979C12.6439 6.62184 12.7303 6.5813 12.8221 6.57722C12.9138 6.57417 13.0031 6.60662 13.0714 6.66782L17.2253 10.4755C17.3165 10.5591 17.3561 10.685 17.3293 10.8057C17.3026 10.9265 17.2134 11.0238 17.0954 11.0609C16.9775 11.0981 16.8486 11.0696 16.7574 10.986L12.8593 7.41254L9.45842 11.1371C9.39296 11.2091 9.30004 11.2502 9.2027 11.2499Z" fill="#428DFF"/>
<path fill-rule="evenodd" clip-rule="evenodd" d="M0.375812 18H16.9912C17.083 18.0001 17.1711 17.9636 17.236 17.8987C17.3009 17.8337 17.3374 17.7457 17.3373 17.6539V0.346148C17.3374 0.25432 17.3009 0.166254 17.236 0.10132C17.1711 0.0363868 17.083 -3.51308e-05 16.9912 0H0.375812C0.284019 -3.51308e-05 0.195952 0.0364219 0.131019 0.101355C0.066085 0.166289 0.029628 0.25432 0.0296631 0.346148V17.6539C0.029628 17.7456 0.066085 17.8337 0.131019 17.8986C0.195952 17.9636 0.283983 18 0.375812 18ZM16.6451 17.3077H0.721995V0.692297H16.6451V17.3077Z" fill="#428DFF"/>
<path fill-rule="evenodd" clip-rule="evenodd" d="M0.375812 18H16.9912C17.083 18.0001 17.1711 17.9637 17.236 17.8987C17.3009 17.8338 17.3374 17.7457 17.3373 17.6539V14.1923C17.3374 14.1005 17.3009 14.0124 17.236 13.9475C17.1711 13.8826 17.083 13.8462 16.9912 13.8462H0.375812C0.283983 13.8462 0.195952 13.8826 0.131019 13.9475C0.066085 14.0125 0.029628 14.1005 0.0296631 14.1923V17.6539C0.029628 17.7457 0.066085 17.8338 0.131019 17.8987C0.195952 17.9636 0.283983 18.0001 0.375812 18ZM16.6451 17.3077H0.721995V14.5385H16.6451V17.3077Z" fill="#428DFF"/>
<defs>
<linearGradient id="paint0_linear" x1="-5.96578" y1="10.5157" x2="12.1654" y2="23.3108" gradientUnits="userSpaceOnUse">
<stop stop-color="#D4E1F4"/>
<stop offset="0.1717" stop-color="#D4E1F4"/>
<stop offset="0.2" stop-color="#D4E1F4"/>
<stop offset="0.2001" stop-color="#DAE4F4"/>
<stop offset="0.2007" stop-color="#EBEBF4"/>
<stop offset="0.2014" stop-color="#F6F1F4"/>
<stop offset="0.2023" stop-color="#FDF4F4"/>
<stop offset="0.205" stop-color="#FFF5F4"/>
<stop offset="0.2522" stop-color="#FFF5F4"/>
<stop offset="0.26" stop-color="#FFF5F4"/>
<stop offset="0.26" stop-color="#D4E1F4"/>
<stop offset="0.3974" stop-color="#D4E1F4"/>
<stop offset="0.42" stop-color="#D4E1F4"/>
<stop offset="0.4201" stop-color="#DAE4F4"/>
<stop offset="0.4207" stop-color="#EBEBF4"/>
<stop offset="0.4214" stop-color="#F6F1F4"/>
<stop offset="0.4223" stop-color="#FDF4F4"/>
<stop offset="0.425" stop-color="#FFF5F4"/>
<stop offset="0.4894" stop-color="#FFF5F4"/>
<stop offset="0.5" stop-color="#FFF5F4"/>
<stop offset="0.5" stop-color="#F9F2F4"/>
<stop offset="0.5001" stop-color="#E8EBF4"/>
<stop offset="0.5003" stop-color="#DDE5F4"/>
<stop offset="0.5005" stop-color="#D6E2F4"/>
<stop offset="0.501" stop-color="#D4E1F4"/>
<stop offset="0.7062" stop-color="#D4E1F4"/>
<stop offset="0.74" stop-color="#D4E1F4"/>
<stop offset="0.741" stop-color="#FFF5F4"/>
<stop offset="0.8346" stop-color="#FFF5F4"/>
<stop offset="0.85" stop-color="#FFF5F4"/>
<stop offset="0.851" stop-color="#D4E1F4"/>
</linearGradient>
</defs>
</svg>
