<svg width="487" height="516" viewBox="0 0 487 516" fill="none" xmlns="http://www.w3.org/2000/svg">
<path fill-rule="evenodd" clip-rule="evenodd" d="M422.58 385.197C433.425 363.763 439.586 340.557 440.958 317.068C442.328 293.618 438.928 269.897 430.686 247.383L272.303 308L422.58 385.197Z" fill="#4E4EF5"/>
<path fill-rule="evenodd" clip-rule="evenodd" d="M268.633 307.797L93.9533 222.141C84.9206 240.419 78.8352 259.865 75.8141 279.754C72.7058 300.217 72.833 321.159 76.3158 341.792L102.771 337.196L268.633 307.797Z" fill="#7576F7"/>
<path fill-rule="evenodd" clip-rule="evenodd" d="M268.633 307.797L265.314 313.02L189.884 431.701C200.872 440.413 228.346 452.694 242.305 451.95L268.551 308.908L268.633 307.797Z" fill="#DBDBFF"/>
<path fill-rule="evenodd" clip-rule="evenodd" d="M413.311 198.995C402.68 184.947 390.226 172.282 376.225 161.361L268.637 307.792L438.544 242.766C431.96 227.126 423.473 212.427 413.311 198.995Z" fill="#ABACFD"/>
<path fill-rule="evenodd" clip-rule="evenodd" d="M382.935 152.24L402.514 125.787C363.626 96.8893 316.554 81.2 268.225 81.0276L268.264 114.019C309.533 114.165 349.728 127.563 382.935 152.24Z" fill="#022B69"/>
<path fill-rule="evenodd" clip-rule="evenodd" d="M268.633 307.797L254.432 28.0381C156.363 28.0381 66.8085 83.7755 23.4614 171.793L268.633 307.797Z" fill="black"/>
<path fill-rule="evenodd" clip-rule="evenodd" d="M268.633 307.797L381.918 153.613L381.917 153.612C365.456 141.38 347.267 131.944 328.088 125.551C308.9 119.156 288.715 115.8 268.266 115.727L268.633 307.797Z" fill="#9D9DF8"/>
<path fill-rule="evenodd" clip-rule="evenodd" d="M268.633 307.797L157.287 482.986L157.286 482.985C132.735 467.365 112.027 446.949 96.1943 423.281C80.3607 399.613 69.3918 372.679 64.3167 344.016V344.012L268.633 307.797Z" fill="#3B3BF5"/>
<path fill-rule="evenodd" clip-rule="evenodd" d="M62.2003 206.486C40.5572 250.278 33.2505 299.766 41.3636 347.866L74.5933 342.092C67.6657 301.019 73.9036 258.764 92.3849 221.368L62.2003 206.486Z" fill="#022B69"/>
<path fill-rule="evenodd" clip-rule="evenodd" d="M268.633 307.797L254.432 28.0381C156.363 28.0381 66.8085 83.7755 23.4614 171.793L268.633 307.797Z" fill="#1414F5"/>
<path fill-rule="evenodd" clip-rule="evenodd" d="M14.1732 155.228C35.6674 111.842 68.2519 75.6939 109.381 50.0944C150.424 24.5501 196.983 11.3358 245.26 11.1142L244.973 5.46045L251.736 11.5715L245.627 18.3388L245.336 12.617C196.178 13.5024 152.177 25.2279 110.174 51.3704C68.2566 77.46 37.8006 112.192 15.466 155.98L20.2985 158.786L11.4909 161.126L9.15259 152.312L14.1732 155.228Z" fill="#9AA7BA"/>
<mask id="mask0" mask-type="alpha" maskUnits="userSpaceOnUse" x="0" y="0" width="269" height="308">
<path fill-rule="evenodd" clip-rule="evenodd" d="M0.000244141 0.586426H268.63V307.806H0.000244141V0.586426Z" fill="white"/>
</mask>
<g mask="url(#mask0)">
<path fill-rule="evenodd" clip-rule="evenodd" d="M254.478 0.586426L268.63 307.806L0.000244141 159.261L0.722247 157.944L267.034 305.214L252.98 0.651512L254.478 0.586426Z" fill="#9AA7BA"/>
</g>
<path fill-rule="evenodd" clip-rule="evenodd" d="M481.49 227.939L272.304 307.999L471.602 410.38L470.921 411.715L268.63 307.794L480.955 226.535L481.49 227.939Z" fill="black"/>
<mask id="mask1" mask-type="alpha" maskUnits="userSpaceOnUse" x="459" y="233" width="28" height="169">
<path fill-rule="evenodd" clip-rule="evenodd" d="M459.908 233.926H486.795V401.994H459.908V233.926Z" fill="white"/>
</mask>
<g mask="url(#mask1)">
<path fill-rule="evenodd" clip-rule="evenodd" d="M471.384 399.189L462.712 401.994L459.908 393.318L465.009 395.927C488.404 347.271 491.693 291.343 474.163 240.282L469.052 242.272L472.72 233.926L481.062 237.596L475.493 239.765C493.297 291.18 489.963 347.582 466.219 396.545L471.384 399.189Z" fill="#9AA7BA"/>
</g>
<path fill-rule="evenodd" clip-rule="evenodd" d="M233.248 513.954L268.639 307.804L380.939 484.758L379.67 485.558L269.792 312.453L234.745 514.066L233.248 513.954Z" fill="#022253" fill-opacity="0.399038"/>
<path fill-rule="evenodd" clip-rule="evenodd" d="M264.236 509.562C300.235 511.017 335.9 502.367 367.166 484.611L370.266 489.585L372.323 480.703L363.445 478.644L366.408 483.398C335.37 500.916 300.023 509.476 264.334 508.111L264.727 502.296L257.863 508.295L263.857 515.163L264.236 509.562Z" fill="#022253" fill-opacity="0.399038"/>
<path fill-rule="evenodd" clip-rule="evenodd" d="M481.49 227.939L272.304 307.999L471.602 410.38L470.921 411.715L268.63 307.794L480.955 226.535L481.49 227.939Z" fill="#9AA7BA"/>
<path fill-rule="evenodd" clip-rule="evenodd" d="M396.937 133.323C384.997 149.453 385.497 148.742 377.406 159.753C405.114 181.351 426.803 209.706 440.41 242.052L471.118 230.299C455.239 192.109 429.677 158.669 396.937 133.323Z" fill="#022B69"/>
<path fill-rule="evenodd" clip-rule="evenodd" d="M268.633 307.797L268.634 307.796L268.633 307.797Z" fill="black"/>
<path fill-rule="evenodd" clip-rule="evenodd" d="M268.63 307.795L268.634 307.796L268.637 307.792L268.63 307.795Z" fill="black"/>
<path fill-rule="evenodd" clip-rule="evenodd" d="M268.63 307.806L270.765 308.89L268.644 307.802L268.63 307.806Z" fill="black"/>
<path fill-rule="evenodd" clip-rule="evenodd" d="M460.578 235.943L431.86 246.934C448.487 292.343 445.533 342.621 423.696 385.771L451.044 399.82C476.868 348.9 480.325 289.52 460.578 235.943Z" fill="#022B69"/>
<path fill-rule="evenodd" clip-rule="evenodd" d="M268.633 307.797L351.188 438.491L351.194 438.487C363.051 431.069 373.806 422.134 383.193 411.96C392.395 401.985 400.288 390.804 406.645 378.695L268.762 307.862L268.633 307.797Z" fill="#BBBCFA"/>
<path fill-rule="evenodd" clip-rule="evenodd" d="M432.598 392.027L408.167 379.477C395.242 404.109 375.972 424.934 352.381 439.758L367.088 462.933C394.809 445.485 417.432 421.006 432.598 392.027Z" fill="#022B69"/>
<path fill-rule="evenodd" clip-rule="evenodd" d="M268.633 307.797L268.546 308.974L268.639 307.805L268.633 307.797Z" fill="black"/>
<path fill-rule="evenodd" clip-rule="evenodd" d="M242.305 469.456C269.793 475.273 325.61 470.668 355.674 447.946L269.793 312.454L242.305 469.456Z" fill="#9D9DF8"/>
<path fill-rule="evenodd" clip-rule="evenodd" d="M176.254 453.144C199.898 468.188 210.18 472.785 238.244 475.131L242.305 453.144C226.757 452.576 209.455 445.894 189.102 432.929L176.254 453.144Z" fill="#022B69"/>
<path fill-rule="evenodd" clip-rule="evenodd" d="M235.694 495.904C278.058 506.176 338.516 495.904 370.508 470.125L356.778 448.455C329.549 471.095 268.63 476.705 240.535 470.259L235.694 495.904Z" fill="#022B69"/>
<path fill-rule="evenodd" clip-rule="evenodd" d="M136.577 515.569C78.3549 478.524 38.3511 418.724 26.3145 350.747L62.6302 344.31C72.8625 402.101 106.872 452.939 156.368 484.431L136.577 515.569Z" fill="#022B69"/>
<path d="M122.224 396.2H116.9L108.584 400.424V406.452L115.888 402.844V427H122.224V396.2Z" fill="white"/>
<path d="M148.437 396.2H126.569V402.008H141.485L129.165 427H136.205L148.437 401.48V396.2Z" fill="white"/>
<path d="M154.343 410.808C155.575 411.512 156.983 411.864 158.567 411.864C160.107 411.864 161.515 411.512 162.791 410.808C164.023 410.104 165.035 409.136 165.739 407.904C166.443 406.672 166.839 405.264 166.839 403.724C166.839 402.184 166.443 400.776 165.739 399.544C165.035 398.312 164.023 397.344 162.791 396.64C161.515 395.936 160.107 395.584 158.567 395.584C156.983 395.584 155.575 395.936 154.343 396.64C153.067 397.344 152.055 398.312 151.351 399.544C150.647 400.776 150.295 402.184 150.295 403.724C150.295 405.264 150.647 406.672 151.351 407.904C152.055 409.136 153.067 410.104 154.343 410.808ZM176.651 396.2L155.575 427H161.119L182.239 396.2H176.651ZM161.075 406.452C160.415 407.156 159.579 407.464 158.567 407.464C157.511 407.464 156.631 407.156 156.015 406.452C155.399 405.748 155.091 404.868 155.091 403.724C155.091 402.624 155.399 401.744 156.015 401.04C156.631 400.336 157.511 399.984 158.567 399.984C159.579 399.984 160.415 400.336 161.075 401.04C161.691 401.744 162.043 402.624 162.043 403.724C162.043 404.868 161.691 405.748 161.075 406.452ZM175.023 426.56C176.255 427.264 177.663 427.616 179.247 427.616C180.787 427.616 182.195 427.264 183.471 426.56C184.703 425.856 185.715 424.888 186.419 423.656C187.123 422.424 187.519 421.06 187.519 419.476C187.519 417.98 187.123 416.572 186.419 415.34C185.715 414.108 184.703 413.096 183.471 412.392C182.195 411.688 180.787 411.336 179.247 411.336C177.663 411.336 176.255 411.688 175.023 412.392C173.747 413.096 172.735 414.108 172.031 415.34C171.327 416.572 170.975 417.98 170.975 419.476C170.975 421.06 171.327 422.424 172.031 423.656C172.735 424.888 173.747 425.856 175.023 426.56ZM181.755 422.204C181.095 422.908 180.259 423.216 179.247 423.216C178.191 423.216 177.311 422.908 176.695 422.204C176.079 421.5 175.771 420.62 175.771 419.476C175.771 418.376 176.079 417.496 176.695 416.792C177.311 416.088 178.191 415.736 179.247 415.736C180.259 415.736 181.095 416.088 181.755 416.792C182.371 417.496 182.723 418.376 182.723 419.476C182.723 420.62 182.371 421.5 181.755 422.204Z" fill="white"/>
<path d="M100.456 302.8H96.0999L89.2959 306.256V311.188L95.2719 308.236V328H100.456V302.8Z" fill="white"/>
<path d="M121.219 314.032C119.707 312.592 117.691 311.872 115.171 311.872C113.479 311.872 112.003 312.232 110.779 312.88V307.444H121.903V302.8H105.919V315.724L109.771 317.668C111.067 316.732 112.471 316.264 113.983 316.264C115.279 316.264 116.287 316.624 117.079 317.272C117.835 317.956 118.231 318.856 118.231 320.008C118.231 321.196 117.799 322.132 116.971 322.78C116.107 323.464 114.955 323.788 113.515 323.788C111.283 323.788 109.231 322.924 107.431 321.196L104.479 324.76C105.739 326.056 107.107 326.992 108.619 327.604C110.131 328.216 111.787 328.504 113.623 328.504C116.647 328.504 119.023 327.748 120.823 326.236C122.587 324.724 123.487 322.6 123.487 319.9C123.487 317.416 122.731 315.472 121.219 314.032Z" fill="white"/>
<path d="M128.774 314.752C129.782 315.328 130.934 315.616 132.23 315.616C133.49 315.616 134.642 315.328 135.686 314.752C136.694 314.176 137.522 313.384 138.098 312.376C138.674 311.368 138.998 310.216 138.998 308.956C138.998 307.696 138.674 306.544 138.098 305.536C137.522 304.528 136.694 303.736 135.686 303.16C134.642 302.584 133.49 302.296 132.23 302.296C130.934 302.296 129.782 302.584 128.774 303.16C127.73 303.736 126.902 304.528 126.326 305.536C125.75 306.544 125.462 307.696 125.462 308.956C125.462 310.216 125.75 311.368 126.326 312.376C126.902 313.384 127.73 314.176 128.774 314.752ZM147.026 302.8L129.782 328H134.318L151.598 302.8H147.026ZM134.282 311.188C133.742 311.764 133.058 312.016 132.23 312.016C131.366 312.016 130.646 311.764 130.142 311.188C129.638 310.612 129.386 309.892 129.386 308.956C129.386 308.056 129.638 307.336 130.142 306.76C130.646 306.184 131.366 305.896 132.23 305.896C133.058 305.896 133.742 306.184 134.282 306.76C134.786 307.336 135.074 308.056 135.074 308.956C135.074 309.892 134.786 310.612 134.282 311.188ZM145.694 327.64C146.702 328.216 147.854 328.504 149.15 328.504C150.41 328.504 151.562 328.216 152.606 327.64C153.614 327.064 154.442 326.272 155.018 325.264C155.594 324.256 155.918 323.14 155.918 321.844C155.918 320.62 155.594 319.468 155.018 318.46C154.442 317.452 153.614 316.624 152.606 316.048C151.562 315.472 150.41 315.184 149.15 315.184C147.854 315.184 146.702 315.472 145.694 316.048C144.65 316.624 143.822 317.452 143.246 318.46C142.67 319.468 142.382 320.62 142.382 321.844C142.382 323.14 142.67 324.256 143.246 325.264C143.822 326.272 144.65 327.064 145.694 327.64ZM151.202 324.076C150.662 324.652 149.978 324.904 149.15 324.904C148.286 324.904 147.566 324.652 147.062 324.076C146.558 323.5 146.306 322.78 146.306 321.844C146.306 320.944 146.558 320.224 147.062 319.648C147.566 319.072 148.286 318.784 149.15 318.784C149.978 318.784 150.662 319.072 151.202 319.648C151.706 320.224 151.994 320.944 151.994 321.844C151.994 322.78 151.706 323.5 151.202 324.076Z" fill="white"/>
<path d="M374.072 321.6H370.2L364.152 324.672V329.056L369.464 326.432V344H374.072V321.6Z" fill="white"/>
<path d="M392.336 332.928C391.184 331.872 389.584 331.232 387.536 331.008L393.008 325.312V321.6H378.384V325.728H387.536L382.416 331.072V334.016H383.472C385.584 334.016 387.088 334.272 387.984 334.784C388.88 335.296 389.36 336.096 389.36 337.12C389.36 338.112 389.008 338.88 388.336 339.424C387.632 340 386.64 340.256 385.296 340.256C383.184 340.256 381.328 339.488 379.728 337.952L377.104 341.056C379.152 343.328 381.936 344.448 385.424 344.448C387.152 344.448 388.688 344.16 390 343.584C391.28 343.008 392.272 342.208 392.976 341.12C393.68 340.032 394.032 338.784 394.032 337.312C394.032 335.456 393.456 334.016 392.336 332.928Z" fill="white"/>
<path d="M398.931 332.224C399.827 332.736 400.851 332.992 402.003 332.992C403.123 332.992 404.147 332.736 405.075 332.224C405.971 331.712 406.707 331.008 407.219 330.112C407.731 329.216 408.019 328.192 408.019 327.072C408.019 325.952 407.731 324.928 407.219 324.032C406.707 323.136 405.971 322.432 405.075 321.92C404.147 321.408 403.123 321.152 402.003 321.152C400.851 321.152 399.827 321.408 398.931 321.92C398.003 322.432 397.267 323.136 396.755 324.032C396.243 324.928 395.987 325.952 395.987 327.072C395.987 328.192 396.243 329.216 396.755 330.112C397.267 331.008 398.003 331.712 398.931 332.224ZM415.155 321.6L399.827 344H403.859L419.219 321.6H415.155ZM403.827 329.056C403.347 329.568 402.739 329.792 402.003 329.792C401.235 329.792 400.595 329.568 400.147 329.056C399.699 328.544 399.475 327.904 399.475 327.072C399.475 326.272 399.699 325.632 400.147 325.12C400.595 324.608 401.235 324.352 402.003 324.352C402.739 324.352 403.347 324.608 403.827 325.12C404.275 325.632 404.531 326.272 404.531 327.072C404.531 327.904 404.275 328.544 403.827 329.056ZM413.971 343.68C414.867 344.192 415.891 344.448 417.043 344.448C418.163 344.448 419.187 344.192 420.115 343.68C421.011 343.168 421.747 342.464 422.259 341.568C422.771 340.672 423.059 339.68 423.059 338.528C423.059 337.44 422.771 336.416 422.259 335.52C421.747 334.624 421.011 333.888 420.115 333.376C419.187 332.864 418.163 332.608 417.043 332.608C415.891 332.608 414.867 332.864 413.971 333.376C413.043 333.888 412.307 334.624 411.795 335.52C411.283 336.416 411.027 337.44 411.027 338.528C411.027 339.68 411.283 340.672 411.795 341.568C412.307 342.464 413.043 343.168 413.971 343.68ZM418.867 340.512C418.387 341.024 417.779 341.248 417.043 341.248C416.275 341.248 415.635 341.024 415.187 340.512C414.739 340 414.515 339.36 414.515 338.528C414.515 337.728 414.739 337.088 415.187 336.576C415.635 336.064 416.275 335.808 417.043 335.808C417.779 335.808 418.387 336.064 418.867 336.576C419.315 337.088 419.571 337.728 419.571 338.528C419.571 339.36 419.315 340 418.867 340.512Z" fill="white"/>
<path d="M290.072 183.6V206H285.464V188.432L280.152 191.056V186.672L286.2 183.6H290.072Z" fill="white"/>
<path d="M303.856 206.448C301.936 206.448 300.272 206 298.864 205.104C297.477 204.187 296.4 202.864 295.632 201.136C294.885 199.387 294.512 197.275 294.512 194.8C294.512 192.325 294.885 190.224 295.632 188.496C296.4 186.747 297.477 185.424 298.864 184.528C300.272 183.611 301.936 183.152 303.856 183.152C305.776 183.152 307.429 183.611 308.816 184.528C310.224 185.424 311.301 186.747 312.048 188.496C312.816 190.245 313.2 192.347 313.2 194.8C313.2 197.253 312.816 199.355 312.048 201.104C311.301 202.853 310.224 204.187 308.816 205.104C307.429 206 305.776 206.448 303.856 206.448ZM303.856 202.224C305.349 202.224 306.48 201.637 307.248 200.464C308.016 199.269 308.4 197.381 308.4 194.8C308.4 192.219 308.016 190.341 307.248 189.168C306.48 187.973 305.349 187.376 303.856 187.376C302.363 187.376 301.221 187.973 300.432 189.168C299.664 190.341 299.28 192.219 299.28 194.8C299.28 197.381 299.664 199.269 300.432 200.464C301.221 201.637 302.363 202.224 303.856 202.224Z" fill="white"/>
<path d="M321.847 194.992C320.716 194.992 319.692 194.736 318.775 194.224C317.858 193.712 317.132 193.008 316.599 192.112C316.087 191.195 315.831 190.181 315.831 189.072C315.831 187.941 316.087 186.928 316.599 186.032C317.132 185.136 317.858 184.432 318.775 183.92C319.692 183.408 320.716 183.152 321.847 183.152C322.978 183.152 324.002 183.408 324.919 183.92C325.836 184.432 326.551 185.136 327.063 186.032C327.596 186.928 327.863 187.941 327.863 189.072C327.863 190.181 327.596 191.195 327.063 192.112C326.551 193.008 325.836 193.712 324.919 194.224C324.002 194.736 322.978 194.992 321.847 194.992ZM334.999 183.6H339.063L323.703 206H319.671L334.999 183.6ZM321.847 191.792C322.594 191.792 323.202 191.547 323.671 191.056C324.14 190.544 324.375 189.883 324.375 189.072C324.375 188.261 324.14 187.611 323.671 187.12C323.202 186.608 322.594 186.352 321.847 186.352C321.079 186.352 320.46 186.608 319.991 187.12C319.543 187.611 319.319 188.261 319.319 189.072C319.319 189.883 319.543 190.544 319.991 191.056C320.46 191.547 321.079 191.792 321.847 191.792ZM336.887 206.448C335.756 206.448 334.732 206.192 333.815 205.68C332.898 205.168 332.172 204.464 331.639 203.568C331.127 202.672 330.871 201.659 330.871 200.528C330.871 199.419 331.127 198.416 331.639 197.52C332.172 196.603 332.898 195.888 333.815 195.376C334.732 194.864 335.756 194.608 336.887 194.608C338.018 194.608 339.042 194.864 339.959 195.376C340.876 195.888 341.591 196.603 342.103 197.52C342.636 198.416 342.903 199.419 342.903 200.528C342.903 201.659 342.636 202.672 342.103 203.568C341.591 204.464 340.876 205.168 339.959 205.68C339.042 206.192 338.018 206.448 336.887 206.448ZM336.887 203.248C337.634 203.248 338.242 203.003 338.711 202.512C339.18 202 339.415 201.339 339.415 200.528C339.415 199.717 339.18 199.067 338.711 198.576C338.242 198.064 337.634 197.808 336.887 197.808C336.119 197.808 335.5 198.064 335.031 198.576C334.583 199.067 334.359 199.717 334.359 200.528C334.359 201.339 334.583 202 335.031 202.512C335.5 203.003 336.119 203.248 336.887 203.248Z" fill="white"/>
<path d="M278.016 418.144C276.704 417.504 275.232 417.152 273.568 417.152C271.904 417.152 270.4 417.504 269.056 418.176C267.712 418.848 266.688 419.776 265.952 420.992C265.184 422.208 264.832 423.616 264.832 425.152C264.832 426.688 265.184 428.032 265.888 429.216C266.592 430.432 267.552 431.36 268.768 432C269.984 432.672 271.328 432.992 272.832 432.992C273.536 432.992 274.144 432.928 274.688 432.736L268.928 440H274.336L278.848 434.048C281.088 431.104 282.24 428.224 282.24 425.376C282.24 423.712 281.856 422.272 281.12 421.024C280.352 419.776 279.328 418.816 278.016 418.144ZM276.512 428C275.776 428.704 274.784 429.056 273.536 429.056C272.256 429.056 271.264 428.704 270.56 428C269.824 427.296 269.472 426.368 269.472 425.152C269.472 423.968 269.824 423.008 270.56 422.304C271.264 421.6 272.256 421.248 273.536 421.248C274.784 421.248 275.776 421.6 276.512 422.304C277.216 423.008 277.6 423.968 277.6 425.152C277.6 426.368 277.216 427.296 276.512 428Z" fill="white"/>
<path d="M287.15 428.224C288.046 428.736 289.07 428.992 290.222 428.992C291.342 428.992 292.366 428.736 293.294 428.224C294.19 427.712 294.926 427.008 295.438 426.112C295.95 425.216 296.238 424.192 296.238 423.072C296.238 421.952 295.95 420.928 295.438 420.032C294.926 419.136 294.19 418.432 293.294 417.92C292.366 417.408 291.342 417.152 290.222 417.152C289.07 417.152 288.046 417.408 287.15 417.92C286.222 418.432 285.486 419.136 284.974 420.032C284.462 420.928 284.206 421.952 284.206 423.072C284.206 424.192 284.462 425.216 284.974 426.112C285.486 427.008 286.222 427.712 287.15 428.224ZM303.374 417.6L288.046 440H292.078L307.438 417.6H303.374ZM292.046 425.056C291.566 425.568 290.958 425.792 290.222 425.792C289.454 425.792 288.814 425.568 288.366 425.056C287.918 424.544 287.694 423.904 287.694 423.072C287.694 422.272 287.918 421.632 288.366 421.12C288.814 420.608 289.454 420.352 290.222 420.352C290.958 420.352 291.566 420.608 292.046 421.12C292.494 421.632 292.75 422.272 292.75 423.072C292.75 423.904 292.494 424.544 292.046 425.056ZM302.19 439.68C303.086 440.192 304.11 440.448 305.262 440.448C306.382 440.448 307.406 440.192 308.334 439.68C309.23 439.168 309.966 438.464 310.478 437.568C310.99 436.672 311.278 435.68 311.278 434.528C311.278 433.44 310.99 432.416 310.478 431.52C309.966 430.624 309.23 429.888 308.334 429.376C307.406 428.864 306.382 428.608 305.262 428.608C304.11 428.608 303.086 428.864 302.19 429.376C301.262 429.888 300.526 430.624 300.014 431.52C299.502 432.416 299.246 433.44 299.246 434.528C299.246 435.68 299.502 436.672 300.014 437.568C300.526 438.464 301.262 439.168 302.19 439.68ZM307.086 436.512C306.606 437.024 305.998 437.248 305.262 437.248C304.494 437.248 303.854 437.024 303.406 436.512C302.958 436 302.734 435.36 302.734 434.528C302.734 433.728 302.958 433.088 303.406 432.576C303.854 432.064 304.494 431.808 305.262 431.808C305.998 431.808 306.606 432.064 307.086 432.576C307.534 433.088 307.79 433.728 307.79 434.528C307.79 435.36 307.534 436 307.086 436.512Z" fill="white"/>
<path d="M368.36 235.2H356.432V238.368H364.568L357.848 252H361.688L368.36 238.08V235.2Z" fill="white"/>
<path d="M371.581 243.168C372.253 243.552 373.021 243.744 373.885 243.744C374.725 243.744 375.493 243.552 376.189 243.168C376.861 242.784 377.413 242.256 377.797 241.584C378.181 240.912 378.397 240.144 378.397 239.304C378.397 238.464 378.181 237.696 377.797 237.024C377.413 236.352 376.861 235.824 376.189 235.44C375.493 235.056 374.725 234.864 373.885 234.864C373.021 234.864 372.253 235.056 371.581 235.44C370.885 235.824 370.333 236.352 369.949 237.024C369.565 237.696 369.373 238.464 369.373 239.304C369.373 240.144 369.565 240.912 369.949 241.584C370.333 242.256 370.885 242.784 371.581 243.168ZM383.749 235.2L372.253 252H375.277L386.797 235.2H383.749ZM375.253 240.792C374.893 241.176 374.437 241.344 373.885 241.344C373.309 241.344 372.829 241.176 372.493 240.792C372.157 240.408 371.989 239.928 371.989 239.304C371.989 238.704 372.157 238.224 372.493 237.84C372.829 237.456 373.309 237.264 373.885 237.264C374.437 237.264 374.893 237.456 375.253 237.84C375.589 238.224 375.781 238.704 375.781 239.304C375.781 239.928 375.589 240.408 375.253 240.792ZM382.861 251.76C383.533 252.144 384.301 252.336 385.165 252.336C386.005 252.336 386.773 252.144 387.469 251.76C388.141 251.376 388.693 250.848 389.077 250.176C389.461 249.504 389.677 248.76 389.677 247.896C389.677 247.08 389.461 246.312 389.077 245.64C388.693 244.968 388.141 244.416 387.469 244.032C386.773 243.648 386.005 243.456 385.165 243.456C384.301 243.456 383.533 243.648 382.861 244.032C382.165 244.416 381.613 244.968 381.229 245.64C380.845 246.312 380.653 247.08 380.653 247.896C380.653 248.76 380.845 249.504 381.229 250.176C381.613 250.848 382.165 251.376 382.861 251.76ZM386.533 249.384C386.173 249.768 385.717 249.936 385.165 249.936C384.589 249.936 384.109 249.768 383.773 249.384C383.437 249 383.269 248.52 383.269 247.896C383.269 247.296 383.437 246.816 383.773 246.432C384.109 246.048 384.589 245.856 385.165 245.856C385.717 245.856 386.173 246.048 386.533 246.432C386.869 246.816 387.061 247.296 387.061 247.896C387.061 248.52 386.869 249 386.533 249.384Z" fill="white"/>
<path d="M347.968 396.2C347.056 395.72 346.024 395.456 344.92 395.456C344.368 395.456 343.888 395.528 343.504 395.648L347.848 390.2H343.792L340.384 394.664C338.704 396.896 337.864 399.056 337.864 401.168C337.864 402.416 338.128 403.52 338.704 404.456C339.256 405.392 340.024 406.112 341.008 406.592C341.992 407.096 343.12 407.336 344.368 407.336C345.616 407.336 346.72 407.096 347.728 406.592C348.736 406.088 349.504 405.368 350.08 404.456C350.632 403.544 350.92 402.512 350.92 401.336C350.92 400.208 350.656 399.2 350.128 398.288C349.6 397.4 348.88 396.704 347.968 396.2ZM346.624 403.472C346.072 404 345.328 404.264 344.392 404.264C343.432 404.264 342.688 404 342.16 403.472C341.608 402.944 341.344 402.248 341.344 401.336C341.344 400.424 341.608 399.728 342.136 399.2C342.664 398.672 343.432 398.408 344.392 398.408C345.328 398.408 346.072 398.672 346.624 399.2C347.152 399.728 347.44 400.448 347.44 401.336C347.44 402.248 347.152 402.944 346.624 403.472Z" fill="white"/>
<path d="M354.363 398.168C355.035 398.552 355.803 398.744 356.667 398.744C357.507 398.744 358.275 398.552 358.971 398.168C359.643 397.784 360.195 397.256 360.579 396.584C360.963 395.912 361.179 395.144 361.179 394.304C361.179 393.464 360.963 392.696 360.579 392.024C360.195 391.352 359.643 390.824 358.971 390.44C358.275 390.056 357.507 389.864 356.667 389.864C355.803 389.864 355.035 390.056 354.363 390.44C353.667 390.824 353.115 391.352 352.731 392.024C352.347 392.696 352.155 393.464 352.155 394.304C352.155 395.144 352.347 395.912 352.731 396.584C353.115 397.256 353.667 397.784 354.363 398.168ZM366.531 390.2L355.035 407H358.059L369.579 390.2H366.531ZM358.035 395.792C357.675 396.176 357.219 396.344 356.667 396.344C356.091 396.344 355.611 396.176 355.275 395.792C354.939 395.408 354.771 394.928 354.771 394.304C354.771 393.704 354.939 393.224 355.275 392.84C355.611 392.456 356.091 392.264 356.667 392.264C357.219 392.264 357.675 392.456 358.035 392.84C358.371 393.224 358.563 393.704 358.563 394.304C358.563 394.928 358.371 395.408 358.035 395.792ZM365.643 406.76C366.315 407.144 367.083 407.336 367.947 407.336C368.787 407.336 369.555 407.144 370.251 406.76C370.923 406.376 371.475 405.848 371.859 405.176C372.243 404.504 372.459 403.76 372.459 402.896C372.459 402.08 372.243 401.312 371.859 400.64C371.475 399.968 370.923 399.416 370.251 399.032C369.555 398.648 368.787 398.456 367.947 398.456C367.083 398.456 366.315 398.648 365.643 399.032C364.947 399.416 364.395 399.968 364.011 400.64C363.627 401.312 363.435 402.08 363.435 402.896C363.435 403.76 363.627 404.504 364.011 405.176C364.395 405.848 364.947 406.376 365.643 406.76ZM369.315 404.384C368.955 404.768 368.499 404.936 367.947 404.936C367.371 404.936 366.891 404.768 366.555 404.384C366.219 404 366.051 403.52 366.051 402.896C366.051 402.296 366.219 401.816 366.555 401.432C366.891 401.048 367.371 400.856 367.947 400.856C368.499 400.856 368.955 401.048 369.315 401.432C369.651 401.816 369.843 402.296 369.843 402.896C369.843 403.52 369.651 404 369.315 404.384Z" fill="white"/>
<path d="M215.76 428.696C214.896 427.904 213.696 427.424 212.16 427.256L216.264 422.984V420.2H205.296V423.296H212.16L208.32 427.304V429.512H209.112C210.696 429.512 211.824 429.704 212.496 430.088C213.168 430.472 213.528 431.072 213.528 431.84C213.528 432.584 213.264 433.16 212.76 433.568C212.232 434 211.488 434.192 210.48 434.192C208.896 434.192 207.504 433.616 206.304 432.464L204.336 434.792C205.872 436.496 207.96 437.336 210.576 437.336C211.872 437.336 213.024 437.12 214.008 436.688C214.968 436.256 215.712 435.656 216.24 434.84C216.768 434.024 217.032 433.088 217.032 431.984C217.032 430.592 216.6 429.512 215.76 428.696Z" fill="white"/>
<path d="M220.706 428.168C221.378 428.552 222.146 428.744 223.01 428.744C223.85 428.744 224.618 428.552 225.314 428.168C225.986 427.784 226.538 427.256 226.922 426.584C227.306 425.912 227.522 425.144 227.522 424.304C227.522 423.464 227.306 422.696 226.922 422.024C226.538 421.352 225.986 420.824 225.314 420.44C224.618 420.056 223.85 419.864 223.01 419.864C222.146 419.864 221.378 420.056 220.706 420.44C220.01 420.824 219.458 421.352 219.074 422.024C218.69 422.696 218.498 423.464 218.498 424.304C218.498 425.144 218.69 425.912 219.074 426.584C219.458 427.256 220.01 427.784 220.706 428.168ZM232.874 420.2L221.378 437H224.402L235.922 420.2H232.874ZM224.378 425.792C224.018 426.176 223.562 426.344 223.01 426.344C222.434 426.344 221.954 426.176 221.618 425.792C221.282 425.408 221.114 424.928 221.114 424.304C221.114 423.704 221.282 423.224 221.618 422.84C221.954 422.456 222.434 422.264 223.01 422.264C223.562 422.264 224.018 422.456 224.378 422.84C224.714 423.224 224.906 423.704 224.906 424.304C224.906 424.928 224.714 425.408 224.378 425.792ZM231.986 436.76C232.658 437.144 233.426 437.336 234.29 437.336C235.13 437.336 235.898 437.144 236.594 436.76C237.266 436.376 237.818 435.848 238.202 435.176C238.586 434.504 238.802 433.76 238.802 432.896C238.802 432.08 238.586 431.312 238.202 430.64C237.818 429.968 237.266 429.416 236.594 429.032C235.898 428.648 235.13 428.456 234.29 428.456C233.426 428.456 232.658 428.648 231.986 429.032C231.29 429.416 230.738 429.968 230.354 430.64C229.97 431.312 229.778 432.08 229.778 432.896C229.778 433.76 229.97 434.504 230.354 435.176C230.738 435.848 231.29 436.376 231.986 436.76ZM235.658 434.384C235.298 434.768 234.842 434.936 234.29 434.936C233.714 434.936 233.234 434.768 232.898 434.384C232.562 434 232.394 433.52 232.394 432.896C232.394 432.296 232.562 431.816 232.898 431.432C233.234 431.048 233.714 430.856 234.29 430.856C234.842 430.856 235.298 431.048 235.658 431.432C235.994 431.816 236.186 432.296 236.186 432.896C236.186 433.52 235.994 434 235.658 434.384Z" fill="white"/>
<path d="M131.897 178.268V185H105.836V179.39L118.586 167.507C120.626 165.603 122.02 164.073 122.768 162.917C123.55 161.727 123.941 160.588 123.941 159.5C123.941 158.208 123.516 157.188 122.666 156.44C121.85 155.692 120.728 155.318 119.3 155.318C117.736 155.318 116.257 155.811 114.863 156.797C113.469 157.749 112.279 159.194 111.293 161.132L105.428 157.562C106.72 154.706 108.556 152.496 110.936 150.932C113.316 149.368 116.087 148.586 119.249 148.586C121.697 148.586 123.839 149.045 125.675 149.963C127.511 150.847 128.922 152.088 129.908 153.686C130.928 155.284 131.438 157.103 131.438 159.143C131.438 160.979 130.979 162.764 130.061 164.498C129.143 166.198 127.63 168.034 125.522 170.006L116.648 178.268H131.897Z" fill="white"/>
<path d="M151.583 185.714C148.523 185.714 145.871 185 143.627 183.572C141.417 182.11 139.7 180.002 138.476 177.248C137.286 174.46 136.691 171.094 136.691 167.15C136.691 163.206 137.286 159.857 138.476 157.103C139.7 154.315 141.417 152.207 143.627 150.779C145.871 149.317 148.523 148.586 151.583 148.586C154.643 148.586 157.278 149.317 159.488 150.779C161.732 152.207 163.449 154.315 164.639 157.103C165.863 159.891 166.475 163.24 166.475 167.15C166.475 171.06 165.863 174.409 164.639 177.197C163.449 179.985 161.732 182.11 159.488 183.572C157.278 185 154.643 185.714 151.583 185.714ZM151.583 178.982C153.963 178.982 155.765 178.047 156.989 176.177C158.213 174.273 158.825 171.264 158.825 167.15C158.825 163.036 158.213 160.044 156.989 158.174C155.765 156.27 153.963 155.318 151.583 155.318C149.203 155.318 147.384 156.27 146.126 158.174C144.902 160.044 144.29 163.036 144.29 167.15C144.29 171.264 144.902 174.273 146.126 176.177C147.384 178.047 149.203 178.982 151.583 178.982Z" fill="white"/>
<path d="M180.257 167.456C178.455 167.456 176.823 167.048 175.361 166.232C173.899 165.416 172.743 164.294 171.893 162.866C171.077 161.404 170.669 159.789 170.669 158.021C170.669 156.219 171.077 154.604 171.893 153.176C172.743 151.748 173.899 150.626 175.361 149.81C176.823 148.994 178.455 148.586 180.257 148.586C182.059 148.586 183.691 148.994 185.153 149.81C186.615 150.626 187.754 151.748 188.57 153.176C189.42 154.604 189.845 156.219 189.845 158.021C189.845 159.789 189.42 161.404 188.57 162.866C187.754 164.294 186.615 165.416 185.153 166.232C183.691 167.048 182.059 167.456 180.257 167.456ZM201.218 149.3H207.695L183.215 185H176.789L201.218 149.3ZM180.257 162.356C181.447 162.356 182.416 161.965 183.164 161.183C183.912 160.367 184.286 159.313 184.286 158.021C184.286 156.729 183.912 155.692 183.164 154.91C182.416 154.094 181.447 153.686 180.257 153.686C179.033 153.686 178.047 154.094 177.299 154.91C176.585 155.692 176.228 156.729 176.228 158.021C176.228 159.313 176.585 160.367 177.299 161.183C178.047 161.965 179.033 162.356 180.257 162.356ZM204.227 185.714C202.425 185.714 200.793 185.306 199.331 184.49C197.869 183.674 196.713 182.552 195.863 181.124C195.047 179.696 194.639 178.081 194.639 176.279C194.639 174.511 195.047 172.913 195.863 171.485C196.713 170.023 197.869 168.884 199.331 168.068C200.793 167.252 202.425 166.844 204.227 166.844C206.029 166.844 207.661 167.252 209.123 168.068C210.585 168.884 211.724 170.023 212.54 171.485C213.39 172.913 213.815 174.511 213.815 176.279C213.815 178.081 213.39 179.696 212.54 181.124C211.724 182.552 210.585 183.674 209.123 184.49C207.661 185.306 206.029 185.714 204.227 185.714ZM204.227 180.614C205.417 180.614 206.386 180.223 207.134 179.441C207.882 178.625 208.256 177.571 208.256 176.279C208.256 174.987 207.882 173.95 207.134 173.168C206.386 172.352 205.417 171.944 204.227 171.944C203.003 171.944 202.017 172.352 201.269 173.168C200.555 173.95 200.198 174.987 200.198 176.279C200.198 177.571 200.555 178.625 201.269 179.441C202.017 180.223 203.003 180.614 204.227 180.614Z" fill="white"/>
<path fill-rule="evenodd" clip-rule="evenodd" d="M144.018 352.338L156.588 374.11C157.079 374.96 157.134 375.84 156.738 376.526C156.342 377.212 155.552 377.605 154.57 377.605H129.43C128.448 377.605 127.658 377.212 127.262 376.526C126.866 375.841 126.921 374.96 127.412 374.11L139.982 352.338C140.472 351.488 141.208 351 142 351C142.792 351 143.527 351.488 144.018 352.338ZM154.57 375.847C154.936 375.847 155.158 375.747 155.215 375.647C155.273 375.548 155.249 375.305 155.066 374.989L142.496 353.216C142.313 352.9 142.115 352.758 142 352.758C141.885 352.758 141.687 352.9 141.504 353.216L128.934 374.989C128.751 375.305 128.727 375.548 128.785 375.647C128.842 375.747 129.064 375.847 129.43 375.847H154.57Z" fill="white"/>
<path fill-rule="evenodd" clip-rule="evenodd" d="M139.709 372.49C139.709 371.226 140.737 370.198 142 370.198C143.264 370.198 144.291 371.226 144.291 372.49C144.291 373.753 143.264 374.781 142 374.781C140.737 374.781 139.709 373.753 139.709 372.49ZM141.467 372.489C141.467 372.783 141.706 373.023 142 373.023C142.294 373.023 142.533 372.783 142.533 372.489C142.533 372.195 142.294 371.956 142 371.956C141.706 371.956 141.467 372.195 141.467 372.489Z" fill="white"/>
<path fill-rule="evenodd" clip-rule="evenodd" d="M139.709 359.12C139.709 357.857 140.737 356.829 142 356.829C143.264 356.829 144.291 357.857 144.291 359.12V366.841C144.291 368.104 143.264 369.132 142 369.132C140.737 369.132 139.709 368.104 139.709 366.841V359.12ZM142 367.374C142.294 367.374 142.533 367.135 142.533 366.841V359.12C142.533 358.826 142.294 358.587 142 358.587C141.706 358.587 141.467 358.826 141.467 359.12V366.841C141.467 367.135 141.706 367.374 142 367.374Z" fill="white"/>
<path fill-rule="evenodd" clip-rule="evenodd" d="M142.417 117.5C142.417 107.835 150.065 100 159.5 100C168.93 100.012 176.572 107.84 176.583 117.5C176.583 127.165 168.935 135 159.5 135C150.065 135 142.417 127.165 142.417 117.5ZM143.556 117.5C143.556 126.521 150.694 133.833 159.5 133.833C168.302 133.823 175.435 126.517 175.445 117.5C175.445 108.479 168.306 101.167 159.5 101.167C150.694 101.167 143.556 108.479 143.556 117.5Z" fill="white"/>
<path fill-rule="evenodd" clip-rule="evenodd" d="M155.49 126.463H163.51C163.827 126.463 164.083 126.731 164.083 127.061V131.841C164.083 132.171 163.827 132.439 163.51 132.439H155.49C155.173 132.439 154.917 132.171 154.917 131.841V127.061C154.917 126.731 155.173 126.463 155.49 126.463ZM156.063 131.244H162.938V127.659H156.063V131.244Z" fill="white"/>
<path fill-rule="evenodd" clip-rule="evenodd" d="M159.917 102.561C152.095 102.568 145.757 109.117 145.75 117.197C145.75 117.52 146.004 117.782 146.317 117.782H150.85C151 117.782 151.144 117.72 151.251 117.611C151.357 117.501 151.417 117.352 151.417 117.197C151.415 113.804 153.306 110.715 156.274 109.261C159.241 107.808 162.753 108.251 165.294 110.4L161.617 113.503C159.864 112.636 157.761 113.2 156.638 114.839C155.515 116.478 155.699 118.714 157.073 120.134C158.448 121.554 160.612 121.744 162.199 120.584C163.785 119.424 164.332 117.252 163.492 115.44L166.496 111.641C167.74 113.207 168.419 115.171 168.417 117.197C168.417 117.52 168.67 117.782 168.983 117.782H173.517C173.83 117.782 174.083 117.52 174.083 117.197C174.076 109.117 167.738 102.568 159.917 102.561ZM150.3 116.611H146.895C146.977 114.646 147.476 112.723 148.357 110.979L151.315 112.742C150.722 113.946 150.377 115.263 150.3 116.611ZM148.929 109.967L151.881 111.729C152.6 110.602 153.531 109.636 154.618 108.89L152.918 105.845C151.314 106.903 149.953 108.309 148.929 109.967ZM159.35 107.274C158.046 107.35 156.772 107.7 155.604 108.304L153.899 105.254C155.587 104.344 157.448 103.829 159.35 103.744V107.274ZM157.083 117.197C157.083 118.813 158.352 120.124 159.917 120.124C161.481 120.124 162.75 118.813 162.75 117.197C162.748 116.958 162.719 116.72 162.665 116.488L161.158 118.397C161.146 118.412 161.133 118.426 161.118 118.438C160.694 118.908 160.056 119.101 159.454 118.942C158.851 118.783 158.381 118.297 158.227 117.675C158.073 117.053 158.261 116.393 158.715 115.956C158.727 115.941 158.74 115.927 158.755 115.915L160.602 114.357C160.378 114.302 160.148 114.272 159.917 114.27C158.352 114.27 157.083 115.58 157.083 117.197ZM160.302 117.63C160.074 117.833 159.734 117.825 159.514 117.612C159.408 117.502 159.348 117.352 159.35 117.197C159.35 117.05 159.402 116.908 159.497 116.799L163.861 113.122L160.302 117.63ZM160.483 103.744V107.274C161.787 107.35 163.062 107.7 164.229 108.304L165.935 105.254C164.247 104.344 162.386 103.829 160.483 103.744ZM167.952 111.729C167.729 111.377 167.485 111.041 167.221 110.722L168.286 109.37C168.473 109.138 168.458 108.798 168.252 108.585C168.046 108.373 167.717 108.357 167.493 108.55L166.178 109.656C165.872 109.381 165.551 109.125 165.215 108.89L166.915 105.845C168.519 106.903 169.881 108.309 170.904 109.967L167.952 111.729ZM168.519 112.742C169.111 113.946 169.457 115.263 169.533 116.611H172.939C172.856 114.646 172.357 112.723 171.477 110.979L168.519 112.742Z" fill="white"/>
<path fill-rule="evenodd" clip-rule="evenodd" d="M164.917 123.049C164.917 122.106 165.663 121.342 166.583 121.342C167.504 121.342 168.25 122.106 168.25 123.049C168.25 123.992 167.504 124.756 166.583 124.756C165.663 124.756 164.917 123.992 164.917 123.049ZM166.028 123.049C166.028 123.363 166.277 123.618 166.583 123.618C166.89 123.618 167.139 123.363 167.139 123.049C167.139 122.735 166.89 122.48 166.583 122.48C166.277 122.48 166.028 122.735 166.028 123.049Z" fill="white"/>
<path fill-rule="evenodd" clip-rule="evenodd" d="M169.917 123.049C169.917 122.106 170.663 121.342 171.583 121.342C172.504 121.342 173.25 122.106 173.25 123.049C173.25 123.992 172.504 124.756 171.583 124.756C170.663 124.756 169.917 123.992 169.917 123.049ZM171.028 123.049C171.028 123.363 171.277 123.618 171.583 123.618C171.89 123.618 172.139 123.363 172.139 123.049C172.139 122.735 171.89 122.48 171.583 122.48C171.277 122.48 171.028 122.735 171.028 123.049Z" fill="white"/>
<path fill-rule="evenodd" clip-rule="evenodd" d="M151.583 123.049C151.583 122.106 152.33 121.342 153.25 121.342C154.171 121.342 154.917 122.106 154.917 123.049C154.917 123.992 154.171 124.756 153.25 124.756C152.33 124.756 151.583 123.992 151.583 123.049ZM152.695 123.049C152.695 123.363 152.943 123.618 153.25 123.618C153.557 123.618 153.806 123.363 153.806 123.049C153.806 122.735 153.557 122.48 153.25 122.48C152.943 122.48 152.695 122.735 152.695 123.049Z" fill="white"/>
<path fill-rule="evenodd" clip-rule="evenodd" d="M146.583 123.049C146.583 122.106 147.33 121.342 148.25 121.342C149.171 121.342 149.917 122.106 149.917 123.049C149.917 123.992 149.171 124.756 148.25 124.756C147.33 124.756 146.583 123.992 146.583 123.049ZM147.695 123.049C147.695 123.363 147.943 123.618 148.25 123.618C148.557 123.618 148.806 123.363 148.806 123.049C148.806 122.735 148.557 122.48 148.25 122.48C147.943 122.48 147.695 122.735 147.695 123.049Z" fill="white"/>
<path d="M155.75 123.049H157.417V124.756H155.75V123.049Z" fill="white"/>
<path d="M158.25 123.049H161.583V124.756H158.25V123.049Z" fill="white"/>
<path d="M161.583 123.049H163.25V124.756H161.583V123.049Z" fill="white"/>
<path fill-rule="evenodd" clip-rule="evenodd" d="M111.985 268.5C111.985 266.015 114 264 116.485 264C118.969 264.003 120.982 266.016 120.985 268.5C120.985 270.985 118.97 273 116.485 273C114 273 111.985 270.985 111.985 268.5ZM113.271 268.5C113.271 270.275 114.71 271.714 116.485 271.714C118.259 271.712 119.697 270.274 119.699 268.5C119.699 266.725 118.26 265.286 116.485 265.286C114.71 265.286 113.271 266.725 113.271 268.5Z" fill="white"/>
<path fill-rule="evenodd" clip-rule="evenodd" d="M111.985 258.5C111.985 256.015 114 254 116.485 254C118.969 254.003 120.982 256.016 120.985 258.5C120.985 260.985 118.97 263 116.485 263C114 263 111.985 260.985 111.985 258.5ZM113.271 258.5C113.271 260.275 114.71 261.714 116.485 261.714C118.259 261.712 119.697 260.274 119.699 258.5C119.699 256.725 118.26 255.286 116.485 255.286C114.71 255.286 113.271 256.725 113.271 258.5Z" fill="white"/>
<path fill-rule="evenodd" clip-rule="evenodd" d="M111.985 278.5C111.985 276.015 114 274 116.485 274C118.969 274.003 120.982 276.016 120.985 278.5C120.985 280.985 118.97 283 116.485 283C114 283 111.985 280.985 111.985 278.5ZM113.271 278.5C113.271 280.275 114.71 281.714 116.485 281.714C118.259 281.712 119.697 280.274 119.699 278.5C119.699 276.725 118.26 275.286 116.485 275.286C114.71 275.286 113.271 276.725 113.271 278.5Z" fill="white"/>
<path d="M117.585 256C117.254 256 116.985 256.269 116.985 256.6C116.985 256.931 117.254 257.2 117.585 257.2C118.248 257.201 118.784 257.738 118.785 258.4C118.785 258.731 119.054 259 119.385 259C119.716 259 119.985 258.731 119.985 258.4C119.984 257.075 118.91 256.001 117.585 256V256Z" fill="white"/>
<path d="M117.585 266C117.254 266 116.985 266.269 116.985 266.6C116.985 266.931 117.254 267.2 117.585 267.2C118.248 267.201 118.784 267.738 118.785 268.4C118.785 268.731 119.054 269 119.385 269C119.716 269 119.985 268.731 119.985 268.4C119.984 267.075 118.91 266.001 117.585 266V266Z" fill="white"/>
<path d="M117.585 276C117.254 276 116.985 276.269 116.985 276.6C116.985 276.931 117.254 277.2 117.585 277.2C118.248 277.201 118.784 277.738 118.785 278.4C118.785 278.731 119.054 279 119.385 279C119.716 279 119.985 278.731 119.985 278.4C119.984 277.075 118.91 276.001 117.585 276V276Z" fill="white"/>
<path fill-rule="evenodd" clip-rule="evenodd" d="M125.985 260.919V254.306C125.985 253.941 125.697 253.645 125.342 253.645H123.992C123.685 252.107 122.369 251.002 120.842 251H113.128C111.601 251.002 110.286 252.107 109.978 253.645H108.628C108.273 253.645 107.985 253.941 107.985 254.306V260.919C107.986 262.015 108.849 262.902 109.914 262.903V263.565H108.628C108.273 263.565 107.985 263.861 107.985 264.226V270.839C107.986 271.934 108.849 272.821 109.914 272.823V273.484H108.628C108.273 273.484 107.985 273.78 107.985 274.145V280.758C107.986 281.853 108.849 282.741 109.914 282.742H109.978C110.286 284.28 111.601 285.385 113.128 285.387H114.414V291.339C114.414 291.704 114.701 292 115.057 292H118.914C119.269 292 119.557 291.704 119.557 291.339V285.387H120.842C122.369 285.385 123.685 284.28 123.992 282.742H124.057C125.121 282.741 125.984 281.853 125.985 280.758V274.145C125.985 273.78 125.697 273.484 125.342 273.484H124.057V272.823C125.121 272.821 125.984 271.934 125.985 270.839V264.226C125.985 263.861 125.697 263.565 125.342 263.565H124.057V262.903C125.121 262.902 125.984 262.015 125.985 260.919ZM124.699 260.919C124.699 261.284 124.411 261.58 124.057 261.581V254.968H124.699V260.919ZM109.271 254.968V260.919C109.271 261.284 109.559 261.58 109.914 261.581V254.968H109.271ZM109.271 270.839V264.887H109.914V271.5C109.559 271.5 109.271 271.204 109.271 270.839ZM109.271 274.806V280.758C109.271 281.123 109.559 281.419 109.914 281.419V274.806H109.271ZM118.271 290.677H115.699V285.387H118.271V290.677ZM113.128 284.065H120.842C121.907 284.063 122.77 283.176 122.771 282.081V254.306C122.77 253.211 121.907 252.324 120.842 252.323H113.128C112.063 252.324 111.201 253.211 111.199 254.306V282.081C111.201 283.176 112.063 284.063 113.128 284.065ZM124.699 274.806V280.758C124.699 281.123 124.411 281.419 124.057 281.419V274.806H124.699ZM124.699 270.839V264.887H124.057V271.5C124.411 271.5 124.699 271.204 124.699 270.839Z" fill="white"/>
<path fill-rule="evenodd" clip-rule="evenodd" d="M395.889 282.211L402.789 289.111C402.924 289.246 403 289.43 403 289.621V299.379C403 299.57 402.924 299.754 402.789 299.889L395.889 306.789C395.754 306.924 395.57 307 395.379 307H385.621C385.43 307 385.246 306.924 385.111 306.789L378.211 299.889C378.076 299.754 378 299.57 378 299.379V289.621C378 289.43 378.076 289.246 378.211 289.111L385.111 282.211C385.246 282.076 385.43 282 385.621 282H395.379C395.57 282 395.754 282.076 395.889 282.211ZM395.08 305.558L401.558 299.08V289.92L395.08 283.442H385.92L379.442 289.92V299.08L385.92 305.558H395.08Z" fill="white"/>
<path d="M383.288 293.779C382.891 293.779 382.567 293.455 382.567 293.058C382.567 292.66 382.891 292.337 383.288 292.337C383.686 292.337 384.01 292.66 384.01 293.058C384.01 293.456 384.333 293.779 384.731 293.779C385.129 293.779 385.452 293.456 385.452 293.058C385.452 291.865 384.481 290.894 383.288 290.894C382.095 290.894 381.125 291.865 381.125 293.058C381.125 294.251 382.096 295.221 383.288 295.221C383.686 295.221 384.01 295.545 384.01 295.942C384.01 296.34 383.686 296.664 383.288 296.664C382.891 296.664 382.567 296.34 382.567 295.942C382.567 295.544 382.244 295.221 381.846 295.221C381.448 295.221 381.125 295.544 381.125 295.942C381.125 297.135 382.096 298.106 383.288 298.106C384.481 298.106 385.452 297.135 385.452 295.942C385.452 294.749 384.481 293.779 383.288 293.779Z" fill="white"/>
<path d="M389.538 290.894H386.654C386.255 290.894 385.933 291.217 385.933 291.615C385.933 292.014 386.256 292.337 386.654 292.337H387.375V297.385C387.375 297.783 387.698 298.106 388.096 298.106C388.494 298.106 388.817 297.783 388.817 297.385V292.337H389.538C389.937 292.337 390.259 292.014 390.259 291.615C390.259 291.217 389.937 290.894 389.538 290.894Z" fill="white"/>
<path fill-rule="evenodd" clip-rule="evenodd" d="M392.423 290.894H393.385C394.313 290.894 395.067 291.649 395.067 292.577V296.423C395.067 297.351 394.313 298.106 393.385 298.106H392.423C391.495 298.106 390.74 297.351 390.74 296.423V292.577C390.74 291.649 391.495 290.894 392.423 290.894ZM393.385 296.664C393.517 296.664 393.625 296.556 393.625 296.423V292.577C393.625 292.444 393.517 292.337 393.385 292.337H392.423C392.291 292.337 392.183 292.444 392.183 292.577V296.423C392.183 296.556 392.291 296.664 392.423 296.664H393.385Z" fill="white"/>
<path fill-rule="evenodd" clip-rule="evenodd" d="M397.231 290.894H398.192C399.12 290.894 399.875 291.649 399.875 292.577V293.538C399.875 294.466 399.12 295.221 398.192 295.221H396.99V297.385C396.99 297.783 396.667 298.106 396.269 298.106C395.871 298.106 395.548 297.783 395.548 297.385V292.577C395.548 291.649 396.303 290.894 397.231 290.894ZM398.192 293.779C398.325 293.779 398.433 293.671 398.433 293.539V292.577C398.433 292.444 398.325 292.337 398.192 292.337H397.231C397.098 292.337 396.99 292.444 396.99 292.577V293.779H398.192Z" fill="white"/>
<path fill-rule="evenodd" clip-rule="evenodd" d="M303.212 145H313.789C315.116 145.002 316.191 146.077 316.192 147.404V171.442C316.191 172.769 315.116 173.845 313.789 173.846H303.212C301.885 173.845 300.809 172.769 300.808 171.442V147.404C300.809 146.077 301.885 145.002 303.212 145ZM313.789 172.885C314.585 172.885 315.231 172.239 315.231 171.442V170H301.769V171.442C301.769 172.239 302.415 172.885 303.212 172.885H313.789ZM315.231 169.038H301.769V150.288H315.231V169.038ZM301.769 149.327H315.231V147.404C315.231 146.607 314.585 145.962 313.789 145.962H303.212C302.415 145.962 301.769 146.607 301.769 147.404V149.327Z" fill="white"/>
<path d="M313.789 145L313.789 144.9H313.789V145ZM303.212 145V144.9L303.212 144.9L303.212 145ZM316.192 147.404H316.292V147.404L316.192 147.404ZM316.192 171.442L316.292 171.442V171.442H316.192ZM313.789 173.846V173.946H313.789L313.789 173.846ZM303.212 173.846L303.212 173.946H303.212V173.846ZM300.808 171.442H300.708L300.708 171.442L300.808 171.442ZM300.808 147.404L300.708 147.404V147.404H300.808ZM315.231 170H315.331V169.9H315.231V170ZM301.769 170V169.9H301.669V170H301.769ZM301.769 169.038H301.669V169.138H301.769V169.038ZM315.231 169.038V169.138H315.331V169.038H315.231ZM301.769 150.288V150.188H301.669V150.288H301.769ZM315.231 150.288H315.331V150.188H315.231V150.288ZM315.231 149.327V149.427H315.331V149.327H315.231ZM301.769 149.327H301.669V149.427H301.769V149.327ZM313.789 144.9H303.212V145.1H313.789V144.9ZM316.292 147.404C316.291 146.022 315.171 144.902 313.789 144.9L313.789 145.1C315.06 145.101 316.091 146.132 316.092 147.404L316.292 147.404ZM316.292 171.442V147.404H316.092V171.442H316.292ZM313.789 173.946C315.171 173.945 316.291 172.824 316.292 171.442L316.092 171.442C316.091 172.714 315.06 173.745 313.789 173.746L313.789 173.946ZM303.212 173.946H313.789V173.746H303.212V173.946ZM300.708 171.442C300.709 172.824 301.83 173.945 303.212 173.946L303.212 173.746C301.94 173.745 300.909 172.714 300.908 171.442L300.708 171.442ZM300.708 147.404V171.442H300.908V147.404H300.708ZM303.212 144.9C301.83 144.902 300.709 146.022 300.708 147.404L300.908 147.404C300.909 146.132 301.94 145.101 303.212 145.1L303.212 144.9ZM315.131 171.442C315.131 172.184 314.53 172.785 313.789 172.785V172.985C314.64 172.985 315.331 172.294 315.331 171.442H315.131ZM315.131 170V171.442H315.331V170H315.131ZM301.769 170.1H315.231V169.9H301.769V170.1ZM301.869 171.442V170H301.669V171.442H301.869ZM303.212 172.785C302.47 172.785 301.869 172.184 301.869 171.442H301.669C301.669 172.294 302.36 172.985 303.212 172.985V172.785ZM313.789 172.785H303.212V172.985H313.789V172.785ZM301.769 169.138H315.231V168.938H301.769V169.138ZM301.669 150.288V169.038H301.869V150.288H301.669ZM315.231 150.188H301.769V150.388H315.231V150.188ZM315.331 169.038V150.288H315.131V169.038H315.331ZM315.231 149.227H301.769V149.427H315.231V149.227ZM315.131 147.404V149.327H315.331V147.404H315.131ZM313.789 146.062C314.53 146.062 315.131 146.663 315.131 147.404H315.331C315.331 146.552 314.64 145.862 313.789 145.862V146.062ZM303.212 146.062H313.789V145.862H303.212V146.062ZM301.869 147.404C301.869 146.663 302.47 146.062 303.212 146.062V145.862C302.36 145.862 301.669 146.552 301.669 147.404H301.869ZM301.869 149.327V147.404H301.669V149.327H301.869Z" fill="white"/>
<rect x="305.135" y="147.404" width="6.73077" height="0.961538" fill="white" stroke="white" stroke-width="0.2"/>
<rect x="307.539" y="170.961" width="1.92308" height="0.961538" fill="white" stroke="white" stroke-width="0.2"/>
<rect x="302.731" y="151.25" width="1.92308" height="0.961538" fill="white" stroke="white" stroke-width="0.2"/>
<rect x="305.615" y="151.25" width="1.92308" height="0.961538" fill="white" stroke="white" stroke-width="0.2"/>
<rect x="309.462" y="153.173" width="0.961538" height="0.961538" fill="white" stroke="white" stroke-width="0.2"/>
<rect x="311.385" y="152.211" width="0.961538" height="1.92308" fill="white" stroke="white" stroke-width="0.2"/>
<rect x="313.308" y="151.25" width="0.961538" height="2.88462" fill="white" stroke="white" stroke-width="0.2"/>
<path fill-rule="evenodd" clip-rule="evenodd" d="M311.385 156.058V159.904H309.462V162.788H311.385V166.635H308.019C306.692 166.633 305.617 165.558 305.615 164.231V158.461C305.617 157.135 306.692 156.059 308.019 156.058H311.385ZM310.423 157.019H309.462V158.942H310.423V157.019ZM308.5 165.673H308.019C307.223 165.673 306.577 165.027 306.577 164.231V158.461C306.577 157.665 307.223 157.019 308.019 157.019H308.5V165.673ZM310.423 165.673V163.75H309.462V165.673H310.423Z" fill="white"/>
<path d="M311.385 159.904V160.004H311.485V159.904H311.385ZM311.385 156.058H311.485V155.958H311.385V156.058ZM309.462 159.904V159.804H309.362V159.904H309.462ZM309.462 162.788H309.362V162.888H309.462V162.788ZM311.385 162.788H311.485V162.688H311.385V162.788ZM311.385 166.635V166.735H311.485V166.635H311.385ZM308.019 166.635L308.019 166.735H308.019V166.635ZM305.615 164.231H305.515L305.515 164.231L305.615 164.231ZM305.615 158.461L305.515 158.461V158.461H305.615ZM308.019 156.058V155.958L308.019 155.958L308.019 156.058ZM309.462 157.019V156.919H309.362V157.019H309.462ZM310.423 157.019H310.523V156.919H310.423V157.019ZM309.462 158.942H309.362V159.042H309.462V158.942ZM310.423 158.942V159.042H310.523V158.942H310.423ZM308.5 165.673V165.773H308.6V165.673H308.5ZM308.5 157.019H308.6V156.919H308.5V157.019ZM310.423 163.75H310.523V163.65H310.423V163.75ZM310.423 165.673V165.773H310.523V165.673H310.423ZM309.462 163.75V163.65H309.362V163.75H309.462ZM309.462 165.673H309.362V165.773H309.462V165.673ZM311.485 159.904V156.058H311.285V159.904H311.485ZM309.462 160.004H311.385V159.804H309.462V160.004ZM309.562 162.788V159.904H309.362V162.788H309.562ZM311.385 162.688H309.462V162.888H311.385V162.688ZM311.485 166.635V162.788H311.285V166.635H311.485ZM308.019 166.735H311.385V166.535H308.019V166.735ZM305.515 164.231C305.517 165.613 306.637 166.733 308.019 166.735L308.019 166.535C306.748 166.533 305.717 165.502 305.715 164.231L305.515 164.231ZM305.515 158.461V164.231H305.715V158.461H305.515ZM308.019 155.958C306.637 155.959 305.517 157.079 305.515 158.461L305.715 158.462C305.717 157.19 306.748 156.159 308.019 156.158L308.019 155.958ZM311.385 155.958H308.019V156.158H311.385V155.958ZM309.462 157.119H310.423V156.919H309.462V157.119ZM309.562 158.942V157.019H309.362V158.942H309.562ZM310.423 158.842H309.462V159.042H310.423V158.842ZM310.323 157.019V158.942H310.523V157.019H310.323ZM308.019 165.773H308.5V165.573H308.019V165.773ZM306.477 164.231C306.477 165.082 307.168 165.773 308.019 165.773V165.573C307.278 165.573 306.677 164.972 306.677 164.231H306.477ZM306.477 158.461V164.231H306.677V158.461H306.477ZM308.019 156.919C307.168 156.919 306.477 157.61 306.477 158.461H306.677C306.677 157.72 307.278 157.119 308.019 157.119V156.919ZM308.5 156.919H308.019V157.119H308.5V156.919ZM308.6 165.673V157.019H308.4V165.673H308.6ZM310.323 163.75V165.673H310.523V163.75H310.323ZM309.462 163.85H310.423V163.65H309.462V163.85ZM309.562 165.673V163.75H309.362V165.673H309.562ZM310.423 165.573H309.462V165.773H310.423V165.573Z" fill="white"/>
<path d="M317.824 156.679L317.144 157.359C318.282 158.5 318.282 160.346 317.144 161.487L317.824 162.167C319.336 160.65 319.336 158.196 317.824 156.679Z" fill="white" stroke="white" stroke-width="0.2"/>
<path d="M319.266 155.237L318.587 155.917C320.52 157.855 320.52 160.992 318.587 162.929L319.266 163.609C321.575 161.296 321.575 157.551 319.266 155.237Z" fill="white" stroke="white" stroke-width="0.2"/>
<path d="M299.856 157.359L299.176 156.679C297.615 158.152 297.465 160.528 298.937 162.089C298.989 162.144 299.043 162.198 299.176 162.167L299.856 161.487C298.718 160.346 298.718 158.5 299.856 157.359Z" fill="white" stroke="white" stroke-width="0.2"/>
<path d="M298.414 155.917L297.734 155.237C295.426 157.551 295.426 161.296 297.734 163.609L298.414 162.929C296.481 160.991 296.481 157.855 298.414 155.917Z" fill="white" stroke="white" stroke-width="0.2"/>
<path fill-rule="evenodd" clip-rule="evenodd" d="M283.534 374.298L297.926 399.106C298.392 399.909 298.392 400.899 297.926 401.702C297.46 402.505 296.599 403 295.667 403H266.883C265.951 403 265.09 402.505 264.625 401.702C264.159 400.899 264.159 399.909 264.625 399.106L279.016 374.298C279.482 373.495 280.343 373 281.275 373C282.207 373 283.068 373.495 283.534 374.298ZM281.275 375.596L266.883 400.404H295.667L281.275 375.596Z" fill="white"/>
<path d="M297.926 399.106L297.623 399.281L297.623 399.281L297.926 399.106ZM283.534 374.298L283.231 374.473L283.231 374.473L283.534 374.298ZM297.926 401.702L298.228 401.877L298.229 401.877L297.926 401.702ZM264.625 401.702L264.322 401.877H264.322L264.625 401.702ZM264.625 399.106L264.927 399.281L264.927 399.281L264.625 399.106ZM279.016 374.298L279.319 374.473L279.319 374.473L279.016 374.298ZM266.883 400.404L266.581 400.228L266.276 400.754H266.883V400.404ZM281.275 375.596L281.578 375.421L281.275 374.899L280.972 375.421L281.275 375.596ZM295.667 400.404V400.754H296.275L295.97 400.228L295.667 400.404ZM298.228 398.93L283.836 374.122L283.231 374.473L297.623 399.281L298.228 398.93ZM298.229 401.877C298.757 400.966 298.757 399.842 298.228 398.93L297.623 399.281C298.026 399.976 298.026 400.832 297.623 401.526L298.229 401.877ZM295.667 403.35C296.723 403.35 297.7 402.789 298.228 401.877L297.623 401.526C297.22 402.221 296.474 402.65 295.667 402.65V403.35ZM266.883 403.35H295.667V402.65H266.883V403.35ZM264.322 401.877C264.851 402.789 265.827 403.35 266.883 403.35V402.65C266.076 402.65 265.33 402.221 264.927 401.526L264.322 401.877ZM264.322 398.93C263.793 399.842 263.793 400.966 264.322 401.877L264.927 401.526C264.524 400.832 264.524 399.976 264.927 399.281L264.322 398.93ZM278.714 374.122L264.322 398.93L264.927 399.281L279.319 374.473L278.714 374.122ZM281.275 372.65C280.219 372.65 279.242 373.211 278.714 374.122L279.319 374.473C279.722 373.779 280.468 373.35 281.275 373.35V372.65ZM283.836 374.122C283.308 373.211 282.331 372.65 281.275 372.65V373.35C282.083 373.35 282.828 373.779 283.231 374.473L283.836 374.122ZM267.186 400.58L281.578 375.772L280.972 375.421L266.581 400.228L267.186 400.58ZM295.667 400.054H266.883V400.754H295.667V400.054ZM280.972 375.772L295.364 400.58L295.97 400.228L281.578 375.421L280.972 375.772Z" fill="#9D9DF8"/>
<path d="M278.814 388.917L277.275 392.006V399H279.236V392.476L280.775 389.387V385H278.814V388.917Z" fill="white" stroke="#9D9DF8" stroke-width="0.7"/>
<rect x="282.775" y="385" width="2" height="14" fill="white" stroke="#9D9DF8" stroke-width="0.7"/>
<rect x="276.873" y="386.563" width="16" height="1.5" transform="rotate(45 276.873 386.563)" fill="white" stroke="#9D9DF8" stroke-width="0.7"/>
<path fill-rule="evenodd" clip-rule="evenodd" d="M382.873 202H366.127C364.214 202 362.658 203.556 362.658 205.469V222.215C362.658 224.128 364.217 225.684 366.127 225.684H382.873C384.786 225.684 386.342 224.128 386.342 222.215V205.469C386.342 203.557 384.783 202 382.873 202ZM364.046 205.469C364.046 204.322 364.98 203.388 366.127 203.388H382.873C383.194 203.388 383.498 203.461 383.77 203.591L378.995 208.366L376.304 206.348C376.094 206.191 375.812 206.165 375.578 206.283C375.342 206.4 375.194 206.64 375.194 206.903V208.985H371.725C369.812 208.985 368.255 210.541 368.255 212.454V219.106L364.249 223.112C364.119 222.84 364.046 222.536 364.046 222.215V205.469ZM379.125 210.199L376.582 212.742V213.842L380.282 211.067L379.125 210.199ZM375.6 211.76H373.112C371.965 211.76 371.031 212.694 371.031 213.842V216.33L369.643 217.718V212.454C369.643 211.307 370.577 210.373 371.725 210.373H375.888C376.271 210.373 376.582 210.062 376.582 209.679V208.291L378.003 209.357L375.6 211.76ZM372.418 214.942L374.213 213.148H373.112C372.73 213.148 372.418 213.46 372.418 213.842V214.942ZM369.643 219.681L371.031 218.293V220.087H369.643V219.681ZM382.873 224.296C384.021 224.296 384.954 223.363 384.954 222.215V205.469C384.954 205.148 384.881 204.844 384.751 204.572L380.116 209.207L381.855 210.512C382.03 210.643 382.133 210.848 382.133 211.067C382.133 211.285 382.03 211.491 381.855 211.622L376.304 215.785C376.094 215.943 375.812 215.968 375.578 215.851C375.342 215.733 375.194 215.493 375.194 215.23V214.13L372.418 216.905V220.781C372.418 221.164 372.108 221.475 371.725 221.475H368.949C368.651 221.475 368.398 221.287 368.3 221.024L365.23 224.093C365.502 224.223 365.806 224.296 366.127 224.296H382.873Z" fill="white"/>
<path fill-rule="evenodd" clip-rule="evenodd" d="M359.871 368.161C359.871 370.296 358.135 372.032 356 372.032C353.866 372.032 352.129 370.296 352.129 368.161C352.129 366.027 353.866 364.291 356 364.291C358.135 364.291 359.871 366.027 359.871 368.161ZM355.221 370.097H353.426C353.683 370.438 354.005 370.726 354.375 370.943L355.221 370.097ZM355.003 371.228L356.134 370.097H356.512L357.453 371.038C357.015 371.26 356.523 371.387 356 371.387C355.652 371.387 355.317 371.33 355.003 371.228ZM358.877 369.614C359.098 369.177 359.226 368.684 359.226 368.161C359.226 366.383 357.779 364.936 356 364.936C355.478 364.936 354.985 365.063 354.548 365.285L358.877 369.614ZM353.992 365.641L358.52 370.17C358.369 370.359 358.197 370.531 358.008 370.681L353.48 366.153C353.631 365.964 353.803 365.792 353.992 365.641ZM355.867 369.452L353.124 366.709C352.902 367.146 352.774 367.639 352.774 368.161C352.774 368.62 352.872 369.056 353.046 369.452H355.867Z" fill="white"/>
<path fill-rule="evenodd" clip-rule="evenodd" d="M366 369.452H360.991C361.098 369.038 361.161 368.607 361.161 368.161C361.161 365.315 358.846 363 356 363C353.154 363 350.839 365.315 350.839 368.161C350.839 368.607 350.902 369.038 351.009 369.452H346V377.194H347.29V383H349.871V381.065H362.129V383H364.71V377.194H366V369.452ZM362.129 377.194V378.484H349.871V377.194H362.129ZM348.77 376.548L352.98 372.338C352.66 372.106 352.367 371.839 352.108 371.541L347.101 376.548H348.77ZM358.447 376.548H356.779L363.23 370.097H364.899L358.447 376.548ZM355.866 376.548L362.318 370.097H360.781C360.014 371.986 358.161 373.323 356 373.323C355.108 373.323 354.268 373.095 353.535 372.695L349.682 376.548H355.866ZM356 363.645C358.49 363.645 360.516 365.671 360.516 368.161C360.516 370.652 358.49 372.677 356 372.677C353.51 372.677 351.484 370.652 351.484 368.161C351.484 365.671 353.51 363.645 356 363.645ZM351.71 371.027C351.516 370.736 351.352 370.425 351.219 370.097H346.645V376.092L351.71 371.027ZM347.935 382.355V377.194H349.226V382.355H347.935ZM349.871 379.129V380.419H362.129V379.129H349.871ZM364.065 382.355H362.774V377.194H364.065V382.355ZM365.355 370.553L359.359 376.548H365.355V370.553Z" fill="white"/>
<path d="M364.064 375.258H364.71V375.903H364.064V375.258Z" fill="white"/>
<path d="M362.774 375.258H363.419V375.903H362.774V375.258Z" fill="white"/>
<path d="M361.484 375.258H362.129V375.903H361.484V375.258Z" fill="white"/>
<path d="M347.29 370.742H347.935V371.387H347.29V370.742Z" fill="white"/>
<path d="M347.29 372.032H347.935V372.677H347.29V372.032Z" fill="white"/>
<path d="M347.29 373.323H347.935V373.968H347.29V373.323Z" fill="white"/>
<path fill-rule="evenodd" clip-rule="evenodd" d="M234.252 391.818C234.036 391.603 233.748 391.484 233.445 391.491C233.14 391.496 232.856 391.62 232.647 391.843L229.981 394.676C229.617 394.48 229.234 394.323 228.838 394.207C229.596 393.696 230.096 392.828 230.096 391.846C230.096 390.277 228.819 389 227.25 389C225.68 389 224.403 390.277 224.403 391.846C224.403 392.81 224.886 393.663 225.621 394.178C223.102 394.861 221.241 397.161 221.241 399.894V403.962L218.312 407.075C217.895 407.517 217.905 408.201 218.335 408.632C218.547 408.843 218.827 408.959 219.125 408.959H219.142C219.447 408.954 219.731 408.829 219.94 408.607L220.754 407.742C220.74 408.047 220.85 408.356 221.081 408.587C221.29 408.796 221.568 408.91 221.859 408.91C221.897 408.91 221.935 408.908 221.973 408.904C222.305 408.87 222.6 408.691 222.784 408.411C222.98 408.112 223.201 407.835 223.443 407.582H231.58C231.768 407.777 231.945 407.985 232.105 408.208C232.29 408.465 232.578 408.627 232.896 408.653C233.224 408.68 233.541 408.563 233.772 408.332C234.159 407.945 234.208 407.344 233.889 406.902C233.646 406.565 233.376 406.253 233.087 405.963C233.088 405.956 233.09 405.949 233.092 405.942C233.095 405.931 233.098 405.921 233.098 405.909V399.894C233.098 398.499 232.606 397.161 231.715 396.096L234.276 393.375C234.693 392.932 234.682 392.248 234.252 391.818ZM225.122 391.847C225.122 390.673 226.077 389.719 227.25 389.719C228.423 389.719 229.378 390.673 229.378 391.847C229.378 392.994 228.464 393.93 227.327 393.971C227.306 393.97 227.285 393.969 227.264 393.968C227.233 393.967 227.201 393.966 227.17 393.966C227.162 393.966 227.154 393.966 227.146 393.967C227.138 393.967 227.13 393.968 227.122 393.968C226.008 393.901 225.122 392.977 225.122 391.847ZM227.121 394.687C224.271 394.713 221.96 397.038 221.96 399.894H221.96V403.198L229.469 395.219C228.805 394.892 228.072 394.712 227.327 394.689C227.316 394.689 227.305 394.69 227.294 394.691C227.28 394.692 227.265 394.693 227.25 394.693C227.222 394.693 227.196 394.691 227.169 394.689L227.169 394.689C227.153 394.688 227.137 394.687 227.121 394.687ZM224.285 406.864C225.218 406.212 226.339 405.849 227.513 405.849C228.677 405.849 229.799 406.213 230.736 406.864H224.285ZM232.954 407.937C233.072 407.946 233.182 407.905 233.264 407.823C233.398 407.69 233.416 407.474 233.306 407.323C231.963 405.463 229.797 404.353 227.513 404.353C225.098 404.353 222.862 405.56 221.533 407.581C221.431 407.735 221.452 407.942 221.583 408.072C221.672 408.162 221.789 408.202 221.9 408.19C222.016 408.178 222.118 408.115 222.182 408.017C223.366 406.21 225.359 405.13 227.513 405.13C229.557 405.13 231.492 406.124 232.689 407.789C232.773 407.906 232.891 407.932 232.954 407.937ZM232.38 399.894V405.333C231.005 404.249 229.293 403.634 227.513 403.634C226.148 403.634 224.837 403.986 223.685 404.628L231.218 396.624C231.966 397.549 232.38 398.697 232.38 399.894ZM219.416 408.115L233.752 392.883C233.901 392.725 233.898 392.48 233.744 392.327C233.669 392.251 233.568 392.21 233.462 392.21H233.456C233.347 392.212 233.245 392.256 233.171 392.335L218.835 407.567C218.686 407.726 218.69 407.97 218.843 408.123C218.92 408.2 219.026 408.234 219.131 408.24C219.24 408.239 219.342 408.194 219.416 408.115Z" fill="white"/>
</svg>
