<svg width="84" height="84" viewBox="0 0 84 84" fill="none" xmlns="http://www.w3.org/2000/svg">
<rect width="84" height="84" fill="#022B69"/>
<path d="M55.391 40.9867L29.7243 27.1404C29.3627 26.9465 28.924 26.9534 28.5717 27.1611C28.217 27.3688 28 27.7473 28 28.1535V55.8461C28 56.2546 28.217 56.6308 28.5717 56.8385C28.7537 56.9469 28.9613 57 29.1667 57C29.3603 57 29.5517 56.9515 29.7243 56.8569L55.391 43.0106C55.7667 42.8121 56 42.4221 56 41.9998C56 41.5775 55.7667 41.1875 55.391 40.9867Z" fill="white"/>
<rect width="84" height="84" fill="#0066F5"/>
<path d="M55.391 40.9867L29.7243 27.1404C29.3627 26.9465 28.924 26.9534 28.5717 27.1611C28.217 27.3688 28 27.7473 28 28.1535V55.8461C28 56.2546 28.217 56.6308 28.5717 56.8385C28.7537 56.9469 28.9613 57 29.1667 57C29.3603 57 29.5517 56.9515 29.7243 56.8569L55.391 43.0106C55.7667 42.8121 56 42.4221 56 41.9998C56 41.5775 55.7667 41.1875 55.391 40.9867Z" fill="white"/>
</svg>
