<svg width="20" height="26" viewBox="0 0 20 26" fill="none" xmlns="http://www.w3.org/2000/svg">
<path d="M9.51275 9.98896C9.19588 9.67208 8.68075 9.67046 8.36225 9.98733L5.6875 12.6637L4.63775 11.6123C4.32088 11.2955 3.80575 11.2955 3.48888 11.6123C3.172 11.9292 3.172 12.4443 3.48888 12.7612L5.11388 14.3862C5.2715 14.5455 5.4795 14.6251 5.6875 14.6251C5.8955 14.6251 6.1035 14.5455 6.26275 14.3878L9.51275 11.1378C9.82963 10.821 9.82963 10.3058 9.51275 9.98896Z" fill="#1F2C3E"/>
<path d="M9.51275 16.489C9.19588 16.1721 8.68075 16.1705 8.36225 16.4873L5.6875 19.1637L4.63775 18.114C4.32088 17.7971 3.80575 17.7971 3.48888 18.114C3.172 18.4308 3.172 18.946 3.48888 19.2628L5.11388 20.8878C5.2715 21.0455 5.4795 21.1251 5.6875 21.1251C5.8955 21.1251 6.1035 21.0455 6.26275 20.8878L9.51275 17.6378C9.82963 17.321 9.82963 16.8058 9.51275 16.489Z" fill="#1F2C3E"/>
<path d="M15.4375 11.375H12.1875C11.739 11.375 11.375 11.739 11.375 12.1875C11.375 12.636 11.739 13 12.1875 13H15.4375C15.886 13 16.25 12.636 16.25 12.1875C16.25 11.739 15.886 11.375 15.4375 11.375Z" fill="#1F2C3E"/>
<path d="M15.4375 17.875H12.1875C11.739 17.875 11.375 18.239 11.375 18.6875C11.375 19.136 11.739 19.5 12.1875 19.5H15.4375C15.886 19.5 16.25 19.136 16.25 18.6875C16.25 18.239 15.886 17.875 15.4375 17.875Z" fill="#1F2C3E"/>
<path fill-rule="evenodd" clip-rule="evenodd" d="M17.875 3.25H14.625V2.4375C14.625 1.989 14.261 1.625 13.8125 1.625H12.0494C11.713 0.67925 10.8095 0 9.75 0C8.6905 0 7.787 0.67925 7.45062 1.625H5.6875C5.239 1.625 4.875 1.989 4.875 2.4375V3.25H1.625C0.729625 3.25 0 3.97962 0 4.875V24.375C0 25.2704 0.729625 26 1.625 26H17.875C18.7704 26 19.5 25.2704 19.5 24.375V4.875C19.5 3.97962 18.7704 3.25 17.875 3.25ZM6.5 3.25H8.125C8.5735 3.25 8.9375 2.886 8.9375 2.4375C8.9375 1.989 9.3015 1.625 9.75 1.625C10.1985 1.625 10.5625 1.989 10.5625 2.4375C10.5625 2.886 10.9265 3.25 11.375 3.25H13V4.875H6.5V3.25ZM1.625 4.875V24.375H17.875V4.875H14.625V5.6875C14.625 6.136 14.261 6.5 13.8125 6.5H5.6875C5.239 6.5 4.875 6.136 4.875 5.6875V4.875H1.625Z" fill="#1F2C3E"/>
</svg>
