<svg width="20" height="26" viewBox="0 0 20 26" fill="none" xmlns="http://www.w3.org/2000/svg">
<path fill-rule="evenodd" clip-rule="evenodd" d="M14.625 3.25H17.875C18.7704 3.25 19.5 3.97962 19.5 4.875V24.375C19.5 25.2704 18.7704 26 17.875 26H1.625C0.729625 26 0 25.2704 0 24.375V4.875C0 3.97962 0.729625 3.25 1.625 3.25H4.875V2.4375C4.875 1.989 5.239 1.625 5.6875 1.625H7.45062C7.787 0.67925 8.6905 0 9.75 0C10.8095 0 11.713 0.67925 12.0494 1.625H13.8125C14.261 1.625 14.625 1.989 14.625 2.4375V3.25ZM8.125 3.25H6.5V4.875H13V3.25H11.375C10.9265 3.25 10.5625 2.886 10.5625 2.4375C10.5625 1.989 10.1985 1.625 9.75 1.625C9.3015 1.625 8.9375 1.989 8.9375 2.4375C8.9375 2.886 8.5735 3.25 8.125 3.25ZM9.51275 9.98887C9.19588 9.672 8.68075 9.67037 8.36225 9.98725L5.6875 12.6636L4.63775 11.6122C4.32088 11.2954 3.80575 11.2954 3.48888 11.6122C3.172 11.9291 3.172 12.4442 3.48888 12.7611L5.11387 14.3861C5.2715 14.5454 5.4795 14.625 5.6875 14.625C5.8955 14.625 6.1035 14.5454 6.26275 14.3877L9.51275 11.1377C9.82963 10.8209 9.82963 10.3057 9.51275 9.98887ZM8.36225 16.4872C8.68075 16.1704 9.19588 16.172 9.51275 16.4889C9.82963 16.8057 9.82963 17.3209 9.51275 17.6377L6.26275 20.8877C6.1035 21.0454 5.8955 21.125 5.6875 21.125C5.4795 21.125 5.2715 21.0454 5.11387 20.8877L3.48888 19.2627C3.172 18.9459 3.172 18.4307 3.48888 18.1139C3.80575 17.797 4.32088 17.797 4.63775 18.1139L5.6875 19.1636L8.36225 16.4872ZM12.1875 11.375C11.739 11.375 11.375 11.739 11.375 12.1875C11.375 12.636 11.739 13 12.1875 13H15.4375C15.886 13 16.25 12.636 16.25 12.1875C16.25 11.739 15.886 11.375 15.4375 11.375H12.1875ZM11.375 18.6875C11.375 18.239 11.739 17.875 12.1875 17.875H15.4375C15.886 17.875 16.25 18.239 16.25 18.6875C16.25 19.136 15.886 19.5 15.4375 19.5H12.1875C11.739 19.5 11.375 19.136 11.375 18.6875Z" fill="white"/>
</svg>
