<svg width="74" height="74" viewBox="0 0 74 74" fill="none" xmlns="http://www.w3.org/2000/svg">
<path fill-rule="evenodd" clip-rule="evenodd" d="M36.8776 0C16.5113 0 0.000976562 16.5108 0.000976562 36.8771C0.000976562 57.2426 16.5113 73.7554 36.8773 73.7554C57.2433 73.7554 73.7554 57.2433 73.7554 36.8771C73.7546 16.5108 57.2438 0 36.8776 0ZM57.9371 41.5044C56.2761 52.0586 47.1348 59.614 36.7694 59.614C35.6663 59.614 34.5499 59.528 33.4264 59.3519C21.7494 57.5118 13.7431 46.515 15.5796 34.8392C16.4698 29.1821 19.5094 24.2098 24.1385 20.8392C28.1237 17.938 32.8754 16.5263 37.7304 16.7565L34.159 13.3554L36.4997 10.8991L41.9796 16.1207L41.9809 16.12L44.432 18.4587L42.0932 20.915L42.092 20.913L36.8709 26.3942L34.4174 24.0534L37.7255 20.584C33.6796 20.3544 29.7096 21.5156 26.3902 23.9322C22.5867 26.7015 20.0896 30.7862 19.3582 35.434C17.8502 45.0267 24.4281 54.0613 34.0213 55.5725C43.614 57.0798 52.6479 50.5039 54.1572 40.91C55.1538 34.5769 52.6268 28.1947 47.5601 24.2536L49.9104 21.2343C56.074 26.0296 59.1501 33.7966 57.9371 41.5044ZM29.646 42.8381L29.7716 43.1322C30.7051 45.3168 32.7203 46.6871 35.4615 47.0094V49.1048H38.8586V46.9037C41.469 46.6116 44.0081 44.9635 44.0081 41.8326C44.0081 37.5785 40.0529 37.0912 37.1637 36.7355C35.3157 36.5142 33.9028 36.2568 33.9028 35.1389C33.9028 33.5837 36.0955 33.4153 37.0386 33.4153C38.4367 33.4153 39.9315 34.0739 40.4396 34.913L40.5864 35.1571L43.4884 33.8148L43.3448 33.5222C42.2641 31.3116 40.3263 30.6719 38.8579 30.4138V28.4752H35.46V30.4054C32.2967 30.8727 30.4182 32.6281 30.4182 35.1392C30.4182 39.2337 34.1349 39.6503 36.8479 39.9543L36.85 39.9546C39.2679 40.2398 40.3939 40.8364 40.3939 41.8331C40.3939 43.736 37.7606 43.8832 36.9533 43.8832C35.1571 43.8832 33.4241 42.9861 32.9229 41.7962L32.7985 41.5017L29.646 42.8381Z" fill="#0066F5"/>
</svg>
