<svg width="48" height="48" viewBox="0 0 48 48" fill="none" xmlns="http://www.w3.org/2000/svg">
<circle cx="24" cy="24" r="24" fill="#0066F5"/>
<circle cx="24" cy="24" r="22.5" stroke="#022B69" stroke-opacity="0.172324" stroke-width="3"/>
<path d="M15.5273 32H25.0898C25.3811 32 25.6172 31.7639 25.6172 31.4727V30.9102C25.6172 30.3276 25.1451 29.8555 24.5625 29.8555V29.225C24.5625 28.3902 23.8833 27.7109 23.0484 27.7109H17.5687C16.7339 27.7109 16.0547 28.3902 16.0547 29.225V29.8555C15.4721 29.8555 15 30.3276 15 30.9102V31.4727C15 31.7638 15.2362 32 15.5273 32Z" fill="white"/>
<path d="M21.601 25.6138C21.9514 26.0789 22.6128 26.1719 23.078 25.8213C23.5432 25.4708 23.6361 24.8094 23.2856 24.3442L20.1119 20.1327C19.7613 19.6674 19.1001 19.5746 18.6349 19.925C18.1697 20.2756 18.0767 20.9369 18.4273 21.4022L21.601 25.6138Z" fill="white"/>
<path d="M29.1809 19.901C29.5315 20.3662 30.1928 20.4591 30.658 20.1085C31.1232 19.7581 31.2161 19.0968 30.8655 18.6316L27.6919 14.4201C27.3414 13.9548 26.68 13.8619 26.2149 14.2125C25.7498 14.5631 25.6568 15.2243 26.0074 15.6896L29.1809 19.901Z" fill="white"/>
<path d="M26.8671 22.9648C27.6466 22.3775 28.2318 21.6481 28.5977 20.8802L24.905 15.9797C24.0659 16.1199 23.2036 16.4813 22.424 17.0688C21.6445 17.6561 21.0593 18.3855 20.6934 19.1533L24.3861 24.054C25.2252 23.9138 26.0875 23.5523 26.8671 22.9648Z" fill="white"/>
<path d="M28.2919 23.1021C28.0464 23.3523 27.7878 23.5922 27.5027 23.8071C27.2174 24.0219 26.9155 24.2044 26.6074 24.3715L27.295 25.2841L28.9796 24.0147L28.2919 23.1021Z" fill="white"/>
<path d="M29.6143 24.8572L27.9297 26.1265L31.1034 30.3381C31.454 30.8034 32.1152 30.8962 32.5803 30.5458C33.0456 30.1952 33.1384 29.5339 32.788 29.0686L29.6143 24.8572Z" fill="white"/>
</svg>
