<svg width="48" height="48" viewBox="0 0 48 48" fill="none" xmlns="http://www.w3.org/2000/svg">
<circle cx="24" cy="24" r="24" fill="#0066F5"/>
<circle cx="24" cy="24" r="22.5" stroke="#022B69" stroke-opacity="0.172324" stroke-width="3"/>
<path d="M13.5011 16.4604C16.795 19.25 22.5748 24.1577 24.2736 25.688C24.5016 25.8945 24.7462 25.9995 25.0001 25.9995C25.2535 25.9995 25.4977 25.8955 25.7252 25.6899C27.4255 24.1582 33.2052 19.25 36.4992 16.4604C36.7043 16.2871 36.7355 15.9824 36.5695 15.7705C36.1857 15.2808 35.6134 15 35.0001 15H15.0002C14.3869 15 13.8146 15.2808 13.4308 15.7705C13.2648 15.9824 13.2961 16.2871 13.5011 16.4604Z" fill="white"/>
<path d="M36.71 17.9722C36.5327 17.8897 36.3242 17.9184 36.1768 18.0444C32.5239 21.1411 27.8618 25.1104 26.395 26.4321C25.5717 27.1753 24.4292 27.1753 23.604 26.4311C22.0405 25.0224 16.8051 20.5717 13.8232 18.0444C13.6748 17.9184 13.4658 17.8906 13.29 17.9721C13.1133 18.0542 13 18.2309 13 18.4258V31C13 32.103 13.897 33 15 33H35C36.103 33 37 32.103 37 31V18.4258C37 18.2309 36.8867 18.0537 36.71 17.9722Z" fill="white"/>
</svg>
