<svg width="48" height="48" viewBox="0 0 48 48" fill="none" xmlns="http://www.w3.org/2000/svg">
<circle cx="24" cy="24" r="24" fill="#0066F5"/>
<circle cx="24" cy="24" r="22.5" stroke="#022B69" stroke-opacity="0.172324" stroke-width="3"/>
<path fill-rule="evenodd" clip-rule="evenodd" d="M24 15C19.0373 15 15 19.0373 15 24C15 28.9627 19.0373 33 24 33C28.9627 33 33 28.9627 33 24C33 19.0373 28.9627 15 24 15ZM24 29.25C23.586 29.25 23.25 28.914 23.25 28.5C23.25 28.086 23.586 27.75 24 27.75C24.414 27.75 24.75 28.086 24.75 28.5C24.75 28.914 24.414 29.25 24 29.25ZM24.75 25.1632C24.75 24.8715 24.9218 24.6038 25.1873 24.4815C26.496 23.8778 27.375 22.3882 27.375 21.375C27.375 19.5142 25.8608 18 24 18C22.1392 18 20.625 19.5142 20.625 21.375C20.625 21.789 20.9602 22.125 21.375 22.125C21.7898 22.125 22.125 21.789 22.125 21.375C22.125 20.3415 22.9657 19.5 24 19.5C25.0343 19.5 25.875 20.3415 25.875 21.375C25.875 21.8333 25.323 22.767 24.5588 23.1187C23.7645 23.4855 23.25 24.288 23.25 25.1632V25.5C23.25 25.914 23.5852 26.25 24 26.25C24.4148 26.25 24.75 25.914 24.75 25.5V25.1632Z" fill="white"/>
</svg>
