<svg width="48" height="48" viewBox="0 0 48 48" fill="none" xmlns="http://www.w3.org/2000/svg">
<circle cx="24" cy="24" r="24" fill="#0066F5"/>
<circle cx="24" cy="24" r="22.5" stroke="#022B69" stroke-opacity="0.172324" stroke-width="3"/>
<path fill-rule="evenodd" clip-rule="evenodd" d="M33.3682 17.4108H27.2673L26.0353 15.3412C25.9148 15.1389 25.6968 15.0149 25.4613 15.0149H21.5866C21.3511 15.0149 21.133 15.1389 21.0126 15.3412L19.7807 17.4108H17.7787V16.9547C17.7787 16.5858 17.4796 16.2867 17.1107 16.2867H14.6389C14.2699 16.2867 13.9708 16.5858 13.9708 16.9547V17.4108H13.6798C12.752 17.4108 12 18.1629 12 19.0906V31.2531C12 32.1808 12.752 32.9329 13.6798 32.9329H33.3682C34.2959 32.9329 35.048 32.1808 35.048 31.2531V19.0906C35.0481 18.1629 34.2959 17.4108 33.3682 17.4108ZM23.524 29.9533C20.8832 29.9533 18.7425 27.8126 18.7425 25.1718C18.7425 22.5311 20.8832 20.3903 23.524 20.3903C26.1647 20.3903 28.3055 22.5311 28.3055 25.1718C28.3055 27.8126 26.1647 29.9533 23.524 29.9533ZM30.2269 20.874H32.3201C32.6891 20.874 32.9882 20.5749 32.9882 20.2059C32.9882 19.8369 32.6892 19.5378 32.3201 19.5378H30.2269C29.858 19.5378 29.5588 19.8369 29.5588 20.2059C29.5588 20.5749 29.858 20.874 30.2269 20.874Z" fill="white"/>
<circle cx="23.5239" cy="25.1719" r="3.34035" fill="white"/>
</svg>
