<svg width="48" height="48" viewBox="0 0 48 48" fill="none" xmlns="http://www.w3.org/2000/svg">
<circle cx="24" cy="24" r="24" fill="#0066F5"/>
<circle cx="24" cy="24" r="22.5" stroke="#022B69" stroke-opacity="0.172324" stroke-width="3"/>
<circle cx="23.8008" cy="19.8008" r="2.63672" fill="white"/>
<path fill-rule="evenodd" clip-rule="evenodd" d="M18 19.8008C18 16.1696 20.9493 14 23.8008 14C26.9993 14 29.6016 16.6022 29.6016 19.8008C29.6016 23.1178 24.426 29.4364 24.2061 29.7011C24.1057 29.8211 23.9573 29.8906 23.8008 29.8906C23.6442 29.8906 23.4959 29.8211 23.3955 29.7011C23.1756 29.4364 18 23.1178 18 19.8008ZM20.1094 19.8008C20.1094 21.836 21.7656 23.4922 23.8008 23.4922C25.836 23.4922 27.4922 21.836 27.4922 19.8008C27.4922 17.7656 25.836 16.1094 23.8008 16.1094C21.7656 16.1094 20.1094 17.7656 20.1094 19.8008Z" fill="white"/>
<path d="M27.3546 27.2825C26.3378 28.7546 25.3872 29.9299 25.0172 30.3753C24.7133 30.7383 24.2704 30.9454 23.8008 30.9454C23.3311 30.9454 22.8882 30.7383 22.5864 30.3778C22.2155 29.9314 21.2643 28.7552 20.247 27.2825C18.8819 27.7649 18 28.5165 18 29.3633C18 30.8195 20.5971 32.0001 23.8008 32.0001C27.0044 32.0001 29.6016 30.8195 29.6016 29.3633C29.6016 28.5165 28.7197 27.7649 27.3546 27.2825Z" fill="white"/>
</svg>
