<svg width="48" height="48" viewBox="0 0 48 48" fill="none" xmlns="http://www.w3.org/2000/svg">
<circle cx="24" cy="24" r="24" fill="#0066F5"/>
<circle cx="24" cy="24" r="22.5" stroke="#022B69" stroke-opacity="0.172324" stroke-width="3"/>
<path d="M34.0411 28.8622C34.0411 28.0596 33.5242 27.3818 32.8082 27.1265V20.7404L34.0411 20.2321L23.5205 16.011L13 20.2321L23.5205 24.4533L31.5753 21.2355V27.1265C30.8594 27.3818 30.3425 28.0596 30.3425 28.8622C30.3425 29.597 30.7764 30.2278 31.3987 30.5258L30.3744 33.5987L31.5435 33.9888L32.1918 32.0438L32.8401 33.9888L34.0092 33.5987L32.9849 30.5258C33.6071 30.2278 34.0411 29.5971 34.0411 28.8622Z" fill="white"/>
<path d="M23.5206 25.7819L17.9727 23.5542V25.1637C17.9727 26.9209 20.3577 28.2459 23.5206 28.2459C26.6835 28.2459 29.0685 26.9209 29.0685 25.1637V23.5542L23.5206 25.7819Z" fill="white"/>
</svg>
