<svg width="48" height="48" viewBox="0 0 48 48" fill="none" xmlns="http://www.w3.org/2000/svg">
<circle cx="24" cy="24" r="24" fill="#0066F5"/>
<circle cx="24" cy="24" r="22.5" stroke="#022B69" stroke-opacity="0.172324" stroke-width="3"/>
<path fill-rule="evenodd" clip-rule="evenodd" d="M29.7416 16.0149C31.7362 16.0185 33.4348 17.4446 33.7546 19.3843H34.926L33.2461 15.5275C33.05 15.0755 32.5994 14.7821 32.1005 14.7815H17.0914C16.5924 14.7821 16.1419 15.0755 15.9458 15.5275L14.2659 19.3843H25.7286C26.0484 17.4446 27.7469 16.0185 29.7416 16.0149ZM29.0976 17.3593C28.0797 17.5986 27.285 18.3816 27.0421 19.3843H32.441C32.0854 17.9156 30.5884 17.009 29.0976 17.3593ZM14.6642 24.1459H17.8057V25.8125H14.6642V24.1459ZM32.8691 31.0894V30.0185H35.6267C36.0462 30.0154 36.457 29.901 36.8162 29.6874V31.0894L36.8161 31.1067L36.8159 31.1212C36.8013 31.7539 36.2689 32.255 35.6267 32.2406H34.086C33.422 32.2406 32.8691 31.7436 32.8691 31.0894ZM31.0164 24.1459H34.158V25.8125H31.0164V24.1459ZM35.5227 20.6541L36.1566 21.261C36.5797 21.6626 36.818 22.2171 36.8162 22.796V27.5377C36.8162 28.1919 36.2908 28.7488 35.6267 28.7488H13.1954C12.5314 28.7488 12.0059 28.1919 12.0059 27.5377V23.0047C12.0025 22.3866 12.2746 21.7982 12.7501 21.3952L13.617 20.6541H35.5227ZM18.4502 27.0822C18.806 27.0822 19.0946 26.798 19.0946 26.4473V23.511C19.0946 23.1604 18.806 22.8762 18.4502 22.8762H14.0197C13.6639 22.8762 13.3753 23.1604 13.3753 23.511V26.4473C13.3753 26.798 13.6639 27.0822 14.0197 27.0822H18.4502ZM27.2304 26.9235H21.5917C21.2358 26.9235 20.9473 26.6392 20.9473 26.2886C20.9473 25.938 21.2358 25.6538 21.5917 25.6538H27.2304C27.5863 25.6538 27.8748 25.938 27.8748 26.2886C27.8748 26.6392 27.5863 26.9235 27.2304 26.9235ZM21.5917 24.7014H27.2304C27.5863 24.7014 27.8748 24.4172 27.8748 24.0666C27.8748 23.716 27.5863 23.4317 27.2304 23.4317H21.5917C21.2358 23.4317 20.9473 23.716 20.9473 24.0666C20.9473 24.4172 21.2358 24.7014 21.5917 24.7014ZM35.4468 26.4473C35.4468 26.798 35.1583 27.0822 34.8024 27.0822H30.372C30.0161 27.0822 29.7276 26.798 29.7276 26.4473V23.511C29.7276 23.1604 30.0161 22.8762 30.372 22.8762H34.8024C35.1583 22.8762 35.4468 23.1604 35.4468 23.511V26.4473ZM12.0059 31.0894V29.6874C12.365 29.901 12.7759 30.0154 13.1954 30.0185H15.953V31.0894C15.953 31.7436 15.4001 32.2406 14.7361 32.2406H13.1954C13.1847 32.2409 13.1739 32.241 13.1631 32.2409C12.5208 32.2377 12.0027 31.7222 12.0059 31.0894Z" fill="white"/>
</svg>
