<svg width="48" height="48" viewBox="0 0 48 48" fill="none" xmlns="http://www.w3.org/2000/svg">
<circle cx="24" cy="24" r="24" fill="#0066F5"/>
<circle cx="24" cy="24" r="22.5" stroke="#022B69" stroke-opacity="0.172324" stroke-width="3"/>
<path d="M31.76 23.0844H32.975C32.5498 18.8231 29.1522 15.4249 24.8906 15V16.2151C28.4858 16.6306 31.3441 19.4889 31.76 23.0844Z" fill="white" stroke="white"/>
<path d="M16.2151 24.8911H15C15.4252 29.1524 18.8228 32.5506 23.0844 32.9755V31.7605C19.4892 31.3449 16.6309 28.4866 16.2151 24.8911Z" fill="white" stroke="white"/>
<path d="M24.8906 31.7605V32.9755C29.1522 32.5506 32.5498 29.1524 32.975 24.8911H31.76C31.3441 28.4866 28.4858 31.3449 24.8906 31.7605Z" fill="white" stroke="white"/>
<path d="M23.0844 16.2151V15C18.8228 15.4249 15.4252 18.8231 15 23.0844H16.2151C16.6309 19.4889 19.4892 16.6306 23.0844 16.2151Z" fill="white" stroke="white"/>
<path d="M28.273 23.0844H29.4921C29.1063 20.729 27.2461 18.8684 24.8906 18.4829V19.7021C26.5821 20.0582 27.9166 21.3929 28.273 23.0844Z" fill="white" stroke="white"/>
<path d="M19.7016 24.8911H18.4824C18.8682 27.2465 20.7285 29.1071 23.0839 29.4926V28.2734C21.3924 27.9173 20.058 26.5826 19.7016 24.8911Z" fill="white" stroke="white"/>
<path d="M24.8906 28.2734V29.4926C27.2461 29.1071 29.1063 27.2465 29.4921 24.8911H28.273C27.9166 26.5825 26.5821 27.9173 24.8906 28.2734Z" fill="white" stroke="white"/>
<path d="M19.7016 23.0844C20.058 21.3929 21.3925 20.0582 23.0839 19.7021V18.4829C20.7285 18.8684 18.8682 20.729 18.4824 23.0844H19.7016Z" fill="white" stroke="white"/>
<path d="M25.9868 24.8911C26.112 24.615 26.1855 24.3106 26.1855 23.9878C26.1855 23.6649 26.112 23.3605 25.9868 23.0844C25.7667 22.5989 25.3769 22.2093 24.8916 21.9893C24.6152 21.8643 24.3111 21.7905 23.9883 21.7905C23.6654 21.7905 23.3613 21.8643 23.0849 21.9893C22.5997 22.2093 22.2098 22.5989 21.9898 23.0844C21.8645 23.3605 21.791 23.6649 21.791 23.9878C21.791 24.3106 21.8645 24.615 21.9898 24.8911C22.2098 25.3767 22.5997 25.7663 23.0849 25.9863C23.3613 26.1112 23.6654 26.185 23.9883 26.185C24.3111 26.185 24.6152 26.1112 24.8916 25.9863C25.3769 25.7663 25.7667 25.3767 25.9868 24.8911Z" fill="white" stroke="white"/>
</svg>
