<svg width="48" height="48" viewBox="0 0 48 48" fill="none" xmlns="http://www.w3.org/2000/svg">
<circle cx="24" cy="24" r="24" fill="#0066F5"/>
<circle cx="24" cy="24" r="22.5" stroke="#022B69" stroke-opacity="0.172324" stroke-width="3"/>
<path d="M25.7612 18.9075L24.2719 20.3968C26.4938 20.6765 27.4074 23.4033 25.8439 24.9668L21.3237 29.487C20.2731 30.5376 18.5634 30.5376 17.5129 29.487C16.4598 28.4332 16.4595 26.7297 17.5129 25.6762L18.7022 24.4866C18.4838 23.7691 18.4145 22.8822 18.5557 22.0186L16.3322 24.2421C14.5567 26.0176 14.5553 28.8921 16.3319 30.668C18.1069 32.4438 20.9823 32.4442 22.7578 30.668C28.3168 25.1098 26.7596 26.6667 27.2069 26.2175C29.4029 23.9374 28.6389 20.1689 25.7612 18.9075V18.9075Z" fill="white"/>
<path d="M31.6705 21.7544C33.4423 19.983 33.442 17.1003 31.6705 15.3285C29.899 13.5577 27.0168 13.5567 25.2449 15.3285C20.6951 19.8784 20.7959 19.7793 20.7959 19.7793C18.5728 22.0882 19.3936 25.8399 22.2409 27.0891H22.2412L23.6043 25.726H23.6039C21.3815 25.4447 20.473 22.7238 22.0261 21.1622C22.0261 21.1622 24.6034 18.585 26.5521 16.6357C27.6036 15.5843 29.3078 15.5806 30.3629 16.6357C31.4138 17.6866 31.4138 19.396 30.3629 20.4468L29.3006 21.5092C29.5523 22.4313 29.5768 23.1869 29.4478 23.9772L31.6705 21.7544Z" fill="white"/>
<path d="M15.5737 20.6576C15.5899 20.6576 15.6065 20.6569 15.623 20.6553L16.6525 20.5598C16.9425 20.5329 17.1558 20.276 17.1289 19.986C17.102 19.696 16.8451 19.4825 16.555 19.5096L15.5255 19.6052C15.2355 19.6321 15.0223 19.8889 15.0492 20.1789C15.0746 20.4524 15.3044 20.6576 15.5737 20.6576Z" fill="white"/>
<path d="M20.9865 16.1293C21.0031 16.1308 21.0195 16.1316 21.0358 16.1316C21.3051 16.1316 21.5349 15.9263 21.5603 15.6529L21.6558 14.6234C21.6827 14.3334 21.4694 14.0765 21.1794 14.0497C20.8894 14.0227 20.6325 14.2361 20.6056 14.526L20.5101 15.5555C20.4832 15.8455 20.6965 16.1024 20.9865 16.1293Z" fill="white"/>
<path d="M17.6039 17.254C17.8099 17.4599 18.1438 17.4599 18.3497 17.254C18.5556 17.0481 18.5556 16.7141 18.3497 16.5082L17.6893 15.8478C17.4834 15.6419 17.1495 15.6419 16.9435 15.8478C16.7376 16.0537 16.7376 16.3876 16.9435 16.5936L17.6039 17.254Z" fill="white"/>
<path d="M32.3753 25.3446L31.3458 25.4401C31.0558 25.467 30.8426 25.7239 30.8695 26.0139C30.8964 26.3043 31.1539 26.5173 31.4433 26.4903L32.4727 26.3948C32.7627 26.3679 32.976 26.111 32.9491 25.821C32.9222 25.5309 32.6649 25.3175 32.3753 25.3446Z" fill="white"/>
<path d="M27.0134 29.8707C26.723 29.8437 26.4665 30.0571 26.4396 30.3471L26.3441 31.3766C26.3155 31.6849 26.5577 31.9527 26.8698 31.9527C27.139 31.9527 27.3689 31.7474 27.3942 31.474L27.4898 30.4445C27.5167 30.1545 27.3034 29.8976 27.0134 29.8707Z" fill="white"/>
<path d="M30.3963 28.746C30.1904 28.5401 29.8565 28.5401 29.6506 28.746C29.4446 28.9519 29.4446 29.2858 29.6506 29.4918L30.311 30.1522C30.5169 30.3581 30.8508 30.3581 31.0567 30.1522C31.2627 29.9463 31.2627 29.6123 31.0567 29.4064L30.3963 28.746Z" fill="white"/>
</svg>
