<svg width="48" height="48" viewBox="0 0 48 48" fill="none" xmlns="http://www.w3.org/2000/svg">
<circle cx="24" cy="24" r="24" fill="#0066F5"/>
<circle cx="24" cy="24" r="22.5" stroke="#022B69" stroke-opacity="0.172324" stroke-width="3"/>
<path d="M34.4428 20.3804H33.3389V27.5952C33.3389 28.7413 32.4146 29.6709 31.2738 29.6761H15.1699V30.9649C15.1699 31.5247 15.6241 32.0001 16.1787 32.0001H34.4428C34.9974 32.0001 35.4516 31.5247 35.4516 30.9649V21.405C35.4516 20.8452 35.0027 20.3857 34.4428 20.3804Z" fill="white"/>
<path d="M14.2509 18.6108C13.9287 18.6108 13.6699 18.8696 13.6699 19.1918C13.6699 19.514 13.9287 19.7728 14.2509 19.7728C14.5731 19.7728 14.8319 19.514 14.8319 19.1918C14.8319 18.8696 14.5731 18.6108 14.2509 18.6108Z" fill="white"/>
<path d="M30.0263 25.8098C29.7041 25.8098 29.4453 26.0686 29.4453 26.3908C29.4453 26.713 29.7041 26.9718 30.0263 26.9718C30.3485 26.9665 30.6073 26.7077 30.6073 26.3908C30.6073 26.0686 30.3485 25.8098 30.0263 25.8098Z" fill="white"/>
<path fill-rule="evenodd" clip-rule="evenodd" d="M17.7363 22.8205C17.7363 20.3909 19.7117 18.4155 22.1413 18.4155C24.5708 18.4155 26.5462 20.3909 26.5462 22.8205C26.5462 25.25 24.5708 27.2201 22.1413 27.2254C19.7064 27.2254 17.7363 25.25 17.7363 22.8205ZM22.6166 26.1585V25.9472C23.6518 25.6884 24.2803 24.6426 24.0215 23.6074C23.805 22.7465 23.0339 22.1444 22.1465 22.1444C21.6659 22.1497 21.2698 21.7641 21.2645 21.2835C21.2592 20.8029 21.6448 20.4067 22.1254 20.4014H22.1413C22.6219 20.4014 23.0127 20.7923 23.0127 21.2729C23.0127 21.5634 23.2504 21.8011 23.5409 21.8011C23.8367 21.8011 24.0744 21.5687 24.0796 21.2729C24.0849 20.3856 23.4775 19.6092 22.6166 19.3979V19.2395C22.6166 18.949 22.3789 18.7113 22.0884 18.7113C21.7979 18.7113 21.5603 18.949 21.5603 19.2395V19.4402C20.5462 19.7676 19.9916 20.8504 20.3138 21.8645C20.5673 22.662 21.3068 23.2007 22.1465 23.2007C22.6272 23.206 23.018 23.5969 23.0127 24.0775C23.0075 24.5581 22.6166 24.949 22.136 24.9437C21.6553 24.9384 21.2698 24.5529 21.2698 24.0722C21.2698 23.7817 21.0321 23.544 20.7416 23.544C20.4564 23.544 20.224 23.7764 20.224 24.0617V24.0722C20.2187 24.912 20.7627 25.6514 21.5603 25.905V26.1585C21.5603 26.449 21.7979 26.6867 22.0884 26.6867C22.3789 26.6867 22.6166 26.449 22.6166 26.1585Z" fill="white"/>
<path fill-rule="evenodd" clip-rule="evenodd" d="M13.0088 17H31.2729C31.8275 17 32.2817 17.4754 32.2817 18.0352V27.5951C32.2817 28.1549 31.8327 28.6092 31.2729 28.6197H13.0088C12.4489 28.6144 12 28.1549 12 27.5951V18.0352C12 17.4754 12.4542 17 13.0088 17ZM12.6127 19.1972C12.6127 20.1004 13.3468 20.8345 14.25 20.8345C15.1532 20.8345 15.8873 20.1004 15.8873 19.1972C15.8873 18.294 15.1532 17.5599 14.25 17.5599C13.3468 17.5599 12.6127 18.294 12.6127 19.1972ZM22.1408 28.2817C19.1197 28.2817 16.6796 25.831 16.6796 22.8151C16.6796 19.7993 19.125 17.3539 22.1408 17.3539C25.1567 17.3592 27.5968 19.7993 27.6021 22.8151C27.6021 25.8363 25.162 28.2817 22.1408 28.2817ZM28.3891 26.3908C28.3891 27.294 29.1232 28.0282 30.0264 28.0282C30.9296 28.0282 31.6637 27.294 31.6637 26.3908C31.6637 25.4877 30.9296 24.7588 30.0264 24.7535C29.1232 24.7535 28.3891 25.4877 28.3891 26.3908Z" fill="white"/>
</svg>
