<svg width="48" height="48" viewBox="0 0 48 48" fill="none" xmlns="http://www.w3.org/2000/svg">
<circle cx="24" cy="24" r="24" fill="#0066F5"/>
<circle cx="24" cy="24" r="22.5" stroke="#022B69" stroke-opacity="0.172324" stroke-width="3"/>
<path fill-rule="evenodd" clip-rule="evenodd" d="M31.7533 15.6179C31.3878 14.2747 30.328 13.7722 29.099 14.1103L18.2487 17.0159H32.1188L31.7533 15.6179ZM23.5619 22.3565C23.7584 22.1874 24.0371 22.0778 24.4025 22.0504V24.1473C23.9548 24.0057 23.6487 23.8412 23.4797 23.6996C23.3107 23.5305 23.2284 23.3341 23.2284 23.0554C23.2558 22.7768 23.3655 22.5529 23.5619 22.3565ZM35.3624 29.8214V20.4834C35.3624 19.3093 34.3848 18.3315 33.2061 18.3316H16.1518C14.9503 18.3316 14 19.2818 14 20.4834V29.8214C14 31.023 14.9503 31.9733 16.1518 31.9733H33.2107C34.4122 31.9733 35.3624 31.023 35.3624 29.8214ZM27.9249 26.8564C27.9249 26.1574 27.7011 25.6275 27.2533 25.2346C26.8056 24.8417 26.134 24.5631 25.2112 24.3666H25.1838V22.1005C25.8005 22.1828 26.3853 22.434 26.9152 22.7995L27.6964 21.6802C26.9152 21.1503 26.0746 20.8396 25.1792 20.7848V20.168H24.398V20.7574C23.6168 20.7848 23 21.0361 22.4975 21.4838C22.0223 21.9315 21.7711 22.4889 21.7711 23.1878C21.7711 23.8868 21.9949 24.4168 22.4152 24.7549C22.8355 25.1203 23.5071 25.3991 24.4025 25.6229V27.9711C23.6761 27.8615 23.0046 27.496 22.3056 26.9066L21.4102 27.9711C22.2782 28.7249 23.2832 29.1726 24.3751 29.2868V30.1824H25.1563V29.3143C25.9649 29.2868 26.6365 29.0356 27.1437 28.5879C27.6736 28.1174 27.9249 27.5555 27.9249 26.8564ZM25.1838 28.0031V25.8239C25.6863 25.9656 25.997 26.1301 26.1888 26.2991C26.3579 26.4681 26.4401 26.6919 26.4401 26.9706C26.4401 27.2493 26.3304 27.4731 26.1066 27.6696C25.8827 27.8615 25.5767 27.9757 25.1838 28.0031Z" fill="white"/>
</svg>
