<svg width="37" height="52" viewBox="0 0 37 52" fill="none" xmlns="http://www.w3.org/2000/svg">
<path d="M27.1487 30.3807H30.6844C31.4803 30.3807 32.2763 30.3807 33.0733 30.3807C34.4823 30.3939 35.5335 31.0186 36.0723 32.3268C36.6111 33.6351 36.3437 34.8508 35.3352 35.8763L25.6014 45.7728C24.3883 47.0051 23.1751 48.2368 21.962 49.4677C20.0417 51.4129 17.3274 51.4251 15.4142 49.486C10.9493 44.961 6.48954 40.4322 2.03484 35.8997C1.01012 34.8579 0.722428 33.5598 1.27952 32.3075C1.86711 30.9921 2.92538 30.3827 4.3547 30.3807H9.58912H10.2042V2.71661C10.2042 2.54671 10.196 2.37682 10.2042 2.20794C10.2418 1.72065 10.5996 1.37069 11.055 1.36458C11.5105 1.35848 11.8744 1.70132 11.9141 2.19268C11.9283 2.36156 11.9212 2.53145 11.9212 2.70135C11.9212 12.0275 11.9212 21.353 11.9212 30.6778C11.9212 31.7856 11.5816 32.1203 10.4552 32.1203C8.43935 32.1203 6.42346 32.1315 4.40756 32.1152C3.68883 32.1091 3.14293 32.3462 2.86031 33.0308C2.5777 33.7155 2.82677 34.2384 3.30965 34.7267C7.74807 39.2273 12.1841 43.731 16.6178 48.2378C17.8865 49.5257 19.4643 49.5267 20.7319 48.2378C25.1697 43.7331 29.6054 39.228 34.0391 34.7226C34.522 34.2333 34.766 33.6941 34.4874 33.0268C34.2089 32.3594 33.6558 32.1112 32.9381 32.1112C30.8887 32.1285 28.8382 32.1193 26.7878 32.1173C25.8057 32.1173 25.4276 31.7449 25.4276 30.7734C25.4276 27.739 25.4276 24.7044 25.4276 21.6694C25.4276 21.6012 25.4276 21.533 25.4276 21.4659C25.454 20.9176 25.7712 20.5737 26.2571 20.5645C26.7725 20.5554 27.1334 20.9074 27.1415 21.4649C27.1548 22.2787 27.1415 23.0926 27.1415 23.9065V30.3766L27.1487 30.3807Z" fill="#022B69" stroke="#022B69"/>
<path d="M34.6206 3.26561C34.5287 3.40144 34.3878 3.69057 34.177 3.9087C30.947 7.2466 27.7117 10.579 24.4711 13.9059L20.7972 17.6791C20.6842 17.8048 20.5605 17.9198 20.4275 18.0227C20.0838 18.2645 19.6206 18.2135 19.3344 17.9023C19.0486 17.5659 19.0346 17.1893 19.2565 16.8127C19.3431 16.6872 19.4437 16.5726 19.5562 16.4711C24.0291 11.8703 28.505 7.27198 32.984 2.67603C33.201 2.44916 33.4797 2.29528 33.7833 2.23461C34.2699 2.16259 34.6296 2.57931 34.6206 3.26561Z" fill="#0066F5" stroke="#0066F5"/>
<path fill-rule="evenodd" clip-rule="evenodd" d="M35.9136 15.4938C35.9291 13.4312 34.3382 11.7958 32.2931 11.7762C30.2712 11.7524 28.6122 13.3711 28.5864 15.393C28.5607 17.4149 30.1778 19.0753 32.1997 19.1032C34.2216 19.131 35.8838 17.5156 35.9136 15.4938ZM32.9787 13.6437C33.7042 13.9399 34.1801 14.6446 34.1844 15.4292H34.1896C34.1834 16.4972 33.3253 17.3639 32.2588 17.3793C31.4753 17.384 30.7662 16.9155 30.4621 16.1924C30.1581 15.4693 30.319 14.634 30.8699 14.076C31.4208 13.5181 32.2531 13.3474 32.9787 13.6437Z" fill="#0066F5"/>
<path d="M32.2931 11.7762L32.2873 12.2761L32.2883 12.2762L32.2931 11.7762ZM35.9136 15.4938L36.4136 15.5011L36.4136 15.4975L35.9136 15.4938ZM28.5864 15.393L29.0864 15.3994L28.5864 15.393ZM34.1844 15.4292L33.6844 15.4319L33.6871 15.9292H34.1844V15.4292ZM32.9787 13.6437L32.7897 14.1066L32.9787 13.6437ZM34.1896 15.4292L34.6896 15.4321L34.6925 14.9292H34.1896V15.4292ZM32.2588 17.3793L32.2618 17.8793L32.2661 17.8793L32.2588 17.3793ZM30.4621 16.1924L30.923 15.9986L30.4621 16.1924ZM32.2883 12.2762C34.0531 12.2931 35.4271 13.6986 35.4136 15.49L36.4136 15.4975C36.4312 13.1638 34.6233 11.2985 32.2979 11.2762L32.2883 12.2762ZM29.0864 15.3994C29.1087 13.6535 30.5412 12.2556 32.2873 12.2761L32.299 11.2762C30.0011 11.2492 28.1158 13.0888 28.0865 15.3866L29.0864 15.3994ZM32.2066 18.6032C30.4606 18.5792 29.0641 17.1453 29.0864 15.3994L28.0865 15.3866C28.0572 17.6844 29.895 19.5715 32.1928 19.6031L32.2066 18.6032ZM35.4137 15.4864C35.3879 17.2322 33.9526 18.6272 32.2066 18.6032L32.1928 19.6031C34.4906 19.6347 36.3797 17.7989 36.4136 15.5011L35.4137 15.4864ZM34.6844 15.4265C34.679 14.4401 34.0807 13.5535 33.1677 13.1808L32.7897 14.1066C33.3278 14.3263 33.6812 14.8492 33.6844 15.4319L34.6844 15.4265ZM34.1896 14.9292H34.1844V15.9292H34.1896V14.9292ZM32.2661 17.8793C33.6053 17.8599 34.6819 16.7716 34.6896 15.4321L33.6896 15.4263C33.685 16.2227 33.0453 16.8679 32.2516 16.8794L32.2661 17.8793ZM30.0012 16.3862C30.3836 17.2956 31.2756 17.8852 32.2618 17.8793L32.2559 16.8793C31.675 16.8828 31.1488 16.5355 30.923 15.9986L30.0012 16.3862ZM30.5141 13.7247C29.8212 14.4265 29.6189 15.4769 30.0012 16.3862L30.923 15.9986C30.6972 15.4616 30.8169 14.8414 31.2257 14.4273L30.5141 13.7247ZM33.1677 13.1808C32.2546 12.808 31.2072 13.0228 30.5141 13.7247L31.2257 14.4273C31.6345 14.0134 32.2517 13.8869 32.7897 14.1066L33.1677 13.1808Z" fill="#0066F5"/>
<path fill-rule="evenodd" clip-rule="evenodd" d="M21.9186 8.75851C23.9421 8.75109 25.5764 7.10475 25.569 5.08131C25.5616 3.05787 23.9152 1.42356 21.8918 1.43097C19.8683 1.43839 18.234 3.08473 18.2414 5.10817C18.2489 7.13162 19.8952 8.76593 21.9186 8.75851ZM22.6419 3.30107C23.3681 3.60007 23.8423 4.30792 23.8427 5.09366H23.8448C23.8482 5.60702 23.6468 6.10051 23.2853 6.4648C22.9237 6.82908 22.432 7.03407 21.9189 7.03434C21.1336 7.0403 20.4223 6.57164 20.1175 5.84747C19.8128 5.12331 19.9748 4.28672 20.5278 3.72885C21.0808 3.17099 21.9156 3.00207 22.6419 3.30107Z" fill="#0066F5"/>
<path d="M25.569 5.08131L26.069 5.07948L25.569 5.08131ZM21.9186 8.75851L21.9168 8.25851L21.9186 8.75851ZM21.8918 1.43097L21.8899 0.930977L21.8918 1.43097ZM18.2414 5.10817L18.7414 5.10634L18.2414 5.10817ZM23.8427 5.09366L23.3427 5.09395L23.343 5.59366H23.8427V5.09366ZM22.6419 3.30107L22.8322 2.83872H22.8322L22.6419 3.30107ZM23.8448 5.09366L24.3448 5.09039L24.3416 4.59366H23.8448V5.09366ZM23.2853 6.4648L22.9304 6.11259L23.2853 6.4648ZM21.9189 7.03434L21.9186 6.53433L21.9151 6.53435L21.9189 7.03434ZM20.1175 5.84747L20.5784 5.65353L20.1175 5.84747ZM20.5278 3.72885L20.8829 4.08086H20.8829L20.5278 3.72885ZM25.069 5.08314C25.0754 6.83045 23.6641 8.25211 21.9168 8.25851L21.9205 9.25851C24.2201 9.25008 26.0774 7.37906 26.069 5.07948L25.069 5.08314ZM21.8936 1.93097C23.6409 1.92456 25.0626 3.33584 25.069 5.08314L26.069 5.07948C26.0605 2.77989 24.1895 0.922546 21.8899 0.930977L21.8936 1.93097ZM18.7414 5.10634C18.735 3.35904 20.1463 1.93738 21.8936 1.93097L21.8899 0.930977C19.5904 0.939407 17.733 2.81042 17.7414 5.11001L18.7414 5.10634ZM21.9168 8.25851C20.1695 8.26492 18.7478 6.85364 18.7414 5.10634L17.7414 5.11001C17.7499 7.40959 19.6209 9.26694 21.9205 9.25851L21.9168 8.25851ZM24.3427 5.09338C24.3422 4.10525 23.7458 3.21487 22.8322 2.83872L22.4515 3.76342C22.9903 3.98527 23.3424 4.51059 23.3427 5.09395L24.3427 5.09338ZM23.8448 4.59366H23.8427V5.59366H23.8448V4.59366ZM23.6402 6.817C24.0955 6.35823 24.349 5.73678 24.3448 5.09039L23.3448 5.09693C23.3473 5.47725 23.1981 5.8428 22.9304 6.11259L23.6402 6.817ZM21.9191 7.53434C22.5654 7.534 23.1849 7.27579 23.6402 6.817L22.9304 6.11259C22.6626 6.38238 22.2985 6.53414 21.9186 6.53434L21.9191 7.53434ZM19.6567 6.04142C20.04 6.95219 20.9347 7.54183 21.9227 7.53433L21.9151 6.53435C21.3325 6.53878 20.8046 6.19109 20.5784 5.65353L19.6567 6.04142ZM20.1727 3.37684C19.4771 4.07853 19.2734 5.13068 19.6567 6.04142L20.5784 5.65353C20.3521 5.11593 20.4725 4.49491 20.8829 4.08086L20.1727 3.37684ZM22.8322 2.83872C21.9186 2.46255 20.8684 2.67511 20.1727 3.37684L20.8829 4.08086C21.2933 3.66687 21.9127 3.54158 22.4515 3.76342L22.8322 2.83872Z" fill="#0066F5"/>
</svg>
