<svg width="16" height="16" viewBox="0 0 16 16" fill="none" xmlns="http://www.w3.org/2000/svg">
<path d="M14.9235 14.5525L15.3839 14.0936L15.3834 14.0932L14.9235 14.5525ZM10.8445 10.468L10.393 10.0004L9.91752 10.4595L10.3846 10.9273L10.8445 10.468ZM10.4388 10.8243L10.8987 10.365L10.4878 9.95341L10.0332 10.3163L10.4388 10.8243ZM14.5276 14.9189L14.9889 14.4609L14.9876 14.4596L14.5276 14.9189ZM14.9158 14.9263L15.3567 15.4039L15.3576 15.403L14.9158 14.9263ZM15.3834 14.0932L11.3045 10.0087L10.3846 10.9273L14.4636 15.0118L15.3834 14.0932ZM11.2961 10.9355C12.4547 9.81668 13.1795 8.26618 13.1795 6.55073H11.8795C11.8795 7.89029 11.3152 9.10988 10.393 10.0004L11.2961 10.9355ZM13.1795 6.55073C13.1795 3.10796 10.2792 0.35 6.76474 0.35V1.65C9.60799 1.65 11.8795 3.87184 11.8795 6.55073H13.1795ZM6.76474 0.35C3.25031 0.35 0.35 3.10796 0.35 6.55073H1.65C1.65 3.87184 3.92149 1.65 6.76474 1.65V0.35ZM0.35 6.55073C0.35 9.9935 3.25031 12.7515 6.76474 12.7515V11.4515C3.92149 11.4515 1.65 9.22962 1.65 6.55073H0.35ZM6.76474 12.7515C8.31109 12.7515 9.73394 12.2188 10.8444 11.3322L10.0332 10.3163C9.14742 11.0236 8.00907 11.4515 6.76474 11.4515V12.7515ZM9.97886 11.2836L14.0677 15.3782L14.9876 14.4596L10.8987 10.365L9.97886 11.2836ZM14.0664 15.3768C14.251 15.5627 14.493 15.65 14.7256 15.65V14.35C14.8138 14.35 14.9119 14.3834 14.9889 14.4609L14.0664 15.3768ZM14.7256 15.65C14.9488 15.65 15.1771 15.5697 15.3567 15.4039L14.4749 14.4487C14.5481 14.3811 14.6396 14.35 14.7256 14.35V15.65ZM15.3576 15.403C15.7366 15.0519 15.7491 14.46 15.3839 14.0936L14.4631 15.0114C14.3076 14.8554 14.3135 14.5982 14.474 14.4495L15.3576 15.403ZM6.76474 10.9228C4.22427 10.9228 2.19902 8.93807 2.19902 6.55073H0.899023C0.899023 9.70196 3.55309 12.2228 6.76474 12.2228V10.9228ZM2.19902 6.55073C2.19902 4.16339 4.22427 2.17864 6.76474 2.17864V0.878641C3.55309 0.878641 0.899023 3.3995 0.899023 6.55073H2.19902ZM6.76474 2.17864C9.30521 2.17864 11.3305 4.16339 11.3305 6.55073H12.6305C12.6305 3.3995 9.97639 0.878641 6.76474 0.878641V2.17864ZM11.3305 6.55073C11.3305 8.93805 9.30496 10.9228 6.76474 10.9228V12.2228C9.97609 12.2228 12.6305 9.70198 12.6305 6.55073H11.3305Z" fill="#0066F5"/>
</svg>
