<svg width="21" height="25" viewBox="0 0 21 25" fill="none" xmlns="http://www.w3.org/2000/svg">
<path fill-rule="evenodd" clip-rule="evenodd" d="M20.3147 3.52308C20.0449 3.2535 19.6854 3.10547 19.3055 3.11421C18.9242 3.11986 18.5703 3.2756 18.3089 3.5534L14.9755 7.09498C14.5209 6.84981 14.0419 6.65425 13.5471 6.5093C14.4952 5.86965 15.1199 4.78541 15.1199 3.55803C15.1199 1.59591 13.5238 0 11.5619 0C9.59952 0 8.00361 1.59617 8.00361 3.55803C8.00361 4.76306 8.60703 5.82828 9.52602 6.47204C6.37738 7.32653 4.05136 10.2017 4.05136 13.6174V18.7022L0.389253 22.5933C-0.131409 23.1468 -0.118559 24.0013 0.41855 24.5395C0.682993 24.8037 1.03301 24.9483 1.40591 24.9483H1.42775C1.80887 24.9424 2.163 24.7867 2.42436 24.5089L3.44204 23.4275C3.42482 23.8094 3.56282 24.1956 3.85091 24.484C4.11201 24.7446 4.46023 24.8877 4.82387 24.8877C4.87116 24.8877 4.9187 24.8854 4.9665 24.8805C5.38077 24.8378 5.75007 24.6132 5.9793 24.264C6.22421 23.8895 6.50074 23.5434 6.80373 23.2278H16.9744C17.2098 23.4714 17.431 23.7312 17.6315 24.0103C17.8623 24.3313 18.2228 24.5341 18.6201 24.5665C19.0298 24.5996 19.4263 24.4534 19.7149 24.1645C20.1983 23.6811 20.2597 22.9294 19.8609 22.3772C19.5569 21.9565 19.2197 21.5669 18.8589 21.2043C18.8604 21.1952 18.8628 21.1866 18.8652 21.178L18.8652 21.178C18.869 21.1643 18.8728 21.1507 18.8728 21.1359V13.6174C18.8728 11.8742 18.2568 10.2017 17.1432 8.87053L20.3448 5.46901C20.8655 4.91519 20.8523 4.06044 20.3147 3.52308ZM8.90205 3.55829C8.90205 2.09164 10.0955 0.898438 11.5619 0.898438C13.0285 0.898438 14.2217 2.09164 14.2217 3.55829C14.2217 4.99255 13.0799 6.16211 11.658 6.21325C11.6319 6.21263 11.6058 6.21152 11.5797 6.21041C11.5405 6.20875 11.5014 6.20708 11.4622 6.20708C11.4519 6.20708 11.4418 6.20779 11.4318 6.2085L11.4318 6.2085C11.4218 6.20921 11.4119 6.20991 11.4018 6.20991C10.0097 6.12639 8.90205 4.9707 8.90205 3.55829ZM11.4015 7.10835C7.83888 7.14124 4.9498 10.047 4.9498 13.6174H4.94954V17.748L14.3366 7.77421C13.5055 7.36508 12.5901 7.1397 11.658 7.11143C11.6445 7.11186 11.631 7.1128 11.6176 7.11374L11.6176 7.11374C11.5992 7.11503 11.5808 7.11631 11.5619 7.11631C11.5279 7.11631 11.4946 7.11409 11.4612 7.11186H11.4612H11.4612H11.4612L11.4612 7.11186L11.4612 7.11186C11.4414 7.11053 11.4215 7.10921 11.4015 7.10835ZM7.8561 22.3296C9.02284 21.515 10.4229 21.0611 11.8914 21.0611C13.3457 21.0611 14.7486 21.5168 15.9192 22.3296H7.8561ZM18.6929 23.6714C18.8396 23.6827 18.9774 23.631 19.0796 23.5292C19.2467 23.3622 19.2695 23.0929 19.1326 22.9032C17.4529 20.5787 14.7457 19.191 11.8914 19.191C8.87224 19.191 6.07747 20.6995 4.41603 23.2263C4.28882 23.4193 4.31478 23.6775 4.47797 23.8399C4.58924 23.952 4.73573 24.0021 4.87424 23.9872C5.01919 23.972 5.14743 23.8937 5.22786 23.7718C6.7071 21.5121 9.1981 20.1629 11.8914 20.1629C14.4466 20.1629 16.8651 21.4052 18.3608 23.4863C18.4657 23.632 18.6137 23.6649 18.6929 23.6714ZM17.9743 13.6174V20.4158C16.2566 19.0612 14.1159 18.2928 11.8914 18.2928C10.1852 18.2928 8.54561 18.733 7.10543 19.5354L16.5228 9.52945C17.4575 10.6856 17.9743 12.1217 17.9743 13.6174ZM1.7698 23.8934L19.6902 4.85326C19.8766 4.65563 19.8717 4.35033 19.6797 4.15861C19.5854 4.06404 19.4602 4.01213 19.3269 4.01213H19.3191C19.1832 4.01444 19.0562 4.06995 18.9632 4.16915L1.04355 23.2093C0.857232 23.4069 0.862115 23.7122 1.05357 23.9042C1.14969 24.0003 1.28255 24.0427 1.41413 24.0504C1.55008 24.0484 1.67703 23.9926 1.7698 23.8934Z" fill="#022B69"/>
</svg>
