<svg width="100" height="74" viewBox="0 0 100 74" fill="none" xmlns="http://www.w3.org/2000/svg">
<path fill-rule="evenodd" clip-rule="evenodd" d="M95.8938 73.9734H4.10645C1.84219 73.9734 0 72.131 0 69.8667V31.4435C0 29.1791 1.84219 27.3371 4.10645 27.3371H95.8938C98.158 27.3371 100 29.1792 100 31.4435V69.8667C100 72.131 98.158 73.9734 95.8938 73.9734ZM84.3064 43.1564H48.9689C47.3514 43.1564 46.04 44.4677 46.04 46.0853C46.04 47.7029 47.3514 49.0142 48.9689 49.0142H84.3064C85.924 49.0142 87.2354 47.7029 87.2354 46.0853C87.2354 44.4677 85.9242 43.1564 84.3064 43.1564ZM67.2023 53.5849H84.3064C85.9242 53.5849 87.2354 54.8962 87.2354 56.5138C87.2354 58.1314 85.924 59.4427 84.3064 59.4427H67.2023C65.5848 59.4427 64.2734 58.1314 64.2734 56.5138C64.2734 54.8962 65.5848 53.5849 67.2023 53.5849Z" fill="#0066F5"/>
<path d="M18.7205 21.7893L80.4292 0.756495C80.8093 0.626806 81.2064 0.56255 81.6027 0.56255C82.1931 0.56255 82.7818 0.705128 83.3109 0.985401C84.1951 1.45396 84.8541 2.27622 85.1185 3.24146L90.2048 21.7893H18.7205Z" fill="#0066F5"/>
</svg>
