<svg width="23" height="23" viewBox="0 0 23 23" fill="none" xmlns="http://www.w3.org/2000/svg">
<path fill-rule="evenodd" clip-rule="evenodd" d="M15.9516 5.9355C15.9516 8.39019 13.9546 10.3871 11.5 10.3871C9.04526 10.3871 7.04834 8.39019 7.04834 5.9355C7.04834 3.48081 9.04526 1.48389 11.5 1.48389C13.9546 1.48389 15.9516 3.48081 15.9516 5.9355ZM10.6044 8.16131H8.53926C8.83492 8.55379 9.20552 8.88506 9.63102 9.13473L10.6044 8.16131ZM10.3533 9.46155L11.6535 8.16131H12.0883L13.1704 9.24342C12.6674 9.49827 12.1009 9.64518 11.5 9.64518C11.0997 9.64518 10.7146 9.57952 10.3533 9.46155ZM14.8079 7.60597C15.0627 7.10331 15.2096 6.53684 15.2096 5.9355C15.2096 3.88998 13.5455 2.22582 11.5 2.22582C10.899 2.22582 10.3325 2.37273 9.82986 2.62758L14.8079 7.60597ZM9.19031 3.0375L14.3976 8.24514C14.224 8.46253 14.0266 8.65989 13.8092 8.8335L8.60195 3.62585C8.77557 3.40847 8.97292 3.21111 9.19031 3.0375ZM11.3464 7.41937L8.19203 4.26503C7.93718 4.76769 7.79028 5.33416 7.79028 5.9355C7.79028 6.46302 7.90268 6.96456 8.10226 7.41937H11.3464Z" fill="#022B69"/>
<path fill-rule="evenodd" clip-rule="evenodd" d="M23 7.41935H17.24C17.3631 6.94415 17.4355 6.44853 17.4355 5.93548C17.4355 2.66281 14.7727 0 11.5 0C8.22732 0 5.56452 2.66281 5.56452 5.93548C5.56452 6.44853 5.63685 6.94415 5.76002 7.41935H0V16.3226H1.48387V23H4.45161V20.7742H18.5484V23H21.5161V16.3226H23V7.41935ZM18.5484 16.3226V17.8065H4.45161V16.3226H18.5484ZM3.18513 15.5806L8.027 10.7388C7.659 10.4717 7.32253 10.1649 7.02464 9.82248L1.26648 15.5806H3.18513ZM12.3955 15.5806L19.8149 8.16129H21.7335L14.3142 15.5806H12.3955ZM11.3464 15.5806L18.7658 8.16129H16.9985C16.116 10.3337 13.9855 11.871 11.5 11.871C10.4743 11.871 9.50865 11.6091 8.66581 11.1491L4.23423 15.5806H11.3464ZM11.5 0.741935C14.3639 0.741935 16.6935 3.07161 16.6935 5.93548C16.6935 8.79935 14.3639 11.129 11.5 11.129C8.63613 11.129 6.30645 8.79935 6.30645 5.93548C6.30645 3.07161 8.63613 0.741935 11.5 0.741935ZM6.56687 9.23116C6.34318 8.89692 6.15473 8.53819 6.00152 8.16129H0.741935V15.0561L6.56687 9.23116ZM2.22581 22.2581V16.3226H3.70968V22.2581H2.22581ZM4.45161 18.5484V20.0323H18.5484V18.5484H4.45161ZM20.7742 22.2581H19.2903V16.3226H20.7742V22.2581ZM22.2581 8.68584L15.3633 15.5806H22.2581V8.68584Z" fill="#022B69"/>
<path d="M20.7742 14.0967H21.5161V14.8386H20.7742V14.0967Z" fill="#022B69"/>
<path d="M19.2903 14.0967H20.0322V14.8386H19.2903V14.0967Z" fill="#022B69"/>
<path d="M17.8064 14.0967H18.5483V14.8386H17.8064V14.0967Z" fill="#022B69"/>
<path d="M1.48389 8.90332H2.22582V9.64526H1.48389V8.90332Z" fill="#022B69"/>
<path d="M1.48389 10.3872H2.22582V11.1291H1.48389V10.3872Z" fill="#022B69"/>
<path d="M1.48389 11.8711H2.22582V12.613H1.48389V11.8711Z" fill="#022B69"/>
</svg>
