<svg width="12" height="18" viewBox="0 0 12 18" fill="none" xmlns="http://www.w3.org/2000/svg">
<g id="smartphone">
<path id="Path" d="M1.83462 0.300049H9.7857C10.6301 0.300049 11.3148 0.971588 11.3148 1.79996V16.2C11.3148 17.0284 10.6301 17.6999 9.7857 17.6999H1.83462C0.990209 17.6999 0.305664 17.0284 0.305664 16.2V1.79996C0.305664 0.971588 0.990209 0.300049 1.83462 0.300049Z" fill="#7FACFA"/>
<path id="Path_2" d="M1.83462 0.300049H8.86821C9.71276 0.300049 10.3973 0.971588 10.3973 1.79996V16.2C10.3973 17.0284 9.71276 17.6999 8.86821 17.6999H1.83462C0.990209 17.6999 0.305664 17.0284 0.305664 16.2V1.79996C0.305664 0.971588 0.990209 0.300049 1.83462 0.300049Z" fill="#A4C2F7"/>
<path id="Path_3" d="M0.305664 2.70001H11.3148V15.3H0.305664L0.305664 2.70001Z" fill="#D4E1F4"/>
<path id="Path_4" d="M11.3148 2.70001V8.49297C11.0029 8.44504 10.6939 8.40604 10.3973 8.37294C9.61967 8.28848 8.83699 8.25539 8.05488 8.27393C3.95083 8.38503 1.57172 10.0769 0.305664 11.445V2.70001H11.3148Z" fill="#D4E1F4"/>
<path id="Path_5" d="M0.305664 2.70001V15.3H10.3973V2.70001L0.305664 2.70001Z" fill="url(#paint0_linear)"/>
<path id="Path_6" d="M1.83462 17.6999H2.75211C1.90755 17.6999 1.22301 17.0284 1.22301 16.2V1.79996C1.22301 0.971588 1.90755 0.300049 2.75211 0.300049H1.83462C0.990209 0.300049 0.305664 0.971588 0.305664 1.79996V16.2C0.305664 17.0284 0.990209 17.6999 1.83462 17.6999Z" fill="white"/>
<path id="Path_7" d="M0.611611 1.79999V16.2H0V1.79999L0.611611 1.79999Z" fill="white"/>
<path id="Path_8" d="M0.611611 2.70001V15.3H0V2.70001L0.611611 2.70001Z" fill="white"/>
<g id="Group">
<path id="Shape" fill-rule="evenodd" clip-rule="evenodd" d="M9.78591 18C10.7989 17.999 11.6198 17.1937 11.6207 16.2V1.79997C11.6198 0.806259 10.7989 0.000961305 9.78591 0H1.83483C0.821874 0.000961305 0.000979923 0.806259 0 1.79997V3.90001C0.00139989 3.95329 0.0177786 4.0052 0.0474562 4.04997C0.0387769 4.06123 0.0310775 4.07318 0.024498 4.08568C-0.0216983 4.1976 0.00349972 4.32559 0.0887528 4.41266C0.11787 4.43985 0.152168 4.46114 0.189545 4.47569C0.226362 4.49121 0.265839 4.49945 0.305875 4.5C0.387209 4.50082 0.465462 4.46951 0.522998 4.41307C0.580533 4.35663 0.612451 4.27986 0.611611 4.19994C0.609511 4.14679 0.593272 4.09515 0.564574 4.04997C0.593972 4.0052 0.610211 3.95329 0.611611 3.90001V2.99995H11.0091V15H0.611611V5.40005C0.610211 5.34677 0.593972 5.29486 0.564574 5.24995C0.593272 5.20491 0.609511 5.15314 0.611611 5.09999C0.610491 5.02061 0.578713 4.94453 0.522998 4.88699L0.477081 4.85101C0.460003 4.83961 0.441524 4.83055 0.422066 4.82396C0.404707 4.81531 0.386089 4.80927 0.36691 4.80597C0.346752 4.80267 0.326314 4.80061 0.305875 4.80006C0.224822 4.80116 0.147268 4.8322 0.0887528 4.88699C-0.00699941 4.98615 -0.024918 5.13542 0.0449364 5.25366C0.0167986 5.29761 0.0012599 5.34814 0 5.40005V16.2C0.000979923 17.1937 0.821874 17.999 1.83483 18H9.78591ZM0.611611 2.39996V1.79997C0.611611 1.13722 1.15925 0.599991 1.83483 0.599991H5.50463V1.19998C5.50463 1.36574 5.64154 1.50005 5.81037 1.50005C5.97934 1.50005 6.11625 1.36574 6.11625 1.19998V0.599991H9.78591C10.4615 0.599991 11.0091 1.13722 11.0091 1.79997V2.39996H0.611611ZM11.0091 16.2V15.6H0.611611V16.2C0.611611 16.8628 1.15925 17.4 1.83483 17.4H9.78591C10.4615 17.4 11.0091 16.8628 11.0091 16.2Z" fill="#428DFF"/>
<path id="Path_9" d="M4.89279 16.8H6.72762C6.89645 16.8 7.03336 16.6657 7.03336 16.4999C7.03336 16.3343 6.89645 16.2 6.72762 16.2H4.89279C4.72382 16.2 4.58691 16.3343 4.58691 16.4999C4.58691 16.6657 4.72382 16.8 4.89279 16.8Z" fill="#428DFF"/>
<path id="Path_10" d="M5.89279 3.69538L1.61137 8.19538C1.53396 8.27324 1.50554 8.38613 1.53704 8.4905C1.56868 8.59473 1.65533 8.67411 1.76368 8.69773C1.87189 8.72148 1.98472 8.68578 2.0585 8.60462L6.33991 4.10462C6.41732 4.02675 6.44574 3.91387 6.4141 3.8095C6.38261 3.70526 6.29595 3.62589 6.1876 3.60227C6.07939 3.57851 5.96656 3.61421 5.89279 3.69538Z" fill="#428DFF"/>
<path id="Path_11" d="M8.46292 3.67797C8.40286 3.62441 8.32363 3.59653 8.24257 3.60024C8.16152 3.60395 8.08537 3.63924 8.03077 3.69816L1.91453 10.2981C1.80086 10.4207 1.81009 10.6105 1.9351 10.722C2.05997 10.8335 2.25344 10.8246 2.36711 10.7019L8.48336 4.10191C8.53795 4.04299 8.56651 3.96526 8.56259 3.88575C8.55881 3.80637 8.52283 3.73153 8.46292 3.67797Z" fill="#428DFF"/>
<path id="Path_12" d="M7.41641 6.70054L4.96997 9.40043C4.85769 9.5243 4.86889 9.71395 4.99502 9.82409C5.12129 9.93422 5.31462 9.92324 5.42689 9.7995L7.87333 7.09948C7.94599 7.01941 7.96964 6.90735 7.93521 6.80559C7.90091 6.70383 7.81384 6.62789 7.70674 6.60619C7.59979 6.58449 7.48906 6.62047 7.41641 6.70054Z" fill="#428DFF"/>
</g>
</g>
<defs>
<linearGradient id="paint0_linear" x1="-4.88761" y1="10.5341" x2="8.3983" y2="18.8949" gradientUnits="userSpaceOnUse">
<stop stop-color="#D3DFF2"/>
<stop offset="0.172" stop-color="#D3DFF2"/>
<stop offset="0.2" stop-color="#D3DFF2"/>
<stop offset="0.2" stop-color="#DAE2F2"/>
<stop offset="0.201" stop-color="#EBEAF2"/>
<stop offset="0.201" stop-color="#F6EFF2"/>
<stop offset="0.202" stop-color="#FDF2F2"/>
<stop offset="0.205" stop-color="#FFF3F2"/>
<stop offset="0.252" stop-color="#FFF3F2"/>
<stop offset="0.26" stop-color="#FFF3F2"/>
<stop offset="0.26" stop-color="#D3DFF2"/>
<stop offset="0.397" stop-color="#D3DFF2"/>
<stop offset="0.42" stop-color="#D3DFF2"/>
<stop offset="0.42" stop-color="#DAE2F2"/>
<stop offset="0.421" stop-color="#EBEAF2"/>
<stop offset="0.421" stop-color="#F6EFF2"/>
<stop offset="0.422" stop-color="#FDF2F2"/>
<stop offset="0.425" stop-color="#FFF3F2"/>
<stop offset="0.489" stop-color="#FFF3F2"/>
<stop offset="0.5" stop-color="#FFF3F2"/>
<stop offset="0.5" stop-color="#F8F0F2"/>
<stop offset="0.5" stop-color="#E7E8F2"/>
<stop offset="0.5" stop-color="#DCE3F2"/>
<stop offset="0.5" stop-color="#D5E0F2"/>
<stop offset="0.501" stop-color="#D3DFF2"/>
<stop offset="0.706" stop-color="#D3DFF2"/>
<stop offset="0.74" stop-color="#D3DFF2"/>
<stop offset="0.741" stop-color="#FFF3F2"/>
<stop offset="0.835" stop-color="#FFF3F2"/>
<stop offset="0.85" stop-color="#FFF3F2"/>
<stop offset="0.851" stop-color="#D3DFF2"/>
</linearGradient>
</defs>
</svg>
