<svg width="20" height="20" viewBox="0 0 20 20" fill="none" xmlns="http://www.w3.org/2000/svg">
<path fill-rule="evenodd" clip-rule="evenodd" d="M0.238037 10C0.238037 4.47715 4.60859 0 9.99994 0C15.3885 0.00679547 19.7552 4.47997 19.7618 10C19.7618 15.5228 15.3913 20 9.99994 20C4.60859 20 0.238037 15.5228 0.238037 10ZM0.888831 10C0.888831 15.1547 4.96801 19.3333 9.99994 19.3333C15.0296 19.3276 19.1055 15.1523 19.1111 10C19.1111 4.84534 15.0319 0.666667 9.99994 0.666667C4.96801 0.666667 0.888831 4.84534 0.888831 10Z" fill="#022B69"/>
<path fill-rule="evenodd" clip-rule="evenodd" d="M7.70824 15.1221H12.2916C12.4724 15.1221 12.619 15.2749 12.619 15.4635V18.1952C12.619 18.3838 12.4724 18.5367 12.2916 18.5367H7.70824C7.52743 18.5367 7.38086 18.3838 7.38086 18.1952V15.4635C7.38086 15.2749 7.52743 15.1221 7.70824 15.1221ZM8.03562 17.8538H11.9642V15.805H8.03562V17.8538Z" fill="#022B69"/>
<path fill-rule="evenodd" clip-rule="evenodd" d="M10.2381 1.46338C5.76881 1.46744 2.14675 5.20941 2.14282 9.82663C2.14282 10.0114 2.2878 10.1612 2.46663 10.1612H5.05711C5.14299 10.1612 5.22535 10.1259 5.28608 10.0632C5.3468 10.0004 5.38092 9.91535 5.38092 9.82663C5.38013 7.88804 6.46071 6.12254 8.15629 5.2921C9.85186 4.46167 11.8588 4.71499 13.311 5.94273L11.2095 7.71574C10.2077 7.22029 9.00612 7.5428 8.36446 8.47936C7.7228 9.41592 7.82786 10.6939 8.61322 11.5053C9.39857 12.3166 10.6356 12.4252 11.5422 11.7623C12.4487 11.0994 12.7609 9.85798 12.2813 8.82304L13.9975 6.65194C14.7086 7.54666 15.0967 8.66891 15.0952 9.82663C15.0952 10.0114 15.2402 10.1612 15.419 10.1612H18.0095C18.1883 10.1612 18.3333 10.0114 18.3333 9.82663C18.3294 5.20941 14.7073 1.46744 10.2381 1.46338ZM4.74301 9.4921H2.79692C2.84389 8.36911 3.12909 7.27049 3.63235 6.27392L5.32263 7.28085C4.98402 7.9688 4.78668 8.72163 4.74301 9.4921ZM3.95939 5.69518L5.64644 6.70212C6.05703 6.05829 6.58894 5.50649 7.21044 5.07965L6.23901 3.34009C5.32225 3.94432 4.54426 4.74807 3.95939 5.69518ZM9.91425 4.15634C9.16938 4.19966 8.44097 4.40003 7.77387 4.74512L6.7992 3.00222C7.76383 2.4823 8.82725 2.18766 9.91425 2.13913V4.15634ZM8.61901 9.82663C8.61901 10.7504 9.34389 11.4993 10.2381 11.4993C11.1322 11.4993 11.8571 10.7504 11.8571 9.82663C11.8557 9.69024 11.8394 9.55445 11.8085 9.42185L10.9472 10.5124C10.9405 10.521 10.9329 10.5289 10.9245 10.5358C10.6824 10.8043 10.3176 10.9149 9.97346 10.824C9.62927 10.7332 9.36051 10.4556 9.27261 10.1C9.18471 9.74441 9.29169 9.36761 9.55158 9.11742C9.55831 9.1088 9.56591 9.10095 9.57425 9.09401L10.6299 8.20416C10.5015 8.17225 10.3701 8.15541 10.2381 8.15398C9.34389 8.15398 8.61901 8.90285 8.61901 9.82663ZM10.4583 10.0742C10.3277 10.19 10.1337 10.1857 10.0082 10.0641C9.94724 10.0012 9.91339 9.91562 9.91425 9.82663C9.91409 9.74265 9.94409 9.66159 9.99844 9.59915L12.4918 7.4983L10.4583 10.0742ZM10.5619 2.13913V4.15634C11.3067 4.19966 12.0352 4.40003 12.7023 4.74512L13.6769 3.00222C12.7123 2.4823 11.6489 2.18766 10.5619 2.13913ZM14.8297 6.70212C14.7025 6.50128 14.563 6.30909 14.412 6.12673L15.0207 5.35396C15.1274 5.22185 15.1189 5.02751 15.0011 4.90587C14.8834 4.78423 14.6953 4.77544 14.5674 4.88562L13.8162 5.51788C13.6413 5.36055 13.4575 5.2142 13.2657 5.07965L14.2371 3.34009C15.1539 3.94432 15.9319 4.74807 16.5167 5.69518L14.8297 6.70212ZM15.1535 7.28085C15.4921 7.9688 15.6894 8.72163 15.7331 9.4921H17.6792C17.6322 8.36911 17.347 7.27049 16.8438 6.27392L15.1535 7.28085Z" fill="#022B69"/>
<path fill-rule="evenodd" clip-rule="evenodd" d="M13.0952 13.1707C13.0952 12.6319 13.5216 12.1951 14.0476 12.1951C14.5736 12.1951 15 12.6319 15 13.1707C15 13.7095 14.5736 14.1463 14.0476 14.1463C13.5216 14.1463 13.0952 13.7095 13.0952 13.1707ZM13.7301 13.1707C13.7301 13.3503 13.8723 13.4959 14.0476 13.4959C14.2229 13.4959 14.3651 13.3503 14.3651 13.1707C14.3651 12.9911 14.2229 12.8455 14.0476 12.8455C13.8723 12.8455 13.7301 12.9911 13.7301 13.1707Z" fill="#022B69"/>
<path fill-rule="evenodd" clip-rule="evenodd" d="M15.9524 13.1707C15.9524 12.6319 16.3788 12.1951 16.9048 12.1951C17.4308 12.1951 17.8572 12.6319 17.8572 13.1707C17.8572 13.7095 17.4308 14.1463 16.9048 14.1463C16.3788 14.1463 15.9524 13.7095 15.9524 13.1707ZM16.5873 13.1707C16.5873 13.3503 16.7294 13.4959 16.9048 13.4959C17.0801 13.4959 17.2222 13.3503 17.2222 13.1707C17.2222 12.9911 17.0801 12.8455 16.9048 12.8455C16.7294 12.8455 16.5873 12.9911 16.5873 13.1707Z" fill="#022B69"/>
<path fill-rule="evenodd" clip-rule="evenodd" d="M5.47607 13.1707C5.47607 12.6319 5.90247 12.1951 6.42846 12.1951C6.95444 12.1951 7.38084 12.6319 7.38084 13.1707C7.38084 13.7095 6.95444 14.1463 6.42846 14.1463C5.90247 14.1463 5.47607 13.7095 5.47607 13.1707ZM6.11099 13.1707C6.11099 13.3503 6.25313 13.4959 6.42846 13.4959C6.60378 13.4959 6.74592 13.3503 6.74592 13.1707C6.74592 12.9911 6.60378 12.8455 6.42846 12.8455C6.25313 12.8455 6.11099 12.9911 6.11099 13.1707Z" fill="#022B69"/>
<path fill-rule="evenodd" clip-rule="evenodd" d="M2.61914 13.1707C2.61914 12.6319 3.04554 12.1951 3.57152 12.1951C4.09751 12.1951 4.5239 12.6319 4.5239 13.1707C4.5239 13.7095 4.09751 14.1463 3.57152 14.1463C3.04554 14.1463 2.61914 13.7095 2.61914 13.1707ZM3.25406 13.1707C3.25406 13.3503 3.39619 13.4959 3.57152 13.4959C3.74685 13.4959 3.88898 13.3503 3.88898 13.1707C3.88898 12.9911 3.74685 12.8455 3.57152 12.8455C3.39619 12.8455 3.25406 12.9911 3.25406 13.1707Z" fill="#022B69"/>
<path d="M7.85718 13.1707H8.80956V14.1463H7.85718V13.1707Z" fill="#022B69"/>
<path d="M9.28564 13.1707H11.1904V14.1463H9.28564V13.1707Z" fill="#022B69"/>
<path d="M11.1904 13.1707H12.1428V14.1463H11.1904V13.1707Z" fill="#022B69"/>
</svg>
