<svg width="62" height="74" viewBox="0 0 62 74" fill="none" xmlns="http://www.w3.org/2000/svg">
<path fill-rule="evenodd" clip-rule="evenodd" d="M57.5675 17.5631L53.1454 21.9852C64.6585 34.175 64.2938 53.3383 52.3252 65.0812C40.3566 76.8242 21.1899 76.8242 9.22133 65.0812C-2.74724 53.3383 -3.11196 34.175 8.40112 21.9852L3.97901 17.5631L8.33035 13.2102L13.061 17.9408C17.3825 14.8782 22.4255 12.9907 27.6959 12.4632V6.15465H21.5413V0H40.0052V6.15465H33.8506V12.4632C39.121 12.9907 44.164 14.8782 48.4856 17.9408L53.2162 13.2102L57.5675 17.5631ZM6.15468 43.0825C6.15468 56.679 17.1768 67.7011 30.7733 67.7011C44.3634 67.6858 55.3766 56.6727 55.3918 43.0825C55.3918 29.4861 44.3697 18.4639 30.7733 18.4639C17.1768 18.4639 6.15468 29.4861 6.15468 43.0825Z" fill="#0066F5"/>
<path d="M30.7735 24.6185V43.0825H12.3096C12.3096 53.2798 20.5762 61.5464 30.7735 61.5464C40.9709 61.5464 49.2374 53.2798 49.2374 43.0825C49.2374 32.8851 40.9709 24.6185 30.7735 24.6185Z" fill="#0066F5"/>
</svg>
