<svg width="22" height="22" viewBox="0 0 22 22" fill="none" xmlns="http://www.w3.org/2000/svg">
<path fill-rule="evenodd" clip-rule="evenodd" d="M15.3111 1.16898L20.831 6.68887C20.9392 6.79707 21 6.94379 21 7.09684V14.9032C21 15.0562 20.9392 15.2029 20.831 15.3111L15.3111 20.831C15.2029 20.9392 15.0562 21 14.9032 21H7.09684C6.94383 21 6.79711 20.9392 6.68891 20.831L1.16898 15.3111C1.06078 15.2029 1 15.0562 1 14.9032V7.09684C1 6.94379 1.06078 6.79707 1.16898 6.68887L6.68891 1.16898C6.79707 1.06082 6.94379 1 7.09684 1H14.9032C15.0562 1 15.2029 1.06082 15.3111 1.16898ZM14.6642 19.8462L19.8462 14.6642V7.33578L14.6643 2.15383H7.33578L2.15383 7.33582V14.6642L7.33578 19.8462H14.6642Z" fill="#022B69"/>
<path d="M20.831 6.68887L20.725 6.79493V6.79493L20.831 6.68887ZM15.3111 1.16898L15.4172 1.06292L15.4172 1.0629L15.3111 1.16898ZM20.831 15.3111L20.725 15.205V15.205L20.831 15.3111ZM6.68891 20.831L6.79497 20.725H6.79497L6.68891 20.831ZM1.16898 15.3111L1.27505 15.205H1.27505L1.16898 15.3111ZM1.16898 6.68887L1.06292 6.5828H1.06292L1.16898 6.68887ZM6.68891 1.16898L6.79497 1.27505L6.79497 1.27505L6.68891 1.16898ZM19.8462 14.6642L19.9522 14.7702L19.9962 14.7263V14.6642H19.8462ZM14.6642 19.8462V19.9962H14.7264L14.7703 19.9522L14.6642 19.8462ZM19.8462 7.33578H19.9962V7.27365L19.9522 7.22972L19.8462 7.33578ZM14.6643 2.15383L14.7703 2.04776L14.7264 2.00383H14.6643V2.15383ZM7.33578 2.15383V2.00383H7.27365L7.22971 2.04776L7.33578 2.15383ZM2.15383 7.33582L2.04776 7.22975L2.00383 7.27369V7.33582H2.15383ZM2.15383 14.6642H2.00383V14.7263L2.04776 14.7702L2.15383 14.6642ZM7.33578 19.8462L7.22971 19.9522L7.27365 19.9962H7.33578V19.8462ZM20.9371 6.5828L15.4172 1.06292L15.2051 1.27505L20.725 6.79493L20.9371 6.5828ZM21.15 7.09684C21.15 6.90401 21.0734 6.71913 20.9371 6.5828L20.725 6.79493C20.805 6.87501 20.85 6.98357 20.85 7.09684H21.15ZM21.15 14.9032V7.09684H20.85V14.9032H21.15ZM20.9371 15.4172C21.0734 15.2808 21.15 15.096 21.15 14.9032H20.85C20.85 15.0164 20.805 15.125 20.725 15.205L20.9371 15.4172ZM15.4172 20.9371L20.9371 15.4172L20.725 15.205L15.205 20.725L15.4172 20.9371ZM14.9032 21.15C15.096 21.15 15.2809 21.0734 15.4172 20.9371L15.205 20.725C15.125 20.805 15.0164 20.85 14.9032 20.85V21.15ZM7.09684 21.15H14.9032V20.85H7.09684V21.15ZM6.58284 20.9371C6.71917 21.0734 6.90404 21.15 7.09684 21.15V20.85C6.98362 20.85 6.87505 20.805 6.79497 20.725L6.58284 20.9371ZM1.06292 15.4172L6.58284 20.9371L6.79497 20.725L1.27505 15.205L1.06292 15.4172ZM0.85 14.9032C0.85 15.096 0.926594 15.2808 1.06292 15.4172L1.27505 15.205C1.19497 15.1249 1.15 15.0164 1.15 14.9032H0.85ZM0.85 7.09684V14.9032H1.15V7.09684H0.85ZM1.06292 6.5828C0.926586 6.71913 0.85 6.904 0.85 7.09684H1.15C1.15 6.98357 1.19498 6.87501 1.27505 6.79493L1.06292 6.5828ZM6.58284 1.06292L1.06292 6.5828L1.27505 6.79493L6.79497 1.27505L6.58284 1.06292ZM7.09684 0.85C6.90399 0.85 6.71912 0.926638 6.58284 1.06292L6.79497 1.27505C6.87502 1.195 6.98359 1.15 7.09684 1.15V0.85ZM14.9032 0.85H7.09684V1.15H14.9032V0.85ZM15.4172 1.0629C15.2809 0.926641 15.096 0.85 14.9032 0.85V1.15C15.0164 1.15 15.125 1.195 15.2051 1.27507L15.4172 1.0629ZM19.7401 14.5581L14.5582 19.7401L14.7703 19.9522L19.9522 14.7702L19.7401 14.5581ZM19.6962 7.33578V14.6642H19.9962V7.33578H19.6962ZM14.5582 2.25989L19.7401 7.44185L19.9522 7.22972L14.7703 2.04776L14.5582 2.25989ZM7.33578 2.30383H14.6643V2.00383H7.33578V2.30383ZM2.25989 7.44189L7.44185 2.25989L7.22971 2.04776L2.04776 7.22975L2.25989 7.44189ZM2.30383 14.6642V7.33582H2.00383V14.6642H2.30383ZM7.44185 19.7401L2.25989 14.5581L2.04776 14.7702L7.22971 19.9522L7.44185 19.7401ZM14.6642 19.6962H7.33578V19.9962H14.6642V19.6962Z" fill="white"/>
<path d="M5.23078 10.4232C4.91266 10.4232 4.65387 10.1644 4.65387 9.84626C4.65387 9.52813 4.91266 9.26935 5.23078 9.26935C5.54891 9.26935 5.8077 9.52813 5.8077 9.84626C5.8077 10.1649 6.06602 10.4232 6.38461 10.4232C6.7032 10.4232 6.96152 10.1649 6.96152 9.84626C6.96152 8.89192 6.18512 8.11548 5.23074 8.11548C4.27637 8.11548 3.5 8.89188 3.5 9.84626C3.5 10.8006 4.27641 11.577 5.23078 11.577C5.54891 11.577 5.8077 11.8358 5.8077 12.154C5.8077 12.4721 5.54891 12.7309 5.23078 12.7309C4.91266 12.7309 4.65387 12.4721 4.65387 12.154C4.65387 11.8353 4.39555 11.577 4.07695 11.577C3.75836 11.577 3.5 11.8353 3.5 12.1539C3.5 13.1083 4.27641 13.8847 5.23078 13.8847C6.18516 13.8847 6.96156 13.1083 6.96156 12.1539C6.96152 11.1996 6.18512 10.4232 5.23078 10.4232Z" fill="#022B69" stroke="white" stroke-width="0.3"/>
<path d="M10.2308 8.11548H7.92311C7.60447 8.11548 7.34619 8.3738 7.34619 8.69239C7.34619 9.01099 7.60451 9.26931 7.92311 9.26931H8.50002V13.3078C8.50002 13.6264 8.75834 13.8847 9.07693 13.8847C9.39553 13.8847 9.65385 13.6264 9.65385 13.3078V9.26931H10.2308C10.5494 9.26931 10.8077 9.01099 10.8077 8.69239C10.8077 8.3738 10.5494 8.11548 10.2308 8.11548Z" fill="#022B69" stroke="white" stroke-width="0.3"/>
<path fill-rule="evenodd" clip-rule="evenodd" d="M12.5386 8.11548H13.3078C14.05 8.11548 14.6539 8.71935 14.6539 9.46161V12.5385C14.6539 13.2808 14.05 13.8847 13.3078 13.8847H12.5386C11.7962 13.8847 11.1924 13.2808 11.1924 12.5385V9.46161C11.1924 8.71935 11.7963 8.11548 12.5386 8.11548ZM13.3078 12.7309C13.4138 12.7309 13.5001 12.6446 13.5001 12.5386V9.46165C13.5001 9.3556 13.4138 9.26935 13.3078 9.26935H12.5386C12.4325 9.26935 12.3463 9.3556 12.3463 9.46165V12.5386C12.3463 12.6446 12.4325 12.7309 12.5386 12.7309H13.3078Z" fill="#022B69"/>
<path d="M14.6539 9.46161H14.8039V9.4616L14.6539 9.46161ZM13.3078 7.96548H12.5386V8.26548H13.3078V7.96548ZM14.8039 9.4616C14.8039 8.6365 14.1329 7.96548 13.3078 7.96548V8.26548C13.9672 8.26548 14.5039 8.80219 14.5039 9.46162L14.8039 9.4616ZM14.8039 12.5385V9.46161H14.5039V12.5385H14.8039ZM13.3078 14.0347C14.1329 14.0347 14.8039 13.3636 14.8039 12.5385H14.5039C14.5039 13.1979 13.9672 13.7347 13.3078 13.7347V14.0347ZM12.5386 14.0347H13.3078V13.7347H12.5386V14.0347ZM11.0424 12.5385C11.0424 13.3636 11.7134 14.0347 12.5386 14.0347V13.7347C11.8791 13.7347 11.3424 13.1979 11.3424 12.5385H11.0424ZM11.0424 9.46161V12.5385H11.3424V9.46161H11.0424ZM12.5386 7.96548C11.7135 7.96548 11.0424 8.6365 11.0424 9.46161H11.3424C11.3424 8.80219 11.8791 8.26548 12.5386 8.26548V7.96548ZM13.3501 12.5386C13.3501 12.5618 13.331 12.5809 13.3078 12.5809V12.8809C13.4967 12.8809 13.6501 12.7275 13.6501 12.5386H13.3501ZM13.3501 9.46165V12.5386H13.6501V9.46165H13.3501ZM13.3078 9.41935C13.331 9.41935 13.3501 9.43844 13.3501 9.46165H13.6501C13.6501 9.27275 13.4967 9.11935 13.3078 9.11935V9.41935ZM12.5386 9.41935H13.3078V9.11935H12.5386V9.41935ZM12.4963 9.46165C12.4963 9.43844 12.5153 9.41935 12.5386 9.41935V9.11935C12.3497 9.11935 12.1963 9.27275 12.1963 9.46165H12.4963ZM12.4963 12.5386V9.46165H12.1963V12.5386H12.4963ZM12.5386 12.5809C12.5153 12.5809 12.4963 12.5618 12.4963 12.5386H12.1963C12.1963 12.7275 12.3497 12.8809 12.5386 12.8809V12.5809ZM13.3078 12.5809H12.5386V12.8809H13.3078V12.5809Z" fill="white"/>
<path fill-rule="evenodd" clip-rule="evenodd" d="M16.3847 8.11548H17.1539C17.8962 8.11548 18.5001 8.71935 18.5001 9.46161V10.2308C18.5001 10.9731 17.8962 11.577 17.1539 11.577H16.1924V13.3078C16.1924 13.6264 15.9341 13.8847 15.6155 13.8847C15.2969 13.8847 15.0386 13.6264 15.0386 13.3078V9.46161C15.0386 8.71935 15.6424 8.11548 16.3847 8.11548ZM17.154 10.4232C17.26 10.4232 17.3463 10.3369 17.3463 10.2309V9.46165C17.3463 9.3556 17.26 9.26935 17.154 9.26935H16.3847C16.2787 9.26935 16.1924 9.3556 16.1924 9.46165V10.4232H17.154Z" fill="#022B69"/>
<path d="M16.1924 11.577V11.427H16.0424V11.577H16.1924ZM16.1924 10.4232H16.0424V10.5732H16.1924V10.4232ZM17.1539 7.96548H16.3847V8.26548H17.1539V7.96548ZM18.6501 9.46161C18.6501 8.6365 17.9791 7.96548 17.1539 7.96548V8.26548C17.8134 8.26548 18.3501 8.80219 18.3501 9.46161H18.6501ZM18.6501 10.2308V9.46161H18.3501V10.2308H18.6501ZM17.1539 11.727C17.979 11.727 18.6501 11.056 18.6501 10.2308H18.3501C18.3501 10.8903 17.8134 11.427 17.1539 11.427V11.727ZM16.1924 11.727H17.1539V11.427H16.1924V11.727ZM16.3424 13.3078V11.577H16.0424V13.3078H16.3424ZM15.6155 14.0347C16.0169 14.0347 16.3424 13.7092 16.3424 13.3078H16.0424C16.0424 13.5435 15.8512 13.7347 15.6155 13.7347V14.0347ZM14.8886 13.3078C14.8886 13.7093 15.2141 14.0347 15.6155 14.0347V13.7347C15.3797 13.7347 15.1886 13.5436 15.1886 13.3078H14.8886ZM14.8886 9.46161V13.3078H15.1886V9.46161H14.8886ZM16.3847 7.96548C15.5596 7.96548 14.8886 8.6365 14.8886 9.46161H15.1886C15.1886 8.80219 15.7253 8.26548 16.3847 8.26548V7.96548ZM17.1963 10.2309C17.1963 10.2541 17.1772 10.2732 17.154 10.2732V10.5732C17.3429 10.5732 17.4963 10.4198 17.4963 10.2309H17.1963ZM17.1963 9.46165V10.2309H17.4963V9.46165H17.1963ZM17.154 9.41935C17.1772 9.41935 17.1963 9.43844 17.1963 9.46165H17.4963C17.4963 9.27275 17.3429 9.11935 17.154 9.11935V9.41935ZM16.3847 9.41935H17.154V9.11935H16.3847V9.41935ZM16.3424 9.46165C16.3424 9.43844 16.3615 9.41935 16.3847 9.41935V9.11935C16.1958 9.11935 16.0424 9.27275 16.0424 9.46165H16.3424ZM16.3424 10.4232V9.46165H16.0424V10.4232H16.3424ZM17.154 10.2732H16.1924V10.5732H17.154V10.2732Z" fill="white"/>
</svg>
