<svg width="18" height="17" viewBox="0 0 18 17" fill="none" xmlns="http://www.w3.org/2000/svg">
<path fill-rule="evenodd" clip-rule="evenodd" d="M13.6105 0.923764C15.0843 1.51808 16.2682 2.35775 16.9443 3.28804C17.5941 4.18222 17.7794 5.14438 17.4804 6.07046C17.2867 6.67011 16.7257 7.07257 16.0842 7.0726H16.082L13.8813 7.07054C13.4413 7.06988 13.0287 6.87655 12.749 6.53999C12.4727 6.20763 12.3592 5.77399 12.4373 5.3502C12.4397 5.33736 12.4425 5.3246 12.4459 5.31193L12.5635 4.86429C11.9215 4.55819 10.4696 3.96738 8.81136 3.95888C7.15194 3.94949 5.69902 4.54063 5.05777 4.8466L5.17357 5.29679C5.1767 5.30908 5.17945 5.32146 5.18169 5.33389C5.25867 5.75792 5.14384 6.19125 4.86661 6.52282C4.58642 6.85797 4.17411 7.05006 3.73528 7.0501H3.73308L1.53233 7.04803C0.889604 7.0471 0.328845 6.64278 0.136614 6.04187C-0.159716 5.11557 0.0281102 4.1548 0.679823 3.2634C1.35834 2.33531 2.54514 1.49929 4.02146 0.909414C5.48938 0.322914 7.1934 -0.00056791 8.81814 0.00349282C10.4427 0.0058329 12.1447 0.332687 13.6105 0.923764ZM16.0839 6.02105C16.265 6.02105 16.4275 5.90852 16.4797 5.74719C16.6741 5.14555 16.5442 4.52615 16.0937 3.90613C14.8963 2.25837 11.8358 1.05925 8.8167 1.05491H8.80021C5.78409 1.05491 2.72822 2.24323 1.52869 3.8839C1.07712 4.50154 0.945732 5.11977 1.13817 5.72134C1.18986 5.88301 1.35246 5.9961 1.53357 5.99637L3.73435 5.99844H3.73497C3.86175 5.99844 3.98006 5.94372 4.05986 5.84826C4.1034 5.79616 4.17143 5.68772 4.14951 5.53661L3.93491 4.70238C3.87644 4.47504 3.97569 4.23656 4.17814 4.11784C4.2629 4.06814 6.27207 2.90712 8.77516 2.90712L8.81673 2.90722C11.336 2.9202 13.3596 4.08631 13.4445 4.13594C13.6483 4.25508 13.7477 4.49528 13.6877 4.72354L13.4688 5.55644C13.4467 5.70723 13.5143 5.81567 13.5576 5.8678C13.6373 5.96371 13.7557 6.01881 13.8825 6.01898L16.0832 6.02105H16.0839Z" fill="#0066F5"/>
<path fill-rule="evenodd" clip-rule="evenodd" d="M12.1437 7.59592L13.7849 9.31915C15.0716 10.6703 15.7803 12.4419 15.7802 14.3077V16.4707C15.7802 16.7611 15.5448 16.9964 15.2545 16.9964H2.36365C2.07328 16.9964 1.83789 16.7611 1.83789 16.4707V14.3077C1.83789 12.4419 2.54656 10.6703 3.83333 9.31915L5.47448 7.59592C5.57369 7.49176 5.71131 7.43277 5.85519 7.43277H6.91576V6.71619C6.91576 6.42581 7.15115 6.19043 7.44152 6.19043C7.7319 6.19043 7.96729 6.42581 7.96729 6.71619V7.43277H9.65084V6.71619C9.65084 6.42581 9.88625 6.19043 10.1766 6.19043C10.467 6.19043 10.7024 6.42581 10.7024 6.71619V7.43277H11.763C11.9068 7.43277 12.0444 7.49172 12.1437 7.59592ZM2.88941 14.3077V15.9449H14.7287V14.3077C14.7287 12.7131 14.1231 11.199 13.0234 10.0443L11.5376 8.48423H6.08056L4.59482 10.0443C3.49505 11.1991 2.88941 12.7131 2.88941 14.3077Z" fill="#0066F5"/>
<path fill-rule="evenodd" clip-rule="evenodd" d="M6.05859 12.3232C6.05859 10.8059 7.29295 9.57153 8.81022 9.57153C10.3275 9.57153 11.5618 10.8059 11.5618 12.3232C11.5618 13.8404 10.3275 15.0748 8.81022 15.0748C7.29299 15.0748 6.05859 13.8404 6.05859 12.3232ZM7.11012 12.3231C7.11012 13.2606 7.87274 14.0233 8.81022 14.0233C9.74766 14.0233 10.5103 13.2606 10.5103 12.3231C10.5103 11.3857 9.74766 10.623 8.81022 10.623C7.87278 10.623 7.11012 11.3857 7.11012 12.3231Z" fill="#0066F5"/>
</svg>
