<svg width="21" height="18" viewBox="0 0 21 18" fill="none" xmlns="http://www.w3.org/2000/svg">
<path d="M0.692321 5.30029V9.88014V16.2214H0V9.88014V5.30029H0.692321Z" fill="white"/>
<path d="M0.34614 7.06186C0.537079 7.06128 0.691753 6.9039 0.692281 6.70958V5.30042H0V6.70958C0.000567909 6.9039 0.155201 7.06128 0.34614 7.06186Z" fill="#428DFF"/>
<path d="M0 16.2214H0.692321V9.52782C0.692321 9.33324 0.537323 9.17554 0.346181 9.17554C0.155039 9.17554 0 9.33328 0 9.52782V16.2214Z" fill="#428DFF"/>
<path d="M0.692308 8.11868C0.690969 8.02542 0.65511 7.93612 0.59191 7.86854L0.540027 7.82622C0.520719 7.81284 0.499746 7.80215 0.477639 7.79439C0.458005 7.78427 0.436952 7.77717 0.41525 7.77342C0.392412 7.76945 0.36929 7.7671 0.346127 7.76636C0.254491 7.76764 0.166709 7.80413 0.100344 7.86854C-0.0303557 8.00878 -0.0303557 8.22858 0.100344 8.36878C0.133405 8.40061 0.172144 8.42571 0.214454 8.44276C0.256114 8.46084 0.300857 8.47042 0.346127 8.47096C0.437763 8.46955 0.525505 8.43306 0.59191 8.36878C0.655069 8.30124 0.690888 8.21194 0.692308 8.11868Z" fill="#428DFF"/>
<path fill-rule="evenodd" clip-rule="evenodd" d="M13.5172 16.336C13.7096 16.4899 13.9475 16.5733 14.1923 16.5724C14.437 16.5732 14.6749 16.4899 14.8673 16.336L16.9196 14.6822C19.3106 12.8327 20.7308 9.96498 20.7692 6.9087V3.67922C20.7691 3.30832 20.559 2.97066 20.2297 2.81192L14.9008 0.181443C14.4531 -0.0376946 13.9317 -0.0376946 13.4839 0.181443L8.15487 2.81196C7.82544 2.97062 7.6154 3.30832 7.61536 3.67926V6.90874C7.65361 9.96482 9.07358 12.8324 11.4644 14.6819L13.5172 16.336ZM13.7863 0.815159C13.9129 0.75286 14.0517 0.720659 14.1923 0.720906C14.3329 0.720783 14.4717 0.753026 14.5984 0.815159L19.9275 3.44568C20.0174 3.4877 20.0756 3.57861 20.0769 3.67926V6.90874C20.0379 9.74935 18.7147 12.4131 16.4903 14.1294L14.4377 15.7835C14.2934 15.8978 14.0913 15.8978 13.9469 15.7835L11.8936 14.129C9.66956 12.4127 8.3467 9.7491 8.30768 6.90874V3.67926C8.30914 3.57861 8.36723 3.48779 8.45708 3.44568L13.7863 0.815159Z" fill="#428DFF"/>
<path fill-rule="evenodd" clip-rule="evenodd" d="M10.7584 7.06662C10.7533 9.00265 12.29 10.5771 14.1923 10.5848C16.0993 10.5866 17.6479 9.01685 17.6538 7.07595C17.6538 5.13992 16.113 3.56975 14.2107 3.56714C12.3084 3.56459 10.7636 5.13059 10.7584 7.06662ZM11.4507 7.08536C11.4456 5.53843 12.6723 4.27951 14.1923 4.27175C15.7171 4.26968 16.9559 5.52411 16.9615 7.07603C16.9615 8.62296 15.7307 9.87771 14.2107 9.88027C12.6907 9.88283 11.4558 8.63229 11.4507 7.08536Z" fill="#428DFF"/>
<path d="M13.6259 8.43899C13.5341 8.43912 13.446 8.40196 13.3812 8.33578L12.8146 7.7592C12.6795 7.62164 12.6795 7.39858 12.8146 7.26102C12.9498 7.12347 13.169 7.12347 13.3041 7.26102L13.6259 7.58853L15.0805 6.10816C15.2159 5.97175 15.4341 5.97233 15.5688 6.1094C15.7035 6.24646 15.704 6.46853 15.57 6.6063L13.8707 8.33578C13.8058 8.40196 13.7178 8.43912 13.6259 8.43899Z" fill="#428DFF"/>
<path d="M0.346181 5.65262C0.254382 5.65266 0.166316 5.61555 0.101372 5.54945C0.0364679 5.4834 0 5.39377 0 5.3003C0.00113582 4.32793 0.775358 3.53997 1.73078 3.53882H7.96155C8.15273 3.53882 8.30769 3.69657 8.30769 3.8911C8.30769 4.08563 8.15269 4.24338 7.96155 4.24338H1.73078C1.15752 4.244 0.69293 4.71683 0.692321 5.30026C0.692362 5.39369 0.655894 5.48331 0.59095 5.54941C0.526086 5.61555 0.43802 5.65262 0.346181 5.65262Z" fill="#428DFF"/>
<path d="M19.0384 17.983H1.73078C0.775358 17.9819 0.00113582 17.1939 0 16.2215C0 16.027 0.154998 15.8692 0.34614 15.8692C0.537282 15.8692 0.692281 16.027 0.692281 16.2215C0.692889 16.805 1.15748 17.2778 1.73074 17.2784H19.0384C19.6117 17.2778 20.0763 16.805 20.0769 16.2215V5.3004C20.0769 5.10583 20.2319 4.94812 20.423 4.94812C20.6142 4.94812 20.7692 5.10587 20.7692 5.3004V16.2215C20.7681 17.1939 19.9939 17.9819 19.0384 17.983Z" fill="#428DFF"/>
<path d="M7.61538 14.4599H2.15534C1.96416 14.4599 1.8092 14.3022 1.8092 14.1077C1.8092 13.9131 1.9642 13.7554 2.15534 13.7554H7.61538C7.80656 13.7554 7.96152 13.9131 7.96152 14.1077C7.96152 14.3022 7.80656 14.4599 7.61538 14.4599Z" fill="#428DFF"/>
<path d="M4.84618 15.8692H2.15534C1.96416 15.8692 1.8092 15.7115 1.8092 15.517C1.8092 15.3224 1.9642 15.1647 2.15534 15.1647H4.84614C5.03732 15.1647 5.19228 15.3224 5.19228 15.517C5.19228 15.7115 5.03732 15.8692 4.84618 15.8692Z" fill="#428DFF"/>
<path fill-rule="evenodd" clip-rule="evenodd" d="M2.07689 13.0508H7.61534C7.70718 13.0508 7.79525 13.0137 7.86015 12.9476C7.9251 12.8815 7.96156 12.7919 7.96152 12.6985V12.3142C7.96209 11.794 7.67031 11.3192 7.21038 11.0922L7.21022 11.0918L6.00763 10.4887C5.97153 10.4711 5.94825 10.4342 5.94748 10.3934V10.0456C5.96342 10.0246 5.97972 10.0023 5.99648 9.97853C6.14985 9.76051 6.27459 9.52308 6.36765 9.27224C6.57635 9.13996 6.70312 8.90732 6.70279 8.6571V8.15207C6.70251 8.00576 6.65862 7.86299 6.57688 7.74265V7.15984C6.60438 6.80421 6.49178 6.45206 6.26384 6.18107C5.89048 5.8015 5.37202 5.60825 4.8461 5.65263C4.32005 5.60821 3.80147 5.80162 3.42819 6.18144C3.20034 6.45235 3.08777 6.80438 3.11531 7.15988V7.74269C3.03358 7.86304 2.98969 8.0058 2.9894 8.15211V8.65714C2.98936 8.85184 3.06639 9.03832 3.20306 9.17456C3.29368 9.48407 3.43415 9.77611 3.61885 10.0388V10.3818C3.61824 10.4212 3.59646 10.4571 3.56206 10.4753L2.4391 11.0898C2.00371 11.3262 1.73148 11.7872 1.73071 12.2894V12.6985C1.73071 12.7919 1.76718 12.8816 1.83208 12.9476C1.89703 13.0137 1.9851 13.0508 2.07689 13.0508ZM7.2692 12.3462H2.42303H2.42299V12.2895C2.42397 12.0467 2.55617 11.8242 2.76694 11.7105L3.89027 11.0957C4.14899 10.9547 4.31068 10.6805 4.31113 10.3818V9.92011C4.31076 9.83709 4.28196 9.75679 4.22967 9.69305C4.04912 9.45699 3.91878 9.18529 3.84682 8.89523C3.82139 8.79838 3.76285 8.71395 3.68168 8.65714L3.6915 8.13522C3.76537 8.06838 3.80764 7.9726 3.80764 7.87204V7.14163C3.80764 7.12599 3.80662 7.11038 3.80459 7.09486C3.79498 6.9317 3.84674 6.77094 3.94929 6.64519C4.19588 6.4265 4.52081 6.32218 4.8461 6.35723C5.16867 6.32338 5.4908 6.42531 5.73767 6.63932C5.84387 6.76561 5.89762 6.92898 5.8876 7.09486C5.88557 7.11034 5.88456 7.12599 5.88456 7.14163V7.87204C5.88805 7.97876 5.9334 8.07961 6.01047 8.15207L5.98784 8.68088C5.87998 8.71436 5.79491 8.7992 5.75982 8.90827C5.68518 9.1436 5.57541 9.36579 5.43429 9.56709C5.40593 9.60817 5.37547 9.64768 5.34302 9.68545C5.28639 9.75002 5.25511 9.83354 5.25511 9.92007V10.3934C5.2545 10.7031 5.42808 10.9859 5.70185 11.1211L6.90428 11.7242C7.12702 11.8334 7.2688 12.0626 7.2692 12.3142V12.3462Z" fill="#428DFF"/>
</svg>
