<svg width="18" height="26" viewBox="0 0 18 26" fill="none" xmlns="http://www.w3.org/2000/svg">
<rect x="0.972229" y="3.8291" width="15.2195" height="6" fill="white"/>
<path d="M0.972229 1.82943L5.41122 1.17432C5.41122 1.17432 6.62233 1.88938 6.97223 3.82943C7.32213 5.76948 6.97223 9.82943 6.97223 9.82943H0.972229V1.82943Z" fill="white"/>
<path d="M16.1472 1.82943L11.7082 1.17432C11.7082 1.17432 10.4971 1.88938 10.1472 3.82943C9.79732 5.76948 10.1472 9.82943 10.1472 9.82943H16.1472V1.82943Z" fill="white"/>
<path fill-rule="evenodd" clip-rule="evenodd" d="M11.8479 0H15.5576C16.4318 0 17.143 0.711191 17.143 1.58539V24.4146C17.143 25.2888 16.4318 26 15.5576 26H11.5942C11.1034 26 10.6931 25.6265 10.6474 25.1382C10.5333 23.9324 9.48694 22.9878 8.26494 22.9878C7.06071 22.9878 6.02833 23.9323 5.91447 25.1382C5.86816 25.6265 5.45821 26 4.96735 26H1.6064C0.732248 26 0.0210571 25.2888 0.0210571 24.4146V1.58539C0.0210571 0.711191 0.732248 0 1.6064 0H5.31617C5.77401 0 6.16686 0.325965 6.25121 0.775887C6.45636 1.87007 7.45833 2.69511 8.58201 2.69511C9.7057 2.69511 10.7077 1.87012 10.9131 0.775887C10.9972 0.325965 11.39 0 11.8479 0ZM12.3669 24.0976H15.2405V1.90247H12.5594C11.9278 3.50243 10.3636 4.59758 8.58201 4.59758C6.80041 4.59758 5.2366 3.50238 4.60498 1.90242H1.92348V24.0976H4.19436C4.74133 22.3533 6.38755 21.0854 8.26494 21.0854C10.1582 21.0854 11.8165 22.3533 12.3669 24.0976Z" fill="white"/>
<path d="M10.8015 13H6.36249C5.83711 13 5.41125 13.4259 5.41125 13.9512C5.41125 14.4766 5.83711 14.9025 6.36249 14.9025H10.8015C11.3269 14.9025 11.7528 14.4766 11.7528 13.9512C11.7528 13.4259 11.3269 13 10.8015 13Z" fill="white"/>
<path d="M12.704 16.8047H4.14301C3.61762 16.8047 3.19177 17.2305 3.19177 17.7559C3.19177 18.2813 3.61762 18.7072 4.14301 18.7072H12.704C13.2293 18.7072 13.6552 18.2813 13.6552 17.7559C13.6552 17.2305 13.2294 16.8047 12.704 16.8047Z" fill="white"/>
</svg>
