<svg width="38" height="38" viewBox="0 0 38 38" fill="none" xmlns="http://www.w3.org/2000/svg">
<rect width="38" height="38" rx="10" fill="#767E94"/>
<path fill-rule="evenodd" clip-rule="evenodd" d="M26.8309 13.7843L22.2157 9.16904C22.1062 9.05954 21.9567 9 21.8077 9H13.7308C12.7764 9 12 9.77642 12 10.7308V26.9615C12 27.9159 12.7764 28.6923 13.7308 28.6923H25.2692C26.2236 28.6923 27 27.9159 27 26.9615V14.1923C27 14.034 26.933 13.8863 26.8309 13.7843ZM22.3846 10.9697L25.0303 13.6154H22.9615C22.6434 13.6154 22.3846 13.3566 22.3846 13.0385V10.9697ZM13.7308 27.5385H25.2692C25.5873 27.5385 25.8462 27.2797 25.8462 26.9615V14.7692H22.9615C22.0072 14.7692 21.2308 13.9928 21.2308 13.0385V10.1538H13.7308C13.4127 10.1538 13.1538 10.4127 13.1538 10.7308V26.9615C13.1538 27.2797 13.4127 27.5385 13.7308 27.5385Z" fill="white"/>
<path d="M22.9614 18.3076H17.1922C16.8735 18.3076 16.6152 18.5659 16.6152 18.8845C16.6152 19.2032 16.8735 19.4615 17.1922 19.4615H22.9614C23.28 19.4615 23.5383 19.2032 23.5383 18.8845C23.5383 18.5659 23.28 18.3076 22.9614 18.3076Z" fill="white"/>
<path d="M22.9614 20.6152H17.1922C16.8735 20.6152 16.6152 20.8735 16.6152 21.1922C16.6152 21.5108 16.8735 21.7691 17.1922 21.7691H22.9614C23.28 21.7691 23.5383 21.5108 23.5383 21.1922C23.5383 20.8735 23.28 20.6152 22.9614 20.6152Z" fill="white"/>
<path d="M22.9614 22.9229H17.1922C16.8735 22.9229 16.6152 23.1812 16.6152 23.4998C16.6152 23.8184 16.8735 24.0767 17.1922 24.0767H22.9614C23.28 24.0767 23.5383 23.8184 23.5383 23.4998C23.5383 23.1812 23.28 22.9229 22.9614 22.9229Z" fill="white"/>
<circle cx="14.8845" cy="18.8845" r="0.576923" fill="white"/>
<circle cx="14.8845" cy="21.1922" r="0.576923" fill="white"/>
<circle cx="14.8845" cy="23.4998" r="0.576923" fill="white"/>
</svg>
