<svg width="238" height="92" viewBox="0 0 238 92" fill="none" xmlns="http://www.w3.org/2000/svg">
<path fill-rule="evenodd" clip-rule="evenodd" d="M64.3647 67.3087C65.9106 67.3087 67.342 67.3087 68.7735 67.3322C68.9217 67.3322 69.1911 67.6675 69.1877 67.852C69.1877 68.5993 69.1943 69.3475 69.2008 70.0959V70.0965V70.097V70.0976V70.0981V70.0987C69.2224 72.5765 69.2441 75.0565 69.0294 77.5127C68.6286 82.0966 65.2134 83.8839 61.1617 83.4346C56.9112 82.9551 55.1631 79.9405 55.0992 76.0574C55.0452 71.9891 55.055 67.9209 55.0647 63.8537V63.8532V63.8527V63.8522V63.8516V63.8511C55.069 62.0794 55.0732 60.3078 55.0722 58.5366V57.5306C54.6452 57.825 54.2252 58.1087 53.8124 58.3875L53.8123 58.3876L53.8123 58.3876L53.8123 58.3876L53.8122 58.3876L53.8122 58.3877C52.9227 58.9885 52.0662 59.567 51.2427 60.183C51.0103 60.3574 50.9295 60.8537 50.9295 61.189C50.9115 67.9671 50.9115 74.7451 50.9295 81.5232V82.945C49.2691 82.945 47.6995 82.945 46.1334 82.9282C46.0121 82.9282 45.8269 82.717 45.7966 82.5929C45.757 82.3479 45.748 82.099 45.7696 81.8518V62.8053C43.9307 63.1406 42.1759 63.4759 40.4279 63.8347C40.2023 63.9425 40.0412 64.1502 39.9934 64.3947C39.9518 64.8339 39.9439 65.2756 39.9699 65.7159C39.9699 67.0012 39.9689 68.2864 39.9679 69.5717V69.5718V69.572V69.5721V69.5722V69.5723V69.5737C39.9649 73.6867 39.9618 77.8001 39.9901 81.9155C39.9901 82.7438 39.7779 83.0422 38.9224 82.9852C37.8444 82.9215 36.7636 82.9215 35.6857 82.9852C34.9683 83.0221 34.8066 82.7438 34.8066 82.0832C34.8153 79.6402 34.8165 77.1972 34.8178 74.7541C34.8194 71.4966 34.8211 68.2391 34.8403 64.9816C34.8403 64.1499 34.6146 63.8716 33.7659 63.7543C25.8128 62.6365 19.5134 58.8138 14.8677 52.2861C11.9641 48.1879 10.2903 43.3524 10.0413 38.3432C10.0223 38.23 9.9964 38.118 9.96384 38.0079C9.81641 38.0079 9.66327 37.9965 9.50764 37.985H9.50761H9.50758H9.50754H9.5075H9.50747C9.34673 37.9731 9.18332 37.961 9.02079 37.961H1.54371C1.47167 37.961 1.39344 37.968 1.31479 37.975L1.31469 37.975C1.12128 37.9923 0.925362 38.0099 0.812838 37.9241C0.476032 37.6659 0.041553 37.3205 0.00113633 36.9717C-0.0258081 36.6934 0.432247 36.3011 0.755581 36.0731C0.894204 35.9745 1.11834 35.99 1.33705 36.0052C1.41592 36.0106 1.49409 36.0161 1.56728 36.0161H8.9568C9.21823 36.0161 9.46545 35.9999 9.64807 35.988C9.70072 35.9845 9.748 35.9814 9.78871 35.9792C11.8365 20.2825 20.6439 11.5305 36.4233 9.48839V7.45966V1.92342C36.4233 0.991214 36.7163 0.565349 37.3529 0.54523C37.9894 0.52511 38.333 0.967741 38.3363 1.95695C38.3363 2.71939 38.339 3.48182 38.3416 4.24413V4.2445V4.24487V4.24524V4.24562V4.24599C38.3468 5.76961 38.3521 7.29274 38.3363 8.81438C38.3363 9.43809 38.4845 9.67617 39.1447 9.72982C46.2176 10.2999 52.2498 13.1032 57.1402 18.2371C60.5184 21.7312 62.8511 26.094 63.8763 30.8353C64.1641 32.2378 64.3643 33.6567 64.4758 35.0839C64.5398 35.778 64.7217 36.0295 65.4559 36.0161C67.2193 35.9845 68.9826 35.9899 70.7459 35.9952C71.4177 35.9973 72.0895 35.9993 72.7612 35.9993H73.5089C74.1017 36.0496 74.5194 36.3346 74.5194 36.9684C74.5194 37.6022 74.095 37.9073 73.5089 37.9274C72.9565 37.9431 72.4025 37.9379 71.849 37.9326H71.8486H71.8482H71.8478C71.5717 37.93 71.2956 37.9274 71.02 37.9274H65.2943C65.0383 37.9274 64.5937 38.1487 64.5634 38.3231C64.3244 39.7979 64.1243 41.2809 63.9328 42.7004L63.9326 42.7018L63.9325 42.7022L63.9321 42.7055L63.9313 42.7114C63.8777 43.1085 63.8248 43.5006 63.7719 43.8862C64.0724 44.0457 64.3809 44.1946 64.6892 44.3433C65.4177 44.6949 66.1451 45.0459 66.7627 45.536C68.4905 46.9075 68.9856 48.9295 69.0564 51.0052C69.1138 52.7967 69.1068 54.5897 69.0997 56.3822V56.3827V56.3829V56.383V56.3831V56.3832V56.3833C69.0956 57.4288 69.0915 58.4742 69.1002 59.5191C69.1002 59.9953 68.9284 60.1428 68.4703 60.1327C67.3353 60.1093 66.2003 60.0992 65.0686 60.1327C64.5028 60.1529 64.3714 59.9282 64.3748 59.4084C64.395 56.8465 64.395 54.2835 64.3748 51.7194C64.3748 50.3781 63.8763 49.6471 62.8491 49.3721C61.9801 49.1307 61.5793 49.3721 61.0572 50.1031C60.2826 51.1963 60.1108 52.3632 60.1176 53.6744C60.15 58.5614 60.1474 63.4468 60.1448 68.3329V68.333V68.3331V68.3333V68.3334V68.3336V68.3411C60.1436 70.5598 60.1424 72.7786 60.1445 74.9978C60.1308 75.4653 60.1579 75.9332 60.2253 76.3961C60.4409 77.6368 61.064 78.1767 62.2192 78.1968C63.3745 78.2169 64.0077 77.7541 64.2838 76.5201C64.3557 76.1422 64.3874 75.7578 64.3782 75.3733V68.2644L64.3647 67.3087ZM58.6053 36.3547C58.9017 25.4734 48.8379 15.2996 37.8042 15.6047V25.4231C38.221 25.4231 38.634 25.4257 39.0445 25.4284H39.0445H39.0446H39.0446H39.0446H39.0447C39.8581 25.4336 40.6617 25.4387 41.4653 25.4231C42.1389 25.4231 42.3915 25.631 42.1389 26.3989H37.7234V33.6788C37.7234 34.2489 38.0602 34.2791 38.4812 34.2757H45.9482C46.8195 34.2757 47.2532 34.2757 47.4835 34.0593C47.7117 33.8449 47.7403 33.4181 47.7972 32.5684V32.5683L47.8006 32.5186C47.8119 32.363 47.9482 32.2165 48.0864 32.0679C48.1537 31.9955 48.2214 31.9226 48.2755 31.848C48.3217 31.9114 48.3756 31.9733 48.4294 32.0353L48.4294 32.0353L48.4295 32.0354L48.4295 32.0354L48.4295 32.0354L48.4295 32.0354C48.5521 32.1764 48.6749 32.3177 48.71 32.4784C48.7589 32.8333 48.7589 33.1932 48.71 33.5481C48.6695 34.0812 48.8817 34.2858 49.4274 34.2757C50.2377 34.2578 51.048 34.2638 51.8593 34.2698C52.2654 34.2727 52.6717 34.2757 53.0783 34.2757H53.0784C53.7629 34.2757 54.0996 34.2757 54.275 34.444C54.4449 34.6069 54.4634 34.9277 54.4997 35.5593L54.503 35.617C54.503 35.8719 54.7522 36.3246 54.9038 36.3313C55.8214 36.3686 56.7409 36.3634 57.6554 36.3583H57.6556C57.9728 36.3565 58.2895 36.3547 58.6053 36.3547ZM33.6136 25.4162C33.1963 25.4196 32.7712 25.4231 32.3345 25.4231V26.3419H36.7769V28.9138C36.7769 29.41 36.7739 29.9058 36.771 30.4013L36.7709 30.4024V30.4027V30.403V30.4033V30.4035C36.765 31.3942 36.759 32.384 36.7769 33.3737C36.7904 33.9873 36.6523 34.2455 35.9551 34.2455C33.163 34.212 30.3709 34.2221 27.5788 34.2455C27.0062 34.2489 26.7536 34.0779 26.8109 33.4944C26.8203 33.3536 26.8143 33.212 26.8083 33.0704C26.8015 32.9086 26.7947 32.7466 26.8109 32.5857C26.8749 31.915 26.5987 31.687 25.8207 31.915C25.8207 32.0944 25.817 32.2763 25.8133 32.46C25.8058 32.8325 25.7981 33.2121 25.8207 33.5917C25.8543 34.1148 25.6455 34.2623 25.147 34.2623C24.669 34.2623 24.1903 34.2657 23.7113 34.269H23.7112H23.7111H23.711H23.711C22.7523 34.2757 21.7926 34.2824 20.8359 34.2623C20.2533 34.2489 20.0781 34.4434 20.0781 35.0201C20.0803 35.1812 20.0847 35.3231 20.0885 35.4481V35.4482V35.4482C20.1019 35.8836 20.1089 36.1133 19.9977 36.2337C19.8735 36.3682 19.6019 36.3665 19.0271 36.3628C18.9238 36.3622 18.8108 36.3614 18.6871 36.3614H15.7771C15.8221 35.9689 15.8544 35.5863 15.886 35.2118C15.9419 34.5499 15.9956 33.9131 16.1139 33.2899C17.4443 26.3419 21.2199 21.1611 27.5013 17.8212C30.0825 16.4813 32.9157 15.6911 35.8204 15.5008C36.6018 15.4404 36.7904 15.6819 36.7904 16.4464C36.75 19.1693 36.7601 21.8955 36.7904 24.6217C36.7971 25.2387 36.6085 25.4466 35.9888 25.4231C35.2079 25.4032 34.4256 25.4096 33.6136 25.4162ZM32.3547 48.2253V47.2394C32.5589 47.2394 32.7574 47.2363 32.9514 47.2333C33.3267 47.2274 33.6856 47.2217 34.0387 47.2394C34.5742 47.2663 34.8235 47.1087 34.8134 46.5051C34.7819 44.3858 34.7819 42.2621 34.8134 40.1339C34.8134 39.4632 34.5405 39.3526 33.968 39.3593C32.751 39.3749 31.534 39.3697 30.317 39.3645C29.7085 39.3619 29.1 39.3593 28.4915 39.3593C26.8378 39.3593 26.8075 39.3593 26.8075 40.9957C26.8075 41.7468 26.5246 41.9077 25.7971 41.6663C25.7971 41.5011 25.7929 41.3385 25.7887 41.178C25.7805 40.8629 25.7725 40.5556 25.7971 40.2512C25.8644 39.5806 25.6489 39.3257 24.9349 39.3526C24.1006 39.3843 23.2653 39.3785 22.4294 39.3726H22.4291H22.4288H22.4284C21.854 39.3685 21.2793 39.3645 20.7046 39.3727C20.2533 39.3727 20.031 39.2352 20.0579 38.759C20.0579 38.687 20.0553 38.6143 20.0527 38.541V38.5409V38.5409V38.5408C20.0475 38.3922 20.0421 38.241 20.0579 38.0884C20.1455 37.4177 19.8221 37.2266 19.1957 37.2534C18.3385 37.297 17.4797 37.297 16.6225 37.2534C15.8815 37.2098 15.6929 37.5418 15.8142 38.189C15.9128 38.7075 15.9941 39.2319 16.0753 39.7563C16.2521 40.8971 16.4288 42.0375 16.7842 43.1149C19.226 50.5525 24.332 55.2973 31.8596 57.4736C32.4778 57.6521 33.1179 57.7587 33.7554 57.8649C34.0522 57.9144 34.3484 57.9637 34.6416 58.0202C34.6905 57.8944 34.7266 57.7641 34.7494 57.6312C34.7494 54.687 34.7494 51.7395 34.7662 48.792C34.7662 48.2957 34.5372 48.1851 34.0926 48.1951C33.6642 48.2428 33.1933 48.2412 32.6682 48.2394H32.6681C32.5657 48.2391 32.4613 48.2387 32.3547 48.2387V48.2253ZM34.7822 60.6032L34.7822 60.6039L34.782 60.6051C34.7747 60.6729 34.7669 60.7458 34.7595 60.8269V60.8403C26.666 60.4614 16.1678 54.0097 13.4801 42.1727C10.7231 30.0418 17.6254 17.7998 29.4628 13.8255C41.3003 9.85125 54.2392 15.4318 59.4237 26.7476C64.8733 38.7188 59.6258 51.1426 51.0642 56.7225C50.6297 55.4717 50.8722 54.6233 51.8086 53.7951C56.1769 49.9321 58.804 45.1671 59.518 39.3459C60.8585 28.441 53.7519 17.9084 42.6475 15.1286C31.543 12.3487 19.9636 18.5623 16.1139 29.3297C14.1203 34.9406 14.4568 41.1115 17.049 46.4745C19.6412 51.8376 24.2749 55.9497 29.9229 57.8995C31.136 58.2901 32.3736 58.6004 33.6278 58.8283L33.7672 58.8565C34.8346 59.0712 34.8456 59.0734 34.81 60.2836C34.8057 60.3851 34.7948 60.4865 34.7822 60.6031L34.7822 60.6032ZM58.5952 37.354C58.526 37.3323 58.455 37.3166 58.383 37.3071H55.8906C54.5266 37.3071 54.4996 37.3071 54.4996 38.6484C54.4996 39.2285 54.3009 39.423 53.7284 39.4096C52.9357 39.3894 52.1431 39.3962 51.3505 39.4029C50.9542 39.4062 50.5579 39.4096 50.1616 39.4096C50.0408 39.4096 49.93 39.4089 49.8284 39.4084C49.2296 39.405 48.9509 39.4035 48.8225 39.5416C48.7107 39.6618 48.7127 39.888 48.7165 40.311C48.7177 40.4524 48.7192 40.6158 48.7167 40.8045C48.7467 40.9942 48.7387 41.188 48.6931 41.3746C48.6055 41.5523 48.4001 41.7803 48.2418 41.7837C48.0321 41.7389 47.8618 41.5872 47.7938 41.3846C47.7427 40.9472 47.7337 40.5059 47.7669 40.0668C47.7871 39.6242 47.6355 39.3962 47.1573 39.3962C44.9445 39.3962 42.7283 39.3962 40.5155 39.4263C40.2615 39.4936 40.0626 39.6903 39.9934 39.9427C39.9553 42.2028 39.9553 44.4618 39.9934 46.7197C39.9934 46.9008 40.31 47.1992 40.5087 47.226C41.059 47.2671 41.6112 47.275 42.1625 47.2495C42.3645 47.9973 42.1827 48.3058 41.5192 48.2555C41.3931 48.2434 41.2643 48.249 41.1357 48.2546H41.1356H41.1355C41.0133 48.26 40.8912 48.2653 40.7714 48.2555C40.1753 48.1884 39.9463 48.3896 39.953 49.0301C39.9732 50.8653 39.9665 52.702 39.9597 54.5392C39.9564 55.458 39.953 56.377 39.953 57.2959C39.9736 57.5928 40.0107 57.8883 40.0642 58.1811C40.5789 58.0349 41.0823 57.891 41.578 57.7492L41.5837 57.7476L41.5846 57.7474C42.7572 57.4122 43.8871 57.0892 45.0219 56.7761C45.5945 56.6185 45.7663 56.2933 45.7629 55.6997C45.7427 53.4661 45.7494 51.2325 45.7562 48.9919V48.9915L45.7562 48.9891C45.7595 47.8669 45.7629 46.743 45.7629 45.6165V44.7111H50.9362V53.1814C55.0992 50.586 59.4271 41.6093 58.6053 37.3574L58.5952 37.354ZM45.5103 59.6163C43.7301 60.2919 41.8665 60.725 39.9698 60.904C39.9409 60.4114 39.9432 59.9175 39.9766 59.4252C40.0308 59.2039 40.1869 59.0211 40.3976 58.9323C41.7028 58.608 43.0136 58.3061 44.3535 57.9974C44.815 57.891 45.28 57.7839 45.7494 57.6748C45.7494 57.8212 45.7526 57.9747 45.7559 58.1327C45.7627 58.4631 45.7699 58.8132 45.7494 59.1603C45.744 59.3407 45.6559 59.5087 45.5103 59.6163Z" fill="black"/>
<rect x="36.7129" y="29.3833" width="1.01042" height="14.7544" fill="#FF0000"/>
<path fill-rule="evenodd" clip-rule="evenodd" d="M44.6279 36.2575V37.2635H29.8085V36.2575H44.6279Z" fill="#FF0000"/>
<path d="M89.1029 82.955C87.2808 82.955 85.6002 82.9785 83.9195 82.9282C83.7107 82.9282 83.4008 82.5459 83.3267 82.2877C81.8448 77.1036 80.3797 71.915 78.9314 66.7219C78.7359 65.9113 78.4792 65.1166 78.1635 64.3444C78.1433 64.5624 78.1062 64.7804 78.1062 65.0151C78.1062 70.7156 78.1062 76.4162 78.1534 82.1167C78.1534 82.8176 77.9311 83.0154 77.2541 82.9852C76.1225 82.9349 74.984 82.945 73.8524 82.9852C73.2259 83.0087 73.0003 82.7673 73.0508 82.167C73.0845 81.7848 73.0508 81.3958 73.0508 81.0102V43.068C73.0508 41.901 73.0508 41.901 74.2262 41.901H78.1029V60.1964L78.2881 60.2333C78.6519 59.1368 79.0055 58.0403 79.376 56.9505C80.6862 53.1244 82.0098 49.3017 83.3031 45.4723C83.5052 44.872 83.7713 44.5971 84.4685 44.6306C85.9168 44.6977 87.3751 44.6507 88.9514 44.6507C88.1262 46.9309 87.3583 49.0703 86.5769 51.2063C85.4284 54.3584 84.2529 57.5004 83.1347 60.6659C82.9845 61.1286 82.9716 61.6246 83.0977 62.0944C85.004 68.7305 86.9474 75.3566 88.8773 81.9893C88.9581 82.2475 89.0019 82.5124 89.1029 82.955Z" fill="black"/>
<path fill-rule="evenodd" clip-rule="evenodd" d="M104.807 70.7408C104.831 69.6183 104.854 68.4864 104.893 67.3423C104.427 67.3423 103.982 67.3454 103.553 67.3484C102.57 67.3552 101.668 67.3615 100.787 67.3288C100.11 67.302 99.891 67.4898 99.891 68.194C99.9112 69.8101 99.9045 71.4248 99.8978 73.04C99.8944 73.8477 99.891 74.6556 99.891 75.4639C99.9022 75.8767 99.8672 76.2894 99.7866 76.6945C99.534 77.7676 98.8638 78.2437 97.7388 78.2202C96.7082 78.2001 96.1626 77.7474 95.9302 76.6543C95.8482 76.2514 95.8065 75.8414 95.8056 75.4303V65.4342C95.8056 65.2334 95.8223 65.0292 95.8416 64.7934C95.8497 64.6947 95.8582 64.5904 95.8662 64.4786H104.67C104.713 64.4006 104.745 64.3171 104.765 64.2304C104.766 62.9317 104.775 61.6327 104.784 60.3337C104.806 57.2257 104.828 54.118 104.738 51.0152C104.6 46.7465 102.545 44.4663 98.6752 44.0807C96.368 43.8392 94.1889 44.2383 92.6127 46.1865C91.4844 47.5781 91.0667 49.2514 91.0667 50.975C91.0285 59.5392 91.0285 68.1034 91.0667 76.6677C91.0735 78.3309 91.4608 79.9539 92.5352 81.312C94.0441 83.2233 96.1693 83.5989 98.4225 83.4882C101.791 83.3239 104.212 81.3857 104.485 78.2672C104.7 75.7842 104.753 73.2866 104.807 70.7408ZM99.8978 51.8502V55.8741C99.8978 56.219 99.8965 56.565 99.8952 56.9122C99.8915 57.9593 99.8876 59.0181 99.918 60.0959C99.9314 60.6693 99.7395 60.8772 99.1568 60.8503C98.3047 60.8135 97.4458 60.8202 96.5937 60.8503C96.038 60.8705 95.8056 60.6927 95.8056 60.1026C95.8174 58.8824 95.8149 57.6616 95.8124 56.4407C95.8093 54.8868 95.8061 53.3327 95.8325 51.7798C95.8628 49.9254 97.0383 49.0334 98.6179 49.5901C99.5778 49.9254 99.8169 50.7134 99.8978 51.602V51.8502Z" fill="black"/>
<path d="M117.883 79.0854C117.883 80.3965 117.903 81.6305 117.859 82.8645C117.859 83.0389 117.553 83.3206 117.354 83.3541C113.572 83.9778 109.981 82.489 109.19 77.9084C109.033 76.9024 108.962 75.8849 108.978 74.867C108.96 66.6582 108.96 58.4483 108.978 50.2373C108.978 49.1709 108.978 49.134 107.903 49.1609C107.277 49.1609 107.085 48.9697 107.108 48.3561C107.152 47.1757 107.108 45.992 107.108 44.758C107.297 44.7108 107.488 44.6772 107.681 44.6574C108.964 44.6071 108.964 44.6105 108.964 43.2926C108.964 42.6589 108.991 42.0251 108.964 41.3913C108.934 40.8381 109.109 40.5899 109.708 40.6033C110.982 40.6335 112.255 40.6302 113.528 40.6033C114.026 40.6033 114.225 40.7643 114.201 41.274C114.178 42.1827 114.218 43.0948 114.201 44.0002C114.201 44.5099 114.367 44.6708 114.875 44.6708C115.784 44.6373 116.697 44.6708 117.738 44.6708C117.738 46.0926 117.738 47.4574 117.711 48.8222C117.711 48.9395 117.374 49.1575 117.172 49.1575C116.401 49.1977 115.626 49.191 114.852 49.1743C114.387 49.1743 114.178 49.3621 114.215 49.8147C114.215 50.0059 114.215 50.2004 114.215 50.3915C114.215 58.5735 114.215 66.7554 114.215 74.9374C114.21 75.4607 114.24 75.9838 114.303 76.5034C114.518 78.2035 115.438 79.0116 117.179 79.0753C117.374 79.0519 117.566 79.0653 117.883 79.0854Z" fill="black"/>
<path fill-rule="evenodd" clip-rule="evenodd" d="M181.028 84.14C181.031 83.1695 181.035 82.1827 181.035 81.1703L181.061 81.1898C181.453 81.4838 181.7 81.6694 181.912 81.874C183.62 83.1554 187.79 83.2317 189.354 80.8781C190.268 79.5038 190.515 77.9469 190.515 76.3535C190.535 67.7912 190.535 59.231 190.515 50.6731C190.506 49.8281 190.404 48.9866 190.211 48.1635C189.698 45.9427 188.483 44.3161 186.065 44.0007C183.987 43.7451 182.059 44.0505 180.781 45.9925C180.668 46.1107 180.539 46.2134 180.398 46.2979C180.345 45.9159 180.312 45.5314 180.301 45.146C180.321 44.4721 180.024 44.253 179.357 44.2962C178.83 44.3227 178.3 44.3139 177.77 44.305C177.505 44.3006 177.24 44.2962 176.975 44.2962C176.431 44.2962 176.162 44.2962 176.029 44.4308C175.898 44.5628 175.898 44.8242 175.898 45.3418V84.8451C175.898 85.417 175.901 85.9893 175.904 86.5618C175.91 87.707 175.916 88.8528 175.898 89.9971C175.888 90.5481 176.028 90.7772 176.632 90.7539C177.753 90.6909 178.877 90.6909 179.998 90.7539C180.861 90.817 181.052 90.5116 181.035 89.7016C181.015 87.8647 181.021 86.0335 181.028 84.14ZM185.449 59.4473C185.447 60.7925 185.445 62.1378 185.445 63.4834C185.445 67.4371 185.451 71.404 185.461 75.3543C185.458 76.5992 185.064 77.2531 184.217 77.5087C183.164 77.856 182.007 77.4623 181.388 76.5461C181.182 76.2299 181.067 75.8637 181.055 75.4871V51.5163C181.055 50.3279 182.072 49.4183 183.39 49.3851C184.708 49.3519 185.445 49.9992 185.445 51.3769C185.458 54.0678 185.454 56.7573 185.449 59.4473Z" fill="black"/>
<path d="M152.622 82.1861C150.991 82.1861 149.463 82.1861 147.952 82.1661C147.808 82.1661 147.618 81.8939 147.545 81.7114C147.511 81.5248 147.511 81.3336 147.545 81.147C147.545 69.1965 147.538 57.2537 147.525 45.3186C147.525 44.4854 147.735 44.2066 148.572 44.2763C149.448 44.3294 150.325 44.3294 151.201 44.2763C151.744 44.2497 151.935 44.4721 151.958 44.9767C151.978 45.4282 152.048 45.8763 152.118 46.507L152.685 45.8431C154.27 43.9045 156.992 43.1476 159.113 44.0505C160.961 44.8406 161.545 46.4639 161.835 48.2332C161.976 49.177 162.041 50.1306 162.028 51.0848C162.028 61.1166 162.028 71.1517 162.058 81.1835C162.058 82.0334 161.822 82.2724 160.998 82.2226C159.904 82.1529 158.806 82.1529 157.712 82.2226C156.901 82.2724 156.845 81.8906 156.848 81.2433C156.861 71.4837 156.861 61.723 156.848 51.9611C156.857 51.3351 156.819 50.7093 156.735 50.0889C156.601 49.2092 156.068 48.761 155.167 48.7212C153.669 48.6482 152.652 49.5909 152.648 51.0449V82.1894L152.622 82.1861Z" fill="black"/>
<path fill-rule="evenodd" clip-rule="evenodd" d="M198.998 68.9409V63.9615L200.052 63.9747C200.822 63.9747 201.595 63.9722 202.368 63.9696C203.921 63.9644 205.479 63.9592 207.037 63.9747C207.624 63.9814 207.864 63.822 207.864 63.1946C207.845 61.2574 207.846 59.3201 207.848 57.3832C207.849 55.2311 207.85 53.0795 207.824 50.9287C207.804 49.1693 207.497 47.4299 206.366 45.9958C204.675 43.848 202.32 43.4862 199.782 43.7617C197.5 44.0074 195.736 45.1194 194.978 47.2938C194.517 48.6864 194.281 50.143 194.278 51.6092C194.229 57.2468 194.237 62.8809 194.245 68.5128C194.248 70.6243 194.251 72.7355 194.251 74.8464C194.24 75.6368 194.289 76.427 194.398 77.21C194.721 79.3246 195.562 81.1437 197.63 82.113C199.111 82.8101 200.699 82.8599 202.3 82.6674C205.302 82.3056 207.46 80.2507 207.637 77.2631C207.784 74.8071 207.799 72.3419 207.814 69.8785C207.819 69.0456 207.824 68.2128 207.834 67.3807C207.851 67.1948 207.634 66.8429 207.517 66.8429C206.056 66.8163 204.588 66.8163 203.054 66.8163V67.8288C203.054 68.6363 203.057 69.4442 203.06 70.2524C203.066 71.8694 203.072 73.4874 203.054 75.1054C203.044 76.0016 202.901 76.8714 201.98 77.3295C200.462 78.0864 199.035 77.1436 198.998 75.3211C198.98 73.9027 198.986 72.4857 198.992 71.0682C198.995 70.3593 198.998 69.6503 198.998 68.9409ZM203.081 57.2725V60.2601C202.738 60.2601 202.403 60.2615 202.075 60.2629C201.168 60.2667 200.309 60.2703 199.452 60.2435C199.23 60.1647 199.066 59.9755 199.021 59.7456V59.7455C198.995 56.8575 198.968 53.9695 199.021 51.0814C199.041 49.7005 199.832 48.9868 201.043 49.01C202.253 49.0332 203.031 49.8333 203.061 51.2242C203.093 52.7166 203.088 54.209 203.084 55.7028C203.082 56.2258 203.081 56.7491 203.081 57.2725Z" fill="black"/>
<path d="M237.378 57.1297H232.822V56.2334C232.822 54.4907 232.852 52.7445 232.802 50.9984C232.758 49.3619 231.401 48.4556 229.913 48.9901C229.049 49.3021 228.792 50.0391 228.769 50.8059C228.682 52.549 228.693 54.2957 228.802 56.0376C228.884 56.8746 229.21 57.6696 229.74 58.3248C231.264 60.1439 232.945 61.8303 234.526 63.603C235.193 64.3532 235.917 65.1233 236.338 66.013C236.885 67.1748 237.412 68.4529 237.492 69.7077C237.657 72.3422 237.65 74.9846 237.472 77.6183C237.285 80.274 235.694 82.0267 233.035 82.4616C231.449 82.7332 229.829 82.7444 228.239 82.4948C225.773 82.0798 224.139 80.264 223.902 77.771C223.679 75.2249 223.725 72.6555 223.695 70.0928C223.763 69.8433 223.956 69.6471 224.206 69.5749C225.41 69.5284 226.617 69.5583 227.822 69.5483C228.335 69.5483 228.375 69.8471 228.375 70.2421C228.375 72.0148 228.345 73.7908 228.392 75.5535C228.439 77.2465 229.763 78.1361 231.324 77.6116C232.238 77.3062 232.502 76.5593 232.522 75.756C232.572 74.0132 232.555 72.2671 232.522 70.521C232.488 68.9575 231.471 67.8653 230.52 66.7698C229.219 65.2594 227.908 63.7523 226.517 62.3249C224.717 60.5616 223.703 58.1531 223.702 55.6392C223.702 53.5711 223.652 51.4897 223.835 49.4316C224.169 45.7269 226.17 43.8646 229.926 43.6953C231.101 43.6486 232.277 43.7523 233.426 44.004C235.997 44.5584 237.161 46.4473 237.312 48.8573C237.495 51.5694 237.378 54.3014 237.378 57.1297Z" fill="black"/>
<path d="M142.683 50.4862H138.126V49.3567C138.126 47.1607 138.156 44.9605 138.106 42.7602C138.063 40.698 136.705 39.5561 135.218 40.2295C134.354 40.6227 134.097 41.5513 134.074 42.5176C133.986 44.7141 133.997 46.915 134.107 49.11C134.189 50.1646 134.515 51.1664 135.044 51.992C136.569 54.2843 138.25 56.4092 139.831 58.6429C140.498 59.5883 141.222 60.5587 141.642 61.6798C142.189 63.1438 142.716 64.7542 142.796 66.3354C142.961 69.6551 142.955 72.9848 142.776 76.3034C142.59 79.6498 140.998 81.8584 138.34 82.4064C136.754 82.7486 135.133 82.7627 133.543 82.4482C131.078 81.9253 129.444 79.6372 129.207 76.4958C128.983 73.2875 129.03 70.0499 129 66.8206C129.068 66.5063 129.261 66.259 129.51 66.1681C130.715 66.1095 131.922 66.1472 133.126 66.1346C133.64 66.1346 133.68 66.5111 133.68 67.0089C133.68 69.2426 133.65 71.4805 133.697 73.7016C133.743 75.8349 135.068 76.956 136.629 76.295C137.543 75.9102 137.806 74.969 137.826 73.9568C137.876 71.7607 137.86 69.5605 137.826 67.3602C137.793 65.3901 136.775 64.0139 135.825 62.6335C134.524 60.7302 133.213 58.8312 131.822 57.0325C130.022 54.8105 129.007 51.7757 129.007 48.608C129.007 46.002 128.957 43.3793 129.14 40.7859C129.474 36.1177 131.475 33.771 135.231 33.5577C136.406 33.4988 137.582 33.6295 138.73 33.9467C141.302 34.6453 142.466 37.0254 142.616 40.0622C142.8 43.4797 142.683 46.9223 142.683 50.4862Z" fill="black"/>
<path d="M216.467 46.3975C216.801 45.956 217.017 45.6273 217.271 45.3286C218.195 44.2043 219.662 43.67 221.097 43.9344C221.354 43.9675 221.764 44.3227 221.764 44.5385C221.821 46.2249 221.798 47.9145 221.798 49.4648C220.897 49.418 219.995 49.4247 219.096 49.4847C217.741 49.6507 217.041 50.5337 217.041 51.8715C217.041 61.6311 217.046 71.3907 217.058 81.1504C217.058 81.9471 216.907 82.2857 216.027 82.2126C214.989 82.1346 213.946 82.1346 212.908 82.2126C212.077 82.2691 211.907 81.9437 211.924 81.1869C211.954 76.0349 211.924 70.8795 211.924 65.7275C211.924 58.9124 211.924 52.0972 211.907 45.2821C211.907 44.4887 212.131 44.2165 212.925 44.2862C213.744 44.3443 214.567 44.3443 215.386 44.2862C216.053 44.2431 216.354 44.4954 216.367 45.146C216.387 45.5112 216.427 45.873 216.467 46.3975Z" fill="black"/>
<path d="M166.245 44.1833H171.249V82.0798H166.245V44.1833Z" fill="black"/>
<path fill-rule="evenodd" clip-rule="evenodd" d="M64.3647 67.3087C65.9106 67.3087 67.342 67.3087 68.7735 67.3322C68.9217 67.3322 69.1911 67.6675 69.1877 67.852C69.1877 68.5993 69.1943 69.3475 69.2008 70.0959V70.0965V70.097V70.0976V70.0981V70.0987C69.2224 72.5765 69.2441 75.0565 69.0294 77.5127C68.6286 82.0966 65.2134 83.8839 61.1617 83.4346C56.9112 82.9551 55.1631 79.9405 55.0992 76.0574C55.0452 71.9891 55.055 67.9209 55.0647 63.8537V63.8532V63.8527V63.8522V63.8516V63.8511C55.069 62.0794 55.0732 60.3078 55.0722 58.5366V57.5306C54.6452 57.825 54.2252 58.1087 53.8124 58.3875L53.8123 58.3876L53.8123 58.3876L53.8123 58.3876L53.8122 58.3876L53.8122 58.3877C52.9227 58.9885 52.0662 59.567 51.2427 60.183C51.0103 60.3574 50.9295 60.8537 50.9295 61.189C50.9115 67.9671 50.9115 74.7451 50.9295 81.5232V82.945C49.2691 82.945 47.6995 82.945 46.1334 82.9282C46.0121 82.9282 45.8269 82.717 45.7966 82.5929C45.757 82.3479 45.748 82.099 45.7696 81.8518V62.8053C43.9307 63.1406 42.1759 63.4759 40.4279 63.8347C40.2023 63.9425 40.0412 64.1502 39.9934 64.3947C39.9518 64.8339 39.9439 65.2756 39.9699 65.7159C39.9699 67.0012 39.9689 68.2864 39.9679 69.5717V69.5718V69.572V69.5721V69.5722V69.5723V69.5737C39.9649 73.6867 39.9618 77.8001 39.9901 81.9155C39.9901 82.7438 39.7779 83.0422 38.9224 82.9852C37.8444 82.9215 36.7636 82.9215 35.6857 82.9852C34.9683 83.0221 34.8066 82.7438 34.8066 82.0832C34.8153 79.6402 34.8165 77.1972 34.8178 74.7541C34.8194 71.4966 34.8211 68.2391 34.8403 64.9816C34.8403 64.1499 34.6146 63.8716 33.7659 63.7543C25.8128 62.6365 19.5134 58.8138 14.8677 52.2861C11.9641 48.1879 10.2903 43.3524 10.0413 38.3432C10.0223 38.23 9.9964 38.118 9.96384 38.0079C9.81641 38.0079 9.66327 37.9965 9.50764 37.985H9.50761H9.50758H9.50754H9.5075H9.50747C9.34673 37.9731 9.18332 37.961 9.02079 37.961H1.54371C1.47167 37.961 1.39344 37.968 1.31479 37.975L1.31469 37.975C1.12128 37.9923 0.925362 38.0099 0.812838 37.9241C0.476032 37.6659 0.041553 37.3205 0.00113633 36.9717C-0.0258081 36.6934 0.432247 36.3011 0.755581 36.0731C0.894204 35.9745 1.11834 35.99 1.33705 36.0052C1.41592 36.0106 1.49409 36.0161 1.56728 36.0161H8.9568C9.21823 36.0161 9.46545 35.9999 9.64807 35.988C9.70072 35.9845 9.748 35.9814 9.78871 35.9792C11.8365 20.2825 20.6439 11.5305 36.4233 9.48839V7.45966V1.92342C36.4233 0.991214 36.7163 0.565349 37.3529 0.54523C37.9894 0.52511 38.333 0.967741 38.3363 1.95695C38.3363 2.71939 38.339 3.48182 38.3416 4.24413V4.2445V4.24487V4.24524V4.24562V4.24599C38.3468 5.76961 38.3521 7.29274 38.3363 8.81438C38.3363 9.43809 38.4845 9.67617 39.1447 9.72982C46.2176 10.2999 52.2498 13.1032 57.1402 18.2371C60.5184 21.7312 62.8511 26.094 63.8763 30.8353C64.1641 32.2378 64.3643 33.6567 64.4758 35.0839C64.5398 35.778 64.7217 36.0295 65.4559 36.0161C67.2193 35.9845 68.9826 35.9899 70.7459 35.9952C71.4177 35.9973 72.0895 35.9993 72.7612 35.9993H73.5089C74.1017 36.0496 74.5194 36.3346 74.5194 36.9684C74.5194 37.6022 74.095 37.9073 73.5089 37.9274C72.9565 37.9431 72.4025 37.9379 71.849 37.9326H71.8486H71.8482H71.8478C71.5717 37.93 71.2956 37.9274 71.02 37.9274H65.2943C65.0383 37.9274 64.5937 38.1487 64.5634 38.3231C64.3244 39.7979 64.1243 41.2809 63.9328 42.7004L63.9326 42.7018L63.9325 42.7022L63.9321 42.7055L63.9313 42.7114C63.8777 43.1085 63.8248 43.5006 63.7719 43.8862C64.0724 44.0457 64.3809 44.1946 64.6892 44.3433C65.4177 44.6949 66.1451 45.0459 66.7627 45.536C68.4905 46.9075 68.9856 48.9295 69.0564 51.0052C69.1138 52.7967 69.1068 54.5897 69.0997 56.3822V56.3827V56.3829V56.383V56.3831V56.3832V56.3833C69.0956 57.4288 69.0915 58.4742 69.1002 59.5191C69.1002 59.9953 68.9284 60.1428 68.4703 60.1327C67.3353 60.1093 66.2003 60.0992 65.0686 60.1327C64.5028 60.1529 64.3714 59.9282 64.3748 59.4084C64.395 56.8465 64.395 54.2835 64.3748 51.7194C64.3748 50.3781 63.8763 49.6471 62.8491 49.3721C61.9801 49.1307 61.5793 49.3721 61.0572 50.1031C60.2826 51.1963 60.1108 52.3632 60.1176 53.6744C60.15 58.5614 60.1474 63.4468 60.1448 68.3329V68.333V68.3331V68.3333V68.3334V68.3336V68.3411C60.1436 70.5598 60.1424 72.7786 60.1445 74.9978C60.1308 75.4653 60.1579 75.9332 60.2253 76.3961C60.4409 77.6368 61.064 78.1767 62.2192 78.1968C63.3745 78.2169 64.0077 77.7541 64.2838 76.5201C64.3557 76.1422 64.3874 75.7578 64.3782 75.3733V68.2644L64.3647 67.3087ZM58.6053 36.3547C58.9017 25.4734 48.8379 15.2996 37.8042 15.6047V25.4231C38.221 25.4231 38.634 25.4257 39.0445 25.4284H39.0445H39.0446H39.0446H39.0446H39.0447C39.8581 25.4336 40.6617 25.4387 41.4653 25.4231C42.1389 25.4231 42.3915 25.631 42.1389 26.3989H37.7234V33.6788C37.7234 34.2489 38.0602 34.2791 38.4812 34.2757H45.9482C46.8195 34.2757 47.2532 34.2757 47.4835 34.0593C47.7117 33.8449 47.7403 33.4181 47.7972 32.5684V32.5683L47.8006 32.5186C47.8119 32.363 47.9482 32.2165 48.0864 32.0679C48.1537 31.9955 48.2214 31.9226 48.2755 31.848C48.3217 31.9114 48.3756 31.9733 48.4294 32.0353L48.4294 32.0353L48.4295 32.0354L48.4295 32.0354L48.4295 32.0354L48.4295 32.0354C48.5521 32.1764 48.6749 32.3177 48.71 32.4784C48.7589 32.8333 48.7589 33.1932 48.71 33.5481C48.6695 34.0812 48.8817 34.2858 49.4274 34.2757C50.2377 34.2578 51.048 34.2638 51.8593 34.2698C52.2654 34.2727 52.6717 34.2757 53.0783 34.2757H53.0784C53.7629 34.2757 54.0996 34.2757 54.275 34.444C54.4449 34.6069 54.4634 34.9277 54.4997 35.5593L54.503 35.617C54.503 35.8719 54.7522 36.3246 54.9038 36.3313C55.8214 36.3686 56.7409 36.3634 57.6554 36.3583H57.6556C57.9728 36.3565 58.2895 36.3547 58.6053 36.3547ZM33.6136 25.4162C33.1963 25.4196 32.7712 25.4231 32.3345 25.4231V26.3419H36.7769V28.9138C36.7769 29.41 36.7739 29.9058 36.771 30.4013L36.7709 30.4024V30.4027V30.403V30.4033V30.4035C36.765 31.3942 36.759 32.384 36.7769 33.3737C36.7904 33.9873 36.6523 34.2455 35.9551 34.2455C33.163 34.212 30.3709 34.2221 27.5788 34.2455C27.0062 34.2489 26.7536 34.0779 26.8109 33.4944C26.8203 33.3536 26.8143 33.212 26.8083 33.0704C26.8015 32.9086 26.7947 32.7466 26.8109 32.5857C26.8749 31.915 26.5987 31.687 25.8207 31.915C25.8207 32.0944 25.817 32.2763 25.8133 32.46C25.8058 32.8325 25.7981 33.2121 25.8207 33.5917C25.8543 34.1148 25.6455 34.2623 25.147 34.2623C24.669 34.2623 24.1903 34.2657 23.7113 34.269H23.7112H23.7111H23.711H23.711C22.7523 34.2757 21.7926 34.2824 20.8359 34.2623C20.2533 34.2489 20.0781 34.4434 20.0781 35.0201C20.0803 35.1812 20.0847 35.3231 20.0885 35.4481V35.4482V35.4482C20.1019 35.8836 20.1089 36.1133 19.9977 36.2337C19.8735 36.3682 19.6019 36.3665 19.0271 36.3628C18.9238 36.3622 18.8108 36.3614 18.6871 36.3614H15.7771C15.8221 35.9689 15.8544 35.5863 15.886 35.2118C15.9419 34.5499 15.9956 33.9131 16.1139 33.2899C17.4443 26.3419 21.2199 21.1611 27.5013 17.8212C30.0825 16.4813 32.9157 15.6911 35.8204 15.5008C36.6018 15.4404 36.7904 15.6819 36.7904 16.4464C36.75 19.1693 36.7601 21.8955 36.7904 24.6217C36.7971 25.2387 36.6085 25.4466 35.9888 25.4231C35.2079 25.4032 34.4256 25.4096 33.6136 25.4162ZM32.3547 48.2253V47.2394C32.5589 47.2394 32.7574 47.2363 32.9514 47.2333C33.3267 47.2274 33.6856 47.2217 34.0387 47.2394C34.5742 47.2663 34.8235 47.1087 34.8134 46.5051C34.7819 44.3858 34.7819 42.2621 34.8134 40.1339C34.8134 39.4632 34.5405 39.3526 33.968 39.3593C32.751 39.3749 31.534 39.3697 30.317 39.3645C29.7085 39.3619 29.1 39.3593 28.4915 39.3593C26.8378 39.3593 26.8075 39.3593 26.8075 40.9957C26.8075 41.7468 26.5246 41.9077 25.7971 41.6663C25.7971 41.5011 25.7929 41.3385 25.7887 41.178C25.7805 40.8629 25.7725 40.5556 25.7971 40.2512C25.8644 39.5806 25.6489 39.3257 24.9349 39.3526C24.1006 39.3843 23.2653 39.3785 22.4294 39.3726H22.4291H22.4288H22.4284C21.854 39.3685 21.2793 39.3645 20.7046 39.3727C20.2533 39.3727 20.031 39.2352 20.0579 38.759C20.0579 38.687 20.0553 38.6143 20.0527 38.541V38.5409V38.5409V38.5408C20.0475 38.3922 20.0421 38.241 20.0579 38.0884C20.1455 37.4177 19.8221 37.2266 19.1957 37.2534C18.3385 37.297 17.4797 37.297 16.6225 37.2534C15.8815 37.2098 15.6929 37.5418 15.8142 38.189C15.9128 38.7075 15.9941 39.2319 16.0753 39.7563C16.2521 40.8971 16.4288 42.0375 16.7842 43.1149C19.226 50.5525 24.332 55.2973 31.8596 57.4736C32.4778 57.6521 33.1179 57.7587 33.7554 57.8649C34.0522 57.9144 34.3484 57.9637 34.6416 58.0202C34.6905 57.8944 34.7266 57.7641 34.7494 57.6312C34.7494 54.687 34.7494 51.7395 34.7662 48.792C34.7662 48.2957 34.5372 48.1851 34.0926 48.1951C33.6642 48.2428 33.1933 48.2412 32.6682 48.2394H32.6681C32.5657 48.2391 32.4613 48.2387 32.3547 48.2387V48.2253ZM34.7822 60.6032L34.7822 60.6039L34.782 60.6051C34.7747 60.6729 34.7669 60.7458 34.7595 60.8269V60.8403C26.666 60.4614 16.1678 54.0097 13.4801 42.1727C10.7231 30.0418 17.6254 17.7998 29.4628 13.8255C41.3003 9.85125 54.2392 15.4318 59.4237 26.7476C64.8733 38.7188 59.6258 51.1426 51.0642 56.7225C50.6297 55.4717 50.8722 54.6233 51.8086 53.7951C56.1769 49.9321 58.804 45.1671 59.518 39.3459C60.8585 28.441 53.7519 17.9084 42.6475 15.1286C31.543 12.3487 19.9636 18.5623 16.1139 29.3297C14.1203 34.9406 14.4568 41.1115 17.049 46.4745C19.6412 51.8376 24.2749 55.9497 29.9229 57.8995C31.136 58.2901 32.3736 58.6004 33.6278 58.8283L33.7672 58.8565C34.8346 59.0712 34.8456 59.0734 34.81 60.2836C34.8057 60.3851 34.7948 60.4865 34.7822 60.6031L34.7822 60.6032ZM58.5952 37.354C58.526 37.3323 58.455 37.3166 58.383 37.3071H55.8906C54.5266 37.3071 54.4996 37.3071 54.4996 38.6484C54.4996 39.2285 54.3009 39.423 53.7284 39.4096C52.9357 39.3894 52.1431 39.3962 51.3505 39.4029C50.9542 39.4062 50.5579 39.4096 50.1616 39.4096C50.0408 39.4096 49.93 39.4089 49.8284 39.4084C49.2296 39.405 48.9509 39.4035 48.8225 39.5416C48.7107 39.6618 48.7127 39.888 48.7165 40.311C48.7177 40.4524 48.7192 40.6158 48.7167 40.8045C48.7467 40.9942 48.7387 41.188 48.6931 41.3746C48.6055 41.5523 48.4001 41.7803 48.2418 41.7837C48.0321 41.7389 47.8618 41.5872 47.7938 41.3846C47.7427 40.9472 47.7337 40.5059 47.7669 40.0668C47.7871 39.6242 47.6355 39.3962 47.1573 39.3962C44.9445 39.3962 42.7283 39.3962 40.5155 39.4263C40.2615 39.4936 40.0626 39.6903 39.9934 39.9427C39.9553 42.2028 39.9553 44.4618 39.9934 46.7197C39.9934 46.9008 40.31 47.1992 40.5087 47.226C41.059 47.2671 41.6112 47.275 42.1625 47.2495C42.3645 47.9973 42.1827 48.3058 41.5192 48.2555C41.3931 48.2434 41.2643 48.249 41.1357 48.2546H41.1356H41.1355C41.0133 48.26 40.8912 48.2653 40.7714 48.2555C40.1753 48.1884 39.9463 48.3896 39.953 49.0301C39.9732 50.8653 39.9665 52.702 39.9597 54.5392C39.9564 55.458 39.953 56.377 39.953 57.2959C39.9736 57.5928 40.0107 57.8883 40.0642 58.1811C40.5789 58.0349 41.0823 57.891 41.578 57.7492L41.5837 57.7476L41.5846 57.7474C42.7572 57.4122 43.8871 57.0892 45.0219 56.7761C45.5945 56.6185 45.7663 56.2933 45.7629 55.6997C45.7427 53.4661 45.7494 51.2325 45.7562 48.9919V48.9915L45.7562 48.9891C45.7595 47.8669 45.7629 46.743 45.7629 45.6165V44.7111H50.9362V53.1814C55.0992 50.586 59.4271 41.6093 58.6053 37.3574L58.5952 37.354ZM45.5103 59.6163C43.7301 60.2919 41.8665 60.725 39.9698 60.904C39.9409 60.4114 39.9432 59.9175 39.9766 59.4252C40.0308 59.2039 40.1869 59.0211 40.3976 58.9323C41.7028 58.608 43.0136 58.3061 44.3535 57.9974C44.815 57.891 45.28 57.7839 45.7494 57.6748C45.7494 57.8212 45.7526 57.9747 45.7559 58.1327C45.7627 58.4631 45.7699 58.8132 45.7494 59.1603C45.744 59.3407 45.6559 59.5087 45.5103 59.6163Z" fill="#022B69"/>
<rect x="36.7129" y="29.3833" width="1.01042" height="14.7544" fill="#FF0000"/>
<path fill-rule="evenodd" clip-rule="evenodd" d="M44.6279 36.2575V37.2635H29.8085V36.2575H44.6279Z" fill="#FF0000"/>
<path d="M89.1029 82.955C87.2808 82.955 85.6002 82.9785 83.9195 82.9282C83.7107 82.9282 83.4008 82.5459 83.3267 82.2877C81.8448 77.1036 80.3797 71.915 78.9314 66.7219C78.7359 65.9113 78.4792 65.1166 78.1635 64.3444C78.1433 64.5624 78.1062 64.7804 78.1062 65.0151C78.1062 70.7156 78.1062 76.4162 78.1534 82.1167C78.1534 82.8176 77.9311 83.0154 77.2541 82.9852C76.1225 82.9349 74.984 82.945 73.8524 82.9852C73.2259 83.0087 73.0003 82.7673 73.0508 82.167C73.0845 81.7848 73.0508 81.3958 73.0508 81.0102V43.068C73.0508 41.901 73.0508 41.901 74.2262 41.901H78.1029V60.1964L78.2881 60.2333C78.6519 59.1368 79.0055 58.0403 79.376 56.9505C80.6862 53.1244 82.0098 49.3017 83.3031 45.4723C83.5052 44.872 83.7713 44.5971 84.4685 44.6306C85.9168 44.6977 87.3751 44.6507 88.9514 44.6507C88.1262 46.9309 87.3583 49.0703 86.5769 51.2063C85.4284 54.3584 84.2529 57.5004 83.1347 60.6659C82.9845 61.1286 82.9716 61.6246 83.0977 62.0944C85.004 68.7305 86.9474 75.3566 88.8773 81.9893C88.9581 82.2475 89.0019 82.5124 89.1029 82.955Z" fill="#022B69"/>
<path fill-rule="evenodd" clip-rule="evenodd" d="M104.807 70.7408C104.831 69.6183 104.854 68.4864 104.893 67.3423C104.427 67.3423 103.982 67.3454 103.553 67.3484C102.57 67.3552 101.668 67.3615 100.787 67.3288C100.11 67.302 99.891 67.4898 99.891 68.194C99.9112 69.8101 99.9045 71.4248 99.8978 73.04C99.8944 73.8477 99.891 74.6556 99.891 75.4639C99.9022 75.8767 99.8672 76.2894 99.7866 76.6945C99.534 77.7676 98.8638 78.2437 97.7388 78.2202C96.7082 78.2001 96.1626 77.7474 95.9302 76.6543C95.8482 76.2514 95.8065 75.8414 95.8056 75.4303V65.4342C95.8056 65.2334 95.8223 65.0292 95.8416 64.7934C95.8497 64.6947 95.8582 64.5904 95.8662 64.4786H104.67C104.713 64.4006 104.745 64.3171 104.765 64.2304C104.766 62.9317 104.775 61.6327 104.784 60.3337C104.806 57.2257 104.828 54.118 104.738 51.0152C104.6 46.7465 102.545 44.4663 98.6752 44.0807C96.368 43.8392 94.1889 44.2383 92.6127 46.1865C91.4844 47.5781 91.0667 49.2514 91.0667 50.975C91.0285 59.5392 91.0285 68.1034 91.0667 76.6677C91.0735 78.3309 91.4608 79.9539 92.5352 81.312C94.0441 83.2233 96.1693 83.5989 98.4225 83.4882C101.791 83.3239 104.212 81.3857 104.485 78.2672C104.7 75.7842 104.753 73.2866 104.807 70.7408ZM99.8978 51.8502V55.8741C99.8978 56.219 99.8965 56.565 99.8952 56.9122C99.8915 57.9593 99.8876 59.0181 99.918 60.0959C99.9314 60.6693 99.7395 60.8772 99.1568 60.8503C98.3047 60.8135 97.4458 60.8202 96.5937 60.8503C96.038 60.8705 95.8056 60.6927 95.8056 60.1026C95.8174 58.8824 95.8149 57.6616 95.8124 56.4407C95.8093 54.8868 95.8061 53.3327 95.8325 51.7798C95.8628 49.9254 97.0383 49.0334 98.6179 49.5901C99.5778 49.9254 99.8169 50.7134 99.8978 51.602V51.8502Z" fill="#022B69"/>
<path d="M117.883 79.0854C117.883 80.3965 117.903 81.6305 117.859 82.8645C117.859 83.0389 117.553 83.3206 117.354 83.3541C113.572 83.9778 109.981 82.489 109.19 77.9084C109.033 76.9024 108.962 75.8849 108.978 74.867C108.96 66.6582 108.96 58.4483 108.978 50.2373C108.978 49.1709 108.978 49.134 107.903 49.1609C107.277 49.1609 107.085 48.9697 107.108 48.3561C107.152 47.1757 107.108 45.992 107.108 44.758C107.297 44.7108 107.488 44.6772 107.681 44.6574C108.964 44.6071 108.964 44.6105 108.964 43.2926C108.964 42.6589 108.991 42.0251 108.964 41.3913C108.934 40.8381 109.109 40.5899 109.708 40.6033C110.982 40.6335 112.255 40.6302 113.528 40.6033C114.026 40.6033 114.225 40.7643 114.201 41.274C114.178 42.1827 114.218 43.0948 114.201 44.0002C114.201 44.5099 114.367 44.6708 114.875 44.6708C115.784 44.6373 116.697 44.6708 117.738 44.6708C117.738 46.0926 117.738 47.4574 117.711 48.8222C117.711 48.9395 117.374 49.1575 117.172 49.1575C116.401 49.1977 115.626 49.191 114.852 49.1743C114.387 49.1743 114.178 49.3621 114.215 49.8147C114.215 50.0059 114.215 50.2004 114.215 50.3915C114.215 58.5735 114.215 66.7554 114.215 74.9374C114.21 75.4607 114.24 75.9838 114.303 76.5034C114.518 78.2035 115.438 79.0116 117.179 79.0753C117.374 79.0519 117.566 79.0653 117.883 79.0854Z" fill="#022B69"/>
<path fill-rule="evenodd" clip-rule="evenodd" d="M181.028 84.14C181.031 83.1695 181.035 82.1827 181.035 81.1703L181.061 81.1898C181.453 81.4838 181.7 81.6694 181.912 81.874C183.62 83.1554 187.79 83.2317 189.354 80.8781C190.268 79.5038 190.515 77.9469 190.515 76.3535C190.535 67.7912 190.535 59.231 190.515 50.6731C190.506 49.8281 190.404 48.9866 190.211 48.1635C189.698 45.9427 188.483 44.3161 186.065 44.0007C183.987 43.7451 182.059 44.0505 180.781 45.9925C180.668 46.1107 180.539 46.2134 180.398 46.2979C180.345 45.9159 180.312 45.5314 180.301 45.146C180.321 44.4721 180.024 44.253 179.357 44.2962C178.83 44.3227 178.3 44.3139 177.77 44.305C177.505 44.3006 177.24 44.2962 176.975 44.2962C176.431 44.2962 176.162 44.2962 176.029 44.4308C175.898 44.5628 175.898 44.8242 175.898 45.3418V84.8451C175.898 85.417 175.901 85.9893 175.904 86.5618C175.91 87.707 175.916 88.8528 175.898 89.9971C175.888 90.5481 176.028 90.7772 176.632 90.7539C177.753 90.6909 178.877 90.6909 179.998 90.7539C180.861 90.817 181.052 90.5116 181.035 89.7016C181.015 87.8647 181.021 86.0335 181.028 84.14ZM185.449 59.4473C185.447 60.7925 185.445 62.1378 185.445 63.4834C185.445 67.4371 185.451 71.404 185.461 75.3543C185.458 76.5992 185.064 77.2531 184.217 77.5087C183.164 77.856 182.007 77.4623 181.388 76.5461C181.182 76.2299 181.067 75.8637 181.055 75.4871V51.5163C181.055 50.3279 182.072 49.4183 183.39 49.3851C184.708 49.3519 185.445 49.9992 185.445 51.3769C185.458 54.0678 185.454 56.7573 185.449 59.4473Z" fill="#022B69"/>
<path d="M152.622 82.1861C150.991 82.1861 149.463 82.1861 147.952 82.1661C147.808 82.1661 147.618 81.8939 147.545 81.7114C147.511 81.5248 147.511 81.3336 147.545 81.147C147.545 69.1965 147.538 57.2537 147.525 45.3186C147.525 44.4854 147.735 44.2066 148.572 44.2763C149.448 44.3294 150.325 44.3294 151.201 44.2763C151.744 44.2497 151.935 44.4721 151.958 44.9767C151.978 45.4282 152.048 45.8763 152.118 46.507L152.685 45.8431C154.27 43.9045 156.992 43.1476 159.113 44.0505C160.961 44.8406 161.545 46.4639 161.835 48.2332C161.976 49.177 162.041 50.1306 162.028 51.0848C162.028 61.1166 162.028 71.1517 162.058 81.1835C162.058 82.0334 161.822 82.2724 160.998 82.2226C159.904 82.1529 158.806 82.1529 157.712 82.2226C156.901 82.2724 156.845 81.8906 156.848 81.2433C156.861 71.4837 156.861 61.723 156.848 51.9611C156.857 51.3351 156.819 50.7093 156.735 50.0889C156.601 49.2092 156.068 48.761 155.167 48.7212C153.669 48.6482 152.652 49.5909 152.648 51.0449V82.1894L152.622 82.1861Z" fill="#022B69"/>
<path fill-rule="evenodd" clip-rule="evenodd" d="M198.998 68.9409V63.9615L200.052 63.9747C200.822 63.9747 201.595 63.9722 202.368 63.9696C203.921 63.9644 205.479 63.9592 207.037 63.9747C207.624 63.9814 207.864 63.822 207.864 63.1946C207.845 61.2574 207.846 59.3201 207.848 57.3832C207.849 55.2311 207.85 53.0795 207.824 50.9287C207.804 49.1693 207.497 47.4299 206.366 45.9958C204.675 43.848 202.32 43.4862 199.782 43.7617C197.5 44.0074 195.736 45.1194 194.978 47.2938C194.517 48.6864 194.281 50.143 194.278 51.6092C194.229 57.2468 194.237 62.8809 194.245 68.5128C194.248 70.6243 194.251 72.7355 194.251 74.8464C194.24 75.6368 194.289 76.427 194.398 77.21C194.721 79.3246 195.562 81.1437 197.63 82.113C199.111 82.8101 200.699 82.8599 202.3 82.6674C205.302 82.3056 207.46 80.2507 207.637 77.2631C207.784 74.8071 207.799 72.3419 207.814 69.8785C207.819 69.0456 207.824 68.2128 207.834 67.3807C207.851 67.1948 207.634 66.8429 207.517 66.8429C206.056 66.8163 204.588 66.8163 203.054 66.8163V67.8288C203.054 68.6363 203.057 69.4442 203.06 70.2524C203.066 71.8694 203.072 73.4874 203.054 75.1054C203.044 76.0016 202.901 76.8714 201.98 77.3295C200.462 78.0864 199.035 77.1436 198.998 75.3211C198.98 73.9027 198.986 72.4857 198.992 71.0682C198.995 70.3593 198.998 69.6503 198.998 68.9409ZM203.081 57.2725V60.2601C202.738 60.2601 202.403 60.2615 202.075 60.2629C201.168 60.2667 200.309 60.2703 199.452 60.2435C199.23 60.1647 199.066 59.9755 199.021 59.7456V59.7455C198.995 56.8575 198.968 53.9695 199.021 51.0814C199.041 49.7005 199.832 48.9868 201.043 49.01C202.253 49.0332 203.031 49.8333 203.061 51.2242C203.093 52.7166 203.088 54.209 203.084 55.7028C203.082 56.2258 203.081 56.7491 203.081 57.2725Z" fill="#022B69"/>
<path d="M237.378 57.1297H232.822V56.2334C232.822 54.4907 232.852 52.7445 232.802 50.9984C232.758 49.3619 231.401 48.4556 229.913 48.9901C229.049 49.3021 228.792 50.0391 228.769 50.8059C228.682 52.549 228.693 54.2957 228.802 56.0376C228.884 56.8746 229.21 57.6696 229.74 58.3248C231.264 60.1439 232.945 61.8303 234.526 63.603C235.193 64.3532 235.917 65.1233 236.338 66.013C236.885 67.1748 237.412 68.4529 237.492 69.7077C237.657 72.3422 237.65 74.9846 237.472 77.6183C237.285 80.274 235.694 82.0267 233.035 82.4616C231.449 82.7332 229.829 82.7444 228.239 82.4948C225.773 82.0798 224.139 80.264 223.902 77.771C223.679 75.2249 223.725 72.6555 223.695 70.0928C223.763 69.8433 223.956 69.6471 224.206 69.5749C225.41 69.5284 226.617 69.5583 227.822 69.5483C228.335 69.5483 228.375 69.8471 228.375 70.2421C228.375 72.0148 228.345 73.7908 228.392 75.5535C228.439 77.2465 229.763 78.1361 231.324 77.6116C232.238 77.3062 232.502 76.5593 232.522 75.756C232.572 74.0132 232.555 72.2671 232.522 70.521C232.488 68.9575 231.471 67.8653 230.52 66.7698C229.219 65.2594 227.908 63.7523 226.517 62.3249C224.717 60.5616 223.703 58.1531 223.702 55.6392C223.702 53.5711 223.652 51.4897 223.835 49.4316C224.169 45.7269 226.17 43.8646 229.926 43.6953C231.101 43.6486 232.277 43.7523 233.426 44.004C235.997 44.5584 237.161 46.4473 237.312 48.8573C237.495 51.5694 237.378 54.3014 237.378 57.1297Z" fill="#022B69"/>
<path d="M142.683 50.4862H138.126V49.3567C138.126 47.1607 138.156 44.9605 138.106 42.7602C138.063 40.698 136.705 39.5561 135.218 40.2295C134.354 40.6227 134.097 41.5513 134.074 42.5176C133.986 44.7141 133.997 46.915 134.107 49.11C134.189 50.1646 134.515 51.1664 135.044 51.992C136.569 54.2843 138.25 56.4092 139.831 58.6429C140.498 59.5883 141.222 60.5587 141.642 61.6798C142.189 63.1438 142.716 64.7542 142.796 66.3354C142.961 69.6551 142.955 72.9848 142.776 76.3034C142.59 79.6498 140.998 81.8584 138.34 82.4064C136.754 82.7486 135.133 82.7627 133.543 82.4482C131.078 81.9253 129.444 79.6372 129.207 76.4958C128.983 73.2875 129.03 70.0499 129 66.8206C129.068 66.5063 129.261 66.259 129.51 66.1681C130.715 66.1095 131.922 66.1472 133.126 66.1346C133.64 66.1346 133.68 66.5111 133.68 67.0089C133.68 69.2426 133.65 71.4805 133.697 73.7016C133.743 75.8349 135.068 76.956 136.629 76.295C137.543 75.9102 137.806 74.969 137.826 73.9568C137.876 71.7607 137.86 69.5605 137.826 67.3602C137.793 65.3901 136.775 64.0139 135.825 62.6335C134.524 60.7302 133.213 58.8312 131.822 57.0325C130.022 54.8105 129.007 51.7757 129.007 48.608C129.007 46.002 128.957 43.3793 129.14 40.7859C129.474 36.1177 131.475 33.771 135.231 33.5577C136.406 33.4988 137.582 33.6295 138.73 33.9467C141.302 34.6453 142.466 37.0254 142.616 40.0622C142.8 43.4797 142.683 46.9223 142.683 50.4862Z" fill="#022B69"/>
<path d="M216.467 46.3975C216.801 45.956 217.017 45.6273 217.271 45.3286C218.195 44.2043 219.662 43.67 221.097 43.9344C221.354 43.9675 221.764 44.3227 221.764 44.5385C221.821 46.2249 221.798 47.9145 221.798 49.4648C220.897 49.418 219.995 49.4247 219.096 49.4847C217.741 49.6507 217.041 50.5337 217.041 51.8715C217.041 61.6311 217.046 71.3907 217.058 81.1504C217.058 81.9471 216.907 82.2857 216.027 82.2126C214.989 82.1346 213.946 82.1346 212.908 82.2126C212.077 82.2691 211.907 81.9437 211.924 81.1869C211.954 76.0349 211.924 70.8795 211.924 65.7275C211.924 58.9124 211.924 52.0972 211.907 45.2821C211.907 44.4887 212.131 44.2165 212.925 44.2862C213.744 44.3443 214.567 44.3443 215.386 44.2862C216.053 44.2431 216.354 44.4954 216.367 45.146C216.387 45.5112 216.427 45.873 216.467 46.3975Z" fill="#022B69"/>
<path d="M166.245 44.1833H171.249V82.0798H166.245V44.1833Z" fill="#022B69"/>
</svg>
