<svg width="74" height="74" viewBox="0 0 74 74" fill="none" xmlns="http://www.w3.org/2000/svg">
<path fill-rule="evenodd" clip-rule="evenodd" d="M0 37C0 16.5974 16.5974 0 37 0C57.4026 0 74 16.5974 74 37C74 57.4026 57.4026 74 37 74C16.5974 74 0 57.4026 0 37ZM52.4169 57.0419C53.2061 57.0419 53.9954 56.7392 54.5967 56.138C55.802 54.9326 55.802 52.9843 54.5967 51.7783L40.0831 37.2654V18.5C40.0831 16.795 38.7022 15.4169 37 15.4169C35.2978 15.4169 33.9169 16.795 33.9169 18.5V38.5419C33.9169 39.3616 34.2404 40.1452 34.8202 40.7217L50.237 56.138C50.8377 56.7392 51.6276 57.0419 52.4169 57.0419Z" fill="#0066F5"/>
</svg>
