<svg width="12" height="27" viewBox="0 0 12 27" fill="none" xmlns="http://www.w3.org/2000/svg">
<path fill-rule="evenodd" clip-rule="evenodd" d="M3.03979 11.6707C3.03979 10.1552 4.26828 8.92676 5.7837 8.92676C7.2984 8.92849 8.52587 10.156 8.5276 11.6707C8.5276 13.1861 7.29911 14.4146 5.7837 14.4146C4.26828 14.4146 3.03979 13.1861 3.03979 11.6707ZM3.82377 11.6707C3.82377 12.7531 4.70126 13.6306 5.7837 13.6306C6.86563 13.6294 7.74241 12.7526 7.74363 11.6707C7.74363 10.5882 6.86614 9.71073 5.7837 9.71073C4.70126 9.71073 3.82377 10.5882 3.82377 11.6707Z" fill="#022B69"/>
<path d="M5.7837 8.92676L5.78375 8.87676H5.7837V8.92676ZM8.5276 11.6707H8.5776V11.6706L8.5276 11.6707ZM5.7837 13.6306V13.6806H5.78375L5.7837 13.6306ZM7.74363 11.6707L7.79363 11.6707V11.6707H7.74363ZM5.7837 8.87676C4.24067 8.87676 2.98979 10.1276 2.98979 11.6707H3.08979C3.08979 10.1829 4.2959 8.97676 5.7837 8.97676V8.87676ZM8.5776 11.6706C8.57584 10.1283 7.32602 8.87852 5.78375 8.87676L5.78364 8.97676C7.27077 8.97845 8.4759 10.1836 8.4776 11.6707L8.5776 11.6706ZM5.7837 14.4646C7.32673 14.4646 8.5776 13.2137 8.5776 11.6707H8.4776C8.4776 13.1585 7.2715 14.3646 5.7837 14.3646V14.4646ZM2.98979 11.6707C2.98979 13.2137 4.24067 14.4646 5.7837 14.4646V14.3646C4.2959 14.3646 3.08979 13.1585 3.08979 11.6707H2.98979ZM5.7837 13.5806C4.72887 13.5806 3.87377 12.7255 3.87377 11.6707H3.77377C3.77377 12.7807 4.67364 13.6806 5.7837 13.6806V13.5806ZM7.69363 11.6706C7.69244 12.725 6.83801 13.5794 5.78364 13.5806L5.78375 13.6806C6.89326 13.6793 7.79238 12.7802 7.79363 11.6707L7.69363 11.6706ZM5.7837 9.76073C6.83852 9.76073 7.69363 10.6158 7.69363 11.6707H7.79363C7.79363 10.5606 6.89375 9.66073 5.7837 9.66073V9.76073ZM3.87377 11.6707C3.87377 10.6158 4.72887 9.76073 5.7837 9.76073V9.66073C4.67364 9.66073 3.77377 10.5606 3.77377 11.6707H3.87377Z" fill="white"/>
<path fill-rule="evenodd" clip-rule="evenodd" d="M3.03979 5.57325C3.03979 4.05783 4.26828 2.82935 5.7837 2.82935C7.2984 2.83107 8.52587 4.05855 8.5276 5.57325C8.5276 7.08866 7.29911 8.31715 5.7837 8.31715C4.26828 8.31715 3.03979 7.08866 3.03979 5.57325ZM3.82377 5.57325C3.82377 6.65569 4.70126 7.53318 5.7837 7.53318C6.86563 7.53196 7.74241 6.65518 7.74363 5.57325C7.74363 4.49081 6.86614 3.61332 5.7837 3.61332C4.70126 3.61332 3.82377 4.49081 3.82377 5.57325Z" fill="#022B69"/>
<path d="M5.7837 2.82935L5.78375 2.77935H5.7837V2.82935ZM8.5276 5.57325H8.5776V5.57319L8.5276 5.57325ZM5.7837 7.53318V7.58318H5.78375L5.7837 7.53318ZM7.74363 5.57325L7.79363 5.5733V5.57325H7.74363ZM5.7837 2.77935C4.24067 2.77935 2.98979 4.03022 2.98979 5.57325H3.08979C3.08979 4.08545 4.2959 2.87935 5.7837 2.87935V2.77935ZM8.5776 5.57319C8.57584 4.03092 7.32602 2.78111 5.78375 2.77935L5.78364 2.87935C7.27077 2.88104 8.4759 4.08618 8.4776 5.57331L8.5776 5.57319ZM5.7837 8.36715C7.32673 8.36715 8.5776 7.11628 8.5776 5.57325H8.4776C8.4776 7.06105 7.2715 8.26715 5.7837 8.26715V8.36715ZM2.98979 5.57325C2.98979 7.11628 4.24067 8.36715 5.7837 8.36715V8.26715C4.2959 8.26715 3.08979 7.06105 3.08979 5.57325H2.98979ZM5.7837 7.48318C4.72887 7.48318 3.87377 6.62807 3.87377 5.57325H3.77377C3.77377 6.6833 4.67364 7.58318 5.7837 7.58318V7.48318ZM7.69363 5.57319C7.69244 6.62756 6.83801 7.48199 5.78364 7.48318L5.78375 7.58318C6.89326 7.58193 7.79238 6.68281 7.79363 5.5733L7.69363 5.57319ZM5.7837 3.66332C6.83852 3.66332 7.69363 4.51842 7.69363 5.57325H7.79363C7.79363 4.46319 6.89375 3.56332 5.7837 3.56332V3.66332ZM3.87377 5.57325C3.87377 4.51842 4.72887 3.66332 5.7837 3.66332V3.56332C4.67364 3.56332 3.77377 4.46319 3.77377 5.57325H3.87377Z" fill="white"/>
<path fill-rule="evenodd" clip-rule="evenodd" d="M3.03979 17.7683C3.03979 16.2529 4.26828 15.0244 5.7837 15.0244C7.2984 15.0261 8.52587 16.2536 8.5276 17.7683C8.5276 19.2837 7.29911 20.5122 5.7837 20.5122C4.26828 20.5122 3.03979 19.2837 3.03979 17.7683ZM3.82377 17.7683C3.82377 18.8508 4.70126 19.7282 5.7837 19.7282C6.86563 19.727 7.74241 18.8503 7.74363 17.7683C7.74363 16.6859 6.86614 15.8084 5.7837 15.8084C4.70126 15.8084 3.82377 16.6859 3.82377 17.7683Z" fill="#022B69"/>
<path d="M5.7837 15.0244L5.78375 14.9744H5.7837V15.0244ZM8.5276 17.7683H8.5776V17.7683L8.5276 17.7683ZM5.7837 19.7282V19.7782H5.78375L5.7837 19.7282ZM7.74363 17.7683L7.79363 17.7684V17.7683H7.74363ZM5.7837 14.9744C4.24067 14.9744 2.98979 16.2253 2.98979 17.7683H3.08979C3.08979 16.2805 4.2959 15.0744 5.7837 15.0744V14.9744ZM8.5776 17.7683C8.57584 16.226 7.32602 14.9762 5.78375 14.9744L5.78364 15.0744C7.27077 15.0761 8.4759 16.2812 8.4776 17.7684L8.5776 17.7683ZM5.7837 20.5622C7.32673 20.5622 8.5776 19.3113 8.5776 17.7683H8.4776C8.4776 19.2561 7.2715 20.4622 5.7837 20.4622V20.5622ZM2.98979 17.7683C2.98979 19.3113 4.24067 20.5622 5.7837 20.5622V20.4622C4.2959 20.4622 3.08979 19.2561 3.08979 17.7683H2.98979ZM5.7837 19.6782C4.72887 19.6782 3.87377 18.8231 3.87377 17.7683H3.77377C3.77377 18.8784 4.67364 19.7782 5.7837 19.7782V19.6782ZM7.69363 17.7683C7.69244 18.8226 6.83801 19.6771 5.78364 19.6782L5.78375 19.7782C6.89326 19.777 7.79238 18.8779 7.79363 17.7684L7.69363 17.7683ZM5.7837 15.8584C6.83852 15.8584 7.69363 16.7135 7.69363 17.7683H7.79363C7.79363 16.6583 6.89375 15.7584 5.7837 15.7584V15.8584ZM3.87377 17.7683C3.87377 16.7135 4.72887 15.8584 5.7837 15.8584V15.7584C4.67364 15.7584 3.77377 16.6583 3.77377 17.7683H3.87377Z" fill="white"/>
<path d="M6.45423 4.04883C6.25218 4.04883 6.08838 4.21263 6.08838 4.41468C6.08838 4.61674 6.25218 4.78054 6.45423 4.78054C6.85814 4.78101 7.18546 5.10833 7.18594 5.51224C7.18594 5.7143 7.34974 5.8781 7.55179 5.8781C7.75385 5.8781 7.91765 5.7143 7.91765 5.51224C7.91674 4.7044 7.26208 4.04974 6.45423 4.04883V4.04883Z" fill="#022B69" stroke="white" stroke-width="0.1"/>
<path d="M6.45423 10.1462C6.25218 10.1462 6.08838 10.31 6.08838 10.5121C6.08838 10.7141 6.25218 10.8779 6.45423 10.8779C6.85814 10.8784 7.18546 11.2057 7.18594 11.6097C7.18594 11.8117 7.34974 11.9755 7.55179 11.9755C7.75385 11.9755 7.91765 11.8117 7.91765 11.6097C7.91674 10.8018 7.26208 10.1471 6.45423 10.1462V10.1462Z" fill="#022B69" stroke="white" stroke-width="0.1"/>
<path d="M6.45423 16.2439C6.25218 16.2439 6.08838 16.4077 6.08838 16.6098C6.08838 16.8118 6.25218 16.9756 6.45423 16.9756C6.85814 16.9761 7.18546 17.3034 7.18594 17.7073C7.18594 17.9094 7.34974 18.0732 7.55179 18.0732C7.75385 18.0732 7.91765 17.9094 7.91765 17.7073C7.91674 16.8995 7.26208 16.2448 6.45423 16.2439V16.2439Z" fill="#022B69" stroke="white" stroke-width="0.1"/>
<path fill-rule="evenodd" clip-rule="evenodd" d="M11.5762 7.04839V3.01613C11.5762 2.79343 11.4007 2.6129 11.1842 2.6129H10.361C10.1736 1.67478 9.37135 1.00111 8.44031 1H3.73647C2.80553 1.00123 2.00342 1.67487 1.81599 2.6129H0.992572C0.776084 2.6129 0.600586 2.79343 0.600586 3.01613V7.04839C0.601315 7.71616 1.12738 8.25731 1.77654 8.25806V8.66129H0.992572C0.776084 8.66129 0.600586 8.84182 0.600586 9.06452V13.0968C0.601315 13.7645 1.12738 14.3057 1.77654 14.3065V14.7097H0.992572C0.776084 14.7097 0.600586 14.8902 0.600586 15.1129V19.1452C0.601315 19.8129 1.12738 20.3541 1.77654 20.3548H1.81599C2.00342 21.2929 2.80553 21.9665 3.73647 21.9677H4.52045V25.5968C4.52045 25.8195 4.69594 26 4.91243 26H7.26435C7.48084 26 7.65633 25.8195 7.65633 25.5968V21.9677H8.44031C9.37135 21.9666 10.1736 21.293 10.361 20.3548H10.4002C11.0494 20.3541 11.5755 19.8129 11.5762 19.1452V15.1129C11.5762 14.8902 11.4007 14.7097 11.1842 14.7097H10.4002V14.3065C11.0494 14.3057 11.5755 13.7645 11.5762 13.0968V9.06452C11.5762 8.84182 11.4007 8.66129 11.1842 8.66129H10.4002V8.25806C11.0494 8.25731 11.5755 7.71616 11.5762 7.04839ZM10.7922 7.04839C10.792 7.27098 10.6166 7.45136 10.4002 7.45161V3.41935H10.7922V7.04839ZM1.38456 3.41935V7.04839C1.3848 7.27098 1.56016 7.45136 1.77654 7.45161V3.41935H1.38456ZM1.38456 13.0968V9.46774H1.77654V13.5C1.56016 13.4998 1.3848 13.3194 1.38456 13.0968ZM1.38456 15.5161V19.1452C1.3848 19.3678 1.56016 19.5481 1.77654 19.5484V15.5161H1.38456ZM6.87236 25.1935H5.30442V21.9677H6.87236V25.1935ZM3.73647 21.1613H8.44031C9.08947 21.1605 9.61554 20.6194 9.61627 19.9516V3.01613C9.61554 2.34835 9.08947 1.8072 8.44031 1.80645H3.73647C3.08731 1.8072 2.56125 2.34835 2.56052 3.01613V19.9516C2.56125 20.6194 3.08731 21.1605 3.73647 21.1613ZM10.7922 15.5161V19.1452C10.792 19.3678 10.6166 19.5481 10.4002 19.5484V15.5161H10.7922ZM10.7922 13.0968V9.46774H10.4002V13.5C10.6166 13.4998 10.792 13.3194 10.7922 13.0968Z" fill="#022B69"/>
<path d="M11.5762 7.04839L11.6262 7.04844V7.04839H11.5762ZM10.361 2.6129L10.312 2.6227L10.32 2.6629H10.361V2.6129ZM8.44031 1L8.44037 0.95H8.44031V1ZM3.73647 1V0.95L3.73641 0.95L3.73647 1ZM1.81599 2.6129V2.6629H1.85699L1.86502 2.6227L1.81599 2.6129ZM0.600586 7.04839H0.550586L0.550586 7.04844L0.600586 7.04839ZM1.77654 8.25806H1.82654V8.20812L1.7766 8.20806L1.77654 8.25806ZM1.77654 8.66129V8.71129H1.82654V8.66129H1.77654ZM0.600586 13.0968H0.550586L0.550586 13.0968L0.600586 13.0968ZM1.77654 14.3065H1.82654V14.2565L1.7766 14.2565L1.77654 14.3065ZM1.77654 14.7097V14.7597H1.82654V14.7097H1.77654ZM0.600586 19.1452H0.550586L0.550586 19.1452L0.600586 19.1452ZM1.77654 20.3548L1.77649 20.4048H1.77654V20.3548ZM1.81599 20.3548L1.86502 20.345L1.85699 20.3048H1.81599V20.3548ZM3.73647 21.9677L3.73641 22.0177H3.73647V21.9677ZM4.52045 21.9677H4.57045V21.9177H4.52045V21.9677ZM7.65633 21.9677V21.9177H7.60633V21.9677H7.65633ZM8.44031 21.9677V22.0177H8.44037L8.44031 21.9677ZM10.361 20.3548V20.3048H10.32L10.312 20.345L10.361 20.3548ZM10.4002 20.3548V20.4048H10.4003L10.4002 20.3548ZM11.5762 19.1452L11.6262 19.1452V19.1452H11.5762ZM10.4002 14.7097H10.3502V14.7597H10.4002V14.7097ZM10.4002 14.3065L10.4002 14.2565L10.3502 14.2565V14.3065H10.4002ZM11.5762 13.0968L11.6262 13.0968V13.0968H11.5762ZM10.4002 8.66129H10.3502V8.71129H10.4002V8.66129ZM10.4002 8.25806L10.4002 8.20806L10.3502 8.20812V8.25806H10.4002ZM10.4002 7.45161H10.3502V7.50167L10.4003 7.50161L10.4002 7.45161ZM10.7922 7.04839L10.8422 7.04844V7.04839H10.7922ZM10.4002 3.41935V3.36935H10.3502V3.41935H10.4002ZM10.7922 3.41935H10.8422V3.36935H10.7922V3.41935ZM1.38456 7.04839H1.33456L1.33456 7.04844L1.38456 7.04839ZM1.38456 3.41935V3.36935H1.33456V3.41935H1.38456ZM1.77654 7.45161L1.77649 7.50161L1.82654 7.50167V7.45161H1.77654ZM1.77654 3.41935H1.82654V3.36935H1.77654V3.41935ZM1.38456 9.46774V9.41774H1.33456V9.46774H1.38456ZM1.38456 13.0968H1.33456L1.33456 13.0968L1.38456 13.0968ZM1.77654 9.46774H1.82654V9.41774H1.77654V9.46774ZM1.77654 13.5L1.77649 13.55L1.82654 13.5501V13.5H1.77654ZM1.38456 19.1452H1.33456L1.33456 19.1452L1.38456 19.1452ZM1.38456 15.5161V15.4661H1.33456V15.5161H1.38456ZM1.77654 19.5484L1.77649 19.5984L1.82654 19.5984V19.5484H1.77654ZM1.77654 15.5161H1.82654V15.4661H1.77654V15.5161ZM5.30442 25.1935H5.25442V25.2435H5.30442V25.1935ZM6.87236 25.1935V25.2435H6.92236V25.1935H6.87236ZM5.30442 21.9677V21.9177H5.25442V21.9677H5.30442ZM6.87236 21.9677H6.92236V21.9177H6.87236V21.9677ZM8.44031 21.1613V21.2113H8.44036L8.44031 21.1613ZM3.73647 21.1613L3.73642 21.2113H3.73647V21.1613ZM9.61627 19.9516L9.66627 19.9517V19.9516H9.61627ZM9.61627 3.01613H9.66627V3.01607L9.61627 3.01613ZM8.44031 1.80645L8.44036 1.75645H8.44031V1.80645ZM3.73647 1.80645V1.75645L3.73642 1.75645L3.73647 1.80645ZM2.56052 3.01613L2.51052 3.01607V3.01613H2.56052ZM2.56052 19.9516H2.51052L2.51052 19.9517L2.56052 19.9516ZM10.7922 19.1452L10.8422 19.1452V19.1452H10.7922ZM10.7922 15.5161H10.8422V15.4661H10.7922V15.5161ZM10.4002 19.5484H10.3502V19.5984L10.4003 19.5984L10.4002 19.5484ZM10.4002 15.5161V15.4661H10.3502V15.5161H10.4002ZM10.7922 9.46774H10.8422V9.41774H10.7922V9.46774ZM10.7922 13.0968L10.8422 13.0968V13.0968H10.7922ZM10.4002 9.46774V9.41774H10.3502V9.46774H10.4002ZM10.4002 13.5H10.3502V13.5501L10.4003 13.55L10.4002 13.5ZM11.5262 3.01613V7.04839H11.6262V3.01613H11.5262ZM11.1842 2.6629C11.3718 2.6629 11.5262 2.81971 11.5262 3.01613H11.6262C11.6262 2.76716 11.4296 2.5629 11.1842 2.5629V2.6629ZM10.361 2.6629H11.1842V2.5629H10.361V2.6629ZM8.44025 1.05C9.34652 1.05108 10.129 1.70698 10.312 2.6227L10.4101 2.60311C10.2181 1.64257 9.39617 0.951141 8.44037 0.95L8.44025 1.05ZM3.73647 1.05H8.44031V0.95H3.73647V1.05ZM1.86502 2.6227C2.04798 1.70707 2.83036 1.0512 3.73654 1.05L3.73641 0.95C2.7807 0.951264 1.95887 1.64267 1.76696 2.60311L1.86502 2.6227ZM0.992572 2.6629H1.81599V2.5629H0.992572V2.6629ZM0.650586 3.01613C0.650586 2.81971 0.805021 2.6629 0.992572 2.6629V2.5629C0.747147 2.5629 0.550586 2.76716 0.550586 3.01613H0.650586ZM0.650586 7.04839V3.01613H0.550586V7.04839H0.650586ZM1.7766 8.20806C1.15633 8.20735 0.651286 7.68988 0.650586 7.04833L0.550586 7.04844C0.551344 7.74245 1.09844 8.30728 1.77649 8.30806L1.7766 8.20806ZM1.82654 8.66129V8.25806H1.72654V8.66129H1.82654ZM0.992572 8.71129H1.77654V8.61129H0.992572V8.71129ZM0.650586 9.06452C0.650586 8.86809 0.805021 8.71129 0.992572 8.71129V8.61129C0.747147 8.61129 0.550586 8.81555 0.550586 9.06452H0.650586ZM0.650586 13.0968V9.06452H0.550586V13.0968H0.650586ZM1.7766 14.2565C1.15633 14.2557 0.651286 13.7383 0.650586 13.0967L0.550586 13.0968C0.551344 13.7908 1.09844 14.3557 1.77649 14.3565L1.7766 14.2565ZM1.82654 14.7097V14.3065H1.72654V14.7097H1.82654ZM0.992572 14.7597H1.77654V14.6597H0.992572V14.7597ZM0.650586 15.1129C0.650586 14.9165 0.805021 14.7597 0.992572 14.7597V14.6597C0.747147 14.6597 0.550586 14.8639 0.550586 15.1129H0.650586ZM0.650586 19.1452V15.1129H0.550586V19.1452H0.650586ZM1.7766 20.3048C1.15633 20.3041 0.651286 19.7866 0.650586 19.1451L0.550586 19.1452C0.551344 19.8392 1.09844 20.4041 1.77649 20.4048L1.7766 20.3048ZM1.81599 20.3048H1.77654V20.4048H1.81599V20.3048ZM3.73654 21.9177C2.83036 21.9165 2.04798 21.2607 1.86502 20.345L1.76696 20.3646C1.95887 21.3251 2.7807 22.0165 3.73641 22.0177L3.73654 21.9177ZM4.52045 21.9177H3.73647V22.0177H4.52045V21.9177ZM4.57045 25.5968V21.9677H4.47045V25.5968H4.57045ZM4.91243 25.95C4.72488 25.95 4.57045 25.7932 4.57045 25.5968H4.47045C4.47045 25.8457 4.66701 26.05 4.91243 26.05V25.95ZM7.26435 25.95H4.91243V26.05H7.26435V25.95ZM7.60633 25.5968C7.60633 25.7932 7.4519 25.95 7.26435 25.95V26.05C7.50977 26.05 7.70634 25.8457 7.70634 25.5968H7.60633ZM7.60633 21.9677V25.5968H7.70634V21.9677H7.60633ZM8.44031 21.9177H7.65633V22.0177H8.44031V21.9177ZM10.312 20.345C10.129 21.2608 9.34652 21.9167 8.44025 21.9177L8.44037 22.0177C9.39617 22.0166 10.2181 21.3252 10.4101 20.3646L10.312 20.345ZM10.4002 20.3048H10.361V20.4048H10.4002V20.3048ZM11.5262 19.1451C11.5255 19.7866 11.0205 20.3041 10.4002 20.3048L10.4003 20.4048C11.0783 20.4041 11.6254 19.8392 11.6262 19.1452L11.5262 19.1451ZM11.5262 15.1129V19.1452H11.6262V15.1129H11.5262ZM11.1842 14.7597C11.3718 14.7597 11.5262 14.9165 11.5262 15.1129H11.6262C11.6262 14.8639 11.4296 14.6597 11.1842 14.6597V14.7597ZM10.4002 14.7597H11.1842V14.6597H10.4002V14.7597ZM10.3502 14.3065V14.7097H10.4502V14.3065H10.3502ZM11.5262 13.0967C11.5255 13.7383 11.0205 14.2557 10.4002 14.2565L10.4003 14.3565C11.0783 14.3557 11.6254 13.7908 11.6262 13.0968L11.5262 13.0967ZM11.5262 9.06452V13.0968H11.6262V9.06452H11.5262ZM11.1842 8.71129C11.3718 8.71129 11.5262 8.86809 11.5262 9.06452H11.6262C11.6262 8.81555 11.4296 8.61129 11.1842 8.61129V8.71129ZM10.4002 8.71129H11.1842V8.61129H10.4002V8.71129ZM10.3502 8.25806V8.66129H10.4502V8.25806H10.3502ZM11.5262 7.04833C11.5255 7.68988 11.0205 8.20735 10.4002 8.20806L10.4003 8.30806C11.0783 8.30728 11.6254 7.74245 11.6262 7.04844L11.5262 7.04833ZM10.4003 7.50161C10.6456 7.50133 10.842 7.29727 10.8422 7.04844L10.7422 7.04833C10.742 7.24469 10.5877 7.4014 10.4002 7.40161L10.4003 7.50161ZM10.3502 3.41935V7.45161H10.4502V3.41935H10.3502ZM10.7922 3.36935H10.4002V3.46935H10.7922V3.36935ZM10.8422 7.04839V3.41935H10.7422V7.04839H10.8422ZM1.43456 7.04839V3.41935H1.33456V7.04839H1.43456ZM1.7766 7.40161C1.5891 7.4014 1.43477 7.24469 1.43456 7.04833L1.33456 7.04844C1.33483 7.29727 1.53121 7.50133 1.77649 7.50161L1.7766 7.40161ZM1.72654 3.41935V7.45161H1.82654V3.41935H1.72654ZM1.38456 3.46935H1.77654V3.36935H1.38456V3.46935ZM1.33456 9.46774V13.0968H1.43456V9.46774H1.33456ZM1.77654 9.41774H1.38456V9.51774H1.77654V9.41774ZM1.82654 13.5V9.46774H1.72654V13.5H1.82654ZM1.33456 13.0968C1.33483 13.3457 1.53121 13.5497 1.77649 13.55L1.7766 13.45C1.5891 13.4498 1.43477 13.2931 1.43456 13.0967L1.33456 13.0968ZM1.43456 19.1452V15.5161H1.33456V19.1452H1.43456ZM1.7766 19.4984C1.5891 19.4982 1.43477 19.3415 1.43456 19.1451L1.33456 19.1452C1.33483 19.394 1.53121 19.5981 1.77649 19.5984L1.7766 19.4984ZM1.72654 15.5161V19.5484H1.82654V15.5161H1.72654ZM1.38456 15.5661H1.77654V15.4661H1.38456V15.5661ZM5.30442 25.2435H6.87236V25.1435H5.30442V25.2435ZM5.25442 21.9677V25.1935H5.35442V21.9677H5.25442ZM6.87236 21.9177H5.30442V22.0177H6.87236V21.9177ZM6.92236 25.1935V21.9677H6.82236V25.1935H6.92236ZM8.44031 21.1113H3.73647V21.2113H8.44031V21.1113ZM9.56627 19.9516C9.56556 20.5931 9.06052 21.1106 8.44025 21.1113L8.44036 21.2113C9.11842 21.2105 9.66551 20.6457 9.66627 19.9517L9.56627 19.9516ZM9.56627 3.01613V19.9516H9.66627V3.01613H9.56627ZM8.44025 1.85645C9.06052 1.85717 9.56556 2.37464 9.56627 3.01618L9.66627 3.01607C9.66551 2.32207 9.11842 1.75724 8.44036 1.75645L8.44025 1.85645ZM3.73647 1.85645H8.44031V1.75645H3.73647V1.85645ZM2.61052 3.01618C2.61122 2.37464 3.11626 1.85717 3.73653 1.85645L3.73642 1.75645C3.05837 1.75724 2.51127 2.32207 2.51052 3.01607L2.61052 3.01618ZM2.61052 19.9516V3.01613H2.51052V19.9516H2.61052ZM3.73653 21.1113C3.11626 21.1106 2.61122 20.5931 2.61052 19.9516L2.51052 19.9517C2.51127 20.6457 3.05837 21.2105 3.73642 21.2113L3.73653 21.1113ZM10.8422 19.1452V15.5161H10.7422V19.1452H10.8422ZM10.4003 19.5984C10.6456 19.5981 10.842 19.394 10.8422 19.1452L10.7422 19.1451C10.742 19.3415 10.5877 19.4982 10.4002 19.4984L10.4003 19.5984ZM10.3502 15.5161V19.5484H10.4502V15.5161H10.3502ZM10.7922 15.4661H10.4002V15.5661H10.7922V15.4661ZM10.7422 9.46774V13.0968H10.8422V9.46774H10.7422ZM10.4002 9.51774H10.7922V9.41774H10.4002V9.51774ZM10.4502 13.5V9.46774H10.3502V13.5H10.4502ZM10.7422 13.0967C10.742 13.2931 10.5877 13.4498 10.4002 13.45L10.4003 13.55C10.6456 13.5497 10.842 13.3457 10.8422 13.0968L10.7422 13.0967Z" fill="white"/>
</svg>
