<svg width="44" height="52" viewBox="0 0 44 52" fill="none" xmlns="http://www.w3.org/2000/svg">
<path fill-rule="evenodd" clip-rule="evenodd" d="M22.7456 1.1493L41.8012 9.09628C42.527 9.39901 43 10.1107 43 10.9001V20.5607C43 33.8629 34.9956 45.8284 22.7348 50.8552C22.2638 51.0482 21.7361 51.0482 21.2652 50.8552C9.00421 45.8283 1 33.8628 1 20.5607V10.9001C1 10.1107 1.47308 9.39901 2.19885 9.09628L21.2544 1.1493C21.7317 0.950183 22.2682 0.950281 22.7456 1.1493ZM22 46.9254C32.5 42.2787 39.1111 31.8688 39.1111 20.5607V12.204L22 5.06786L4.88889 12.204V20.5607C4.88889 32.1753 11.7806 42.4028 22 46.9254Z" fill="#022B69"/>
<path d="M41.8012 9.09628L41.9936 8.6348L41.9936 8.6348L41.8012 9.09628ZM22.7456 1.1493L22.9381 0.687827L22.938 0.687808L22.7456 1.1493ZM22.7348 50.8552L22.9244 51.3178L22.9245 51.3178L22.7348 50.8552ZM21.2652 50.8552L21.0755 51.3178L21.0755 51.3178L21.2652 50.8552ZM2.19885 9.09628L2.00639 8.6348L2.00636 8.63481L2.19885 9.09628ZM21.2544 1.1493L21.4469 1.61078L21.4469 1.61075L21.2544 1.1493ZM22 46.9254L21.7977 47.3826L22 47.4722L22.2023 47.3826L22 46.9254ZM39.1111 12.204H39.6111V11.8708L39.3036 11.7425L39.1111 12.204ZM22 5.06786L22.1925 4.60638L22 4.52612L21.8075 4.60638L22 5.06786ZM4.88889 12.204L4.69643 11.7425L4.38889 11.8708V12.204H4.88889ZM41.9936 8.6348L22.9381 0.687827L22.5531 1.61078L41.6087 9.55775L41.9936 8.6348ZM43.5 10.9001C43.5 9.90995 42.9066 9.0156 41.9936 8.6348L41.6087 9.55775C42.1474 9.78242 42.5 10.3115 42.5 10.9001H43.5ZM43.5 20.5607V10.9001H42.5V20.5607H43.5ZM22.9245 51.3178C35.3739 46.2137 43.5 34.0647 43.5 20.5607H42.5C42.5 33.661 34.6173 45.4431 22.5451 50.3925L22.9245 51.3178ZM21.0755 51.3178C21.668 51.5607 22.3319 51.5607 22.9244 51.3178L22.5452 50.3925C22.1956 50.5358 21.8043 50.5358 21.4549 50.3925L21.0755 51.3178ZM0.5 20.5607C0.5 34.0646 8.62586 46.2136 21.0755 51.3178L21.4549 50.3925C9.38255 45.443 1.5 33.6609 1.5 20.5607H0.5ZM0.5 10.9001V20.5607H1.5V10.9001H0.5ZM2.00636 8.63481C1.09348 9.0156 0.5 9.90992 0.5 10.9001H1.5C1.5 10.3115 1.85269 9.78242 2.39134 9.55774L2.00636 8.63481ZM21.0619 0.687827L2.00639 8.6348L2.3913 9.55775L21.4469 1.61078L21.0619 0.687827ZM22.938 0.687808C22.3376 0.437477 21.6624 0.437302 21.0619 0.687855L21.4469 1.61075C21.8009 1.46306 22.1989 1.46308 22.5532 1.6108L22.938 0.687808ZM38.6111 20.5607C38.6111 31.6743 32.1137 41.9029 21.7977 46.4682L22.2023 47.3826C32.8863 42.6545 39.6111 32.0634 39.6111 20.5607H38.6111ZM38.6111 12.204V20.5607H39.6111V12.204H38.6111ZM21.8075 5.52934L38.9187 12.6655L39.3036 11.7425L22.1925 4.60638L21.8075 5.52934ZM5.08135 12.6655L22.1925 5.52934L21.8075 4.60638L4.69643 11.7425L5.08135 12.6655ZM5.38889 20.5607V12.204H4.38889V20.5607H5.38889ZM22.2023 46.4682C12.1613 42.0246 5.38889 31.9746 5.38889 20.5607H4.38889C4.38889 32.3759 11.3998 42.7811 21.7977 47.3826L22.2023 46.4682Z" fill="white"/>
<path fill-rule="evenodd" clip-rule="evenodd" d="M19.8508 27.1441L28.2084 18.7493C28.9677 17.9866 30.1988 17.9865 30.9582 18.7493C31.7176 19.5121 31.7175 20.7487 30.9581 21.5114L21.2257 31.2873C20.4662 32.0502 19.2351 32.0499 18.4759 31.2873L13.0417 25.8289C12.2823 25.0661 12.2823 23.8295 13.0417 23.0668C13.8011 22.3041 15.0322 22.304 15.7916 23.0668L19.8508 27.1441Z" fill="#0066F5"/>
</svg>
