<svg width="47" height="47" viewBox="0 0 47 47" fill="none" xmlns="http://www.w3.org/2000/svg">
<g id="Group 27">
<path id="Combined Shape" fill-rule="evenodd" clip-rule="evenodd" d="M5 0C2.23858 0 0 2.23858 0 5V42C0 44.7614 2.23858 47 5 47H42C44.7614 47 47 44.7614 47 42V5C47 2.23858 44.7614 0 42 0H5ZM23.7428 20.2951C20.4093 20.0207 17.3416 18.3949 15.2738 15.807C14.1061 17.7039 14.5213 20.1558 16.251 21.5774C15.5627 21.4938 14.8982 21.2758 14.2966 20.9363C14.5782 22.8876 15.971 24.5075 17.8797 25.1038C17.255 25.3327 16.5916 25.4415 15.9253 25.4244C16.6611 26.9649 18.1254 28.0458 19.834 28.3096C17.9555 29.3831 15.8172 29.9369 13.6452 29.9125C15.6767 31.2165 18.0607 31.8869 20.4855 31.836C23.7411 31.7541 26.8245 30.379 29.0335 28.0238C31.2425 25.6686 32.3889 22.5338 32.2118 19.3334C33.2428 18.9106 34.0624 18.104 34.4919 17.0893C33.8095 17.5124 33.0184 17.7348 32.2118 17.7305C32.9977 17.186 33.5721 16.3946 33.8405 15.4864C33.1068 16.0868 32.1885 16.4257 31.2346 16.4481C30.3883 15.5773 29.2004 15.1097 27.9773 15.1658C26.6624 15.1308 25.4057 15.6991 24.5762 16.7038C23.7467 17.7086 23.4388 19.0356 23.7428 20.2951Z" fill="#0066F5"/>
</g>
</svg>
