<svg width="32" height="26" viewBox="0 0 32 26" fill="none" xmlns="http://www.w3.org/2000/svg">
<path fill-rule="evenodd" clip-rule="evenodd" d="M2.68359 1.12929C5.78328 5.00873 10.3818 7.44572 15.3789 7.85715C14.9232 5.96909 15.3848 3.9798 16.6282 2.47368C17.8716 0.967547 19.7555 0.115622 21.7266 0.16817C23.56 0.0840131 25.3407 0.785029 26.6094 2.09041C28.0393 2.05673 29.4158 1.54871 30.5156 0.648731C30.1133 2.01022 29.2523 3.19651 28.0742 4.01266C29.2833 4.0192 30.4691 3.68575 31.4922 3.05154C30.8482 4.57261 29.6197 5.78168 28.0742 6.41546C28.3397 11.2131 26.6211 15.9122 23.3098 19.4427C19.9985 22.9732 15.3764 25.0346 10.4961 25.1573C6.8612 25.2336 3.28751 24.2286 0.242188 22.274C3.49814 22.3105 6.7036 21.4803 9.51953 19.8712C6.95822 19.4757 4.76311 17.8554 3.66016 15.5461C4.65896 15.5718 5.65349 15.4087 6.58984 15.0656C3.72865 14.1717 1.64091 11.7433 1.21875 8.81827C2.12061 9.3273 3.11663 9.65406 4.14844 9.77939C1.55561 7.6483 0.933183 3.97281 2.68359 1.12929Z" fill="white"/>
</svg>
