<svg width="114" height="74" viewBox="0 0 114 74" fill="none" xmlns="http://www.w3.org/2000/svg">
<circle cx="56.5567" cy="17.2897" r="17.213" fill="#0066F5"/>
<circle cx="90.9823" cy="32.0436" r="12.2948" fill="#0066F5"/>
<circle cx="22.4804" cy="32.0436" r="12.2948" fill="#0066F5"/>
<path d="M56.5567 39.4205C38.9306 39.4205 24.5898 53.7613 24.5898 71.3874C24.5898 72.7447 25.6915 73.8464 27.0489 73.8464H86.0645C87.4218 73.8464 88.5235 72.7447 88.5235 71.3874C88.5235 53.7613 74.1828 39.4205 56.5567 39.4205Z" fill="#0066F5"/>
<path d="M26.7193 49.7877C25.2144 49.468 23.6848 49.2566 22.1308 49.2566C9.92937 49.2566 0 59.186 0 71.3874C0 72.7448 1.1017 73.8465 2.45906 73.8465H20.1243C19.8488 73.0744 19.6718 72.2531 19.6718 71.3874C19.6718 63.3171 22.3079 55.8663 26.7193 49.7877Z" fill="#0066F5"/>
<path d="M90.982 49.2566C89.428 49.2566 87.8985 49.468 86.3936 49.7877C90.805 55.8663 93.4411 63.3171 93.4411 71.3874C93.4411 72.2531 93.264 73.0742 92.9885 73.8465H110.654C112.011 73.8465 113.113 72.7448 113.113 71.3874C113.113 59.186 103.183 49.2566 90.982 49.2566Z" fill="#0066F5"/>
</svg>
