<svg width="138" height="43" viewBox="0 0 138 43" fill="none" xmlns="http://www.w3.org/2000/svg">
<path fill-rule="evenodd" clip-rule="evenodd" d="M43 21.5C43 33.3741 33.3741 43 21.5 43C9.62588 43 0 33.3741 0 21.5C0 9.62588 9.62588 0 21.5 0C33.3741 0 43 9.62588 43 21.5ZM40.85 21.5C40.85 32.1867 32.1867 40.85 21.5 40.85C10.8133 40.85 2.15 32.1867 2.15 21.5C2.15 10.8133 10.8133 2.15 21.5 2.15C32.1867 2.15 40.85 10.8133 40.85 21.5ZM13.8409 20.7976C13.616 20.5974 13.4069 20.4112 13.3289 20.5238C13.1607 20.7661 13.2899 20.9708 13.4062 21.155C13.4837 21.2778 13.5555 21.3915 13.5295 21.5011C13.3968 22.0618 13.8205 22.2475 14.1483 22.3911C14.2065 22.4166 14.2618 22.4408 14.3103 22.4655C14.3757 22.4989 14.447 22.5296 14.5192 22.5607C14.7424 22.6569 14.9734 22.7564 15.0599 22.9475C15.1674 23.1849 14.9762 23.6017 14.8752 23.6605C14.3981 23.9378 14.4921 24.2688 14.7292 24.5825C14.9734 24.9056 15.1841 25.1636 15.3824 25.4064C15.7236 25.8242 16.0282 26.1973 16.4044 26.7801C16.9343 27.0293 17.2824 27.9637 17.5868 28.7806C17.6217 28.8745 17.6561 28.9668 17.6902 29.0564C17.7028 30.2819 17.9719 30.4687 19.2103 30.563C19.2567 30.5665 19.3029 30.5695 19.3493 30.5703C19.4057 30.5715 19.4609 30.5724 19.515 30.5732C20.1965 30.5833 20.6887 30.5907 21.1135 31.3326C21.1723 31.4348 21.5741 31.5538 21.7031 31.5823C22.5276 31.7636 23.0599 31.993 23.6333 32.601C24.9887 33.0878 25.4925 33.6365 25.832 35.2122C26.2913 35.4163 26.3756 35.7669 26.4382 36.0276C26.4881 36.2351 26.5243 36.3857 26.725 36.3601C27.5873 36.2508 28.6291 36.1346 29.6817 36.0172C30.8707 35.8846 32.0735 35.7505 33.0468 35.6228C33.7868 35.5259 33.82 35.3168 33.4475 34.662C33.2651 34.3412 33.2022 34.0419 33.2078 33.6668C33.2102 33.5065 33.2756 33.3235 33.342 33.1376C33.4215 32.9151 33.5025 32.6884 33.4789 32.4915C33.4365 32.1385 33.6465 31.7741 33.861 31.402C33.9897 31.1786 34.1201 30.9524 34.1983 30.7243C34.0637 30.372 33.8662 30.1383 33.652 29.8849C33.5068 29.7131 33.3539 29.5323 33.2078 29.2993C33.1494 29.2062 33.0908 29.0934 33.0286 28.9738C32.8912 28.7095 32.7366 28.4121 32.5301 28.2218C31.2169 27.0122 29.873 25.761 28.5169 24.4984C25.8201 21.9875 23.0748 19.4316 20.4256 17.0675C20.0387 16.7224 19.9006 16.3804 19.9156 15.872C19.9905 13.3249 20.1506 7.76799 20.1506 7.44575C18.4961 7.37877 16.7371 7.29504 14.9948 7.21211C13.291 7.13101 11.6032 7.05068 10.0447 6.9875C9.96748 6.9875 9.92871 7.03597 9.92165 7.10206C9.91167 7.19224 9.91578 7.47043 9.94868 7.55003C10.4775 8.81699 9.88177 10.0475 9.33149 11.1841L9.31888 11.2102C9.02866 11.8097 9.07154 12.0294 9.55799 12.557C10.1114 13.1571 10.6087 14.1609 10.5482 15.085C10.4886 15.9968 10.7209 17.1906 11.6374 17.7038C12.0225 17.9191 12.1578 18.3594 12.2834 18.7685C12.3128 18.864 12.3416 18.9579 12.373 19.0468C12.5636 19.5867 13.2766 20.1939 13.4475 19.9492C13.5214 19.8435 13.5968 19.5991 13.6682 19.3679C13.7621 19.0638 13.8489 18.7826 13.9158 18.8694C13.9719 18.9422 13.9585 19.144 13.9428 19.3804C13.9255 19.6401 13.9054 19.9415 13.9719 20.159C14.0565 20.4361 14.2019 20.6829 14.3079 20.8628C14.4186 21.0507 14.4861 21.1654 14.3961 21.1648C14.2523 21.1638 14.0404 20.9752 13.8409 20.7976Z" fill="#9AA7BA"/>
<path d="M59.12 6.8H56.608L53.648 15.28L50.704 6.8H48.176L52.32 18H54.992L59.12 6.8ZM61.0005 17.648C61.6565 18.032 62.4245 18.224 63.2885 18.224C64.1525 18.224 64.9045 18.048 65.5765 17.664C66.2485 17.28 66.7605 16.768 67.1125 16.112C67.4645 15.456 67.6565 14.72 67.6565 13.92C67.6565 13.12 67.4645 12.4 67.1125 11.744C66.7605 11.088 66.2485 10.576 65.5765 10.192C64.9045 9.808 64.1525 9.616 63.2885 9.616C62.4245 9.616 61.6565 9.808 61.0005 10.192C60.3285 10.576 59.8165 11.088 59.4645 11.744C59.1125 12.4 58.9365 13.12 58.9365 13.92C58.9365 14.72 59.1125 15.456 59.4645 16.096C59.8165 16.752 60.3285 17.264 61.0005 17.648ZM64.7765 15.568C64.4085 15.984 63.9125 16.176 63.2885 16.176C62.6485 16.176 62.1525 15.984 61.7845 15.568C61.4165 15.152 61.2405 14.608 61.2405 13.92C61.2405 13.248 61.4165 12.704 61.7845 12.288C62.1525 11.872 62.6485 11.664 63.2885 11.664C63.9125 11.664 64.4085 11.872 64.7765 12.288C65.1445 12.704 65.3365 13.248 65.3365 13.92C65.3365 14.608 65.1445 15.152 64.7765 15.568ZM70.605 17.488C71.053 17.904 71.789 18.112 72.781 18.112C73.373 18.112 73.917 18.048 74.413 17.904V15.968C74.061 16.064 73.693 16.096 73.309 16.096C72.893 16.096 72.605 16.032 72.445 15.888C72.285 15.744 72.205 15.488 72.205 15.12V11.824H74.381V9.84H72.205V7.44H69.933V9.84H68.445V11.824H69.933V15.472C69.933 16.4 70.157 17.072 70.605 17.488ZM83.5961 14.592C83.6281 14.32 83.6441 14.064 83.6441 13.808C83.6441 12.976 83.4681 12.24 83.1481 11.6C82.8121 10.976 82.3481 10.496 81.7401 10.144C81.1321 9.792 80.4281 9.616 79.6281 9.616C78.7961 9.616 78.0761 9.808 77.4361 10.176C76.7961 10.544 76.3161 11.056 75.9641 11.712C75.6121 12.384 75.4521 13.12 75.4521 13.952C75.4521 14.816 75.6281 15.568 75.9961 16.208C76.3481 16.848 76.8601 17.344 77.5321 17.696C78.2041 18.048 78.9721 18.224 79.8521 18.224C80.5881 18.224 81.2601 18.096 81.8521 17.84C82.4441 17.584 82.9401 17.232 83.3401 16.752L82.0441 15.408C81.5001 16 80.7961 16.288 79.9321 16.288C79.3241 16.288 78.8281 16.16 78.4601 15.872C78.0761 15.584 77.8361 15.168 77.7401 14.592H83.5961ZM78.3641 11.952C78.6841 11.68 79.1161 11.536 79.6441 11.536C80.1561 11.536 80.5721 11.68 80.8761 11.952C81.1641 12.224 81.3401 12.608 81.3881 13.12H77.7401C77.8361 12.608 78.0441 12.224 78.3641 11.952ZM93.4504 6.288H91.1784V10.992C90.9224 10.56 90.5704 10.224 90.1064 9.984C89.6264 9.744 89.1144 9.616 88.5384 9.616C87.8344 9.616 87.1944 9.808 86.6344 10.16C86.0744 10.528 85.6424 11.04 85.3224 11.696C85.0024 12.352 84.8584 13.088 84.8584 13.92C84.8584 14.752 85.0024 15.504 85.3224 16.16C85.6424 16.816 86.0744 17.328 86.6344 17.68C87.1944 18.048 87.8344 18.224 88.5384 18.224C89.1144 18.224 89.6584 18.096 90.1384 17.84C90.6184 17.584 90.9704 17.232 91.2104 16.784V18H93.4504V6.288ZM90.6984 15.568C90.3304 15.984 89.8344 16.176 89.2104 16.176C88.5704 16.176 88.0744 15.984 87.7064 15.568C87.3384 15.152 87.1624 14.608 87.1624 13.92C87.1624 13.248 87.3384 12.704 87.7064 12.288C88.0744 11.872 88.5704 11.664 89.2104 11.664C89.8344 11.664 90.3304 11.872 90.6984 12.288C91.0664 12.704 91.2584 13.248 91.2584 13.92C91.2584 14.608 91.0664 15.152 90.6984 15.568ZM106.958 11.408H108.83V9.744H107.294L107.822 7.04H105.95L105.422 9.744H103.198L103.726 7.04H101.854L101.326 9.744H99.4058V11.408H100.99L100.606 13.392H98.7338V15.056H100.27L99.7418 17.76H101.614L102.142 15.056H104.366L103.838 17.76H105.71L106.238 15.056H108.158V13.392H106.574L106.958 11.408ZM105.086 11.408L104.702 13.392H102.478L102.862 11.408H105.086ZM115.114 6.8H113.178L110.154 8.336V10.528L112.81 9.216V18H115.114V6.8ZM121.185 8.272C121.441 8.528 121.777 8.64 122.209 8.64C122.625 8.64 122.977 8.528 123.233 8.272C123.489 8.016 123.617 7.696 123.617 7.28C123.617 6.88 123.489 6.56 123.233 6.304C122.977 6.048 122.625 5.92 122.209 5.92C121.777 5.92 121.441 6.048 121.185 6.304C120.929 6.56 120.801 6.88 120.801 7.28C120.801 7.696 120.929 8.016 121.185 8.272ZM121.073 9.84V18H123.345V9.84H121.073ZM132.421 10.416C131.925 9.888 131.237 9.616 130.373 9.616C129.765 9.616 129.237 9.744 128.789 10C128.325 10.256 127.989 10.592 127.765 11.024V9.84H125.541V18H127.813V13.392C127.813 12.848 127.957 12.432 128.261 12.128C128.549 11.84 128.965 11.68 129.509 11.68C129.989 11.68 130.341 11.808 130.565 12.064C130.789 12.32 130.901 12.72 130.901 13.248V18H133.173V12.656C133.173 11.696 132.917 10.944 132.421 10.416ZM51.504 32.472C52.368 32.984 53.376 33.224 54.512 33.224C55.648 33.224 56.656 32.968 57.536 32.44C58.4 31.928 59.072 31.16 59.536 30.168L57.52 29.112C57.216 29.752 56.816 30.216 56.304 30.536C55.792 30.856 55.2 31 54.56 31C53.888 31 53.312 30.856 52.8 30.536C52.288 30.232 51.904 29.8 51.616 29.256C51.328 28.712 51.2 28.104 51.2 27.4C51.2 26.712 51.328 26.088 51.616 25.544C51.904 25 52.288 24.584 52.8 24.264C53.312 23.96 53.888 23.8 54.56 23.8C55.2 23.8 55.776 23.96 56.288 24.28C56.8 24.6 57.2 25.064 57.504 25.688L59.536 24.632C59.072 23.64 58.4 22.888 57.536 22.36C56.656 21.848 55.648 21.576 54.512 21.576C53.376 21.576 52.368 21.832 51.488 22.344C50.608 22.856 49.936 23.544 49.456 24.424C48.976 25.32 48.736 26.312 48.736 27.416C48.736 28.536 48.976 29.528 49.456 30.408C49.936 31.288 50.624 31.976 51.504 32.472ZM68.9973 24.84H66.7573V26.056C66.5173 25.608 66.1653 25.256 65.6853 25C65.2053 24.744 64.6613 24.616 64.0853 24.616C63.3813 24.616 62.7413 24.808 62.1813 25.16C61.6213 25.528 61.1893 26.04 60.8693 26.696C60.5493 27.352 60.4053 28.088 60.4053 28.92C60.4053 29.752 60.5493 30.504 60.8693 31.16C61.1893 31.816 61.6213 32.328 62.1813 32.68C62.7413 33.048 63.3813 33.224 64.0853 33.224C64.6613 33.224 65.2053 33.096 65.6853 32.84C66.1653 32.584 66.5173 32.232 66.7573 31.784V33H68.9973V24.84ZM66.2453 30.568C65.8773 30.984 65.3813 31.176 64.7573 31.176C64.1173 31.176 63.6213 30.984 63.2533 30.568C62.8853 30.152 62.7093 29.608 62.7093 28.92C62.7093 28.248 62.8853 27.704 63.2533 27.288C63.6213 26.872 64.1173 26.664 64.7573 26.664C65.3813 26.664 65.8773 26.872 66.2453 27.288C66.6133 27.704 66.8053 28.248 66.8053 28.92C66.8053 29.608 66.6133 30.152 66.2453 30.568ZM71.1661 21.288V33H73.4381V21.288H71.1661ZM75.7473 23.272C76.0033 23.528 76.3393 23.64 76.7713 23.64C77.1873 23.64 77.5393 23.528 77.7953 23.272C78.0513 23.016 78.1793 22.696 78.1793 22.28C78.1793 21.88 78.0513 21.56 77.7953 21.304C77.5393 21.048 77.1873 20.92 76.7713 20.92C76.3393 20.92 76.0033 21.048 75.7473 21.304C75.4913 21.56 75.3633 21.88 75.3633 22.28C75.3633 22.696 75.4913 23.016 75.7473 23.272ZM75.6353 24.84V33H77.9073V24.84H75.6353ZM86.9836 25.416C86.4876 24.888 85.7996 24.616 84.9356 24.616C84.3276 24.616 83.7996 24.744 83.3516 25C82.8876 25.256 82.5516 25.592 82.3276 26.024V24.84H80.1036V33H82.3756V28.392C82.3756 27.848 82.5196 27.432 82.8236 27.128C83.1116 26.84 83.5276 26.68 84.0716 26.68C84.5516 26.68 84.9036 26.808 85.1276 27.064C85.3516 27.32 85.4636 27.72 85.4636 28.248V33H87.7356V27.656C87.7356 26.696 87.4796 25.944 86.9836 25.416ZM90.5279 26.824V33H92.7999V26.824H94.9119V24.84H92.7999V24.104C92.7999 23.768 92.8799 23.512 93.0719 23.352C93.2639 23.192 93.5679 23.112 93.9999 23.112C94.2559 23.112 94.5599 23.144 94.9119 23.208V21.288C94.4319 21.192 93.9679 21.144 93.5359 21.144C91.5199 21.144 90.5279 22.056 90.5279 23.864V24.84H89.0239V26.824H90.5279ZM97.6724 32.648C98.3284 33.032 99.0964 33.224 99.9604 33.224C100.824 33.224 101.576 33.048 102.248 32.664C102.92 32.28 103.432 31.768 103.784 31.112C104.136 30.456 104.328 29.72 104.328 28.92C104.328 28.12 104.136 27.4 103.784 26.744C103.432 26.088 102.92 25.576 102.248 25.192C101.576 24.808 100.824 24.616 99.9604 24.616C99.0964 24.616 98.3284 24.808 97.6724 25.192C97.0004 25.576 96.4884 26.088 96.1364 26.744C95.7844 27.4 95.6084 28.12 95.6084 28.92C95.6084 29.72 95.7844 30.456 96.1364 31.096C96.4884 31.752 97.0004 32.264 97.6724 32.648ZM101.448 30.568C101.08 30.984 100.584 31.176 99.9604 31.176C99.3204 31.176 98.8244 30.984 98.4564 30.568C98.0884 30.152 97.9124 29.608 97.9124 28.92C97.9124 28.248 98.0884 27.704 98.4564 27.288C98.8244 26.872 99.3204 26.664 99.9604 26.664C100.584 26.664 101.08 26.872 101.448 27.288C101.816 27.704 102.008 28.248 102.008 28.92C102.008 29.608 101.816 30.152 101.448 30.568ZM111.306 24.792C111.114 24.728 110.874 24.68 110.618 24.68C110.074 24.68 109.594 24.824 109.178 25.08C108.762 25.352 108.442 25.72 108.25 26.184V24.84H106.026V33H108.298V29.048C108.298 28.28 108.458 27.736 108.778 27.384C109.098 27.032 109.61 26.856 110.314 26.856C110.634 26.856 110.954 26.888 111.306 26.952V24.792ZM119.64 25.416C119.144 24.888 118.456 24.616 117.592 24.616C116.984 24.616 116.456 24.744 116.008 25C115.544 25.256 115.208 25.592 114.984 26.024V24.84H112.76V33H115.032V28.392C115.032 27.848 115.176 27.432 115.48 27.128C115.768 26.84 116.184 26.68 116.728 26.68C117.208 26.68 117.56 26.808 117.784 27.064C118.008 27.32 118.12 27.72 118.12 28.248V33H120.392V27.656C120.392 26.696 120.136 25.944 119.64 25.416ZM122.638 23.272C122.894 23.528 123.23 23.64 123.662 23.64C124.078 23.64 124.43 23.528 124.686 23.272C124.942 23.016 125.07 22.696 125.07 22.28C125.07 21.88 124.942 21.56 124.686 21.304C124.43 21.048 124.078 20.92 123.662 20.92C123.23 20.92 122.894 21.048 122.638 21.304C122.382 21.56 122.254 21.88 122.254 22.28C122.254 22.696 122.382 23.016 122.638 23.272ZM122.526 24.84V33H124.798V24.84H122.526ZM135.122 24.84H132.882V26.056C132.642 25.608 132.29 25.256 131.81 25C131.33 24.744 130.786 24.616 130.21 24.616C129.506 24.616 128.866 24.808 128.306 25.16C127.746 25.528 127.314 26.04 126.994 26.696C126.674 27.352 126.53 28.088 126.53 28.92C126.53 29.752 126.674 30.504 126.994 31.16C127.314 31.816 127.746 32.328 128.306 32.68C128.866 33.048 129.506 33.224 130.21 33.224C130.786 33.224 131.33 33.096 131.81 32.84C132.29 32.584 132.642 32.232 132.882 31.784V33H135.122V24.84ZM132.37 30.568C132.002 30.984 131.506 31.176 130.882 31.176C130.242 31.176 129.746 30.984 129.378 30.568C129.01 30.152 128.834 29.608 128.834 28.92C128.834 28.248 129.01 27.704 129.378 27.288C129.746 26.872 130.242 26.664 130.882 26.664C131.506 26.664 132.002 26.872 132.37 27.288C132.738 27.704 132.93 28.248 132.93 28.92C132.93 29.608 132.738 30.152 132.37 30.568Z" fill="#9AA7BA"/>
</svg>
